<svg width="50" height="25" viewBox="0 0 50 25" fill="none" xmlns="http://www.w3.org/2000/svg">
<path d="M46.4935 10.3295C44.8905 9.35107 41.3836 8.49577 37.0747 7.88444L27.0541 1.28234L26.954 1.16009C24.95 -0.0624544 23.046 -0.184698 20.5411 0.181628C19.0383 0.425711 17.535 0.792897 15.9321 1.28192C12.6257 2.26038 9.11848 3.84925 6.21239 5.56076H4.4089C2.7055 5.56076 1.40281 6.41611 0.601289 7.88359C0.300644 8.49529 0 9.35149 0 10.2073V16.8094C0 18.0319 0.300644 18.8878 0.600941 19.6217C0.701039 19.7439 0.801486 19.9888 0.901585 20.1107C1.70307 21.211 2.90561 21.5777 4.10821 21.5777C3.70712 19.3767 4.30875 17.0544 5.61107 15.3428C6.61313 14.1202 8.01626 13.3866 9.61922 13.3866C11.2222 13.3866 12.6253 14.1202 13.6274 15.3428C14.93 16.9325 15.5313 19.2549 15.1302 21.5777H33.3669C32.9658 19.3767 33.5675 17.0544 34.8698 15.3428C35.8719 14.1202 37.275 13.3866 38.8779 13.3866C40.4809 13.3866 41.884 14.1202 42.8861 15.3428C44.1888 16.9325 44.79 19.2549 44.3889 21.5777H44.8898C46.6933 21.5777 47.4948 21.3336 47.8959 19.7439C48.4968 17.5429 50 16.4431 50 14.7315C50 14.3644 49.8999 13.998 49.6994 13.6312C49.0984 12.1633 47.3954 10.9407 46.4935 10.3295ZM31.764 7.27279L10.5219 5.80577C10.3213 5.80577 10.3213 5.56169 10.4218 5.43858C13.1272 3.97155 18.3379 2.50453 20.9433 2.13769C22.6467 1.89361 24.5503 2.25995 25.8533 2.99304L31.8655 6.90515C32.0653 7.02868 31.9652 7.27276 31.7647 7.27276L31.764 7.27279ZM38.8786 15.2197C36.6741 15.2197 34.8705 17.4207 34.8705 20.1098C34.8705 22.7994 36.674 25 38.9784 25C41.0825 25 42.8864 22.799 42.8864 20.2316C42.8868 17.5425 41.0826 15.2197 38.8786 15.2197ZM41.0826 20.8433C40.882 21.8218 40.1806 22.6771 39.3792 22.9216C37.8763 23.2888 36.4732 21.9432 36.4732 20.1094C36.4732 18.5197 37.4752 17.2972 38.7776 17.2972C40.2811 17.2984 41.4837 19.0095 41.0826 20.8434V20.8433ZM9.51991 15.2197C7.31535 15.2197 5.51177 17.4207 5.51177 20.1098C5.51177 22.7994 7.31526 25 9.61965 25C11.7238 25 13.5277 22.799 13.5277 20.2316C13.6285 17.5425 11.8243 15.2197 9.51991 15.2197ZM11.8243 20.8433C11.6238 21.8218 10.9223 22.6771 10.1209 22.9216C8.61804 23.2888 7.2149 21.9432 7.2149 20.1094C7.2149 18.5197 8.21696 17.2972 9.51929 17.2972C11.0229 17.2984 12.2255 19.0095 11.8243 20.8434V20.8433Z" fill="#CB333B"/>
</svg>
