<svg width="50" height="40" viewBox="0 0 50 40" fill="none" xmlns="http://www.w3.org/2000/svg">
<g clip-path="url(#clip0_1_5)">
<path d="M0.832823 4.21707H6.56203V0.74925C6.56203 0.335594 6.93521 0 7.39521 0H11.5619C12.0219 0 12.3951 0.335594 12.3951 0.74925V4.21707H37.6046V0.74925C37.6046 0.335594 37.9778 0 38.4377 0H42.6044C43.0644 0 43.4376 0.335594 43.4376 0.74925V4.21707H49.1668C49.6268 4.21707 50 4.55266 50 4.96632V7.40229C50 7.81594 49.6268 8.15154 49.1668 8.15154H47.9659V36.0655H49.1668C49.6268 36.0655 50 36.4011 50 36.8148V39.2508C50 39.6644 49.6268 40 49.1668 40H0.83318C0.373187 40 0 39.6644 0 39.2508V36.8148C0 36.4011 0.373187 36.0655 0.83318 36.0655H2.03259V8.15154H0.83318C0.373187 8.15154 0 7.81594 0 7.40229V4.96632C0 4.55266 0.373187 4.21707 0.83318 4.21707H0.832823ZM7.11034 22.8573C6.65035 22.8573 6.27716 22.5217 6.27716 22.1081C6.27716 21.6944 6.65035 21.3588 7.11034 21.3588H11.6379C12.0978 21.3588 12.471 21.6944 12.471 22.1081C12.471 22.5217 12.0978 22.8573 11.6379 22.8573H7.11034ZM41.4588 24.1436C41.4588 24.5573 41.0856 24.8928 40.6256 24.8928C40.1656 24.8928 39.7924 24.5573 39.7924 24.1436V22.8573H38.362C37.9021 22.8573 37.5289 22.5217 37.5289 22.1081C37.5289 21.6944 37.9021 21.3588 38.362 21.3588H39.7924V20.0725C39.7924 19.6589 40.1656 19.3233 40.6256 19.3233C41.0856 19.3233 41.4588 19.6589 41.4588 20.0725V21.3588H42.8891C43.3491 21.3588 43.7223 21.6944 43.7223 22.1081C43.7223 22.5217 43.3491 22.8573 42.8891 22.8573H41.4588V24.1436ZM30.1055 12.0231L27.8734 19.8393L30.941 20.9629C31.3669 21.1176 31.5723 21.5546 31.4003 21.9376C31.3642 22.0178 31.3142 22.0892 31.2538 22.1512L21.3222 32.914C21.0296 33.2321 20.5041 33.2764 20.1503 33.0129C19.876 32.8087 19.7849 32.479 19.8946 32.1933L22.1267 24.3759L19.059 23.2524C18.6332 23.0977 18.4278 22.6607 18.5998 22.2776C18.6359 22.1975 18.6859 22.1261 18.7463 22.064L28.6779 11.3013C28.9705 10.9831 29.496 10.9389 29.8498 11.2023C30.1241 11.4066 30.2152 11.7362 30.1055 12.0227V12.0231ZM26.0854 20.1024L27.594 14.8211L20.7375 22.2508L23.423 23.2346C23.8009 23.3743 24.0183 23.7472 23.9144 24.1132L22.4058 29.3949L29.2623 21.9647L26.5767 20.981C26.1989 20.8412 25.9815 20.4683 26.0854 20.1024ZM8.2291 4.21707H10.729V1.49846H8.2291V4.21707ZM39.272 4.21707H41.7719V1.49846H39.272V4.21707ZM46.3002 8.15182H3.69971V36.0658H46.3002V8.15182ZM48.3343 37.5646H1.66735V38.5017H48.3343V37.5646ZM48.3343 5.71541H1.66735V6.6525H48.3343V5.71541Z" fill="#CB333B"/>
</g>
<defs>
<clipPath id="clip0_1_5">
<rect width="50" height="40" fill="white"/>
</clipPath>
</defs>
</svg>
