<svg width="50" height="50" viewBox="0 0 50 50" fill="none" xmlns="http://www.w3.org/2000/svg">
<g clip-path="url(#clip0_1_7)">
<path d="M26.6253 1.99011C24.8288 1.99011 23.0616 2.20948 21.3514 2.61851L21.1895 2.01981C21.0328 1.43834 20.6872 0.933035 20.2251 0.5705L20.427 0.569543H20.2237C20.1024 0.474229 19.9774 0.382752 19.8408 0.309465C19.1883 -0.0397061 18.4188 -0.0962196 17.7281 0.154283C7.68951 3.79779 0.73329 13.1944 0.00617163 24.0936C-0.0441978 24.8451 0.215579 25.5937 0.718342 26.1469C1.22531 26.7045 1.94167 27.0244 2.68323 27.0244H3.27695C3.80444 39.7849 14.0734 50 26.6259 50C39.5147 50 50 39.2315 50 25.9957C50 12.7594 39.5147 1.99133 26.6259 1.99133L26.6253 1.99011ZM2.18386 24.7413C2.11017 24.6604 1.98984 24.487 2.00663 24.2351C2.6787 14.1557 9.1121 5.46638 18.3961 2.09692C18.4716 2.06962 18.5434 2.0586 18.6087 2.0586C18.7421 2.0586 18.8503 2.10267 18.9142 2.13668C19.0844 2.22768 19.2062 2.38191 19.2575 2.5711L19.6791 4.13064C19.6796 4.13162 19.6791 4.13255 19.6796 4.13351C19.68 4.13449 19.68 4.13494 19.6805 4.1359L21.9965 12.7026C22.088 13.0408 21.9065 13.3928 21.5651 13.5389C17.1932 15.4146 14.1318 19.5744 13.5773 24.3956C13.541 24.7146 13.2513 24.9651 12.9183 24.9651H2.68291C2.49215 24.9651 2.31493 24.8856 2.18387 24.7419L2.18386 24.7413ZM26.6253 47.9401C15.1792 47.9401 5.80871 38.6492 5.28218 27.0256H12.9174C14.2718 27.0256 15.4112 25.9992 15.5683 24.638C16.038 20.5543 18.632 17.0301 22.337 15.4409C23.6041 14.8972 24.2884 13.4833 23.9283 12.1523L21.8878 4.60426C23.4236 4.2436 25.0103 4.05106 26.625 4.05106C38.4074 4.05106 47.9932 13.8952 47.9932 25.9955C47.9932 38.0961 38.4075 47.9411 26.625 47.9411L26.6253 47.9401Z" fill="#CB333B"/>
<path d="M26.6253 15.7156C21.1065 15.7156 16.6161 20.3265 16.6161 25.9946C16.6161 31.6628 21.106 36.2737 26.6253 36.2737C32.1446 36.2737 36.6345 31.6623 36.6345 25.9946C36.6345 20.3265 32.1446 15.7156 26.6253 15.7156ZM26.6253 34.8999C21.8439 34.8999 17.9537 30.9049 17.9537 25.994C17.9537 21.0837 21.8439 17.0886 26.6253 17.0886C31.4067 17.0886 35.2969 21.0837 35.2969 25.994C35.2969 30.9044 31.4067 34.8999 26.6253 34.8999Z" fill="#CB333B"/>
<path d="M23.0852 30.0358C22.4729 30.0358 21.9762 30.5459 21.9762 31.1747C21.9762 31.8036 22.4729 32.3137 23.0852 32.3137C23.6976 32.3137 24.1943 31.8036 24.1943 31.1747C24.1943 30.5454 23.6976 30.0358 23.0852 30.0358Z" fill="#CB333B"/>
<path d="M30.1666 30.0358C29.5542 30.0358 29.0575 30.5459 29.0575 31.1747C29.0575 31.8036 29.5542 32.3137 30.1666 32.3137C30.779 32.3137 31.2757 31.8036 31.2757 31.1747C31.2757 30.5454 30.779 30.0358 30.1666 30.0358Z" fill="#CB333B"/>
<path d="M31.2698 24.2336C31.2698 24.8625 31.7665 25.3726 32.3789 25.3726C32.9913 25.3726 33.488 24.8625 33.488 24.2336C33.488 23.6047 32.9913 23.0946 32.3789 23.0946C31.7665 23.0946 31.2698 23.6047 31.2698 24.2336Z" fill="#CB333B"/>
<path d="M20.8705 23.0945C20.2581 23.0945 19.7614 23.6046 19.7614 24.2335C19.7614 24.8623 20.2581 25.3725 20.8705 25.3725C21.4828 25.3725 21.9795 24.8623 21.9795 24.2335C21.9795 23.6046 21.4828 23.0945 20.8705 23.0945Z" fill="#CB333B"/>
<path d="M12.0125 24.2311C12.5069 24.2311 12.908 23.8196 12.908 23.3119C12.908 22.8042 12.5073 22.3923 12.0125 22.3923C11.5181 22.3923 11.1175 22.8038 11.1175 23.3119C11.117 23.8192 11.5181 24.2311 12.0125 24.2311Z" fill="#CB333B"/>
<path d="M20.166 13.2877C20.6604 13.2877 21.0615 12.8763 21.0615 12.3686C21.0615 11.8609 20.6609 11.449 20.166 11.449C19.6717 11.449 19.271 11.8604 19.271 12.3686C19.271 12.8763 19.6717 13.2877 20.166 13.2877Z" fill="#CB333B"/>
<path d="M18.8431 4.46435C18.8431 5.09179 18.3478 5.60045 17.7369 5.60045C17.1259 5.60045 16.6306 5.09179 16.6306 4.46435C16.6306 3.8369 17.1259 3.32825 17.7369 3.32825C18.3478 3.32825 18.8431 3.8369 18.8431 4.46435Z" fill="#CB333B"/>
<path d="M5.10549 23.0945C5.10549 22.467 4.61019 21.9584 3.99921 21.9584C3.38824 21.9584 2.89294 22.467 2.89294 23.0945C2.89294 23.7219 3.38824 24.2306 3.99921 24.2306C4.61019 24.2306 5.10549 23.7219 5.10549 23.0945Z" fill="#CB333B"/>
<path d="M26.6253 21.0737C27.2377 21.0737 27.7344 20.5636 27.7344 19.9348C27.7344 19.3059 27.2377 18.7958 26.6253 18.7958C26.0129 18.7958 25.5162 19.3059 25.5162 19.9348C25.5162 20.5636 26.0129 21.0737 26.6253 21.0737Z" fill="#CB333B"/>
<path d="M30.3122 25.9944C30.3122 23.9061 28.658 22.2072 26.6245 22.2072C24.5909 22.2072 22.9367 23.906 22.9367 25.9944C22.9367 28.0827 24.5909 29.7821 26.6245 29.7821C28.6579 29.7816 30.3122 28.0827 30.3122 25.9944ZM26.6245 28.4084C25.3284 28.4084 24.2738 27.3255 24.2738 25.994C24.2738 24.663 25.3283 23.58 26.6245 23.58C27.9205 23.58 28.9751 24.6629 28.9751 25.994C28.9751 27.3255 27.9206 28.4084 26.6245 28.4084Z" fill="#CB333B"/>
</g>
<defs>
<clipPath id="clip0_1_7">
<rect width="50" height="50" fill="white"/>
</clipPath>
</defs>
</svg>
