<svg width="60" height="50" viewBox="0 0 60 50" fill="none" xmlns="http://www.w3.org/2000/svg">
<g clip-path="url(#clip0_2_21)">
<path d="M1.45967 32.813V29.6882H9.1344L10.9475 32.0353L11.8008 30.9307L9.63412 28.1258L1.45967 28.1253V25.7602L8.42464 25.7803C8.9298 25.7803 9.37814 25.486 9.68714 24.9492C9.98645 24.4288 9.98772 23.8697 9.98814 23.4201L9.99235 22.7732C9.99783 22.1258 10.0025 21.4898 9.98814 20.3481L9.98267 19.9083L4.04409 15.4287C4.54504 14.9078 5.10746 14.474 5.71579 14.1388L5.86061 14.2772L6.03447 13.971C6.45334 13.771 6.89073 13.614 7.34666 13.5132C11.7925 12.5328 16.3117 11.948 20.78 11.7759L20.7434 10.2135C16.231 10.3884 11.6672 10.9781 7.17641 11.966L11.0362 5.18399C12.0887 3.33658 13.5823 2.35889 15.3562 2.35889H20.7606V0.796509H15.3562C13.2143 0.796509 11.3352 2.0254 10.0646 4.25805L5.68317 11.9557V8.59489L3.09037 8.59433C1.38633 8.59433 0 10.3889 0 12.5949V14.02H3.48264C1.50197 15.9574 0.252071 18.9809 0.252071 22.3389V39.5044C0.252071 41.3932 1.41435 42.931 2.84358 42.931H7.31683C8.74605 42.931 9.90833 41.3936 9.90833 39.5044V34.3751H20.7606V32.8127L9.90726 32.8133L1.45967 32.813ZM8.78545 22.7573L8.78123 23.4173C8.7808 23.7323 8.77702 23.9159 8.71893 24.0156C8.6381 24.1562 8.5476 24.2189 8.42425 24.2189V25.0004L8.42382 24.2189L1.54604 24.1977V22.8026C1.54604 20.5126 2.18254 18.372 3.34739 16.711L4.42086 17.5213C3.75867 18.13 3.32377 19.1251 3.32377 20.2532C3.32377 22.1049 4.48735 23.6112 5.9169 23.6112C7.25894 23.6112 8.353 22.281 8.4848 20.5872L8.7858 20.8145C8.79464 21.669 8.78967 22.2085 8.78545 22.7573ZM7.30406 20.2532C7.30406 21.2429 6.68187 22.0483 5.91741 22.0483C5.15294 22.0483 4.53118 21.2429 4.53118 20.2532C4.53118 19.3666 5.03129 18.6337 5.70445 18.4891L7.20222 19.6188C7.26242 19.8221 7.30406 20.0347 7.30406 20.2532ZM3.09096 10.1561H4.47762V12.457H1.20965C1.26522 11.1763 2.08779 10.1561 3.09096 10.1561ZM8.7016 35.1565H7.4947V36.7189H8.7016V37.5004H7.4947V39.0627H8.7016V39.5042C8.7016 40.5314 8.08067 41.3684 7.31699 41.3684H6.89013V37.5002H5.68323V41.3684H4.47634V37.5002H3.26944V41.3684H2.84384C2.0802 41.3684 1.45923 40.5325 1.45923 39.5042V39.0627H2.66613V37.5004H1.45923V36.7189H2.66613V35.1565H1.45923V34.375H8.70116L8.7016 35.1565Z" fill="#CB333B"/>
<path d="M13.5209 21.0941H20.7721V19.5317L12.2783 19.5311V20.3126C12.2783 24.9688 15.0798 27.3394 17.7012 28.0048C18.8193 28.2893 19.7892 28.4964 20.6673 28.6392L20.8171 27.0893C19.9672 26.9509 19.0242 26.7493 17.9335 26.4719C15.9402 25.9651 13.8193 24.2908 13.5209 21.0941Z" fill="#CB333B"/>
<path d="M58.012 0H23.9658C22.8705 0 21.9785 1.15368 21.9785 2.57174V35.7084C21.9785 37.1264 22.8705 38.2811 23.9658 38.2811H35.2556V43.7498H33.7469C32.2748 43.7498 31.0312 45.3601 31.0312 47.2653V50H50.9468V47.2653C50.9468 45.3596 49.7028 43.7498 48.2312 43.7498H46.7224V38.2811H58.0122C59.108 38.2811 59.9996 37.1263 59.9996 35.7084L60 2.57174C60 1.15375 59.1084 0 58.0126 0H58.012ZM23.9658 1.56238H58.012C58.4422 1.56238 58.7925 2.01525 58.7925 2.57166V30.4683H23.1858L23.1854 2.57166C23.1854 2.01525 23.536 1.56238 23.9658 1.56238ZM48.2309 45.313C49.0211 45.313 49.7397 46.2433 49.7397 47.2661V48.4378H32.2381V47.2661C32.2381 46.2433 32.9567 45.313 33.7469 45.313H35.2556V46.8754H46.7222V45.313H48.2309ZM45.5149 45.313H36.4623V38.2819H45.5149V45.313ZM58.0117 36.7188H23.9655C23.5353 36.7188 23.185 36.266 23.185 35.7085V32.0311H58.7917V35.7085C58.7921 36.266 58.4419 36.7188 58.0117 36.7188Z" fill="#CB333B"/>
<path d="M31.0333 25.7635L36.4895 27.6861L45.5286 23.8627L52.1711 26.2469L57.7793 23.7869L57.392 22.3068L52.1358 24.6125L45.5009 22.2311L36.4576 26.0556L31.0284 24.1422L25.5861 26.1188L25.9127 27.6229L31.0333 25.7635Z" fill="#CB333B"/>
<path d="M29.2217 5.46887H30.4286V18.7502H29.2217V5.46887Z" fill="#CB333B"/>
<path d="M27.4112 9.37512H28.6181V18.7501H27.4112V9.37512Z" fill="#CB333B"/>
<path d="M25.5996 11.7189H26.8065V18.7499H25.5996V11.7189Z" fill="#CB333B"/>
<path d="M31.0322 5.46887H32.2391V18.7502H31.0322V5.46887Z" fill="#CB333B"/>
<path d="M32.8427 14.0627H34.0496V18.7506H32.8427V14.0627Z" fill="#CB333B"/>
<path d="M54.5677 5.46887H55.7747V18.7502H54.5677V5.46887Z" fill="#CB333B"/>
<path d="M34.6522 5.46887H35.8591V18.7502H34.6522V5.46887Z" fill="#CB333B"/>
<path d="M36.4626 7.03137H37.6695V18.7503H36.4626V7.03137Z" fill="#CB333B"/>
<path d="M38.2731 9.43506H39.48V18.7502H38.2731V9.43506Z" fill="#CB333B"/>
<path d="M40.0847 5.46887H41.2916V18.7502H40.0847V5.46887Z" fill="#CB333B"/>
<path d="M41.8942 16.2711H43.1011V18.7506H41.8942V16.2711Z" fill="#CB333B"/>
<path d="M43.7047 9.37512H44.9116V18.7501H43.7047V9.37512Z" fill="#CB333B"/>
<path d="M45.5152 10.9376H46.7221V18.7502H45.5152V10.9376Z" fill="#CB333B"/>
<path d="M47.3257 7.03137H48.5326V18.7503H47.3257V7.03137Z" fill="#CB333B"/>
<path d="M49.1362 5.46887H50.3431V18.7502H49.1362V5.46887Z" fill="#CB333B"/>
<path d="M50.909 10.9376H52.1159V18.7502H50.909V10.9376Z" fill="#CB333B"/>
<path d="M52.7573 7.03137H53.9642V18.7503H52.7573V7.03137Z" fill="#CB333B"/>
</g>
<defs>
<clipPath id="clip0_2_21">
<rect width="60" height="50" fill="white"/>
</clipPath>
</defs>
</svg>
