<svg width="60" height="40" viewBox="0 0 60 40" fill="none" xmlns="http://www.w3.org/2000/svg">
<g clip-path="url(#clip0_2_44)">
<path d="M58.0848 13.3738C57.9655 12.9898 57.6002 12.7272 57.1875 12.7272H53.3036C52.785 12.7272 52.3661 13.1335 52.3661 13.6363V19.0909H50.625V15.4545C50.625 13.9508 49.3632 12.7272 47.8125 12.7272H45.4688L43.4992 10.181C43.0095 9.54907 42.0637 9.09089 41.25 9.09089H34.6875V5.45453H37.5C38.0186 5.45453 38.4375 5.04828 38.4375 4.54545V0.909089C38.4375 0.406254 38.0186 0 37.5 0H20.6251C20.1065 0 19.6876 0.406254 19.6876 0.909089V4.54545C19.6876 5.04828 20.1065 5.45453 20.6251 5.45453H23.4376V9.09089H18.7501C17.9992 9.09089 17.2924 9.37539 16.7746 9.87741L12.7471 13.6364H10.3125C8.76181 13.6364 7.49999 14.86 7.49999 16.3636V19.0909H5.62499V10.9091C5.62499 10.4063 5.20604 10 4.68749 10H0.937498C0.418949 10 0 10.4063 0 10.9091V34.5454C0 35.0483 0.418949 35.4545 0.937498 35.4545H4.68749C5.20604 35.4545 5.62499 35.0483 5.62499 34.5454V30H7.49999V32.7272C7.49999 34.2309 8.76181 35.4545 10.3125 35.4545H12.7471L16.7616 39.2009C17.2923 39.7163 17.9992 40 18.7501 40H47.8125C49.3632 40 50.625 38.7764 50.625 37.2727V34.5455H52.3661V39.0909C52.3661 39.5937 52.785 40 53.3036 40H57.1875C57.6002 40 57.9655 39.7374 58.0848 39.3535C59.3739 35.222 60 30.972 60 26.3634C60 21.7548 59.3739 17.505 58.0848 13.3733V13.3738ZM21.562 1.81846H36.562V3.63664H21.562V1.81846ZM25.312 5.45482H32.812V9.09117H25.312V5.45482ZM3.74956 33.6366H1.87457V11.8184H3.74956V33.6366ZM5.62456 28.182V20.9093H7.49956V28.182H5.62456ZM9.37455 32.7275V16.3639C9.37455 15.8623 9.79476 15.4548 10.3121 15.4548H12.187V33.6366H10.3121C9.79476 33.6366 9.37455 33.2291 9.37455 32.7275ZM18.0736 37.9028L14.062 34.1584V14.9325L18.0865 11.1752C18.2611 11.0052 18.503 10.909 18.7495 10.909H41.2494C41.4679 10.909 41.8672 11.1026 41.9994 11.2718L44.0619 13.939V38.1821H18.7495C18.503 38.1821 18.2611 38.0859 18.0736 37.9029L18.0736 37.9028ZM48.7496 37.2729C48.7496 37.7745 48.3294 38.182 47.8121 38.182H45.9371V14.5457H47.8121C48.3294 14.5457 48.7496 14.9531 48.7496 15.4547V37.2729ZM50.6246 32.7274V20.9093H52.3657V32.7274H50.6246ZM56.4847 38.182H54.2402L54.2406 14.5457H56.4852C57.5884 18.3029 58.1246 22.1767 58.1246 26.3638C58.1246 30.5509 57.5884 34.4247 56.4847 38.182Z" fill="#CB333B"/>
<path d="M29.0631 20.9094C26.9951 20.9094 25.3131 22.5405 25.3131 24.5458C25.3131 26.5511 26.9951 28.1821 29.0631 28.1821C31.1311 28.1821 32.8131 26.5511 32.8131 24.5458C32.8131 22.5405 31.1311 20.9094 29.0631 20.9094ZM29.0631 26.364C28.0289 26.364 27.1881 25.5486 27.1881 24.5458C27.1881 23.5429 28.0289 22.7276 29.0631 22.7276C30.0973 22.7276 30.9381 23.5429 30.9381 24.5458C30.9381 25.5486 30.0973 26.364 29.0631 26.364Z" fill="#CB333B"/>
<path d="M38.6802 25.73L37.4812 25.0591C37.4941 24.881 37.5008 24.7125 37.5008 24.5453C37.5008 24.3781 37.4941 24.2089 37.4812 24.0307L38.6795 23.3607C39.0339 23.1614 39.2139 22.7645 39.1264 22.3761C38.669 20.3761 37.5963 18.5799 36.0252 17.1826C35.7234 16.9143 35.2752 16.8672 34.9228 17.0653L33.7258 17.7361C33.4324 17.5462 33.1269 17.3753 32.8134 17.2223V15.8725C32.8134 15.4744 32.5472 15.1241 32.1563 15.0052C30.1529 14.396 27.974 14.396 25.9706 15.0052C25.5797 15.1237 25.3135 15.4736 25.3135 15.8717V17.2215C24.9996 17.3741 24.6957 17.545 24.4011 17.7353L23.2041 17.0644C22.8517 16.8664 22.4043 16.9135 22.1017 17.1817C20.5297 18.5799 19.457 20.3761 19.0005 22.3761C18.9122 22.7633 19.0934 23.1606 19.4475 23.3599L20.6457 24.0307C20.6328 24.2089 20.6261 24.3781 20.6261 24.5453C20.6261 24.7109 20.6328 24.8789 20.6457 25.0571L19.4467 25.728C19.0922 25.926 18.9123 26.3242 18.9997 26.7117C19.4555 28.7109 20.5278 30.508 22.0989 31.9074C22.4007 32.1764 22.8481 32.2239 23.2022 32.0255L24.4005 31.3546C24.6947 31.5454 24.9994 31.7166 25.3137 31.8692V33.219C25.3137 33.6172 25.5799 33.9674 25.9708 34.0863C26.9731 34.3907 28.0136 34.5453 29.0637 34.5453C30.1138 34.5453 31.1542 34.3907 32.1565 34.0863C32.5474 33.967 32.8136 33.6172 32.8136 33.219V31.8692C33.1267 31.7166 33.4314 31.5458 33.7268 31.3546L34.9238 32.0255C35.2762 32.2235 35.7236 32.1756 36.0262 31.9082C37.5974 30.5109 38.6692 28.7146 39.1275 26.7146C39.2149 26.3262 39.035 25.9281 38.6805 25.73L38.6802 25.73ZM35.2416 30.1025L34.1383 29.4845C33.8073 29.299 33.3938 29.327 33.0928 29.5555C32.6074 29.9228 32.0796 30.2198 31.5226 30.4402C31.1689 30.5798 30.9383 30.9126 30.9383 31.2827V32.5238C29.7091 32.7937 28.4176 32.7937 27.1883 32.5238V31.2827C27.1883 30.9126 26.9577 30.5798 26.6041 30.4402C26.047 30.2211 25.5192 29.924 25.0338 29.5555C24.7329 29.3274 24.3185 29.299 23.9883 29.4845L22.8838 30.1025C22.0149 29.1971 21.3754 28.1261 21.0033 26.9552L22.1116 26.3351C22.4426 26.1504 22.6234 25.7896 22.5711 25.4232C22.5234 25.0843 22.5008 24.8043 22.5008 24.5453C22.5008 24.2836 22.5234 24.0035 22.572 23.6663C22.6255 23.2998 22.4426 22.9382 22.1124 22.7527L21.0041 22.1318C21.3754 20.9609 22.0157 19.8907 22.8858 18.9865L23.989 19.6046C24.3201 19.7901 24.7353 19.7629 25.0353 19.5328C25.5183 19.1675 26.0448 18.8701 26.604 18.6501C26.9577 18.5109 27.1883 18.1781 27.1883 17.808V16.5669C28.4175 16.297 29.709 16.297 30.9383 16.5669V17.808C30.9383 18.1781 31.1689 18.5109 31.5225 18.6505C32.0796 18.8697 32.6073 19.1667 33.0919 19.534C33.3929 19.7621 33.8064 19.7905 34.1374 19.605L35.2407 18.9869C36.1095 19.8908 36.749 20.9606 37.1223 22.1322L36.014 22.7523C35.683 22.9378 35.5013 23.2994 35.5545 23.6659C35.603 24.0027 35.6256 24.2828 35.6256 24.5453C35.6256 24.8071 35.603 25.0863 35.5545 25.4236C35.5009 25.79 35.6838 26.1517 36.014 26.3371L37.1232 26.9581C36.7498 28.1282 36.1104 29.1991 35.2416 30.1025Z" fill="#CB333B"/>
</g>
<defs>
<clipPath id="clip0_2_44">
<rect width="60" height="40" fill="white"/>
</clipPath>
</defs>
</svg>
