<svg width="50" height="60" viewBox="0 0 50 60" fill="none" xmlns="http://www.w3.org/2000/svg">
<g clip-path="url(#clip0_2_49)">
<path fill-rule="evenodd" clip-rule="evenodd" d="M40.9019 49.81L38.2696 58.0001H32.3071L32.786 56.2461C32.7981 56.1979 32.7872 56.1498 32.7931 56.1021L34.2484 50.555C34.2493 50.5529 34.2484 50.5521 34.2484 50.55L34.8164 48.3841C35.0362 47.5981 35.5774 46.892 36.3007 46.448C37.0277 46.0018 37.8385 45.8721 38.5856 46.0801C38.7786 46.1341 38.9636 46.2082 39.1398 46.2961C39.2988 46.376 39.4529 46.471 39.599 46.5782C39.6069 46.5832 39.6149 46.5869 39.6228 46.592C39.9359 46.8259 40.2147 47.1202 40.4428 47.4608C40.4629 47.4901 40.4888 47.5098 40.5097 47.5362C40.943 48.2259 41.1129 49.0499 40.9019 49.81ZM3.43182 54.1489L30.5264 56.858L30.2271 58.0001H4.71411L3.43182 54.1489ZM47.9997 12.2239V10.844C49.3198 10.436 50 9.15899 50 7.00028C50 2.90121 49.856 0 47.9997 0C44.2573 0 42.9991 4.80717 42.9991 7.00028C42.9991 7.89801 43.0091 10.4532 45.9994 10.9189V12.0942C43.6131 12.5311 42.1531 14.5593 40.764 17.4412C40.5041 17.9841 39.8432 18.9571 39.0069 20.1889C35.0197 26.065 26.723 38.2928 31.4632 48.706C31.4904 48.765 31.5172 48.8341 31.5465 48.9019C24.6686 47.4212 11.958 44.7731 6.34854 44.188C3.75342 43.9189 1.91426 44.4609 0.877134 45.8052C-0.914774 48.1301 0.517166 51.9183 0.988475 53.1629L1.0454 53.3153V53.3161L3.04443 59.3161C3.18046 59.725 3.56261 60 3.99374 60H38.9983C39.4323 60 39.8174 59.72 39.9505 59.3061L42.8164 50.384C43.1655 49.133 42.9486 47.833 42.3405 46.729L48.9642 17.8476C49.122 17.2676 49.8541 14.2994 48.734 12.8324C48.531 12.5666 48.2832 12.3645 47.999 12.2243L47.9997 12.2239Z" fill="#CB333B"/>
</g>
<defs>
<clipPath id="clip0_2_49">
<rect width="50" height="60" fill="white"/>
</clipPath>
</defs>
</svg>
