<svg width="55" height="55" viewBox="0 0 55 55" fill="none" xmlns="http://www.w3.org/2000/svg">
<g clip-path="url(#clip0_2_58)">
<path d="M27.4939 0.0263107C12.3297 0.0263107 0 13.177 0 29.3508C0 39.9467 5.37669 49.7477 14.0404 54.9214H14.0528H14.0651C14.0775 54.9214 14.1018 54.9214 14.1142 54.9345C14.1632 54.9605 14.2241 54.9868 14.285 54.9868H14.3826H14.505C22.423 52.9668 32.5538 52.9668 40.4714 54.9868C40.5204 54.9868 40.569 55 40.618 55C40.7156 55 40.8013 54.9741 40.8869 54.9218H40.9236C49.5994 49.7476 55 39.9337 55 29.3245C55 13.1507 42.6703 0 27.5061 0L27.4939 0.0263107ZM40.5076 53.6844C32.5282 51.7035 22.4588 51.7035 14.4801 53.6844C6.29315 48.7056 1.22195 39.4131 1.22195 29.3508C1.22152 13.8938 13.0138 1.32962 27.4939 1.32962C41.974 1.32962 53.7658 13.8938 53.7658 29.3508C53.7658 39.4125 48.6823 48.705 40.5076 53.6844ZM38.4914 22.2746C38.2349 22.1182 37.905 22.1832 37.7094 22.4309L25.9416 37.6797C24.8539 38.0706 23.8762 38.8524 23.2656 39.9998C21.9215 42.489 22.7158 45.6823 25.0496 47.1159C25.8193 47.585 26.6504 47.8196 27.4814 47.8196C29.1678 47.8196 30.8171 46.8813 31.7215 45.2132C32.3446 44.0663 32.4912 42.7759 32.2593 41.5772L38.7603 23.0829C38.8703 22.7834 38.7603 22.4443 38.4914 22.2879L38.4914 22.2746ZM30.6709 44.5484C29.6566 46.4121 27.4086 47.0508 25.6607 45.982C23.9133 44.9002 23.3023 42.5024 24.3166 40.6382C25.3309 38.7745 27.579 38.1359 29.3268 39.2046C31.0742 40.2864 31.6853 42.6842 30.6709 44.5484ZM31.5872 39.7783C31.1841 39.1005 30.6343 38.5009 29.9375 38.0709C29.2411 37.6409 28.4834 37.4323 27.7256 37.4064L36.3282 26.2628L31.5869 39.7777L31.5872 39.7783ZM27.4937 14.3637C29.8522 14.3637 31.7704 12.3172 31.7704 9.8022C31.7704 7.28669 29.8517 5.24072 27.4937 5.24072C25.1352 5.24072 23.217 7.28716 23.217 9.8022C23.217 12.3177 25.1357 14.3637 27.4937 14.3637ZM27.4937 6.54392C29.1801 6.54392 30.5486 8.00351 30.5486 9.8022C30.5486 11.6009 29.1801 13.0605 27.4937 13.0605C25.8073 13.0605 24.4388 11.6009 24.4388 9.8022C24.4388 8.00351 25.8073 6.54392 27.4937 6.54392ZM39.1022 10.4541C37.086 10.4541 35.4362 12.2137 35.4362 14.3643C35.4362 16.5147 37.0859 18.2744 39.1022 18.2744C41.1184 18.2744 42.7683 16.5148 42.7683 14.3643C42.7683 12.2138 41.1185 10.4541 39.1022 10.4541ZM39.1022 16.9707C37.7581 16.9707 36.6585 15.7979 36.6585 14.3643C36.6585 12.9306 37.7581 11.7579 39.1022 11.7579C40.4464 11.7579 41.5459 12.9306 41.5459 14.3643C41.5459 15.7979 40.4464 16.9707 39.1022 16.9707ZM42.7683 24.1391C42.7683 25.9378 44.1368 27.3974 45.8232 27.3974C47.5096 27.3974 48.878 25.9378 48.878 24.1391C48.878 22.3404 47.5096 20.8808 45.8232 20.8808C44.1368 20.8808 42.7683 22.3404 42.7683 24.1391ZM47.6562 24.1391C47.6562 25.221 46.8375 26.0942 45.8232 26.0942C44.8088 26.0942 43.9901 25.221 43.9901 24.1391C43.9901 23.0573 44.8088 22.184 45.8232 22.184C46.8375 22.184 47.6562 23.0572 47.6562 24.1391ZM15.8855 10.4543C13.8693 10.4543 12.2194 12.2139 12.2194 14.3645C12.2194 16.515 13.8692 18.2747 15.8855 18.2747C17.9017 18.2747 19.5516 16.5151 19.5516 14.3645C19.5516 12.214 17.9018 10.4543 15.8855 10.4543ZM15.8855 16.9709C14.5414 16.9709 13.4418 15.7981 13.4418 14.3645C13.4418 12.9308 14.5414 11.7581 15.8855 11.7581C17.2296 11.7581 18.3292 12.9308 18.3292 14.3645C18.3292 15.7981 17.2296 16.9709 15.8855 16.9709ZM9.16456 20.8811C7.47816 20.8811 6.10968 22.3406 6.10968 24.1393C6.10968 25.938 7.47816 27.3976 9.16456 27.3976C10.851 27.3976 12.2194 25.938 12.2194 24.1393C12.2194 22.3406 10.851 20.8811 9.16456 20.8811ZM9.16456 26.0944C8.15024 26.0944 7.33152 25.2212 7.33152 24.1393C7.33152 23.0575 8.15022 22.1843 9.16456 22.1843C10.1789 22.1843 10.9976 23.0575 10.9976 24.1393C10.9976 25.2212 10.1789 26.0944 9.16456 26.0944Z" fill="#CB333B"/>
</g>
<defs>
<clipPath id="clip0_2_58">
<rect width="55" height="55" fill="white"/>
</clipPath>
</defs>
</svg>
