<svg width="50" height="50" viewBox="0 0 50 50" fill="none" xmlns="http://www.w3.org/2000/svg">
<g clip-path="url(#clip0_2_61)">
<path d="M19.7439 43.0443H0.591695C0.265775 43.0443 0.00125573 43.3716 0.00125573 43.7749C0.00125573 44.1781 0.265784 44.5054 0.591695 44.5054H10.1987V47.5332C10.1987 48.8935 11.093 50.0002 12.1925 50.0002H15.2788C16.3782 50.0002 17.2726 48.8935 17.2726 47.5332L17.273 44.5054H19.7443C20.8938 44.5054 21.8298 43.3482 21.8298 41.9255C21.8298 40.5033 20.8941 39.3456 19.7443 39.3456H19.1421V28.4364C19.1421 27.6599 18.9306 26.9204 18.5619 26.3179C20.2589 26.1838 21.6168 24.5535 21.7931 22.4771H23.2453C23.5712 22.4771 23.8358 22.1498 23.8358 21.7466V16.9327C23.8358 15.1395 22.6572 13.6808 21.2076 13.6808C19.7579 13.6808 18.5786 15.1395 18.5786 16.9327V21.7466C18.5786 22.1498 18.8431 22.4771 19.169 22.4771H20.6118C20.4371 23.8379 19.4897 24.8841 18.3414 24.8841H16.7292L13.9672 11.6592C13.5867 9.80131 12.235 8.50439 10.68 8.50439L0.592112 8.50391C0.266191 8.50391 0.0016732 8.83121 0.0016732 9.23446C0.0016732 9.63773 0.266201 9.96502 0.592112 9.96502H10.68C11.6933 9.96502 12.5744 10.8095 12.8231 12.0217L15.6995 25.7975C15.7597 26.0826 16.0015 26.3457 16.2717 26.3457C17.1832 26.3457 17.9612 27.2558 17.9612 28.4366V39.3462H0.591172C0.265251 39.3462 0.000732422 39.6735 0.000732422 40.0768C0.000732422 40.48 0.265261 40.8073 0.591172 40.8073H19.7434C20.2417 40.8073 20.6476 41.3091 20.6476 41.9257C20.6476 42.5423 20.2417 43.0445 19.7434 43.0445L19.7439 43.0443ZM16.0914 47.5336C16.0914 48.0883 15.7268 48.5394 15.2785 48.5394L12.1922 48.5389C11.7439 48.5389 11.3793 48.0878 11.3793 47.5331L11.3797 44.5053H16.0918L16.0914 47.5336ZM19.7591 16.9328C19.7591 15.9458 20.4091 15.1421 21.2072 15.1421C22.0054 15.1421 22.6545 15.9453 22.6545 16.9328V21.0156H19.7595L19.7591 16.9328Z" fill="#CB333B"/>
<path d="M0.000873418 26.59C0.000873418 26.9933 0.265401 27.3206 0.591312 27.3206H13.5771C13.7601 27.3206 13.9322 27.216 14.044 27.0374C14.1562 26.8587 14.1948 26.6257 14.1493 26.4072L11.2529 12.5233C11.1851 12.2006 10.9501 11.9751 10.6806 11.9751L0.590827 11.9756C0.264907 11.9756 0.000388597 12.3029 0.000388597 12.7061C0.000388597 13.1094 0.264916 13.4367 0.590827 13.4367H10.2224L12.8146 25.8597L0.590439 25.8602C0.264518 25.8602 0 26.1875 0 26.5907L0.000873418 26.59Z" fill="#CB333B"/>
<path d="M11.349 33.819C11.349 35.4521 12.4192 36.7806 13.7358 36.7806C15.0524 36.7806 16.1226 35.4522 16.1226 33.819C16.1226 32.1905 15.0524 30.8657 13.7358 30.8657C12.4197 30.8657 11.349 32.1904 11.349 33.819ZM14.9417 33.819C14.9417 34.6461 14.4012 35.3195 13.7361 35.3195C13.071 35.3195 12.5306 34.6461 12.5306 33.819C12.5306 32.9965 13.071 32.3273 13.7361 32.3273C14.4008 32.3269 14.9417 32.9965 14.9417 33.819Z" fill="#CB333B"/>
<path d="M0.591293 35.8297C0.265373 35.8297 0.000854492 36.157 0.000854492 36.5602C0.000854492 36.9635 0.265382 37.2908 0.591293 37.2908C8.26702 37.0122 9.61091 37.9022 9.61091 36.5602V30.2257C9.61091 29.8224 9.34638 29.4951 9.02047 29.4951H0.591303C0.265382 29.4951 0.000864115 29.8224 0.000864115 30.2257C0.000864115 30.6289 0.265392 30.9562 0.591303 30.9562H8.42964V35.8292L0.591293 35.8297Z" fill="#CB333B"/>
<path d="M25.8084 23.007L30.7533 25.3394V26.7368C30.7533 27.14 31.0178 27.4673 31.3438 27.4673C31.6697 27.4673 31.9342 27.14 31.9342 26.7368V25.1875H36.201L35.813 26.6604C35.437 28.0864 34.369 29.0448 33.1563 29.0448C32.8304 29.0448 32.5659 29.3721 32.5659 29.7753C32.5659 30.1786 32.8304 30.5059 33.1563 30.5059C34.4573 30.5059 35.6398 29.7298 36.3723 28.4788H39.7573L41.0436 36.0236H39.3314C39.0055 36.0236 38.741 36.3509 38.741 36.7541C38.741 37.1574 39.0055 37.4847 39.3314 37.4847H41.293L41.9035 41.0657C41.9604 41.4038 42.2018 41.6457 42.4811 41.6457H44.2005V44.3425L36.0803 44.3429C34.8198 44.3429 33.7943 45.6118 33.7943 47.1713C33.7943 48.7314 34.8202 49.9997 36.0803 49.9997H48.578C48.904 49.9997 49.1685 49.6724 49.1685 49.2692C49.1685 48.8659 48.904 48.5386 48.578 48.5386H36.0803C35.4712 48.5386 34.9751 47.9253 34.9751 47.1712C34.9751 46.4172 35.4712 45.8039 36.0803 45.8039H44.7914C45.1173 45.8039 45.3818 45.4766 45.3818 45.0733V41.646H47.1297C47.3051 41.646 47.4711 41.5499 47.5825 41.3839C47.6947 41.2174 47.7417 40.998 47.711 40.7851L45.6888 26.972L49.6486 24.8015C49.8624 24.6842 50 24.4226 50 24.1337V21.437C50 21.0338 49.7354 20.7065 49.4095 20.7065H45.7524L44.858 18.3282C44.761 18.0708 44.5526 17.9057 44.3229 17.9057H41.3734V13.7953C43.471 12.6915 44.8528 10.1289 44.8528 7.25969V0.731024C44.8528 0.32776 44.5882 0.000468909 44.2623 0.000468909L33.9358 0C33.6099 0 33.3453 0.327303 33.3453 0.730555V7.25873C33.3453 10.2602 34.8434 12.7675 36.8247 13.7982V17.9049H31.9352V16.3556C31.9352 15.9524 31.6707 15.6251 31.3448 15.6251C31.0188 15.6251 30.7543 15.9524 30.7543 16.3556V17.753L25.8094 20.0854C25.5809 20.1933 25.4297 20.4652 25.4297 20.7682V22.3245C25.4289 22.6283 25.5805 22.8998 25.8087 23.0077L25.8084 23.007ZM36.9616 27.0175L37.444 25.1874H39.1971L39.509 27.0175H36.9616ZM44.8408 21.7446C44.9379 22.002 45.1463 22.1671 45.376 22.1671H48.8193V23.6573L44.7863 25.8682C44.5373 26.0046 44.3956 26.3343 44.4441 26.6663L44.6279 27.9215H42.7455C42.4196 27.9215 42.1551 28.2488 42.1551 28.6521C42.1551 29.0553 42.4196 29.3826 42.7455 29.3826H44.8416L45.1728 31.647H43.3003C42.9744 31.647 42.7099 31.9743 42.7099 32.3775C42.7099 32.7808 42.9744 33.1081 43.3003 33.1081H45.3866L45.7178 35.3719H43.8555C43.5296 35.3719 43.2651 35.6992 43.2651 36.1025C43.2651 36.5058 43.5296 36.833 43.8555 36.833H45.9319L46.4223 40.1834H42.9607C42.4279 37.0596 41.1568 29.6038 40.2533 24.3044C40.1965 23.9663 39.9551 23.7244 39.6758 23.7244H31.9349V19.364H37.4034C37.4076 19.364 37.411 19.3668 37.4148 19.3668H40.7828C40.7869 19.3668 40.7904 19.364 40.7941 19.364H43.946L44.8408 21.7446ZM37.599 12.5967C35.9121 11.914 34.5262 9.83851 34.5262 7.25811V1.46051H43.6721V7.25811C43.6721 9.68005 42.4347 11.8263 40.5933 12.599C40.3542 12.6998 40.1927 12.9783 40.1927 13.2911V17.9047H38.0057V13.2911C38.0057 12.9755 37.8419 12.6952 37.599 12.5967ZM26.6098 21.2711L30.7535 19.3162V23.7755L26.6098 21.8206V21.2711Z" fill="#CB333B"/>
</g>
<defs>
<clipPath id="clip0_2_61">
<rect width="50" height="50" fill="white"/>
</clipPath>
</defs>
</svg>
