<svg width="50" height="50" viewBox="0 0 50 50" fill="none" xmlns="http://www.w3.org/2000/svg">
<g clip-path="url(#clip0_2_68)">
<path d="M25 0C11.8323 0 1.05024 10.182 0.0788209 23.1006C0.0296447 23.2032 0 23.3162 0 23.4375C0 23.5157 0.0149968 23.5899 0.0366207 23.6614C0.0129049 24.1047 0 24.5508 0 24.9996C0 25.4489 0.012904 25.8949 0.0366207 26.3386C0.0149968 26.4101 0 26.4843 0 26.5625C0 26.6838 0.0296451 26.7972 0.0791704 26.8994C1.05086 39.818 11.8326 50 25.0003 50C38.8064 50 50 38.8073 50 25.0003C50 11.1942 38.8073 0.000571422 25.0003 0.000571422L25 0ZM33.1838 24.6283C33.0893 22.5221 32.21 20.6209 30.8195 19.2207L41.248 15.6608C41.6822 16.4131 42.0658 17.1978 42.3937 18.0111L33.1838 24.6283ZM24.9996 31.6399C21.3379 31.6399 18.3591 28.6611 18.3591 24.9994C18.3591 21.3376 21.3379 18.3588 24.9996 18.3588C28.6613 18.3588 31.6401 21.3376 31.6401 24.9994C31.6401 28.6611 28.6613 31.6399 24.9996 31.6399ZM29.3683 18.0651C28.1026 17.2657 26.6074 16.7962 24.9996 16.7962C23.4503 16.7962 22.0071 17.2332 20.7712 17.98L9.68915 14.1965C13.0875 9.394 18.6819 6.24948 24.9997 6.24948C31.3647 6.24948 36.996 9.44034 40.3861 14.3036L29.3683 18.0651ZM8.82032 15.54C8.85032 15.555 8.87996 15.5714 8.91275 15.5822L19.2832 19.1222C17.8951 20.4726 16.9879 22.3088 16.8289 24.3575L7.69152 17.7924C8.01761 17.0129 8.39672 16.2623 8.82016 15.54L8.82032 15.54ZM7.13302 19.3143L16.9159 26.3434C17.2612 28.4315 18.3906 30.25 19.997 31.4899L21.917 43.4907C13.0405 42.0157 6.25018 34.2872 6.25018 24.9989C6.25018 23.0176 6.56163 21.1084 7.1336 19.3143H7.13302ZM23.5301 43.6864L21.7452 32.5285C22.7434 32.9599 23.8426 33.2023 24.9991 33.2023C26.1557 33.2023 27.255 32.9599 28.2531 32.5281L26.4681 43.686C25.983 43.724 25.4944 43.7492 24.9995 43.7492C24.5043 43.7492 24.0153 43.724 23.5301 43.6864ZM30.0015 31.4901C31.527 30.313 32.6312 28.6165 33.0333 26.6596L42.9368 19.5437C43.4631 21.2712 43.7487 23.1021 43.7487 24.9992C43.7487 34.2884 36.9582 42.0168 28.082 43.4918L30.0015 31.4901ZM45.2915 24.2183H48.4165C48.4248 24.4781 48.4363 24.7376 48.4363 24.9992C48.4363 25.2611 48.4248 25.5206 48.4165 25.7808H45.2915C45.3016 25.5209 45.3114 25.2611 45.3114 24.9992C45.3114 24.7369 45.3016 24.4778 45.2915 24.2183ZM24.9998 1.5623C37.1327 1.5623 47.1397 10.8292 48.3191 22.6558H45.1729C44.9937 21.0957 44.6397 19.5887 44.127 18.1567C44.112 18.0608 44.0785 17.9683 44.0262 17.8808C41.1418 10.1751 33.7129 4.6872 24.9996 4.6872C14.5738 4.6872 5.98822 12.5425 4.82574 22.6557H1.67953C2.85906 10.8291 12.8669 1.5623 24.9998 1.5623ZM1.56255 24.9995C1.56255 24.738 1.57406 24.4785 1.58243 24.2186H4.7074C4.69728 24.4781 4.68752 24.7373 4.68752 24.9995C4.68752 25.2615 4.69728 25.5213 4.7074 25.7811H1.58243C1.57406 25.5209 1.56255 25.2615 1.56255 24.9995ZM24.9998 48.4368C12.8669 48.4368 2.85986 39.1699 1.67952 27.3433H4.82573C5.98848 37.4565 14.5747 45.3118 24.9996 45.3118C35.4236 45.3118 44.0101 37.4565 45.1726 27.3433H48.3188C47.1389 39.1699 37.1314 48.4368 24.9994 48.4368H24.9998Z" fill="#CB333B"/>
<path d="M25 21.875C23.2743 21.875 21.875 23.2743 21.875 25C21.875 26.7257 23.2743 28.1249 25 28.1249C26.7257 28.1249 28.1249 26.7257 28.1249 25C28.1249 23.2743 26.7257 21.875 25 21.875ZM25 26.5624C24.1382 26.5624 23.4375 25.8618 23.4375 25C23.4375 24.1382 24.1382 23.4375 25 23.4375C25.8618 23.4375 26.5624 24.1382 26.5624 25C26.5624 25.8618 25.8618 26.5624 25 26.5624Z" fill="#CB333B"/>
</g>
<defs>
<clipPath id="clip0_2_68">
<rect width="50" height="50" fill="white"/>
</clipPath>
</defs>
</svg>
