<svg width="50" height="46" viewBox="0 0 50 46" fill="none" xmlns="http://www.w3.org/2000/svg">
<g clip-path="url(#clip0_2_72)">
<path d="M4.23819 10.0138C3.11436 10.0138 2.03624 9.48645 1.24133 8.54739C0.446418 7.60833 0 6.33471 0 5.00708C0 3.67912 0.446418 2.40549 1.24133 1.46643C2.03624 0.527372 3.11436 0 4.23819 0C5.3623 0 6.44042 0.527372 7.23533 1.46643C8.02996 2.40549 8.47666 3.67912 8.47666 5.00708C8.47527 6.33437 8.02801 7.60673 7.23369 8.54545C6.43906 9.48417 5.36209 10.0122 4.23819 10.0138ZM4.23819 2.66655C3.71141 2.66655 3.20585 2.91376 2.83336 3.35378C2.4606 3.79414 2.25135 4.39106 2.25135 5.0137C2.25135 5.636 2.46061 6.23323 2.83336 6.67327C3.20584 7.11363 3.71141 7.36083 4.23819 7.36083C4.76524 7.36083 5.27052 7.11362 5.6433 6.67327C6.01577 6.23325 6.22531 5.636 6.22531 5.0137C6.22531 4.39107 6.01577 3.79416 5.6433 3.35378C5.27054 2.91376 4.76525 2.66655 4.23819 2.66655Z" fill="#CB333B"/>
<path d="M25.0021 10.0138C23.878 10.0138 22.7999 9.48645 22.0053 8.54739C21.2104 7.60833 20.7637 6.33471 20.7637 5.00708C20.7637 3.67912 21.2104 2.40549 22.0053 1.46643C22.7999 0.527372 23.878 0 25.0021 0C26.1263 0 27.2041 0.527372 27.999 1.46643C28.7939 2.40549 29.2403 3.67912 29.2403 5.00708C29.2389 6.33437 28.792 7.60673 27.9974 8.54545C27.203 9.48417 26.1258 10.0122 25.0021 10.0138ZM25.0021 2.66655C24.4751 2.66655 23.9698 2.91376 23.597 3.35378C23.2246 3.79414 23.0153 4.39106 23.0153 5.0137C23.0153 5.636 23.2246 6.23323 23.597 6.67327C23.9698 7.11363 24.4751 7.36083 25.0021 7.36083C25.5292 7.36083 26.0345 7.11362 26.407 6.67327C26.7797 6.23325 26.989 5.636 26.989 5.0137C26.989 4.39107 26.7797 3.79416 26.407 3.35378C26.0345 2.91376 25.5292 2.66655 25.0021 2.66655Z" fill="#CB333B"/>
<path d="M4.23819 45.9933C3.11436 45.9933 2.03624 45.4659 1.24133 44.5269C0.446418 43.5878 0 42.3142 0 40.9866C0 39.6586 0.446418 38.385 1.24133 37.4459C2.03624 36.5072 3.11436 35.9795 4.23819 35.9795C5.3623 35.9795 6.44042 36.5072 7.23533 37.4459C8.02996 38.385 8.47666 39.6586 8.47666 40.9866C8.47527 42.3139 8.02801 43.5862 7.23369 44.5249C6.43906 45.4637 5.36209 45.9917 4.23819 45.9933ZM4.23819 38.6461C3.71141 38.6461 3.20585 38.8933 2.83336 39.3333C2.4606 39.7736 2.25135 40.3706 2.25135 40.9932C2.25135 41.6155 2.46061 42.2127 2.83336 42.6528C3.20584 43.0931 3.71141 43.3403 4.23819 43.3403C4.76524 43.3403 5.27052 43.0931 5.6433 42.6528C6.01577 42.2128 6.22531 41.6155 6.22531 40.9932C6.22531 40.3706 6.01577 39.7737 5.6433 39.3333C5.27054 38.8933 4.76525 38.6461 4.23819 38.6461Z" fill="#CB333B"/>
<path d="M25.0022 46.0001C23.9266 45.9978 22.892 45.5123 22.1083 44.6421C21.3242 43.772 20.8499 42.5824 20.781 41.3143C20.7118 40.0464 21.0536 38.7949 21.7366 37.8133C22.4199 36.832 23.3931 36.1939 24.4598 36.0288C25.5262 35.8637 26.6059 36.1837 27.4801 36.924C28.3542 37.6643 28.9574 38.7698 29.1672 40.0157C29.413 41.4874 29.0883 43.0122 28.2819 44.1708C27.4753 45.3296 26.2719 46.0008 25.0022 46.0001ZM25.0022 38.6463C24.8699 38.6463 24.738 38.6617 24.6082 38.6927C23.9394 38.8529 23.3881 39.4093 23.1495 40.1644C22.9113 40.9195 23.0195 41.7666 23.4361 42.4051C23.8526 43.0432 24.5183 43.3824 25.1972 43.3023C25.8763 43.2222 26.472 42.7337 26.7733 42.0105C27.0746 41.2877 27.0386 40.432 26.6784 39.7475C26.3182 39.0632 25.6844 38.6466 25.0022 38.6463Z" fill="#CB333B"/>
<path d="M45.7546 10.0138C44.679 10.0111 43.6444 9.52596 42.8606 8.65577C42.0769 7.78565 41.6023 6.59607 41.5334 5.32801C41.4645 4.05996 41.806 2.80852 42.4893 1.82694C43.1723 0.845349 44.1458 0.207609 45.2122 0.0424778C46.2786 -0.122653 47.3583 0.19739 48.2324 0.93766C49.1066 1.67796 49.7098 2.78312 49.9196 4.02941C50.1657 5.50107 49.8407 7.02556 49.0343 8.18443C48.2277 9.34296 47.0243 10.0144 45.7546 10.0138ZM45.7546 2.65959C45.6223 2.65992 45.4903 2.67541 45.3606 2.7064C44.8433 2.82802 44.3886 3.18795 44.0961 3.70613C43.8034 4.2246 43.6974 4.85909 43.8012 5.46983C43.9047 6.08059 44.21 6.61756 44.6488 6.96258C45.088 7.30735 45.6251 7.43227 46.1421 7.309C46.6591 7.18573 47.1134 6.82481 47.4049 6.30565C47.6965 5.78649 47.8014 5.15201 47.6965 4.54127C47.6058 4.0116 47.3631 3.53496 47.009 3.19221C46.6552 2.84942 46.2121 2.66124 45.7546 2.65959Z" fill="#CB333B"/>
<path d="M45.766 11.8491C45.4674 11.8491 45.1811 11.9892 44.9702 12.2387C44.759 12.4879 44.6404 12.8264 44.6404 13.1791V21.6702H26.128V13.1791C26.128 12.7038 25.9134 12.2648 25.5649 12.0275C25.2167 11.7899 24.7876 11.7899 24.4394 12.0275C24.0909 12.2648 23.8763 12.7039 23.8763 13.1791V21.6702H5.36391V13.1791C5.36391 12.7038 5.14935 12.2648 4.80114 12.0275C4.45266 11.7899 4.02352 11.7899 3.67531 12.0275C3.32711 12.2648 3.11255 12.7039 3.11255 13.1791V32.821C3.11255 33.296 3.32711 33.735 3.67531 33.9726C4.02352 34.2103 4.45265 34.2103 4.80114 33.9726C5.14935 33.735 5.36391 33.2959 5.36391 32.821V24.3299H23.8763V32.821C23.8763 33.296 24.0909 33.735 24.4394 33.9726C24.7876 34.2103 25.2167 34.2103 25.5649 33.9726C25.9134 33.735 26.128 33.2959 26.128 32.821V24.3299H45.7661C46.0649 24.3299 46.3512 24.1898 46.5621 23.9406C46.7733 23.6911 46.8919 23.3529 46.8919 23.0002V13.1793C46.8919 12.8266 46.7733 12.4881 46.5621 12.2389C46.3512 11.9894 46.0649 11.8493 45.7661 11.8493L45.766 11.8491Z" fill="#CB333B"/>
</g>
<defs>
<clipPath id="clip0_2_72">
<rect width="50" height="46" fill="white"/>
</clipPath>
</defs>
</svg>
