<svg width="60" height="50" viewBox="0 0 60 50" fill="none" xmlns="http://www.w3.org/2000/svg">
<g clip-path="url(#clip0_2_80)">
<path d="M55.3336 25.6759C53.0001 25.6759 51.067 27.4325 50.7335 29.7302H44.3333C45.0001 27.5678 45.3331 25.3385 45.3331 22.9734C45.3331 10.6086 35.6666 0.473443 23.5331 0.000470393H23.3332L1.33321 0C0.599857 0 0 0.607999 0 1.35123C0 2.09446 0.599892 2.70246 1.33321 2.70246H12.0001C4.86654 6.55405 0.00011989 14.1888 0.00011989 22.9727C0.00011989 35.6754 10.1336 45.9457 22.6667 45.9457H50.7334C51.0668 48.2429 52.9999 50 55.3335 50C57.9335 50 60 47.9055 60 45.2704V30.4055C60 27.7704 57.9335 25.6759 55.3335 25.6759L55.3336 25.6759ZM2.66705 22.973C2.66705 11.8246 11.6673 2.70269 22.667 2.70269C33.6668 2.70269 42.667 11.8246 42.667 22.973C42.667 34.1214 33.6668 43.2432 22.667 43.2432C11.6673 43.2432 2.66705 34.1219 2.66705 22.973ZM50.667 43.2432H33.3337C37.7338 40.8781 41.2671 37.027 43.3336 32.4322H50.6672L50.667 43.2432ZM57.3336 45.2704C57.3336 46.3516 56.4668 47.2975 55.3335 47.2975C54.2002 47.2975 53.3334 46.3516 53.3334 45.2704V30.4055C53.3334 29.2569 54.2002 28.3784 55.3335 28.3784C56.4668 28.3784 57.3336 29.2569 57.3336 30.4055V45.2704Z" fill="#CB333B"/>
<path d="M37.3337 22.8382V22.6355C37.2002 17.7032 34.6673 12.9057 30.2002 10.2031C26.8668 8.17592 22.8666 7.56794 19.0668 8.51388C17.9336 8.78395 16.9333 9.18975 15.9335 9.72985C15.9335 9.72985 15.867 9.72985 15.867 9.79725C15.8005 9.79725 15.8005 9.86465 15.7336 9.86465C13.4 11.1486 11.4669 12.973 10.0667 15.3375C8.66691 17.703 8.00012 20.3381 8.00012 22.9059V23.1086V23.3112C8.13359 28.2436 10.6665 33.0411 15.1337 35.7437C17.4668 37.1628 20.0668 37.8382 22.6666 37.8382C25.0002 37.8382 27.3332 37.2302 29.3998 36.149H29.4663C29.4663 36.149 29.5328 36.149 29.5328 36.0816C31.7994 34.8656 33.7995 32.9732 35.1997 30.6087C36.6669 28.2436 37.3338 25.6086 37.3338 23.0413L37.3337 22.8382ZM34.5334 21.4869L27.0668 21.5543C26.8669 20.8785 26.5334 20.2704 26.067 19.7299L29.8673 13.2432C32.6002 15.3386 34.2004 18.3113 34.5334 21.4869ZM22.6667 10.8113C24.3334 10.8113 26 11.1492 27.6002 11.8925L23.7999 18.3792C23.1331 18.1765 22.3997 18.1765 21.7334 18.3118L18.2666 11.6225C19.6668 11.0819 21.2001 10.8113 22.6667 10.8113ZM24.4003 23.9869C24.1338 24.4601 23.6669 24.7976 23.1335 24.9329C22.6001 25.0681 22.0667 25.0003 21.6003 24.7302C20.667 24.1896 20.3335 22.9057 20.9334 21.9598C21.3334 21.2839 22.0002 20.946 22.6666 20.946C23.0001 20.946 23.3335 21.0134 23.6665 21.2161C24.6667 21.8245 24.9337 23.041 24.4003 23.9869ZM12.3336 16.757C13.267 15.203 14.4672 13.9191 15.9334 12.9054L19.4002 19.5947C19.1337 19.8648 18.8668 20.2027 18.6668 20.5406C18.4669 20.8785 18.3334 21.2839 18.1999 21.6892L10.7334 21.7566C10.9334 20 11.4668 18.3108 12.3335 16.7568L12.3336 16.757ZM10.8 24.4597L18.2665 24.3923C18.4665 25.0681 18.7999 25.6762 19.2663 26.2167L15.4661 32.7034C12.7336 30.6085 11.1333 27.6353 10.8 24.4597ZM17.6666 34.0543L21.4668 27.5675C21.8668 27.6349 22.2002 27.7028 22.6001 27.7028C22.9335 27.7028 23.2 27.7028 23.5334 27.6354L27.0002 34.3247C24.0668 35.4733 20.7334 35.4055 17.6666 34.0543ZM32.9999 29.1894C32.0666 30.7433 30.8663 32.0272 29.4002 33.041L25.9334 26.3517C26.1998 26.0816 26.4668 25.7437 26.6667 25.4058C26.8667 25.0678 27.0002 24.6625 27.1336 24.3246L34.6002 24.2572C34.4002 25.9464 33.8668 27.6356 33 29.1895L32.9999 29.1894Z" fill="#CB333B"/>
</g>
<defs>
<clipPath id="clip0_2_80">
<rect width="60" height="50" fill="white"/>
</clipPath>
</defs>
</svg>
