<svg width="70" height="71" viewBox="0 0 70 71" fill="none" xmlns="http://www.w3.org/2000/svg">
<path d="M69.5323 29.7126L57.8781 14.2831C57.4464 13.7114 56.6591 13.571 56.0633 13.9585L48.538 18.835H38.7245C38.5979 18.835 38.4712 18.8628 38.3489 18.8994L30.7401 21.1322L22.845 18.9301L15.1729 13.9585C14.5857 13.5783 13.8144 13.707 13.3783 14.2582L0.486445 30.5314C0.0244799 31.1163 0.100755 31.9703 0.659143 32.4601L7.41593 38.3865L13.4776 46.7125C11.7046 48.6368 11.7391 51.6738 13.5841 53.5543C14.4015 54.3863 15.4406 54.8571 16.5099 54.9668C16.4725 55.2139 16.4538 55.4639 16.4538 55.7184C16.4538 57.0315 16.956 58.267 17.867 59.1956C18.778 60.1255 19.9897 60.6359 21.2792 60.6359C21.2965 60.6359 21.3137 60.6359 21.331 60.6344C21.3296 60.668 21.3281 60.7017 21.3281 60.7353C21.3281 62.0484 21.8304 63.284 22.7414 64.2125C23.6538 65.141 24.8656 65.6528 26.1536 65.6528C26.4083 65.6528 26.6602 65.6323 26.9077 65.5928C27.0113 66.6866 27.4747 67.7511 28.295 68.5875C29.2348 69.5467 30.471 70.0249 31.7058 70.0249C32.942 70.0249 34.1783 69.5467 35.118 68.5875L35.8563 67.8359L36.1657 68.0903C37.0997 69.0101 38.31 69.4707 39.5218 69.4707C40.7566 69.4707 41.9928 68.9911 42.9326 68.0333C43.8925 67.0551 44.3631 65.7624 44.3444 64.4786C45.6036 64.4976 46.8715 64.0195 47.8314 63.0412C48.7899 62.063 49.2605 60.7733 49.2418 59.488C50.5543 59.5099 51.7992 58.9952 52.7288 58.0492C53.6887 57.0709 54.1593 55.7798 54.1392 54.4945C55.3999 54.5135 56.6663 54.0353 57.6262 53.0571C59.2654 51.3872 59.4755 48.8049 58.2609 46.8997L62.6877 37.4522L69.3409 31.6164C69.8906 31.1339 69.9741 30.2989 69.5323 29.7126ZM14.7369 16.9736L20.2531 20.5488L8.25207 35.4489L3.44389 31.2304L14.7369 16.9736ZM15.514 48.5666L17.1791 46.8689C17.2295 46.8178 17.2827 46.7695 17.3374 46.7242C17.6626 46.4537 18.057 46.2914 18.4743 46.2533C18.4858 46.2519 18.4988 46.2519 18.5103 46.2519C18.5693 46.246 18.6297 46.2431 18.6887 46.2446C19.2601 46.2519 19.7897 46.4902 20.1826 46.9128C20.954 47.7434 20.9137 49.1018 20.0905 49.9396L18.4758 51.5861C17.6598 52.4181 16.3314 52.4181 15.514 51.5861C14.698 50.7526 14.698 49.3986 15.514 48.5666ZM19.7983 57.2274C19.4026 56.8253 19.1838 56.2886 19.1838 55.7184C19.1838 55.1481 19.4026 54.6129 19.7983 54.2094L23.0263 50.9179C23.6452 50.2876 24.6166 50.1151 25.4067 50.4997C26.2227 50.8945 26.6803 51.7967 26.5609 52.7033C26.4975 53.1872 26.2759 53.6435 25.9377 53.99L22.7601 57.2274C22.3643 57.631 21.839 57.8532 21.2792 57.8532C20.7194 57.8532 20.1941 57.631 19.7983 57.2274ZM24.6727 62.2443C24.2769 61.8407 24.0596 61.3056 24.0596 60.7353C24.0596 60.165 24.2769 59.6284 24.6727 59.2248L27.9007 55.9348C28.5613 55.2622 29.6234 55.1159 30.4322 55.597C31.1719 56.0357 31.559 56.8955 31.4324 57.7538C31.3633 58.2261 31.1431 58.6692 30.8121 59.0055L27.6345 62.2443C27.2387 62.6479 26.7134 62.8702 26.1536 62.8702C25.5938 62.8702 25.0685 62.6479 24.6727 62.2443ZM30.2249 66.6193C29.4089 65.7873 29.4089 64.4333 30.2249 63.5998L31.89 61.9036C31.9404 61.8524 31.9936 61.8042 32.0469 61.7589C32.0483 61.7574 32.0498 61.7559 32.0512 61.7545C32.3218 61.5307 32.6398 61.3816 32.9795 61.3158C32.9881 61.3143 32.9953 61.3129 33.0039 61.3129C33.0615 61.3012 33.1219 61.2924 33.1809 61.288C33.2054 61.2851 33.2284 61.2851 33.2529 61.2836C33.3018 61.2807 33.3508 61.2778 33.3997 61.2778C33.9696 61.2866 34.5006 61.5234 34.8935 61.9475C34.9424 61.9987 34.9871 62.0528 35.0288 62.1083C35.6563 62.9447 35.5728 64.1876 34.7928 64.9831L33.1867 66.6193C32.3707 67.4513 31.0424 67.4513 30.2249 66.6193ZM55.6964 51.0889C54.8789 51.921 53.5506 51.921 52.7346 51.0889C52.7044 51.0582 52.6727 51.0305 52.6411 51.0027L43.8623 41.9617C43.3312 41.4148 42.4663 41.4104 41.9309 41.9515C41.3941 42.491 41.3898 43.3727 41.9209 43.9196L50.7946 53.0586C50.7961 53.06 50.7975 53.06 50.7989 53.0615C51.6149 53.8935 51.6149 55.249 50.7989 56.081C50.4032 56.4846 49.8765 56.7054 49.3166 56.7054C48.7568 56.7054 48.2315 56.4846 47.8357 56.081L41.8993 49.9674C41.3697 49.4205 40.5047 49.4162 39.9694 49.9572C39.4326 50.4982 39.4283 51.3785 39.9593 51.9253L45.8051 57.9454C45.8339 57.9834 45.8656 58.0185 45.9001 58.0536C46.7161 58.8856 46.7161 60.2411 45.9001 61.0731C45.0827 61.9051 43.7543 61.9051 42.9369 61.0731L39.6974 57.7348C39.1663 57.1894 38.3029 57.1835 37.7661 57.7246C37.2307 58.2656 37.2264 59.1458 37.756 59.6927L40.9063 62.936C40.935 62.974 40.9681 63.0105 41.0027 63.0456C41.8187 63.8776 41.8187 65.2331 41.0027 66.0651C40.1853 66.8971 38.8569 66.8971 38.0409 66.0651C37.9459 65.9686 37.8366 65.8955 37.7301 65.8122C37.6408 65.7434 37.6178 65.6952 37.6624 65.5855C37.7085 65.4729 37.7747 65.372 37.8207 65.2594C37.8711 65.1337 37.9114 65.0036 37.9503 64.8734C38.1589 64.1862 38.2208 63.4463 38.1273 62.7327C37.9459 61.3641 37.2077 60.1285 36.088 59.3462C35.4821 58.925 34.7827 58.6472 34.0559 58.5434C34.4085 56.9627 33.9854 55.249 32.8874 54.0661C31.9836 53.0922 30.7617 52.5453 29.4478 52.5263C29.4003 52.5263 29.3528 52.5263 29.3039 52.5263C29.3327 51.2498 28.8779 49.9791 28.013 49.0491C27.1077 48.0753 25.8874 47.5284 24.5734 47.5109C24.1834 47.505 23.7891 47.5474 23.4091 47.6366C23.2465 46.4844 22.6766 45.4169 21.8131 44.6537C20.9554 43.8977 19.876 43.4766 18.7276 43.4605C17.5173 43.4429 16.3286 43.8977 15.4305 44.7253L10.1532 37.4756L22.7788 21.7975L26.8041 22.919L21.5483 32.3724C20.9122 33.5144 20.7525 34.8406 21.0964 36.1069C21.439 37.3732 22.2463 38.4275 23.3674 39.0752C23.4379 39.1162 23.5084 39.1542 23.5804 39.1908C23.5847 39.1937 23.5905 39.1966 23.5962 39.1995C23.7848 39.2946 23.979 39.3765 24.1748 39.4467C25.0901 39.7698 26.0788 39.8049 27.0329 39.5358C28.2749 39.1864 29.3082 38.3631 29.9443 37.2211L33.3594 31.0783L39.4585 31.5184L55.6964 48.0694C56.5123 48.9014 56.5123 50.2555 55.6964 51.0889ZM56.2619 44.7092L41.0286 29.1832C40.9998 29.154 40.9696 29.1262 40.9379 29.0984C40.7177 28.9127 40.4457 28.8001 40.1593 28.7797L32.6931 28.2401C32.1764 28.2035 31.6626 28.4828 31.4079 28.942L27.5683 35.8496C27.2934 36.3453 26.8444 36.702 26.3047 36.8541C25.7665 37.0062 25.2009 36.9345 24.713 36.6538C24.2266 36.373 23.8769 35.9154 23.7272 35.3656C23.579 34.8158 23.648 34.2396 23.9244 33.7439L29.0506 24.5231L31.1273 23.9148C31.1417 23.9104 31.1546 23.9046 31.1676 23.9002L38.9202 21.6177H48.2876L59.9821 36.7693L56.2619 44.7092ZM61.7695 34.5847L50.9558 20.5663L56.4749 16.9882L66.5806 30.3662L61.7695 34.5847Z" fill="black"/>
<path d="M42.3684 16.222C42.7182 16.222 43.0679 16.086 43.3355 15.814L52.6612 6.30807C53.1951 5.76559 53.1951 4.88386 52.6612 4.33991C52.1287 3.79742 51.2638 3.79742 50.7299 4.33991L41.4042 13.8459C40.8703 14.3898 40.8703 15.2701 41.4042 15.814C41.6705 16.086 42.0202 16.222 42.3684 16.222Z" fill="black"/>
<path d="M26.6659 15.814C26.9322 16.086 27.2819 16.222 27.6316 16.222C27.9799 16.222 28.3296 16.086 28.5958 15.814C29.1297 15.2701 29.1297 14.3898 28.5958 13.8459L19.2702 4.33991C18.7362 3.79742 17.8728 3.79742 17.3388 4.33991C16.8049 4.88386 16.8049 5.76559 17.3388 6.30807L26.6659 15.814Z" fill="black"/>
<path d="M35 16.222C35.7541 16.222 36.3658 15.5991 36.3658 14.83V6.96315C36.3658 6.19548 35.7541 5.57257 35 5.57257C34.2459 5.57257 33.6343 6.19548 33.6343 6.96315V14.83C33.6343 15.5991 34.2459 16.222 35 16.222Z" fill="black"/>
<path d="M33.7393 1.91991C33.9566 2.45509 34.4963 2.80749 35.0677 2.77678C35.6304 2.74754 36.1254 2.35858 36.2996 1.81317C36.4737 1.26191 36.2837 0.63461 35.8304 0.283674C35.3699 -0.074573 34.7251 -0.095044 34.243 0.231034C33.7033 0.593668 33.4947 1.31601 33.7393 1.91991Z" fill="black"/>
<path d="M31.0265 69.921C30.5128 69.8377 29.4751 69.418 29.0492 69.1212C28.0518 68.4237 27.3308 67.3431 27.0703 66.1499L26.9322 65.5124L26.5465 65.5753C26.3349 65.6104 25.8514 65.5884 25.4729 65.527C23.3473 65.1849 21.6232 63.3673 21.4533 61.2909L21.39 60.5306H20.9223C20.3596 60.5306 19.3234 60.1913 18.7377 59.8141C17.382 58.9411 16.5128 57.2844 16.5128 55.5736V54.9025L16.0637 54.8293C15.3255 54.7094 14.2706 54.1275 13.6561 53.5016C12.0255 51.8391 11.788 49.2334 13.0948 47.3325C13.3337 46.9859 13.4963 46.6496 13.456 46.5853C13.4172 46.5209 12.0543 44.6405 10.4281 42.4077L7.47205 38.3485L4.22822 35.5103C0.283526 32.0565 0.290722 32.0638 0.290722 31.4833C0.290722 31.2391 0.34397 30.9379 0.410171 30.8122C0.561281 30.5256 12.889 14.9352 13.3999 14.3869C13.9108 13.8371 14.3454 13.6982 14.8606 13.9175C15.0779 14.0097 16.9531 15.1868 19.0284 16.5335L22.8018 18.9827L30.7459 21.1936L38.6569 18.8716H48.6158L52.3172 16.4691C54.3536 15.1473 56.1914 13.9921 56.3987 13.9044C56.7383 13.7596 56.8232 13.7611 57.2147 13.9205C57.4564 14.017 57.7529 14.229 57.8767 14.3913C59.808 16.9239 69.3394 29.5751 69.5193 29.8456C69.8 30.2668 69.8331 30.7157 69.6143 31.1412C69.5308 31.302 67.9262 32.7789 66.0496 34.421L62.6359 37.4068L58.2177 46.8426L58.507 47.5006C59.3619 49.4425 59.0064 51.4779 57.5471 52.9796C56.78 53.7692 55.9856 54.1801 54.8775 54.36C54.0874 54.4872 54.0773 54.493 54.0744 54.8176C54.0586 56.9554 52.2136 58.9982 49.9758 59.3623L49.1684 59.4924V59.8931C49.1684 60.4662 48.8201 61.5308 48.4272 62.1537C47.6875 63.3293 46.4283 64.1438 45.0064 64.3675L44.2595 64.4859V64.891C44.2595 65.4729 43.9112 66.533 43.5111 67.1677C42.5224 68.7381 40.5681 69.6505 38.8497 69.3464C37.9028 69.1782 37.1846 68.8536 36.4982 68.2833C36.1902 68.0275 35.9081 67.8184 35.8707 67.8184C35.8333 67.8184 35.4864 68.1196 35.1022 68.4866C33.9048 69.6271 32.4254 70.1477 31.0265 69.921ZM32.5736 67.1194C33.0385 66.9205 34.8057 65.1907 35.1439 64.6029C36.0362 63.0515 35.0907 61.2559 33.381 61.2573C32.5837 61.2573 32.2253 61.4664 31.0971 62.5865C30.0897 63.5852 29.6968 64.1555 29.5845 64.7828C29.4967 65.2755 29.6896 66.0315 30.0177 66.4731C30.543 67.1808 31.726 67.4791 32.5736 67.1194ZM40.7264 66.3707C41.5611 65.8078 41.9007 64.483 41.4402 63.5764C41.3351 63.3673 40.417 62.3394 39.3995 61.2924C38.2554 60.1124 37.5243 59.2745 37.4782 59.0888C37.3602 58.6019 37.5142 58.0667 37.8596 57.7714C38.2697 57.4204 38.536 57.34 38.9994 57.4277C39.3103 57.4877 39.7003 57.8371 41.1883 59.3915C42.3353 60.5905 43.1643 61.3655 43.4492 61.5059C44.8956 62.2195 46.5362 61.193 46.5348 59.5757C46.5348 59.1956 46.4614 58.8066 46.3448 58.5727C46.2397 58.3636 44.7488 56.7492 43.0319 54.9843C41.3135 53.2194 39.8557 51.668 39.7895 51.5379C39.7233 51.4063 39.67 51.0963 39.67 50.8462C39.67 50.4763 39.7362 50.3257 40.0327 50.0244C40.3349 49.7159 40.4745 49.6545 40.8602 49.6545C41.1236 49.6545 41.4445 49.7378 41.6028 49.8446C41.7554 49.9499 43.2406 51.4457 44.9042 53.1697C46.6024 54.9317 48.1034 56.3968 48.3294 56.5138C48.5755 56.6425 48.9511 56.7244 49.2907 56.7244C50.5327 56.7244 51.4091 55.8587 51.4091 54.6319C51.4091 54.2839 51.3444 53.8409 51.2652 53.6479C51.1832 53.4475 49.1396 51.2542 46.4801 48.5125C43.927 45.879 41.7827 43.6184 41.7151 43.4883C41.2589 42.6124 42.1482 41.4631 43.1355 41.6517C43.478 41.7175 44.1371 42.3521 48.1883 46.5165C50.8248 49.2275 53.0195 51.3975 53.2441 51.5145C53.8744 51.8405 54.7724 51.7952 55.3754 51.4062C56.2504 50.8404 56.5929 49.5302 56.1123 48.5885C55.9971 48.3648 52.2669 44.4797 47.7005 39.8298L39.4945 31.4746L36.7284 31.2655C35.2058 31.1514 33.8113 31.0564 33.6271 31.0549C33.3004 31.0534 33.2558 31.1236 31.5461 34.2236C29.3039 38.29 28.7815 38.8969 27.0646 39.4423C25.4786 39.9453 23.7732 39.5183 22.5126 38.3046C21.5354 37.363 20.9928 36.1186 20.9957 34.8245C20.9986 33.4559 20.9165 33.6343 24.5605 27.0864C25.824 24.8141 26.8242 22.9249 26.7811 22.8869C26.7149 22.8284 23.3904 21.8867 22.9026 21.7887C22.7025 21.7493 10.0812 37.3396 10.1546 37.5384C10.1964 37.654 15.1542 44.4928 15.3442 44.6946C15.3974 44.7516 15.5931 44.6697 15.8148 44.4972C16.0249 44.3349 16.471 44.0702 16.8078 43.9094C17.3604 43.6447 17.5374 43.6169 18.647 43.6169C19.8055 43.6169 19.9135 43.6359 20.5956 43.965C21.5642 44.4329 22.396 45.2532 22.8594 46.1978C23.0623 46.6116 23.258 47.1058 23.2926 47.2959L23.3559 47.641L24.4971 47.6483C25.8557 47.6556 26.4803 47.8633 27.42 48.6178C28.4706 49.46 29.2118 50.9062 29.2118 52.1125C29.2118 52.5804 29.219 52.5907 29.5629 52.5907C30.0422 52.5907 31.0452 52.867 31.5849 53.1478C31.8296 53.275 32.3088 53.6493 32.6485 53.9798C33.689 54.9916 34.207 56.3764 34.0876 57.8255L34.0286 58.5478L34.7424 58.7847C36.3485 59.3213 37.4437 60.4516 37.8999 62.0469C38.133 62.8599 38.1129 64.1364 37.8567 64.8822C37.743 65.2112 37.648 65.5621 37.6466 65.6616C37.6423 65.875 38.3719 66.4921 38.7907 66.6281C39.3462 66.8094 40.2558 66.688 40.7264 66.3707ZM27.0243 62.7166C27.551 62.4666 31.1733 58.7686 31.346 58.3051C31.4827 57.9366 31.5101 57.0841 31.3978 56.7068C31.2683 56.2755 30.8207 55.7535 30.3832 55.5268C29.8349 55.2417 28.9153 55.2373 28.3799 55.5181C28.1626 55.6321 27.1408 56.5986 26.109 57.6661C24.4727 59.3579 24.2151 59.6723 24.0942 60.1182C23.792 61.2485 24.4281 62.4988 25.4671 62.8204C25.9478 62.9681 26.5825 62.9257 27.0243 62.7166ZM22.2334 57.6485C22.8292 57.3473 26.0644 54.0982 26.3651 53.5002C26.9207 52.3976 26.5004 51.01 25.4455 50.4529C25.0138 50.2262 24.0021 50.2365 23.5444 50.4719C23.0753 50.7146 19.8861 53.914 19.4875 54.5427C18.9492 55.3894 19.0931 56.6118 19.8142 57.3151C20.456 57.9439 21.3987 58.074 22.2334 57.6485ZM17.9735 51.9882C18.6398 51.6504 20.2804 49.9513 20.5726 49.2977C21.0115 48.3092 20.7064 47.1702 19.8386 46.556C19.4429 46.2753 19.2802 46.2285 18.7175 46.2329C17.8209 46.2387 17.4093 46.4844 16.2336 47.7127C15.0837 48.9146 14.8765 49.2772 14.8765 50.0888C14.8765 51.7382 16.5027 52.7354 17.9735 51.9882ZM58.2249 40.6881C59.8008 37.322 60.0354 36.7532 59.9202 36.5851C59.8468 36.4783 57.2175 33.0625 54.0773 28.9932L48.3682 21.5957H38.7634L29.0031 24.4734L26.3925 29.1686C24.9562 31.7509 23.7301 34.0613 23.6667 34.3011C23.425 35.2135 23.9042 36.2809 24.7533 36.7225C25.1045 36.9053 25.3347 36.9418 25.9147 36.9082C27.0689 36.8424 27.1207 36.7795 29.4967 32.5157C30.6265 30.4846 31.677 28.7139 31.8281 28.5793C32.1836 28.265 32.4427 28.2664 36.917 28.5969C39.9953 28.825 40.4486 28.882 40.7595 29.0794C40.9523 29.2037 44.52 32.7803 48.6848 37.0296C52.8512 41.2774 56.2893 44.718 56.3267 44.6756C56.3641 44.6317 57.2175 42.8376 58.2249 40.6881ZM14.4246 27.8994C17.6267 23.9221 20.2459 20.6175 20.2459 20.5575C20.2445 20.4976 19.0097 19.6539 17.5015 18.6815L14.757 16.9122L14.5267 17.1578C14.2778 17.4225 3.5878 30.9174 3.45828 31.1309C3.40935 31.2128 4.25413 32.0273 5.80409 33.3901C8.12255 35.4299 8.23624 35.5132 8.41469 35.3275C8.51687 35.2208 11.221 31.8781 14.4246 27.8994ZM64.2679 32.4864C66.3892 30.6294 66.654 30.3618 66.5374 30.198C66.464 30.0957 64.1758 27.063 61.4529 23.4601C56.7239 17.2002 56.4922 16.9151 56.2778 17.054C56.1526 17.1344 54.8861 17.9504 53.4614 18.8672C51.0911 20.3938 50.8824 20.5531 51.0062 20.7345C51.5545 21.5372 61.7249 34.6301 61.7868 34.6125C61.83 34.5994 62.9468 33.643 64.2679 32.4864Z" fill="#C83737"/>
<path d="M34.4445 16.0129C34.2991 15.9383 34.0718 15.7117 33.9379 15.5099C33.6947 15.1414 33.6947 15.1356 33.6947 10.8776C33.6947 6.6166 33.6947 6.61222 33.9379 6.24374C34.0948 6.00393 34.3423 5.81676 34.6359 5.71148C35.059 5.56234 35.118 5.56672 35.4778 5.76705C35.6908 5.88549 35.9642 6.12091 36.0866 6.28907C36.3024 6.58882 36.3082 6.71165 36.3082 10.9126C36.3082 14.9718 36.2967 15.2467 36.1067 15.5333C35.7311 16.0977 35.0115 16.3054 34.4445 16.0129Z" fill="#C83737"/>
<path d="M34.4862 2.56622C34.03 2.35566 33.6933 1.83657 33.6947 1.34379C33.6947 0.758902 34.3985 0.0541052 34.9799 0.0541052C35.3641 0.0541052 35.9355 0.391881 36.0995 0.716496C36.3471 1.20342 36.2981 1.8351 35.9844 2.21529C35.7383 2.51212 35.6131 2.58377 35.082 2.72414C34.9928 2.74754 34.7251 2.67735 34.4862 2.56622Z" fill="#C83737"/>
<path d="M27.1308 16.0465C27.0128 15.9954 24.6957 13.6836 21.9815 10.9112L17.0452 5.86794V5.36201C17.0452 4.78004 17.3619 4.30628 17.903 4.07817C18.6154 3.77695 18.6657 3.81935 23.956 9.21792L28.8923 14.2538V14.7188C28.8923 14.9747 28.8189 15.3286 28.7297 15.5041C28.4562 16.0436 27.7093 16.2966 27.1308 16.0465Z" fill="#C83737"/>
<path d="M41.8086 16.0129C41.4675 15.8374 41.0574 15.216 41.0574 14.8753C41.0574 14.7276 41.1308 14.4512 41.22 14.2597C41.3092 14.0667 43.5543 11.7023 46.2095 9.00297C50.4061 4.73764 51.0882 4.08694 51.4322 4.0226C52.3057 3.85737 53.1232 4.67184 52.9649 5.5521C52.8958 5.93959 52.4007 6.48062 48.0674 10.9112C45.4151 13.6236 43.1153 15.9106 42.957 15.9968C42.6045 16.1884 42.1583 16.1942 41.8086 16.0129Z" fill="#C83737"/>
</svg>
