<svg width="70" height="70" viewBox="0 0 70 70" fill="none" xmlns="http://www.w3.org/2000/svg">
<path d="M5.74218 60.9531C4.58202 60.9531 3.58202 61.7735 3.35546 62.9141C3.13085 64.0527 3.74023 65.1934 4.81249 65.6367C5.88671 66.0801 7.12304 65.7051 7.76952 64.7383C8.41406 63.7735 8.2871 62.4863 7.46484 61.6641C7.00781 61.207 6.38866 60.9512 5.74218 60.9531Z" fill="black"/>
<path d="M41.9883 35.1016L46.1406 30.9512C42.6445 29.3301 39.7734 26.6113 37.9648 23.209L34.2422 26.9336C36.3965 29.3457 38.834 31.959 41.4824 34.6074L41.9883 35.1016Z" fill="black"/>
<path d="M20.2891 20.2889C23.8535 16.7303 24.7871 11.3103 22.6172 6.76346C20.4473 2.21854 15.6484 -0.465052 10.6387 0.0661983L18.457 7.88456C18.625 8.05253 18.6816 8.30057 18.6035 8.52518L16.0996 15.7205C16.0371 15.8982 15.8984 16.0389 15.7187 16.1014L8.51952 18.6033C8.29491 18.6814 8.04687 18.6248 7.8789 18.4568L0.0663985 10.6404C-0.466804 15.6502 2.21874 20.451 6.76366 22.6189C11.3105 24.7889 16.7305 23.8553 20.2891 20.2889Z" fill="black"/>
<path d="M65.1894 26.541C69.7285 21.9629 71.1953 15.1641 68.9453 9.12111L62.0195 16.0469C57.623 20.4453 50.4922 20.4453 46.0957 16.0469L38.4785 8.43165C35.3633 15.6699 37.8262 24.1016 44.3496 28.5234C50.873 32.9473 59.6172 32.1152 65.1894 26.541Z" fill="black"/>
<path d="M67.4844 55.3379C64.6875 52.5391 60.3398 52.0137 56.957 54.0645C53.5742 56.1172 52.0293 60.2129 53.2148 63.9863C54.4023 67.7617 58.0117 70.2383 61.9609 69.9844L56.4492 64.4727C56.2812 64.3047 56.2246 64.0567 56.3027 63.832L58.1465 58.5313C58.209 58.3516 58.3496 58.211 58.5273 58.1485L63.8281 56.3047C64.0527 56.2266 64.3027 56.2852 64.4707 56.4512L69.9805 61.9629C70.1426 59.4981 69.2324 57.082 67.4844 55.3379Z" fill="black"/>
<path d="M59.25 51.8281C56.3476 49.541 47.748 42.6152 40.6055 35.4746C37.7988 32.668 35.2207 29.9004 32.9687 27.3594L32.9492 27.3438C32.9277 27.3203 32.9062 27.2949 32.8887 27.2676C28.5254 22.3535 25.3789 18.332 24.0976 16.6582C22.7656 20.0664 20.0684 22.7637 16.6562 24.0918C18.3379 25.377 22.3867 28.5488 27.2715 32.8828C27.2969 32.9004 27.3203 32.9199 27.3437 32.9414L27.3594 32.9609C29.8672 35.1856 32.5898 37.7168 35.3262 40.4531C43.2422 48.3672 49.6582 56.4258 51.832 59.2266C52.6641 55.5313 55.5527 52.6465 59.25 51.8203V51.8281Z" fill="black"/>
<path d="M26.9277 34.2402L1.65038 59.5176C-0.548836 61.7168 -0.548836 65.2813 1.65038 67.4805C3.84765 69.6777 7.4121 69.6777 9.61132 67.4805L35.1016 41.9902L34.4512 41.336C31.873 38.7578 29.3066 36.3672 26.9277 34.2402ZM8.34374 65.9883C6.9082 67.4238 4.58007 67.4258 3.14452 65.9902C1.70898 64.5547 1.70898 62.2266 3.14452 60.793C4.58007 59.3574 6.9082 59.3574 8.34374 60.793C9.0332 61.4805 9.41991 62.4141 9.41991 63.3887C9.41991 64.3633 9.03124 65.2969 8.34179 65.9844L8.34374 65.9883Z" fill="black"/>
<path d="M61.0547 2.19337C55.8184 0.335949 51.1621 0.42384 47.2012 2.45118C45.5215 3.3047 44.041 4.49806 42.8496 5.95509L50.0723 13.1777L61.0547 2.19337Z" fill="black"/>
<path d="M50.4277 57.332C40.9707 45.4414 30.8262 35.2617 19.2109 26.0059L16.8281 24.1055L17.6738 23.7012C20.2012 22.4902 22.291 20.4375 23.6289 17.8496C23.8965 17.332 24.1504 16.9356 24.1934 16.9688C24.2363 17.002 25.2363 18.2344 26.4199 19.707C35.5742 31.1211 45.3848 40.8574 57.2715 50.3262C58.1426 51.0195 58.9004 51.627 58.957 51.6758C59.0137 51.7246 58.7676 51.8613 58.4101 51.9785C55.459 52.9453 53.0918 55.2422 52.1094 58.0938L51.7832 59.0371L50.4277 57.332Z" fill="#C83737"/>
<path d="M59.707 69.7559C57.0371 69.168 54.8848 67.4668 53.7402 65.0371C53.1269 63.7363 52.9355 62.877 52.9336 61.4121C52.9316 59.8613 53.125 59.0625 53.8711 57.5391C54.8437 55.5586 56.6406 54.0254 58.8555 53.2891C59.709 53.0039 60.0234 52.9649 61.4121 52.9649C62.7988 52.9649 63.1152 53.0039 63.9687 53.2871C66.7832 54.2207 68.8613 56.4102 69.623 59.2442C69.8203 59.9785 69.9355 61.0098 69.8848 61.5918C69.8789 61.6563 68.625 60.4649 67.0976 58.9434C65.5723 57.4219 64.2422 56.1758 64.1445 56.1758C63.8476 56.1758 58.3769 58.125 58.2324 58.2813C58.0351 58.4942 56.2363 63.7324 56.2363 64.0899C56.2363 64.3223 56.8809 65.0371 59.0059 67.1641L61.7754 69.9356L61.1074 69.9258C60.7383 69.9199 60.1094 69.8438 59.707 69.7559Z" fill="#C83737"/>
<path d="M10.1504 23.5938C10.0156 23.5606 9.52343 23.4453 9.05468 23.3379C7.01366 22.8652 5.12109 21.7793 3.50781 20.1504C1.30273 17.9238 0.103508 15.0586 0.103508 12.0137V10.8242L4.03515 14.7481C7.08007 17.7871 8.03515 18.6719 8.26757 18.6719C8.66015 18.6699 15.8144 16.168 16.0059 15.9668C16.1641 15.7969 18.7344 8.48829 18.7344 8.20314C18.7344 8.10548 16.9805 6.2715 14.8379 4.12501C12.6953 1.97657 10.9414 0.181652 10.9414 0.132824C10.9414 -0.0136601 12.3848 0.033215 13.6309 0.220715C18.1152 0.896496 21.7851 4.04884 23.1582 8.4004C24.916 13.9785 22.2109 20.0684 16.8613 22.5762C15.2305 23.3399 14.209 23.5664 12.1582 23.6113C11.1875 23.6328 10.2832 23.625 10.1504 23.5938Z" fill="#C83737"/>
<path d="M51.8555 31.2031C45.4199 30.4824 40.082 26.1445 38.0351 19.9707C37.3965 18.0449 37.1992 16.5606 37.2773 14.3067C37.3476 12.293 37.5566 11.1563 38.1719 9.43946L38.4922 8.54493L42.7676 12.7969C45.2441 15.2578 47.3418 17.2402 47.7519 17.5059C48.7539 18.1563 50.0605 18.7363 51.2539 19.0606C52.6797 19.4473 55.4629 19.4492 56.8808 19.0606C57.9609 18.7656 59.5937 18.0313 60.459 17.4512C60.7832 17.2324 62.8066 15.3047 64.959 13.1641C67.1094 11.0234 68.8984 9.31837 68.9336 9.37501C68.9668 9.43361 69.1133 9.85939 69.2559 10.3242C70.1309 13.1699 70.082 16.8731 69.1309 19.8613C67.5098 24.9492 63.5273 28.9258 58.4492 30.5313C56.4433 31.1641 53.8574 31.4277 51.8555 31.2031Z" fill="#C83737"/>
<path d="M42.9687 5.94923L43.4726 5.35939C44.2734 4.42384 46.0547 3.12892 47.5273 2.41017C50.457 0.980481 53.4121 0.613293 57.0898 1.21876C58.2285 1.40821 60.5976 2.04884 60.7695 2.21681C60.8184 2.26368 58.4355 4.72657 55.4726 7.68751L50.0859 13.0723L42.9687 5.94923Z" fill="#C83737"/>
<path d="M38.9902 31.9141C35.9883 28.7715 34.4414 27.084 34.4414 26.959C34.4414 26.9199 35.2422 26.0957 36.2207 25.125C37.291 24.0625 38.0234 23.4238 38.0586 23.5176C38.1934 23.875 39.5684 25.8496 40.1543 26.5274C41.4726 28.0508 43.3418 29.5527 45.0898 30.4961L46.0332 31.0059L44.043 32.9981C42.9492 34.0938 42.0254 34.9883 41.9883 34.9883C41.9531 34.9883 40.6035 33.6055 38.9902 31.9141Z" fill="#C83737"/>
<path d="M4.24413 68.8613C2.6328 68.4414 1.34765 67.3594 0.609367 65.8047C-0.130867 64.2481 -0.0625075 62.375 0.791008 60.7969C0.994133 60.4219 5.30273 56.0293 14.0273 47.3067L26.9629 34.3692L27.9316 35.2442C29.8769 36.9981 34.9277 41.8711 34.9277 41.9922C34.9277 42.0625 29.0801 47.957 21.9297 55.0918C9.90429 67.0957 8.87304 68.0938 8.14062 68.4395C6.73827 69.1035 5.6289 69.2246 4.24413 68.8613ZM7.35741 66.7539C8.07812 66.4141 8.76367 65.7266 9.13867 64.9668C9.5664 64.0977 9.53906 62.6914 9.07812 61.75C8.37695 60.3262 7.14257 59.6328 5.47655 59.7324C4.3789 59.7988 3.79882 60.0606 3.07031 60.8242C2.3496 61.5781 2.14257 62.0606 2.07812 63.1309C2.01757 64.168 2.13281 64.6387 2.65234 65.457C3.61327 66.9727 5.67968 67.541 7.35741 66.7539Z" fill="#C83737"/>
<path d="M5.08202 65.6328C3.6582 65.1055 2.99413 63.6387 3.62304 62.4121C4.6621 60.3848 7.44726 60.6797 8.02734 62.875C8.21288 63.5801 8.02929 64.2969 7.50781 64.8906C6.84179 65.6504 5.90429 65.9375 5.08202 65.6328Z" fill="#C83737"/>
</svg>
