<svg width="70" height="70" viewBox="0 0 70 70" fill="none" xmlns="http://www.w3.org/2000/svg">
<path d="M68.9063 36.0938H1.09376C0.802918 36.0938 0.524509 35.9794 0.320673 35.7731C0.114352 35.5692 5.5714e-06 35.2908 5.5714e-06 35V1.09375C5.5714e-06 0.802912 0.114352 0.524503 0.320673 0.320667C0.524509 0.114347 0.802918 0 1.09376 0H68.9063C69.1971 0 69.4755 0.114347 69.6793 0.320667C69.8857 0.524503 70 0.802912 70 1.09375V35C70 35.2908 69.8857 35.5692 69.6793 35.7731C69.4755 35.9794 69.1971 36.0938 68.9063 36.0938ZM2.18751 33.9062H67.8125V2.1875H2.18751V33.9062Z" fill="black"/>
<path d="M25.1563 31.7188H5.46876C5.17792 31.7188 4.89951 31.6044 4.69567 31.3981C4.48935 31.1942 4.37501 30.9158 4.37501 30.625V5.46875C4.37501 5.17791 4.48935 4.8995 4.69567 4.69567C4.89951 4.48935 5.17792 4.375 5.46876 4.375H25.1563C25.4471 4.375 25.7255 4.48935 25.9293 4.69567C26.1357 4.8995 26.25 5.17791 26.25 5.46875V30.625C26.25 30.9158 26.1357 31.1942 25.9293 31.3981C25.7255 31.6044 25.4471 31.7188 25.1563 31.7188ZM6.56251 29.5312H24.0625V6.5625H6.56251V29.5312Z" fill="black"/>
<path d="M21.875 28.4375H8.75001C8.45917 28.4375 8.18076 28.3232 7.97692 28.1168C7.7706 27.913 7.65626 27.6346 7.65626 27.3438V8.75C7.65626 8.45916 7.7706 8.18075 7.97692 7.97692C8.18076 7.7706 8.45917 7.65625 8.75001 7.65625H21.875C22.1658 7.65625 22.4443 7.7706 22.6481 7.97692C22.8544 8.18075 22.9688 8.45916 22.9688 8.75V27.3438C22.9688 27.6346 22.8544 27.913 22.6481 28.1168C22.4443 28.3232 22.1658 28.4375 21.875 28.4375ZM9.84376 26.25H20.7813V9.84375H9.84376V26.25Z" fill="black"/>
<path d="M21.875 22.9688H8.75001C8.14596 22.9688 7.65626 22.479 7.65626 21.875C7.65626 21.271 8.14596 20.7812 8.75001 20.7812H21.875C22.4791 20.7812 22.9688 21.271 22.9688 21.875C22.9688 22.479 22.4791 22.9688 21.875 22.9688Z" fill="black"/>
<path d="M19.6875 28.4375C19.2401 28.4375 18.8374 28.1641 18.6708 27.7489L16.4833 22.2802C16.3367 21.9173 16.3963 21.5046 16.6374 21.1964C16.881 20.8881 17.2688 20.734 17.6566 20.7887C18.0444 20.8459 18.3725 21.1044 18.5167 21.4698L20.7042 26.9386C20.9279 27.4979 20.6545 28.1342 20.0927 28.3604C19.9634 28.4102 19.8267 28.4375 19.6875 28.4375Z" fill="black"/>
<path d="M10.9375 28.4375C10.7983 28.4375 10.6616 28.4102 10.5323 28.3604C9.97053 28.1342 9.69709 27.4979 9.92081 26.9386L12.1083 21.4698C12.2525 21.1044 12.5806 20.8459 12.9684 20.7887C13.3562 20.734 13.744 20.8881 13.9876 21.1964C14.2287 21.5046 14.2884 21.9173 14.1417 22.2802L11.9542 27.7489C11.7876 28.1641 11.3849 28.4375 10.9375 28.4375Z" fill="black"/>
<path d="M19.6875 22.9688C19.3967 22.9688 19.1183 22.8544 18.9144 22.6481C18.7081 22.4442 18.5938 22.1658 18.5938 21.875C18.5938 20.0629 17.1247 18.5938 15.3125 18.5938C13.5004 18.5938 12.0313 20.0629 12.0313 21.875C12.0313 22.479 11.5416 22.9688 10.9375 22.9688C10.3335 22.9688 9.84376 22.479 9.84376 21.875C9.84376 18.8548 12.2923 16.4062 15.3125 16.4062C18.3327 16.4062 20.7813 18.8548 20.7813 21.875C20.7813 22.1658 20.6669 22.4442 20.4606 22.6481C20.2568 22.8544 19.9783 22.9688 19.6875 22.9688Z" fill="black"/>
<path d="M17.5 14.2188H13.125C12.521 14.2188 12.0313 13.729 12.0313 13.125C12.0313 12.521 12.521 12.0312 13.125 12.0312H17.5C18.1041 12.0312 18.5938 12.521 18.5938 13.125C18.5938 13.729 18.1041 14.2188 17.5 14.2188Z" fill="black"/>
<path d="M35 12.0312C34.7092 12.0312 34.4308 11.9169 34.2269 11.7106L30.9457 8.42933C30.5256 8.00178 30.5281 7.31321 30.9531 6.89062C31.3757 6.46555 32.0643 6.46307 32.4918 6.88317L35.7731 10.1644C36.0863 10.4776 36.1808 10.9474 36.0092 11.3551C35.8402 11.7653 35.4425 12.0312 35 12.0312Z" fill="black"/>
<path d="M31.7188 12.0312C31.2763 12.0312 30.8786 11.7653 30.7095 11.3551C30.538 10.9474 30.6325 10.4776 30.9457 10.1644L34.2269 6.88317C34.6545 6.46307 35.343 6.46555 35.7656 6.89062C36.1907 7.31321 36.1932 8.00178 35.7731 8.42933L32.4918 11.7106C32.288 11.9169 32.0096 12.0312 31.7188 12.0312Z" fill="black"/>
<path d="M62.3438 8.75H40.4688C39.8647 8.75 39.375 8.2603 39.375 7.65625C39.375 7.0522 39.8647 6.5625 40.4688 6.5625H62.3438C62.9478 6.5625 63.4375 7.0522 63.4375 7.65625C63.4375 8.2603 62.9478 8.75 62.3438 8.75Z" fill="black"/>
<path d="M51.4063 12.0312H40.4688C39.8647 12.0312 39.375 11.5415 39.375 10.9375C39.375 10.3335 39.8647 9.84375 40.4688 9.84375H51.4063C52.0103 9.84375 52.5 10.3335 52.5 10.9375C52.5 11.5415 52.0103 12.0312 51.4063 12.0312Z" fill="black"/>
<path d="M35 20.7812C34.7092 20.7812 34.4308 20.6669 34.2269 20.4606L30.9457 17.1793C30.5256 16.7518 30.5281 16.0632 30.9531 15.6406C31.3757 15.2156 32.0643 15.2131 32.4918 15.6332L35.7731 18.9144C36.0863 19.2276 36.1808 19.6974 36.0092 20.1051C35.8402 20.5153 35.4425 20.7812 35 20.7812Z" fill="black"/>
<path d="M31.7188 20.7812C31.2763 20.7812 30.8786 20.5153 30.7095 20.1051C30.538 19.6974 30.6325 19.2276 30.9457 18.9144L34.2269 15.6332C34.6545 15.2131 35.343 15.2156 35.7656 15.6406C36.1907 16.0632 36.1932 16.7518 35.7731 17.1793L32.4918 20.4606C32.288 20.6669 32.0096 20.7812 31.7188 20.7812Z" fill="black"/>
<path d="M62.3438 17.5H40.4688C39.8647 17.5 39.375 17.0103 39.375 16.4062C39.375 15.8022 39.8647 15.3125 40.4688 15.3125H62.3438C62.9478 15.3125 63.4375 15.8022 63.4375 16.4062C63.4375 17.0103 62.9478 17.5 62.3438 17.5Z" fill="black"/>
<path d="M51.4063 20.7812H40.4688C39.8647 20.7812 39.375 20.2915 39.375 19.6875C39.375 19.0835 39.8647 18.5938 40.4688 18.5938H51.4063C52.0103 18.5938 52.5 19.0835 52.5 19.6875C52.5 20.2915 52.0103 20.7812 51.4063 20.7812Z" fill="black"/>
<path d="M32.8125 29.5312C32.5217 29.5312 32.2433 29.4169 32.0394 29.2106L30.9457 28.1168C30.5256 27.6893 30.5281 27.0007 30.9531 26.5781C31.3757 26.1531 32.0643 26.1506 32.4918 26.5707L33.5856 27.6644C33.8988 27.9776 33.9933 28.4474 33.8217 28.8551C33.6527 29.2653 33.255 29.5312 32.8125 29.5312Z" fill="black"/>
<path d="M32.8125 29.5312C32.37 29.5312 31.9723 29.2653 31.8033 28.8551C31.6318 28.4474 31.7262 27.9776 32.0394 27.6644L35.3207 24.3832C35.5966 24.1023 36.0018 23.9904 36.3796 24.0923C36.76 24.1918 37.0582 24.4901 37.1577 24.8704C37.2596 25.2482 37.1477 25.6534 36.8668 25.9293L33.5856 29.2106C33.3818 29.4169 33.1033 29.5312 32.8125 29.5312Z" fill="black"/>
<path d="M62.3438 26.25H40.4688C39.8647 26.25 39.375 25.7603 39.375 25.1562C39.375 24.5522 39.8647 24.0625 40.4688 24.0625H62.3438C62.9478 24.0625 63.4375 24.5522 63.4375 25.1562C63.4375 25.7603 62.9478 26.25 62.3438 26.25Z" fill="black"/>
<path d="M51.4063 29.5312H40.4688C39.8647 29.5312 39.375 29.0415 39.375 28.4375C39.375 27.8335 39.8647 27.3438 40.4688 27.3438H51.4063C52.0103 27.3438 52.5 27.8335 52.5 28.4375C52.5 29.0415 52.0103 29.5312 51.4063 29.5312Z" fill="black"/>
<path d="M68.9063 70H1.09376C0.802918 70 0.524509 69.8857 0.320673 69.6793C0.114352 69.4755 5.5714e-06 69.1971 5.5714e-06 68.9062V35C5.5714e-06 34.7092 0.114352 34.4308 0.320673 34.2269C0.524509 34.0206 0.802918 33.9062 1.09376 33.9062H68.9063C69.1971 33.9062 69.4755 34.0206 69.6793 34.2269C69.8857 34.4308 70 34.7092 70 35V68.9062C70 69.1971 69.8857 69.4755 69.6793 69.6793C69.4755 69.8857 69.1971 70 68.9063 70ZM2.18751 67.8125H67.8125V36.0938H2.18751V67.8125Z" fill="black"/>
<path d="M25.1563 65.625H5.46876C5.17792 65.625 4.89951 65.5107 4.69567 65.3043C4.48935 65.1005 4.37501 64.8221 4.37501 64.5312V39.375C4.37501 39.0842 4.48935 38.8058 4.69567 38.6019C4.89951 38.3956 5.17792 38.2812 5.46876 38.2812H25.1563C25.4471 38.2812 25.7255 38.3956 25.9293 38.6019C26.1357 38.8058 26.25 39.0842 26.25 39.375V64.5312C26.25 64.8221 26.1357 65.1005 25.9293 65.3043C25.7255 65.5107 25.4471 65.625 25.1563 65.625ZM6.56251 63.4375H24.0625V40.4688H6.56251V63.4375Z" fill="black"/>
<path d="M21.875 62.3438H8.75001C8.45917 62.3438 8.18076 62.2294 7.97692 62.0231C7.7706 61.8192 7.65626 61.5408 7.65626 61.25V42.6562C7.65626 42.3654 7.7706 42.087 7.97692 41.8832C8.18076 41.6768 8.45917 41.5625 8.75001 41.5625H21.875C22.1658 41.5625 22.4443 41.6768 22.6481 41.8832C22.8544 42.087 22.9688 42.3654 22.9688 42.6562V61.25C22.9688 61.5408 22.8544 61.8192 22.6481 62.0231C22.4443 62.2294 22.1658 62.3438 21.875 62.3438ZM9.84376 60.1562H20.7813V43.75H9.84376V60.1562Z" fill="black"/>
<path d="M17.5 48.125H13.125C12.521 48.125 12.0313 47.6353 12.0313 47.0312C12.0313 46.4272 12.521 45.9375 13.125 45.9375H17.5C18.1041 45.9375 18.5938 46.4272 18.5938 47.0312C18.5938 47.6353 18.1041 48.125 17.5 48.125Z" fill="black"/>
<path d="M62.3438 42.6562H40.4688C39.8647 42.6562 39.375 42.1665 39.375 41.5625C39.375 40.9585 39.8647 40.4688 40.4688 40.4688H62.3438C62.9478 40.4688 63.4375 40.9585 63.4375 41.5625C63.4375 42.1665 62.9478 42.6562 62.3438 42.6562Z" fill="black"/>
<path d="M51.4063 45.9375H40.4688C39.8647 45.9375 39.375 45.4478 39.375 44.8438C39.375 44.2397 39.8647 43.75 40.4688 43.75H51.4063C52.0103 43.75 52.5 44.2397 52.5 44.8438C52.5 45.4478 52.0103 45.9375 51.4063 45.9375Z" fill="black"/>
<path d="M62.3438 51.4062H40.4688C39.8647 51.4062 39.375 50.9165 39.375 50.3125C39.375 49.7085 39.8647 49.2188 40.4688 49.2188H62.3438C62.9478 49.2188 63.4375 49.7085 63.4375 50.3125C63.4375 50.9165 62.9478 51.4062 62.3438 51.4062Z" fill="black"/>
<path d="M51.4063 54.6875H40.4688C39.8647 54.6875 39.375 54.1978 39.375 53.5938C39.375 52.9897 39.8647 52.5 40.4688 52.5H51.4063C52.0103 52.5 52.5 52.9897 52.5 53.5938C52.5 54.1978 52.0103 54.6875 51.4063 54.6875Z" fill="black"/>
<path d="M32.8125 63.4375C32.5217 63.4375 32.2433 63.3232 32.0394 63.1168L30.9457 62.0231C30.5256 61.5955 30.5281 60.907 30.9531 60.4844C31.3757 60.0593 32.0643 60.0568 32.4918 60.4769L33.5856 61.5707C33.8988 61.8839 33.9933 62.3537 33.8217 62.7614C33.6527 63.1715 33.255 63.4375 32.8125 63.4375Z" fill="black"/>
<path d="M32.8125 63.4375C32.37 63.4375 31.9723 63.1715 31.8033 62.7614C31.6318 62.3537 31.7262 61.8839 32.0394 61.5707L35.3207 58.2894C35.7482 57.8693 36.4368 57.8718 36.8594 58.2969C37.2845 58.7195 37.2869 59.408 36.8668 59.8356L33.5856 63.1168C33.3818 63.3232 33.1033 63.4375 32.8125 63.4375Z" fill="black"/>
<path d="M32.8125 54.6875C32.5217 54.6875 32.2433 54.5732 32.0394 54.3668L30.9457 53.2731C30.5256 52.8455 30.5281 52.157 30.9531 51.7344C31.3757 51.3093 32.0643 51.3068 32.4918 51.7269L33.5856 52.8207C33.8988 53.1339 33.9933 53.6037 33.8217 54.0114C33.6527 54.4215 33.255 54.6875 32.8125 54.6875Z" fill="black"/>
<path d="M32.8125 54.6875C32.37 54.6875 31.9723 54.4215 31.8033 54.0114C31.6318 53.6037 31.7262 53.1339 32.0394 52.8207L35.3207 49.5394C35.7482 49.1193 36.4368 49.1218 36.8594 49.5469C37.2845 49.9695 37.2869 50.658 36.8668 51.0856L33.5856 54.3668C33.3818 54.5732 33.1033 54.6875 32.8125 54.6875Z" fill="black"/>
<path d="M32.8125 45.9375C32.5217 45.9375 32.2433 45.8232 32.0394 45.6168L30.9457 44.5231C30.5256 44.0955 30.5281 43.407 30.9531 42.9844C31.3757 42.5593 32.0643 42.5568 32.4918 42.9769L33.5856 44.0707C33.8988 44.3839 33.9933 44.8537 33.8217 45.2614C33.6527 45.6715 33.255 45.9375 32.8125 45.9375Z" fill="black"/>
<path d="M32.8125 45.9375C32.37 45.9375 31.9723 45.6715 31.8033 45.2614C31.6318 44.8537 31.7262 44.3839 32.0394 44.0707L35.3207 40.7894C35.7482 40.3693 36.4368 40.3718 36.8594 40.7969C37.2845 41.2195 37.2869 41.908 36.8668 42.3356L33.5856 45.6168C33.3818 45.8232 33.1033 45.9375 32.8125 45.9375Z" fill="black"/>
<path d="M62.3438 60.1562H40.4688C39.8647 60.1562 39.375 59.6665 39.375 59.0625C39.375 58.4585 39.8647 57.9688 40.4688 57.9688H62.3438C62.9478 57.9688 63.4375 58.4585 63.4375 59.0625C63.4375 59.6665 62.9478 60.1562 62.3438 60.1562Z" fill="black"/>
<path d="M51.4063 63.4375H40.4688C39.8647 63.4375 39.375 62.9478 39.375 62.3438C39.375 61.7397 39.8647 61.25 40.4688 61.25H51.4063C52.0103 61.25 52.5 61.7397 52.5 62.3438C52.5 62.9478 52.0103 63.4375 51.4063 63.4375Z" fill="black"/>
<path d="M8.75001 59.0625C8.30753 59.0625 7.90981 58.7965 7.74077 58.3864C7.56925 57.9787 7.66371 57.5089 7.97692 57.1957L13.4457 51.7269C13.8732 51.3068 14.5618 51.3093 14.9844 51.7344C15.4095 52.157 15.4119 52.8455 14.9918 53.2731L9.52309 58.7418C9.31925 58.9482 9.04084 59.0625 8.75001 59.0625Z" fill="black"/>
<path d="M10.9375 62.3438C10.495 62.3438 10.0973 62.0778 9.92827 61.6676C9.75675 61.2599 9.85121 60.7901 10.1644 60.4769L21.1019 49.5394C21.5295 49.1193 22.218 49.1218 22.6406 49.5469C23.0657 49.9695 23.0682 50.658 22.6481 51.0856L11.7106 62.0231C11.5068 62.2294 11.2283 62.3438 10.9375 62.3438Z" fill="black"/>
<path d="M16.9531 56.3281C16.6623 56.3281 16.3839 56.2138 16.18 56.0075L13.4457 53.2731C13.0256 52.8455 13.0281 52.157 13.4531 51.7344C13.8757 51.3093 14.5643 51.3068 14.9918 51.7269L17.7262 54.4613C18.0394 54.7745 18.1339 55.2443 17.9624 55.652C17.7933 56.0621 17.3956 56.3281 16.9531 56.3281Z" fill="black"/>
<path d="M8.25285 62.125C8.09127 62.038 7.90981 61.8739 7.85015 61.7596C7.77806 61.6229 7.74077 58.2944 7.74077 51.9183V42.2834L8.05398 41.9677L8.36719 41.6545H22.2678L22.8967 42.2834V51.9183C22.8967 58.3217 22.8594 61.6229 22.7848 61.7621C22.4989 62.294 22.5263 62.294 15.2951 62.2891C9.54795 62.2841 8.50143 62.2592 8.25285 62.125ZM12.9808 57.75L15.4815 55.2468L14.1864 53.9666L9.78161 58.3665V60.2507H10.1321C10.4453 60.2507 10.7436 59.9897 12.9808 57.75ZM20.8533 56.5419C20.8533 54.5011 20.8409 52.8331 20.826 52.8331C20.8111 52.8331 19.1307 54.5011 17.0923 56.5419L13.3835 60.2507H20.8533V56.5419ZM13.9553 51.4908C14.4077 51.3565 14.6761 51.5256 15.75 52.6143C16.3342 53.2085 16.8636 53.6932 16.9233 53.6932C16.9854 53.6932 17.8952 52.8356 18.9443 51.7866L20.8533 49.88V43.6953H9.78161V55.4656L11.7429 53.5142C12.8217 52.4428 13.8185 51.5305 13.9553 51.4908Z" fill="#C83737"/>
<path d="M12.6179 47.8988C12.158 47.6179 11.9965 47.1257 12.2003 46.6385C12.4563 46.0245 12.782 45.9524 15.3175 45.9524C17.6666 45.9524 18.1364 46.0344 18.3725 46.4744C18.5192 46.7504 18.5217 47.3022 18.3775 47.5732C18.1264 48.043 17.7784 48.1026 15.2976 48.1026C13.1822 48.1026 12.9212 48.0827 12.6179 47.8988Z" fill="#C83737"/>
<path d="M5.18289 65.5032C4.96663 65.4411 4.74788 65.267 4.61861 65.0558C4.40981 64.7177 4.40732 64.4716 4.43466 51.8413L4.46201 38.9723L4.75782 38.674L5.05611 38.3757H25.5788L26.1754 38.9723L26.2028 51.7866C26.2276 63.8253 26.2177 64.6257 26.0412 64.9812C25.9119 65.2347 25.733 65.3963 25.4769 65.4858C25.0046 65.6449 5.73722 65.6648 5.18289 65.5032ZM24.0774 40.4712H6.55753V63.4748H24.0774V40.4712Z" fill="#C83737"/>
<path d="M31.5622 45.0277C31.1421 44.5778 30.7692 44.108 30.7344 43.9812C30.5927 43.4492 31.1321 42.7283 31.6765 42.7283C31.9822 42.7283 32.472 42.9645 32.6758 43.2106C32.8026 43.3647 32.9815 43.223 34.2369 41.9801C35.5593 40.6701 35.6786 40.5781 36.0664 40.5781C36.6605 40.5781 37.0856 41.0007 37.0856 41.5898C37.0856 42.0075 37.0185 42.0895 35.174 43.9339C33.2848 45.8256 33.2575 45.8455 32.7951 45.8455C32.3526 45.8455 32.2905 45.8033 31.5622 45.0277Z" fill="#C83737"/>
<path d="M32.4098 54.5582C32.2905 54.5085 31.8679 54.1307 31.4677 53.7156C30.8413 53.0643 30.7443 52.9077 30.7443 52.5671C30.7443 52.0575 30.8885 51.799 31.2962 51.5902C31.7038 51.3789 32.0891 51.4585 32.4918 51.8413L32.7901 52.1271L34.1051 50.8246C34.8285 50.1087 35.5245 49.4698 35.6538 49.4052C36.3075 49.0721 37.0856 49.5668 37.0856 50.315C37.0856 50.6903 36.9638 50.8395 35.2859 52.5547C34.294 53.5639 33.3867 54.4513 33.2699 54.5234C33.0213 54.6726 32.718 54.685 32.4098 54.5582Z" fill="#C83737"/>
<path d="M31.6864 62.642C30.5852 61.5856 30.4386 61.0636 31.0874 60.5167C31.5298 60.1438 32.032 60.1612 32.4943 60.5664L32.8548 60.8846L34.1896 59.5373C34.9254 58.7965 35.6413 58.1452 35.783 58.0881C36.131 57.9514 36.6978 58.1452 36.9166 58.4783C37.0085 58.62 37.0856 58.9158 37.0856 59.1371C37.0856 59.5075 36.9613 59.6591 35.1765 61.4514C33.3644 63.271 33.2475 63.3679 32.8548 63.3679C32.4918 63.3679 32.3526 63.2809 31.6864 62.642Z" fill="#C83737"/>
<path d="M40.1381 60.0369C39.82 59.9102 39.4496 59.4105 39.4496 59.1122C39.4496 58.6971 39.6758 58.3342 40.0462 58.1602C40.3544 58.0135 41.6918 57.9936 51.4311 57.9936C63.6712 57.9936 62.9577 57.9513 63.271 58.6996C63.4052 59.0202 63.4052 59.1172 63.266 59.4478C62.9602 60.1786 63.5693 60.1438 51.359 60.1364C45.3111 60.1314 40.2624 60.0891 40.1381 60.0369Z" fill="#C83737"/>
<path d="M39.7653 63.0522C39.3303 62.6197 39.3303 62.0728 39.7653 61.6403L40.0785 61.3246H51.8214L52.0824 61.5856C52.4205 61.9237 52.5124 62.3264 52.3459 62.729C52.0799 63.3754 52.1669 63.3679 45.843 63.3679H40.0785L39.7653 63.0522Z" fill="#C83737"/>
<path d="M40.0288 54.4911C39.3949 54.1754 39.2731 53.4645 39.7628 52.9151L40.0785 52.5646L45.6492 52.5323C51.446 52.4975 51.8065 52.5199 52.1943 52.9474C52.5099 53.2955 52.4652 53.9467 52.1023 54.3121L51.8065 54.608L46.0867 54.6328C41.0952 54.6552 40.3221 54.6378 40.0288 54.4911Z" fill="#C83737"/>
<path d="M39.7653 51.0135C39.3303 50.581 39.3303 50.0341 39.7653 49.5991L40.0785 49.2859H62.6644L63.0124 49.5941C63.4972 50.0291 63.4972 50.5859 63.0124 51.0185L62.6644 51.3292H40.0785L39.7653 51.0135Z" fill="#C83737"/>
<path d="M39.7653 45.5323C39.2557 45.0227 39.3576 44.2894 39.9865 43.9663C40.255 43.8271 41.1275 43.8047 46.0121 43.8047H51.7269L52.0923 44.1701C52.2937 44.3715 52.4577 44.6399 52.4577 44.7667C52.4577 45.0849 52.1744 45.6019 51.9258 45.7361C51.7916 45.8082 49.6836 45.8455 45.8977 45.8455H40.0785L39.7653 45.5323Z" fill="#C83737"/>
<path d="M39.9989 42.4723C39.3974 42.1367 39.2905 41.4059 39.7628 40.8764L40.0785 40.5259L51.1428 40.4961C59.853 40.4737 62.299 40.4961 62.6271 40.603C62.9404 40.7049 63.0945 40.8416 63.2411 41.1424C63.4325 41.5352 63.4325 41.5575 63.2411 41.9478C63.1342 42.169 62.9254 42.4102 62.7763 42.4847C62.3686 42.6861 40.3644 42.6737 39.9989 42.4723Z" fill="#C83737"/>
<path d="M0.502136 69.7042C0.348017 69.5849 0.171525 69.3065 0.111866 69.0877C-0.0422529 68.5309 -0.0422529 1.44673 0.111866 0.892401C0.171525 0.673651 0.348017 0.395242 0.502136 0.273438L0.780545 0.0546875H69.2219L69.5749 0.367898L69.9254 0.681108L69.9528 34.8285C69.9776 65.5131 69.9627 69.0131 69.8136 69.3288C69.7216 69.5227 69.5252 69.734 69.3761 69.8011C69.1772 69.8931 60.2631 69.9254 34.9453 69.9254H0.780545L0.502136 69.7042ZM67.8274 36.0639H2.15022V67.8821H67.8274V36.0639ZM67.8274 2.09553H2.15022V33.9137H67.8274V2.09553Z" fill="#C83737"/>
<path d="M40.0288 29.3374C39.3924 29.0217 39.2731 28.3107 39.7628 27.7614L40.0785 27.4109L45.6492 27.3785C51.4435 27.3437 51.809 27.3686 52.1943 27.7937C52.5099 28.1442 52.4652 28.7955 52.1023 29.1584L51.8065 29.4542L46.0867 29.479C41.0952 29.5014 40.3221 29.484 40.0288 29.3374Z" fill="#C83737"/>
<path d="M39.7653 25.8597C39.3303 25.4272 39.3303 24.8803 39.7653 24.4478L40.0785 24.1321H62.6644L63.0124 24.4403C63.4972 24.8754 63.4972 25.4322 63.0124 25.8647L62.6644 26.1754H40.0785L39.7653 25.8597Z" fill="#C83737"/>
<path d="M39.7653 20.3786C39.2557 19.869 39.3576 19.1357 39.9865 18.8125C40.255 18.6733 41.1275 18.6509 46.0121 18.6509H51.7269L52.0923 19.0163C52.2937 19.2177 52.4577 19.4862 52.4577 19.6129C52.4577 19.9336 52.1744 20.4482 51.9258 20.5824C51.7916 20.6545 49.6836 20.6918 45.8977 20.6918H40.0785L39.7653 20.3786Z" fill="#C83737"/>
<path d="M45.9897 15.2379C49.0224 15.2205 53.9567 15.2205 56.9521 15.2379C59.9499 15.2528 57.4666 15.2653 51.4361 15.2653C45.4055 15.2653 42.9546 15.2528 45.9897 15.2379Z" fill="#C83737"/>
<path d="M39.9989 17.3185C39.3974 16.983 39.2905 16.2546 39.7628 15.7227L40.0785 15.3722L51.1428 15.3423C59.853 15.32 62.299 15.3423 62.6271 15.4492C62.9379 15.5511 63.0945 15.6879 63.2386 15.9812C63.4127 16.3391 63.4151 16.4112 63.2734 16.7543C62.9577 17.5124 63.696 17.4677 51.3615 17.4627C42.3505 17.4602 40.2078 17.4329 39.9989 17.3185Z" fill="#C83737"/>
<path d="M39.9641 11.8175C39.3576 11.4893 39.2631 10.7585 39.7653 10.2564L40.0785 9.94318H45.8977C49.6836 9.94318 51.7916 9.98296 51.9258 10.055C52.1744 10.1868 52.4577 10.7038 52.4577 11.0245C52.4577 11.1513 52.2937 11.4197 52.0923 11.6211L51.7269 11.9865L45.9922 11.9815C41.1399 11.9766 40.2102 11.9517 39.9641 11.8175Z" fill="#C83737"/>
<path d="M45.8729 8.6804C48.9031 8.66548 53.8622 8.66548 56.8899 8.6804C59.9201 8.69531 57.4418 8.71023 51.3814 8.71023C45.321 8.71023 42.8427 8.69531 45.8729 8.6804Z" fill="#C83737"/>
<path d="M31.1893 11.8175C31.0501 11.718 30.8686 11.4744 30.7866 11.2781C30.5877 10.8033 30.722 10.4652 31.3583 9.81392L31.8505 9.31179L31.2962 8.70526C30.8313 8.19318 30.7443 8.03409 30.7443 7.68359C30.7443 7.07209 31.1222 6.66939 31.6989 6.66939C32.0867 6.66939 32.2085 6.73899 32.7255 7.25107L33.3146 7.83274L33.8988 7.2809C34.2195 6.97763 34.6097 6.69673 34.7639 6.65696C35.3729 6.50533 36.0092 7.0348 36.0092 7.69105C36.0092 7.94957 35.875 8.16584 35.4027 8.66051L34.7962 9.29936L35.4027 9.93572C35.8949 10.4503 36.0092 10.6417 36.0092 10.9325C36.0092 11.38 35.793 11.7006 35.3729 11.8746C34.9031 12.071 34.5575 11.9393 33.8988 11.3153L33.3146 10.7635L32.7479 11.3253C32.0966 11.9666 31.6119 12.1207 31.1893 11.8175Z" fill="#C83737"/>
<path d="M31.0799 20.468C30.4908 19.9187 30.5629 19.4116 31.3409 18.6435L31.9201 18.0717L31.331 17.4553C30.8239 16.9233 30.7443 16.7816 30.7443 16.4162C30.7443 15.8295 31.147 15.4244 31.7337 15.4244C32.0991 15.4244 32.2408 15.5039 32.7678 16.0085L33.3793 16.5927L33.9858 16.0085C34.4954 15.5188 34.657 15.4244 34.9876 15.4244C35.5295 15.4244 36.0092 15.8991 36.0092 16.4336C36.0092 16.7443 35.9048 16.9258 35.43 17.4354L34.8484 18.0593L35.43 18.6683C36.141 19.4165 36.2106 19.864 35.696 20.3786C35.1815 20.8931 34.734 20.8235 33.9858 20.1126L33.3768 19.5309L32.7528 20.1126C32.2283 20.6023 32.0668 20.6918 31.7262 20.6918C31.4627 20.6918 31.2365 20.6122 31.0799 20.468Z" fill="#C83737"/>
<path d="M32.4098 29.4045C32.2905 29.3572 31.8679 28.9769 31.4677 28.5618C30.8413 27.9105 30.7443 27.7539 30.7443 27.4134C30.7443 26.9038 30.8885 26.6477 31.2962 26.4364C31.7038 26.2251 32.0891 26.3047 32.4894 26.685L32.7852 26.9659L34.2244 25.549C35.5245 24.2713 35.7035 24.1321 36.044 24.1321C36.6282 24.1321 37.0856 24.5696 37.0856 25.1264C37.0856 25.5465 37.0185 25.6335 35.3381 27.3512C33.1879 29.5511 33.0337 29.6605 32.4098 29.4045Z" fill="#C83737"/>
<path d="M8.5238 28.358C8.39205 28.3331 8.16087 28.1641 8.01172 27.9876L7.74077 27.6619V18.0245C7.74326 9.05327 7.75817 8.36967 7.92969 8.1559C8.03161 8.02912 8.22053 7.87251 8.34979 7.8054C8.51634 7.72088 10.5572 7.68608 15.2678 7.68608C22.5437 7.68608 22.4989 7.68111 22.7749 8.28764C22.8619 8.48154 22.8967 11.196 22.8967 18.1165V27.6768L22.5835 28.0273L22.2678 28.3778L15.5139 28.3928C11.8001 28.4002 8.65306 28.3853 8.5238 28.358ZM10.9276 24.6143L11.5888 22.9489H9.78161V24.6168C9.78161 26.2724 9.7841 26.2823 10.0227 26.2823C10.2365 26.2798 10.3484 26.071 10.9276 24.6143ZM16.8239 22.9513H15.31L13.7962 22.9489L13.2766 24.2663C12.9883 24.9922 12.69 25.7404 12.6104 25.9318L12.4663 26.2823H18.1463L16.8239 22.9513ZM20.8533 24.6168V22.9489H19.0462L19.7099 24.6143C20.2866 26.0735 20.4009 26.2798 20.6122 26.2823C20.8533 26.2823 20.8533 26.2724 20.8533 24.6168ZM10.1097 20.396C11.0419 17.5273 13.8732 15.9265 16.712 16.6648C18.4073 17.1072 19.8565 18.4769 20.4357 20.1921C20.5376 20.4929 20.6744 20.7589 20.739 20.7788C20.8185 20.8061 20.8533 19.2053 20.8533 15.3274V9.83629H9.78161V15.3175C9.78161 18.5938 9.82138 20.8011 9.88104 20.8011C9.93573 20.8011 10.0401 20.6197 10.1097 20.396ZM18.2756 20.3736C17.9325 19.6999 17.4503 19.2202 16.7891 18.897C16.2745 18.6435 16.0408 18.5962 15.3175 18.5962C14.5941 18.5962 14.3604 18.6435 13.8434 18.897C13.1872 19.2202 12.4514 19.9609 12.2674 20.483L12.158 20.8011H18.4943L18.2756 20.3736Z" fill="#C83737"/>
<path d="M12.4613 13.8359C11.9865 13.4134 11.9865 12.8168 12.4613 12.3917L12.7944 12.0934H17.8604L18.1737 12.4066C18.6261 12.8565 18.6186 13.4705 18.1587 13.8583L17.8281 14.1342H12.7944L12.4613 13.8359Z" fill="#C83737"/>
<path d="M4.46201 31.0302L4.43218 18.2557C4.41478 11.2308 4.42969 5.36932 4.46201 5.23011C4.49681 5.0934 4.64844 4.86222 4.80256 4.72053L5.08346 4.462H25.554L25.8349 4.7429C25.989 4.89702 26.1431 5.17543 26.1754 5.35938C26.2102 5.54581 26.2227 11.3974 26.2053 18.3626L26.1754 31.0302L25.8249 31.3434L25.472 31.6566H5.163L4.46201 31.0302ZM24.0774 6.50284H6.55754V29.6158H24.0774V6.50284Z" fill="#C83737"/>
<path d="M39.7653 8.33984C39.2557 7.83026 39.3576 7.09695 39.9865 6.77379C40.2599 6.6321 41.7166 6.60973 51.4709 6.60973H62.6396L62.9304 6.84091C63.3331 7.15661 63.4549 7.5245 63.3082 7.96946C63.0671 8.70277 63.9098 8.65305 51.4038 8.65305H40.0785L39.7653 8.33984Z" fill="#C83737"/>
</svg>
