<svg width="70" height="60" viewBox="0 0 70 60" fill="none" xmlns="http://www.w3.org/2000/svg">
<g clip-path="url(#clip0_1_213)">
<mask id="mask0_1_213" style="mask-type:luminance" maskUnits="userSpaceOnUse" x="0" y="0" width="70" height="60">
<path d="M70 0H0V60H70V0Z" fill="white"/>
</mask>
<g mask="url(#mask0_1_213)">
<path d="M67.0742 0H13.8633C13.0853 0.00330964 12.3404 0.359232 11.7918 0.98964C11.2433 1.62006 10.936 2.47345 10.9375 3.3625V8.74997C10.9375 9.08151 11.0528 9.39943 11.2579 9.63386C11.463 9.86829 11.7412 10 12.0313 10C12.3213 10 12.5995 9.86829 12.8046 9.63386C13.0097 9.39943 13.125 9.08151 13.125 8.74997V3.3625C13.1249 3.13696 13.2022 2.92038 13.3402 2.75915C13.4782 2.59793 13.666 2.50491 13.8633 2.5H67.0687C67.267 2.50329 67.4561 2.5956 67.5954 2.757C67.7345 2.91839 67.8125 3.1359 67.8125 3.3625V46.6375C67.8126 46.863 67.7353 47.0796 67.5973 47.2408C67.4593 47.4021 67.2715 47.4951 67.0742 47.5H25.1563C24.8662 47.5 24.588 47.6317 24.3829 47.8661C24.1778 48.1005 24.0625 48.4185 24.0625 48.75C24.0625 49.0815 24.1778 49.3995 24.3829 49.6339C24.588 49.8683 24.8662 50 25.1563 50H39.3094V57.5H25.1563C24.8662 57.5 24.588 57.6317 24.3829 57.8661C24.1778 58.1006 24.0625 58.4185 24.0625 58.75C24.0625 59.0815 24.1778 59.3995 24.3829 59.6339C24.588 59.8683 24.8662 60 25.1563 60H55.7812C56.0713 60 56.3495 59.8683 56.5546 59.6339C56.7597 59.3995 56.875 59.0815 56.875 58.75C56.875 58.4185 56.7597 58.1006 56.5546 57.8661C56.3495 57.6317 56.0713 57.5 55.7812 57.5H41.4969V50H67.0742C67.8522 49.9967 68.5971 49.6407 69.1457 49.0104C69.6942 48.38 70.0015 47.5265 70 46.6375V3.3625C70.0015 2.47345 69.6942 1.62006 69.1457 0.98964C68.5971 0.359232 67.8522 0.00330964 67.0742 0Z" fill="black"/>
<path d="M54.425 30.6813C55.4212 30.6813 56.395 30.3436 57.2232 29.7111C58.0516 29.0787 58.6971 28.1796 59.0783 27.1278C59.4596 26.076 59.5593 24.9186 59.3649 23.802C59.1706 22.6854 58.6909 21.6597 57.9865 20.8547C57.2821 20.0497 56.3846 19.5015 55.4076 19.2794C54.4306 19.0572 53.4179 19.1712 52.4975 19.6069C51.5772 20.0426 50.7905 20.7804 50.2371 21.727C49.6837 22.6736 49.3883 23.7865 49.3883 24.925C49.3898 26.4512 49.9208 27.9143 50.8651 28.9935C51.8093 30.0726 53.0896 30.6795 54.425 30.6813ZM54.425 21.6687C54.9885 21.6687 55.5394 21.8597 56.0079 22.2175C56.4765 22.5753 56.8417 23.0839 57.0573 23.6789C57.273 24.2739 57.3294 24.9286 57.2195 25.5603C57.1095 26.1919 56.8381 26.7721 56.4397 27.2275C56.0412 27.6829 55.5336 27.993 54.9809 28.1187C54.4282 28.2443 53.8553 28.1799 53.3346 27.9333C52.814 27.6869 52.369 27.2696 52.056 26.734C51.7429 26.1986 51.5758 25.569 51.5758 24.925C51.5758 24.0614 51.876 23.2331 52.4103 22.6225C52.9447 22.0118 53.6693 21.6687 54.425 21.6687Z" fill="black"/>
<path d="M45.5492 20.4L44.8821 20.9563C44.5922 21.1959 44.3474 21.4995 44.1624 21.8493C43.9773 22.1992 43.8556 22.5879 43.8046 22.9926C43.7536 23.3973 43.7743 23.8095 43.8654 24.2048C43.9565 24.6001 44.1163 24.9704 44.3351 25.2938L44.8437 26.0375C44.894 26.1132 44.9263 26.2024 44.9378 26.2965C44.9492 26.3906 44.9395 26.4865 44.9094 26.575L44.6086 27.4563C44.478 27.8369 44.4157 28.2436 44.4254 28.6523C44.4351 29.0611 44.5166 29.4633 44.665 29.8353C44.8135 30.2073 45.0259 30.5414 45.2896 30.8177C45.5533 31.0941 45.8629 31.3069 46.2 31.4438L46.9765 31.7625C47.0551 31.7949 47.1251 31.8499 47.1797 31.9221C47.2342 31.9944 47.2716 32.0815 47.2883 32.175L47.3812 32.6937L45.4781 39.75C45.419 39.9678 45.4133 40.2 45.4613 40.4213C45.5095 40.6426 45.6096 40.8447 45.751 41.0056C45.8924 41.1666 46.0696 41.2803 46.2635 41.3343C46.4573 41.3884 46.6604 41.3809 46.8508 41.3125L49.2515 40.45L50.75 42.7625C50.8518 42.9197 50.9846 43.0474 51.1375 43.1354C51.2904 43.2233 51.4593 43.269 51.6304 43.2687H51.8164C52.0158 43.229 52.2017 43.1266 52.3533 42.9733C52.5049 42.8199 52.6163 42.6214 52.675 42.4L54.1406 36.9687C54.2403 36.9856 54.3407 36.9961 54.4414 37C54.5125 37 54.5781 37 54.6492 37L56.1968 42.425C56.2594 42.6426 56.3731 42.8364 56.5255 42.9852C56.6778 43.134 56.8631 43.2321 57.0609 43.2687H57.236C57.4072 43.269 57.5759 43.2233 57.7289 43.1354C57.8818 43.0474 58.0145 42.9197 58.1164 42.7625L59.6148 40.45L62.0156 41.3125C62.2074 41.3813 62.412 41.3884 62.6071 41.3331C62.802 41.2776 62.98 41.1619 63.1212 40.9985C63.2625 40.8351 63.3617 40.6305 63.4078 40.4068C63.4539 40.1833 63.4453 39.9495 63.3828 39.7312L61.4304 32.9375L61.5672 32.1687C61.5838 32.0752 61.6212 31.9881 61.6758 31.9159C61.7304 31.8436 61.8004 31.7887 61.8789 31.7563L62.6554 31.4375C62.9926 31.3006 63.3022 31.0878 63.5658 30.8115C63.8296 30.5351 64.0419 30.2011 64.1904 29.8291C64.3389 29.4571 64.4204 29.0548 64.43 28.6461C64.4397 28.2374 64.3774 27.8307 64.2469 27.45L63.9461 26.5688C63.916 26.4802 63.9062 26.3843 63.9176 26.2902C63.9291 26.1962 63.9615 26.1069 64.0117 26.0313L64.5148 25.2875C64.7337 24.9641 64.8934 24.5938 64.9846 24.1985C65.0757 23.8032 65.0964 23.391 65.0454 22.9863C64.9944 22.5817 64.8727 22.193 64.6876 21.8431C64.5025 21.4933 64.2578 21.1896 63.9679 20.95L63.3008 20.3937C63.2338 20.3375 63.1805 20.2626 63.1461 20.1762C63.1116 20.0897 63.0971 19.9947 63.1039 19.9L63.175 18.9625C63.2063 18.5553 63.1657 18.145 63.0556 17.7561C62.9455 17.3673 62.7681 17.0076 62.5339 16.6986C62.2997 16.3896 62.0136 16.1375 61.6926 15.9574C61.3714 15.7773 61.0219 15.6727 60.6648 15.65L59.8446 15.625C59.7614 15.6196 59.681 15.5898 59.611 15.5383C59.5411 15.4869 59.484 15.4155 59.4453 15.3313L59.0625 14.4938C58.8973 14.1303 58.6698 13.8087 58.3935 13.5479C58.1173 13.2872 57.7978 13.0927 57.4544 12.976C57.1109 12.8594 56.7504 12.8229 56.3944 12.869C56.0383 12.9149 55.694 13.0424 55.382 13.2437L54.6656 13.7062C54.5929 13.7528 54.511 13.7772 54.4277 13.7772C54.3444 13.7772 54.2625 13.7528 54.1898 13.7062L53.4734 13.2437C53.1614 13.0424 52.8171 12.9149 52.4611 12.869C52.105 12.8229 51.7445 12.8594 51.4011 12.976C51.0576 13.0927 50.7382 13.2872 50.4619 13.5479C50.1856 13.8087 49.9581 14.1303 49.7929 14.4938L49.4101 15.3313C49.3715 15.4155 49.3144 15.4869 49.2445 15.5383C49.1745 15.5898 49.094 15.6196 49.011 15.625H48.1851C47.828 15.6477 47.4785 15.7522 47.1574 15.9324C46.8364 16.1125 46.5502 16.3646 46.3161 16.6736C46.0819 16.9826 45.9045 17.3422 45.7944 17.7311C45.6843 18.1201 45.6436 18.5303 45.675 18.9375L45.7461 19.875C45.7578 19.9747 45.7458 20.0762 45.7111 20.1686C45.6765 20.2611 45.6205 20.341 45.5492 20.4ZM51.2203 39.2812L50.5531 38.25C50.4178 38.0404 50.2286 37.8844 50.0119 37.8038C49.7952 37.7231 49.5619 37.7217 49.3446 37.8L48.1797 38.2187L48.9726 35.2625C49.5046 35.5424 50.1027 35.6127 50.6735 35.4625L51.4773 35.25C51.5579 35.2283 51.642 35.2307 51.7215 35.2569C51.801 35.2833 51.8733 35.3325 51.9312 35.4L52.1773 35.6937L51.2203 39.2812ZM59.5109 37.8C59.2936 37.7217 59.0602 37.7231 58.8435 37.8038C58.6269 37.8844 58.4376 38.0404 58.3023 38.25L57.6023 39.3313L56.5906 35.7875L56.9133 35.4063C56.9712 35.3366 57.0442 35.2856 57.1247 35.2581C57.2053 35.2307 57.2908 35.2279 57.3726 35.25L58.1765 35.4625C58.724 35.612 59.2989 35.5572 59.8172 35.3062L60.6429 38.2L59.5109 37.8ZM45.9703 23.35C45.9796 23.2766 46.0019 23.206 46.0357 23.1426C46.0696 23.0793 46.1143 23.0243 46.1672 22.9813L46.8344 22.425C47.2075 22.1149 47.5041 21.6999 47.6957 21.2204C47.8874 20.7408 47.9674 20.2128 47.9281 19.6875L47.8515 18.75C47.8424 18.6743 47.8471 18.5973 47.8654 18.5237C47.8837 18.4503 47.9152 18.3819 47.9579 18.3231C48.0006 18.2643 48.0536 18.2163 48.1134 18.1822C48.1733 18.1481 48.2386 18.1287 48.3054 18.125H49.1312C49.5867 18.089 50.0265 17.9209 50.4092 17.6366C50.7921 17.3522 51.1051 16.9611 51.3187 16.5L51.7015 15.6625C51.7313 15.5965 51.7725 15.538 51.8226 15.4907C51.8727 15.4433 51.9307 15.4081 51.993 15.3871C52.0554 15.366 52.1208 15.3597 52.1854 15.3683C52.25 15.377 52.3123 15.4005 52.3687 15.4375L53.0851 15.9C53.4868 16.1579 53.9397 16.2933 54.4003 16.2933C54.861 16.2933 55.314 16.1579 55.7156 15.9L56.432 15.4375C56.4884 15.4005 56.5507 15.377 56.6153 15.3683C56.6799 15.3597 56.7453 15.366 56.8076 15.3871C56.87 15.4081 56.928 15.4433 56.9781 15.4907C57.0282 15.538 57.0694 15.5965 57.0992 15.6625L57.4821 16.5C57.6957 16.9611 58.0087 17.3522 58.3914 17.6366C58.7743 17.9209 59.2141 18.089 59.6696 18.125L60.4953 18.175C60.5621 18.1786 60.6275 18.1981 60.6874 18.2322C60.7472 18.2663 60.8001 18.3143 60.8428 18.3731C60.8855 18.4319 60.917 18.5002 60.9354 18.5738C60.9537 18.6472 60.9584 18.7243 60.9492 18.8L60.8781 19.7375C60.8393 20.2628 60.9197 20.7905 61.1112 21.27C61.3028 21.7495 61.5992 22.1645 61.9719 22.475L62.639 23.0313C62.6912 23.0745 62.7352 23.1292 62.7685 23.1922C62.8017 23.2552 62.8237 23.3253 62.8329 23.3981C62.842 23.471 62.8383 23.5451 62.822 23.6163C62.8056 23.6875 62.7768 23.7543 62.7375 23.8125L62.2344 24.5563C61.9544 24.9741 61.7731 25.4672 61.7079 25.9881C61.6428 26.5092 61.696 27.0405 61.8625 27.5313L62.1633 28.4125C62.1867 28.4813 62.1978 28.5549 62.1959 28.6287C62.1938 28.7025 62.1789 28.7751 62.1518 28.8422C62.1248 28.9093 62.0862 28.9695 62.0384 29.0191C61.9905 29.0688 61.9344 29.1069 61.8735 29.1313L61.0969 29.45C60.663 29.6283 60.2765 29.9313 59.9748 30.3297C59.6731 30.7281 59.4662 31.2087 59.3742 31.725L59.2101 32.65C59.1974 32.7227 59.172 32.7918 59.1354 32.853C59.0987 32.9143 59.0516 32.9664 58.9969 33.0063C58.9428 33.0474 58.8818 33.0753 58.8178 33.0883C58.7538 33.1012 58.6882 33.0988 58.625 33.0813L57.8211 32.8688C57.372 32.7497 56.9036 32.7648 56.4611 32.9126C56.0186 33.0603 55.6169 33.3358 55.2946 33.7125L54.7203 34.3875C54.6754 34.441 54.6215 34.4835 54.5618 34.5127C54.5022 34.5417 54.4379 34.5567 54.373 34.5567C54.3082 34.5567 54.2439 34.5417 54.1843 34.5127C54.1246 34.4835 54.0707 34.441 54.0258 34.3875L53.4515 33.7125C53.201 33.4192 52.9016 33.1863 52.5709 33.0273C52.2403 32.8685 51.8852 32.7869 51.5265 32.7875C51.324 32.7882 51.1222 32.8155 50.925 32.8688L50.1211 33.0813C50.0579 33.0984 49.9923 33.1006 49.9284 33.0877C49.8644 33.0748 49.8034 33.0471 49.7492 33.0063C49.6945 32.9664 49.6473 32.9143 49.6107 32.853C49.5741 32.7918 49.5486 32.7227 49.536 32.65L49.3719 31.725C49.2957 31.2027 49.1026 30.7117 48.8112 30.2999C48.52 29.8881 48.1403 29.5695 47.7093 29.375L46.9328 29.0563C46.8718 29.0319 46.8157 28.9938 46.7679 28.9441C46.72 28.8945 46.6814 28.8343 46.6544 28.7672C46.6273 28.7001 46.6124 28.6275 46.6104 28.5537C46.6084 28.4799 46.6195 28.4063 46.6429 28.3375L46.9437 27.5C47.1102 27.0093 47.1634 26.4779 47.0983 25.9569C47.0332 25.4359 46.8519 24.9429 46.5719 24.525L46.0633 23.75C45.9879 23.6356 45.9545 23.4921 45.9703 23.35Z" fill="black"/>
<path d="M26.1188 18.0188C26.2204 18.135 26.3409 18.2271 26.4738 18.29C26.6065 18.353 26.7489 18.3854 26.8926 18.3854C27.0363 18.3854 27.1787 18.353 27.3114 18.29C27.4442 18.2271 27.5648 18.135 27.6664 18.0188L30.3024 15C30.5076 14.7654 30.6228 14.4473 30.6228 14.1157C30.6228 13.784 30.5075 13.4659 30.3023 13.2314C30.097 12.9968 29.8188 12.865 29.5285 12.865C29.2383 12.865 28.9599 12.9968 28.7547 13.2313L26.8844 15.3687L25.9219 14.2688C25.7167 14.0342 25.4383 13.9025 25.148 13.9025C24.8579 13.9025 24.5795 14.0342 24.3743 14.2688C24.1691 14.5034 24.0538 14.8214 24.0538 15.1532C24.0538 15.4848 24.1691 15.803 24.3742 16.0375L26.1188 18.0188Z" fill="black"/>
<path d="M33.9062 17.5H42.1094C42.3995 17.5 42.6777 17.3683 42.8828 17.1339C43.0879 16.8994 43.2031 16.5815 43.2031 16.25C43.2031 15.9185 43.0879 15.6005 42.8828 15.3661C42.6777 15.1317 42.3995 15 42.1094 15H33.9062C33.6162 15 33.338 15.1317 33.1329 15.3661C32.9278 15.6005 32.8125 15.9185 32.8125 16.25C32.8125 16.5815 32.9278 16.8994 33.1329 17.1339C33.338 17.3683 33.6162 17.5 33.9062 17.5Z" fill="black"/>
<path d="M33.9062 27.5H40.4687C40.7588 27.5 41.037 27.3683 41.2421 27.1339C41.4472 26.8995 41.5625 26.5815 41.5625 26.25C41.5625 25.9185 41.4472 25.6005 41.2421 25.3661C41.037 25.1317 40.7588 25 40.4687 25H33.9062C33.6162 25 33.338 25.1317 33.1329 25.3661C32.9278 25.6005 32.8125 25.9185 32.8125 26.25C32.8125 26.5815 32.9278 26.8995 33.1329 27.1339C33.338 27.3683 33.6162 27.5 33.9062 27.5Z" fill="black"/>
<path d="M33.9062 37.5H42.6562C42.9463 37.5 43.2245 37.3683 43.4296 37.1339C43.6347 36.8995 43.75 36.5815 43.75 36.25C43.75 35.9185 43.6347 35.6006 43.4296 35.3661C43.2245 35.1317 42.9463 35 42.6562 35H33.9062C33.6162 35 33.338 35.1317 33.1329 35.3661C32.9278 35.6006 32.8125 35.9185 32.8125 36.25C32.8125 36.5815 32.9278 36.8995 33.1329 37.1339C33.338 37.3683 33.6162 37.5 33.9062 37.5Z" fill="black"/>
<path d="M24.3851 26.0375L26.1188 28.0187C26.2204 28.1349 26.3409 28.2272 26.4738 28.2901C26.6065 28.353 26.7489 28.3853 26.8926 28.3853C27.0363 28.3853 27.1787 28.353 27.3114 28.2901C27.4442 28.2272 27.5648 28.1349 27.6664 28.0187L30.3024 25C30.5076 24.7654 30.6228 24.4473 30.6228 24.1156C30.6228 23.784 30.5075 23.4658 30.3023 23.2313C30.097 22.9968 29.8188 22.8651 29.5285 22.865C29.2383 22.865 28.9599 22.9967 28.7547 23.2312L26.8844 25.3688L25.9219 24.2687C25.7167 24.0342 25.4383 23.9025 25.148 23.9025C24.8579 23.9025 24.5795 24.0343 24.3743 24.2688C24.1691 24.5034 24.0538 24.8215 24.0538 25.1531C24.0538 25.4848 24.1691 25.8029 24.3742 26.0375H24.3851Z" fill="black"/>
<path d="M24.3851 36.0374L26.1188 38.0187C26.2204 38.135 26.3409 38.2272 26.4738 38.2901C26.6065 38.3529 26.7489 38.3853 26.8926 38.3853C27.0363 38.3853 27.1787 38.3529 27.3114 38.2901C27.4442 38.2272 27.5648 38.135 27.6664 38.0187L30.3024 35C30.5076 34.7654 30.6228 34.4474 30.6228 34.1156C30.6228 33.7839 30.5075 33.4658 30.3023 33.2313C30.097 32.9968 29.8188 32.865 29.5285 32.865C29.2383 32.865 28.9599 32.9967 28.7547 33.2312L26.8844 35.3687L25.9219 34.2687C25.7167 34.0342 25.4383 33.9025 25.148 33.9025C24.8579 33.9025 24.5795 34.0343 24.3743 34.2688C24.1691 34.5033 24.0538 34.8214 24.0538 35.1531C24.0538 35.4848 24.1691 35.8029 24.3742 36.0374H24.3851Z" fill="black"/>
<path d="M3.34687 55H18.5281C19.4157 55 20.267 54.597 20.8947 53.8797C21.5224 53.1624 21.875 52.1895 21.875 51.175V16.325C21.875 15.3105 21.5224 14.3377 20.8947 13.6203C20.267 12.903 19.4157 12.5 18.5281 12.5H3.34687C2.45922 12.5 1.60794 12.903 0.98028 13.6203C0.352616 14.3377 0 15.3105 0 16.325V51.175C0 52.1895 0.352616 53.1624 0.98028 53.8797C1.60794 54.597 2.45922 55 3.34687 55ZM6.5625 15H15.3125V17.375C15.2964 17.4165 15.2692 17.4509 15.2347 17.4735C15.2003 17.4959 15.1605 17.5053 15.1211 17.5H6.7539C6.71451 17.5053 6.67468 17.4959 6.64025 17.4735C6.60581 17.4509 6.57857 17.4165 6.5625 17.375V15ZM2.1875 16.325C2.1875 15.9736 2.30965 15.6366 2.52707 15.3881C2.7445 15.1396 3.03939 15 3.34687 15H4.375V17.375C4.3865 18.0834 4.64344 18.7576 5.08944 19.2498C5.53543 19.7419 6.13404 20.0117 6.7539 20H15.1211C15.741 20.0117 16.3396 19.7419 16.7855 19.2498C17.2316 18.7576 17.4885 18.0834 17.5 17.375V15H18.5281C18.8356 15 19.1305 15.1396 19.3479 15.3881C19.5653 15.6366 19.6875 15.9736 19.6875 16.325V51.175C19.6875 51.349 19.6575 51.5213 19.5992 51.682C19.541 51.8428 19.4556 51.9889 19.3479 52.1119C19.2403 52.235 19.1125 52.3326 18.9718 52.3991C18.8312 52.4657 18.6804 52.5 18.5281 52.5H3.34687C3.19462 52.5 3.04386 52.4657 2.9032 52.3991C2.76254 52.3326 2.63473 52.235 2.52707 52.1119C2.41942 51.9889 2.33402 51.8428 2.27575 51.682C2.21749 51.5213 2.1875 51.349 2.1875 51.175V16.325Z" fill="black"/>
<path d="M9.48283 34.2188C9.5844 34.335 9.70504 34.4271 9.8378 34.4901C9.97057 34.553 10.1129 34.5854 10.2566 34.5854C10.4004 34.5854 10.5427 34.553 10.6755 34.4901C10.8082 34.4271 10.9289 34.335 11.0304 34.2188L14.9898 29.6937C15.1951 29.4591 15.3103 29.1411 15.3103 28.8094C15.3102 28.4777 15.195 28.1596 14.9898 27.9251C14.7845 27.6905 14.5062 27.5588 14.216 27.5588C13.9258 27.5588 13.6474 27.6905 13.4422 27.925L10.2539 31.5687L8.4273 29.4813C8.21894 29.2662 7.94617 29.151 7.66551 29.1595C7.38484 29.1679 7.11777 29.2994 6.91958 29.5267C6.7214 29.754 6.6073 30.0597 6.60089 30.3805C6.59448 30.7012 6.69626 31.0126 6.88515 31.25L9.48283 34.2188Z" fill="black"/>
<path d="M5.46875 40H16.4062C16.6963 40 16.9745 39.8683 17.1796 39.6339C17.3847 39.3994 17.5 39.0815 17.5 38.75C17.5 38.4185 17.3847 38.1005 17.1796 37.8661C16.9745 37.6317 16.6963 37.5 16.4062 37.5H5.46875C5.17867 37.5 4.90047 37.6317 4.69535 37.8661C4.49024 38.1005 4.375 38.4185 4.375 38.75C4.375 39.0815 4.49024 39.3994 4.69535 39.6339C4.90047 39.8683 5.17867 40 5.46875 40Z" fill="black"/>
<path d="M5.46875 45H9.84371C10.1338 45 10.412 44.8683 10.6171 44.6339C10.8222 44.3995 10.9375 44.0815 10.9375 43.75C10.9375 43.4185 10.8222 43.1006 10.6171 42.8661C10.412 42.6317 10.1338 42.5 9.84371 42.5H5.46875C5.17867 42.5 4.90047 42.6317 4.69535 42.8661C4.49024 43.1006 4.375 43.4185 4.375 43.75C4.375 44.0815 4.49024 44.3995 4.69535 44.6339C4.90047 44.8683 5.17867 45 5.46875 45Z" fill="black"/>
<path d="M2.19548 54.6736C1.40021 54.3239 0.817549 53.6948 0.407611 52.7432L0.0537415 51.9216V33.7347V15.5476L0.407949 14.7254C0.785536 13.8489 1.23732 13.3382 2.03908 12.8817L2.5261 12.6045H10.9106C19.2481 12.6045 19.2979 12.6059 19.792 12.867C20.5052 13.2439 21.1246 13.9338 21.4687 14.7345L21.7675 15.4299V33.7961V52.1622L21.4779 52.7896C21.3185 53.1347 20.9482 53.6637 20.655 53.965C19.6802 54.9666 20.0842 54.9272 10.8714 54.9199C3.07195 54.9136 2.71888 54.9037 2.19548 54.6736ZM19.3737 52.1291L19.7251 51.7275L19.757 34.0701C19.7793 21.7802 19.7539 16.2747 19.6738 15.9587C19.4892 15.2301 19.1366 15 18.2057 15H17.414L17.4116 16.4435C17.4098 17.5732 17.3668 17.994 17.2135 18.3795C16.9692 18.9942 16.3613 19.615 15.8303 19.7925C15.5546 19.8846 13.9099 19.9158 10.6779 19.8902L5.93042 19.8526L5.46444 19.4786C5.20815 19.2729 4.87788 18.8583 4.73051 18.5572C4.49401 18.0741 4.45802 17.8332 4.42385 16.5049L4.38514 15L3.61686 15.0027C2.80394 15.0057 2.51258 15.1561 2.26995 15.6983C2.18315 15.8923 2.14987 20.8898 2.14987 33.7327C2.14987 53.3711 2.10185 52.0497 2.82866 52.4136C3.11312 52.5561 4.51222 52.5804 11.0967 52.5579L19.0223 52.5308L19.3737 52.1291ZM15.3485 16.2592L15.3792 15H10.9681H6.55712V16.2913V17.5827L10.9375 17.5505L15.3179 17.5185L15.3485 16.2592Z" fill="#C83737"/>
<path d="M4.85655 39.6312C4.67725 39.4587 4.49975 39.1574 4.46209 38.9614C4.38257 38.5477 4.62449 37.9232 4.93877 37.7309C5.0733 37.6486 7.17943 37.6044 10.9656 37.6044H16.7856L17.0998 37.9635C17.5041 38.4256 17.5256 39.0395 17.1547 39.5325L16.8953 39.8771L11.0389 39.9109L5.18255 39.9447L4.85655 39.6312Z" fill="#C83737"/>
<path d="M9.72821 34.3033C9.5508 34.1773 8.78896 33.3536 8.03514 32.4728C6.78258 31.009 6.66461 30.8324 6.66461 30.42C6.66461 29.7895 7.13835 29.2506 7.69259 29.2506C8.05272 29.2506 8.19482 29.3659 9.13157 30.4177C9.70324 31.0596 10.2146 31.5848 10.268 31.5848C10.3213 31.5848 11.1441 30.7002 12.0963 29.6192C13.6631 27.8404 13.863 27.6536 14.1995 27.6536C14.404 27.6536 14.6722 27.7343 14.7954 27.833C15.1039 28.0799 15.3041 28.6824 15.2147 29.0947C15.1329 29.4713 11.2198 34.062 10.7278 34.3583C10.3421 34.5907 10.1154 34.5782 9.72821 34.3033Z" fill="#C83737"/>
<path d="M4.9689 44.7292C4.28304 44.2513 4.26764 43.3127 4.93719 42.7971C5.28531 42.5289 5.38612 42.5184 7.60483 42.5184C9.46368 42.5184 9.97865 42.5553 10.2614 42.7086C11.1033 43.1652 11.03 44.4737 10.1408 44.8601C9.99483 44.9235 8.85064 44.9752 7.59818 44.975C5.51179 44.9745 5.29143 44.954 4.9689 44.7292Z" fill="#C83737"/>
<path d="M24.7236 59.8068C24.5758 59.7228 24.3662 59.4472 24.2579 59.1944C24.0669 58.7487 24.0669 58.7206 24.2579 58.274C24.3972 57.9483 24.5651 57.7703 24.8311 57.6666C25.1068 57.5592 27.095 57.5181 32.2751 57.5131L39.3427 57.5061V53.6978V49.8894H32.0832C24.0479 49.8894 24.4277 49.9275 24.1883 49.0985C24.0441 48.599 24.1697 48.1759 24.5688 47.8171L24.8601 47.5553H46.1294C67.2553 47.5553 67.4001 47.5536 67.6136 47.3096C67.827 47.0657 67.8286 46.9001 67.8286 25.0123C67.8286 3.12448 67.827 2.95886 67.6136 2.71499C67.3998 2.4706 67.2553 2.46929 40.4714 2.46929C13.6876 2.46929 13.5431 2.4706 13.3292 2.71499C13.1265 2.94677 13.1143 3.12449 13.1143 5.85161C13.1143 9.0756 13.0557 9.43226 12.47 9.77846C12.0472 10.0283 11.6164 9.93412 11.2735 9.51669L11.0182 9.20589V5.86831C11.0182 2.66356 11.0276 2.51059 11.2548 2.02501C11.6364 1.20995 12.009 0.784532 12.6624 0.417829L13.2755 0.0737152H40.4791H67.6826L68.3153 0.443542C68.7091 0.673709 69.0814 1.01314 69.3011 1.34237C70.0279 2.43129 69.9844 0.835493 69.9531 25.2644L69.9247 47.371L69.6234 48.0723C69.452 48.4713 69.1434 48.9351 68.9075 49.1487C68.0426 49.9317 68.8611 49.8894 54.5396 49.8894H41.4927V53.6978V57.5061L48.6141 57.5131C53.8358 57.5181 55.8359 57.5591 56.1118 57.6667C56.3755 57.7695 56.5458 57.9483 56.681 58.2645C56.8557 58.6729 56.8591 58.7567 56.7163 59.1471C56.3956 60.0245 57.6164 59.9633 40.4499 59.9613C28.3476 59.9601 24.934 59.9264 24.7236 59.8068Z" fill="#C83737"/>
<path d="M51.4358 43.1499C51.0373 43.0042 50.8836 42.8294 50.0973 41.6277C49.6662 40.9689 49.2676 40.43 49.2114 40.43C49.1553 40.43 48.539 40.6314 47.8419 40.8775C46.497 41.3524 46.1756 41.3593 45.7924 40.9214C45.6771 40.7897 45.5538 40.5492 45.5181 40.387C45.4758 40.1944 45.7919 38.8347 46.4291 36.4681C46.9657 34.475 47.4048 32.7113 47.4048 32.5489C47.4048 32.07 47.1311 31.7584 46.4572 31.4704C45.6206 31.1128 45.069 30.5744 44.7584 29.8121C44.4271 28.9989 44.4317 28.2426 44.7744 27.2019C44.9241 26.7477 45.0223 26.3039 44.9927 26.2159C44.9631 26.1279 44.7506 25.7658 44.5204 25.4112C43.452 23.7657 43.6544 22.1804 45.0986 20.8833L45.8204 20.2349L45.755 19.3506C45.5979 17.2257 46.6642 15.7371 48.3436 15.7371C48.7045 15.7371 49.0754 15.7039 49.1679 15.6633C49.2606 15.6226 49.4894 15.2771 49.6765 14.8954C50.365 13.4911 51.0105 12.9878 52.1345 12.9786C52.7311 12.9738 52.9485 13.0391 53.6217 13.4259C54.114 13.7085 54.4774 13.8464 54.5892 13.7927C54.6876 13.7454 55.0258 13.5524 55.3408 13.3636C56.7602 12.5133 58.2755 12.9986 58.9879 14.5316C59.4813 15.5931 59.6532 15.7367 60.4335 15.7398C61.2307 15.743 61.8154 16.009 62.3382 16.6065C62.9229 17.2748 63.0938 17.8465 63.0965 19.1433L63.0987 20.2768L63.6631 20.7805C64.4266 21.4619 64.7845 22.0299 64.9353 22.7997C65.1135 23.7103 64.9259 24.5177 64.3229 25.4344C64.0635 25.8289 63.8497 26.1993 63.8479 26.2576C63.8462 26.3159 63.9776 26.8167 64.1401 27.3704C64.4149 28.3069 64.4265 28.4262 64.3064 29.0807C64.0792 30.3185 63.5569 30.9399 62.2651 31.5092C61.6996 31.7584 61.635 31.8262 61.4983 32.3145C61.3499 32.8445 61.3549 32.868 62.3898 36.494C63.5211 40.4583 63.5254 40.4937 62.931 41.0281C62.5393 41.3803 62.3215 41.3617 60.9635 40.8599C60.3234 40.6234 59.7456 40.43 59.6795 40.43C59.6134 40.43 59.202 40.9691 58.7654 41.628C58.3288 42.287 57.9038 42.8871 57.8209 42.9616C57.3827 43.3561 56.6292 43.1963 56.3919 42.6586C56.3131 42.4802 55.9008 41.137 55.4759 39.6739C54.7697 37.2427 54.6794 37.0068 54.4273 36.9345C54.2755 36.891 54.1372 36.8719 54.1199 36.892C54.1026 36.9123 53.7456 38.1988 53.3266 39.7513C52.5561 42.6059 52.3774 43.0239 51.8656 43.1679C51.7474 43.2012 51.5541 43.1931 51.4358 43.1499ZM51.7672 37.4624L52.2406 35.7042L51.9866 35.4139L51.7325 35.1236L50.9082 35.3331C50.2438 35.5021 49.992 35.5163 49.6104 35.4065C49.35 35.3316 49.0875 35.2702 49.0271 35.2702C48.9001 35.2702 48.1074 38.0799 48.2035 38.1896C48.2386 38.2298 48.5249 38.1698 48.8399 38.0564C49.8981 37.6751 50.1349 37.7513 50.7408 38.6685C50.9859 39.0396 51.2106 39.3155 51.2401 39.2818C51.2696 39.2481 51.5067 38.4294 51.7672 37.4624ZM58.0434 38.777C58.6179 37.8226 59.0479 37.6579 59.9815 38.0344C60.756 38.3467 60.7564 38.3448 60.2987 36.7877C60.0673 36.0007 59.8589 35.3348 59.8354 35.3079C59.8119 35.2811 59.571 35.323 59.3001 35.4009C58.8971 35.5169 58.6609 35.5055 58.0018 35.3379C57.1738 35.1273 56.9488 35.1649 56.6609 35.5614C56.5542 35.7084 56.6237 36.0852 57.0247 37.5337C57.2974 38.5185 57.564 39.3243 57.6172 39.3243C57.6704 39.3243 57.8622 39.078 58.0434 38.777ZM55.1332 33.9921C55.8797 33.2078 56.0265 33.1094 56.7125 32.9337C57.1271 32.8275 57.3915 32.8407 58.0114 32.9983C59.055 33.2637 59.1579 33.1908 59.3844 32.0272C59.67 30.5608 60.1845 29.9143 61.5103 29.3562C61.8986 29.1928 62.15 29.0088 62.1921 28.8572C62.2288 28.7251 62.1256 28.149 61.9628 27.5769C61.6913 26.6233 61.6774 26.4838 61.7945 25.8975C61.8706 25.5169 62.1223 24.9252 62.4164 24.4359C63.0153 23.4392 62.9964 23.2253 62.2525 22.5907C61.2191 21.7089 60.9296 20.9984 60.9591 19.4159C60.9817 18.2085 60.8869 18.0712 60.0308 18.0712C58.898 18.0712 58.1287 17.5394 57.4737 16.3033C56.9109 15.2409 56.7586 15.1913 55.7945 15.7559C54.8172 16.3283 53.9874 16.3279 53.012 15.7546C52.0772 15.2052 51.8397 15.2565 51.448 16.0917C50.8118 17.4484 49.9437 18.0713 48.6887 18.0713C48.3293 18.0713 48.0304 18.1347 47.9655 18.2248C47.9046 18.3093 47.8382 18.9681 47.8179 19.6889C47.7833 20.9162 47.7604 21.033 47.4557 21.5281C47.2767 21.8188 46.8534 22.2972 46.5151 22.5911C46.1274 22.9279 45.8999 23.2164 45.8999 23.3712C45.8999 23.5064 46.1127 23.9585 46.3729 24.376C47.1495 25.6223 47.2453 26.511 46.7496 27.8724C46.4331 28.7416 46.5367 28.991 47.3443 29.3043C48.478 29.7441 49.2085 30.7835 49.395 32.2223C49.436 32.5392 49.5578 32.8896 49.6655 33.001C49.8466 33.1883 49.9239 33.1887 50.6939 33.0068C51.9814 32.7025 52.6694 32.945 53.6283 34.0408C53.9244 34.3792 54.2419 34.6561 54.3339 34.6561C54.4259 34.6561 54.7857 34.3572 55.1332 33.9921Z" fill="#C83737"/>
<path d="M53.1893 30.4214C52.2883 30.1378 51.6639 29.7114 50.9468 28.8899C49.1334 26.8125 48.9546 23.8075 50.5059 21.4799C52.2983 18.7906 55.6742 18.4935 57.823 20.8359C59.5849 22.7566 59.8901 25.6962 58.5714 28.0449C57.4708 30.005 55.1384 31.0349 53.1893 30.4214ZM55.8309 27.8036C57.8289 26.5713 57.7751 23.1741 55.7387 21.9753C55.5039 21.8372 55.0131 21.6967 54.6478 21.6632C53.4311 21.5516 52.3721 22.2114 51.8771 23.3897C51.5158 24.2497 51.4459 24.7947 51.5931 25.605C51.9857 27.7663 54.1071 28.8669 55.8309 27.8036Z" fill="#C83737"/>
<path d="M33.4717 37.2871C32.6461 36.8215 32.7292 35.5222 33.6092 35.1399C33.7591 35.0748 35.8152 35.0246 38.3339 35.0246C43.0882 35.0246 43.2566 35.0443 43.5318 35.632C43.676 35.94 43.6733 36.5721 43.5264 36.8858C43.2629 37.4485 42.9665 37.4817 38.2444 37.4787C34.4719 37.4764 33.7566 37.4476 33.4717 37.2871Z" fill="#C83737"/>
<path d="M33.2074 27.0488C32.7737 26.5532 32.7737 25.9284 33.2074 25.4328L33.5215 25.0737H37.1929H40.8642L41.1784 25.4328C41.4111 25.6987 41.4927 25.9084 41.4927 26.2407C41.4927 26.5731 41.4111 26.7829 41.1784 27.0488L40.8642 27.4078H37.1929H33.5215L33.2074 27.0488Z" fill="#C83737"/>
<path d="M33.4064 17.2655C32.8023 16.8909 32.7139 16.0931 33.2067 15.4626L33.5202 15.0615L37.587 15.0225C39.8238 15.0012 41.8552 15.0177 42.1012 15.0591C43.1929 15.2433 43.5054 16.7185 42.5697 17.2714C42.1076 17.5446 33.8477 17.5392 33.4064 17.2655Z" fill="#C83737"/>
<path d="M25.3576 17.0091C24.1041 15.5974 23.9498 15.2726 24.2342 14.644C24.4428 14.1831 24.7005 14.0172 25.2082 14.0172C25.5369 14.0172 25.7012 14.128 26.2347 14.7096C26.7136 15.2316 26.9034 15.3695 27.006 15.2697C27.0809 15.197 27.569 14.6643 28.0905 14.086C28.6121 13.5077 29.1573 13.0006 29.3019 12.9591C29.63 12.865 30.1639 13.1087 30.3713 13.4472C30.4576 13.588 30.5282 13.913 30.5282 14.1693C30.5282 14.5976 30.4264 14.7555 29.2652 16.1259C28.5705 16.9458 27.8135 17.7741 27.583 17.9667C26.8585 18.5719 26.6752 18.493 25.3576 17.0091Z" fill="#C83737"/>
<path d="M25.3671 27.087C23.968 25.5355 23.797 24.9237 24.5688 24.2299C25.0757 23.7742 25.4122 23.8775 26.1858 24.7265L26.877 25.485L27.9883 24.2351C29.0246 23.0697 29.1288 22.9852 29.5306 22.9852C30.1312 22.9852 30.5282 23.4423 30.5282 24.1338C30.5282 24.6153 30.4666 24.7052 28.9388 26.4513C27.3877 28.2238 27.3381 28.2678 26.8906 28.2678C26.4563 28.2678 26.3751 28.2049 25.3671 27.087Z" fill="#C83737"/>
<path d="M26.3898 38.1164C25.8691 37.7373 24.2072 35.7163 24.131 35.3694C23.9634 34.6062 24.7942 33.7709 25.444 34.0494C25.6094 34.1204 25.9991 34.464 26.3099 34.8131L26.875 35.4479L27.8686 34.3284C28.415 33.7126 28.9678 33.1475 29.0969 33.0725C29.7523 32.6918 30.5282 33.2577 30.5282 34.1163C30.5282 34.5474 30.4219 34.7004 28.9427 36.3975C27.2118 38.3835 26.9754 38.5426 26.3898 38.1164Z" fill="#C83737"/>
</g>
</g>
<defs>
<clipPath id="clip0_1_213">
<rect width="70" height="60" fill="white"/>
</clipPath>
</defs>
</svg>
