<svg width="70" height="93" viewBox="0 0 70 93" fill="none" xmlns="http://www.w3.org/2000/svg">
<path d="M34.8505 0.0787633C34.681 0.0688491 34.5133 0.0886782 34.351 0.140232C34.1068 0.209633 33.8844 0.346451 33.7021 0.536806C28.1039 6.39618 20.6062 9.67981 12.7969 9.68576C9.10182 9.68576 5.43958 8.92037 1.99792 7.47288C1.54583 7.28252 1.03724 7.34597 0.638021 7.64341C0.238802 7.93885 0 8.4306 0 8.95606V55.2917C0 66.0884 8.78646 75.17 17.243 81.6936C25.7013 88.2153 34.1323 92.2207 34.1323 92.2207C34.5096 92.3991 34.9362 92.3991 35.3135 92.2207C35.3135 92.2207 43.7427 88.2153 52.201 81.6936C60.6594 75.17 69.444 66.0884 69.444 55.2917V8.95606C69.444 8.4306 69.2052 7.93885 68.806 7.64341C68.4068 7.34597 67.8982 7.28252 67.4461 7.47288C64.0044 8.92037 60.344 9.6699 56.6471 9.68576C48.8378 9.68576 41.3401 6.39618 35.7419 0.536806C35.4995 0.282999 35.1841 0.128335 34.8487 0.0966092L34.8505 0.0787633ZM34.7229 3.8244C40.7458 9.61834 48.5443 12.8445 56.649 12.8504C59.9977 12.8504 63.319 12.2615 66.5018 11.1729V55.2739C66.5018 64.1274 58.6615 72.7826 50.4911 79.0842C43.1776 84.7234 36.1721 88.2747 34.7156 88.9925C33.2591 88.2747 26.2536 84.7234 18.9401 79.0842C10.7698 72.7826 2.9276 64.1274 2.9276 55.2739V11.1729C6.11224 12.2635 9.43359 12.8365 12.7823 12.8504C20.8852 12.8504 28.6854 9.61834 34.7083 3.8244H34.7229ZM34.7229 21.4025C29.0956 21.4025 23.6979 23.8117 19.7148 28.0987C15.7336 32.3876 13.4951 38.2093 13.4951 44.2769C13.4951 50.3465 15.7336 56.1682 19.7148 60.4551C23.6979 64.7441 29.0956 67.1532 34.7229 67.1532C40.3484 67.1532 45.7479 64.7441 49.7292 60.4551C53.7104 56.1682 55.9508 50.3465 55.9508 44.2769C55.9508 38.2093 53.7104 32.3876 49.7292 28.0987C45.7479 23.8117 40.3484 21.4025 34.7229 21.4025ZM34.7229 24.585C39.5755 24.585 44.2294 26.6611 47.6602 30.3552C51.0909 34.0512 53.0141 39.056 53.0141 44.2769C53.0141 49.4998 51.0909 54.5045 47.6602 58.2006C44.2294 61.8947 39.5755 63.9707 34.7229 63.9707C29.8685 63.9707 25.2146 61.8947 21.7839 58.2006C18.3549 54.5045 16.4299 49.4998 16.4299 44.2769C16.4299 39.056 18.3549 34.0512 21.7839 30.3552C25.2146 26.6611 29.8685 24.585 34.7229 24.585ZM42.8331 35.7089C42.4448 35.7327 42.082 35.9231 41.8232 36.2383L31.9339 48.3081L26.6766 42.2841C26.1187 41.6456 25.1909 41.6198 24.6021 42.2246C24.0133 42.8274 23.9896 43.8347 24.5474 44.4732L30.9039 51.7583C31.1901 52.0775 31.5875 52.254 31.9977 52.2421C32.4096 52.2322 32.7979 52.0339 33.0677 51.6968L44.0198 38.3303C44.5594 37.6739 44.5047 36.6666 43.8977 36.0837C43.6078 35.8041 43.225 35.6613 42.8367 35.6871L42.8331 35.7089Z" fill="black"/>
<path d="M32.9037 91.4969C28.2516 89.1532 21.9662 85.1755 17.5346 81.7709C7.40288 73.9822 1.81564 66.4711 0.3409 58.6527C0.123973 57.5026 0.0966287 55.0181 0.0528787 33.1431C0.00548304 10.2172 0.0164205 8.87675 0.258869 8.35922C0.399233 8.05782 0.705483 7.71479 0.938816 7.59383C1.33074 7.39158 1.49298 7.41934 2.95861 7.93687C7.35913 9.49144 11.4352 10.0407 15.4474 9.61834C22.256 8.90451 27.7958 6.27721 33.1607 1.21891C34.7175 -0.248411 34.774 -0.236513 37.3151 2.15086C40.7586 5.38492 45.6932 7.97851 50.4346 9.04331C55.8542 10.2608 61.1899 9.88008 66.593 7.89126C68.0367 7.35985 68.4615 7.3777 68.9919 7.98842L69.3346 8.385V57.5363L69.0175 59.0512C67.9018 64.3633 65.1638 69.1282 60.2255 74.3491C55.5807 79.2606 49.9826 83.6249 42.5706 88.1082C39.7761 89.7976 35.5414 92.0878 34.9234 92.2405C34.6701 92.3059 34.0776 92.0858 32.9037 91.4969ZM37.8565 87.4241C52.9065 79.0504 63.1149 69.1242 65.7818 60.2707C66.5456 57.7346 66.5164 58.8073 66.5182 34.1206C66.5201 20.1156 66.469 11.1749 66.387 11.1749C66.3141 11.1749 65.6487 11.3514 64.9086 11.5655C61.4287 12.5827 56.9862 12.9833 53.5245 12.5966C47.1315 11.8808 40.693 9.02348 35.9333 4.78807C35.3391 4.25865 34.7977 3.8244 34.732 3.8244C34.6646 3.8244 34.0813 4.28443 33.4323 4.84756C30.2422 7.61763 26.693 9.67783 22.7099 11.0718C16.9513 13.0884 10.4198 13.2648 4.50444 11.5616C3.76434 11.3494 3.09715 11.1749 3.02606 11.1749C2.94767 11.1749 2.89481 20.3913 2.89663 34.0413C2.89845 55.8271 2.91121 56.9772 3.17007 58.3374C4.6922 66.3303 12.425 75.2493 24.9284 83.4346C28.3336 85.6633 34.2508 89.0401 34.7539 89.0421C34.8596 89.0421 36.256 88.3144 37.8565 87.4241Z" fill="#C83737"/>
<path d="M33.2646 66.9827C18.1581 65.8644 9.01067 48.3715 15.956 33.8767C18.9109 27.708 24.0825 23.4786 30.5703 21.926C32.4552 21.4759 36.6588 21.4402 38.582 21.8566C46.5409 23.5896 52.8372 29.7583 55.0375 37.9852C56.2333 42.4566 56.0784 47.6002 54.6127 51.9843C52.469 58.4028 47.4797 63.6733 41.5114 65.8227C39.7414 66.4592 38.1792 66.8161 36.6862 66.9272C36.0737 66.9708 35.3792 67.0263 35.1404 67.0481C34.9034 67.07 34.0594 67.0402 33.2646 66.9827ZM37.6305 63.7883C45.3596 62.43 51.4573 55.9401 52.8318 47.6061C53.1143 45.8969 53.0779 42.2028 52.7643 40.5709C51.5521 34.2832 48.1286 29.4371 42.9315 26.6472C40.0732 25.1125 37.8127 24.5513 34.5643 24.5672C30.563 24.589 26.9445 25.8798 23.7544 28.4258C14.6052 35.7268 13.8469 50.2691 22.1758 58.7003C24.9776 61.5338 28.6161 63.366 32.5445 63.9172C33.6419 64.0719 36.4219 64.0005 37.6305 63.7883Z" fill="#C83737"/>
<path d="M30.6724 51.32C28.432 48.9148 24.387 44.1222 24.3086 43.7812C24.0352 42.6033 25.1344 41.5088 26.0823 42.0124C26.2901 42.1215 27.6664 43.5849 29.1411 45.2604C30.6159 46.9379 31.8591 48.3299 31.9065 48.3537C31.9521 48.3774 34.1688 45.7383 36.8302 42.4903C39.4935 39.2404 41.8432 36.4108 42.0529 36.2007C42.6234 35.6276 43.3563 35.6752 43.8885 36.3196C44.3917 36.9304 44.4227 37.545 43.9797 38.1637C43.4365 38.9251 33.4852 51.092 32.9638 51.6333C32.1982 52.4304 31.6331 52.3531 30.6724 51.32Z" fill="#C83737"/>
</svg>
