<svg width="70" height="70" viewBox="0 0 70 70" fill="none" xmlns="http://www.w3.org/2000/svg">
<path d="M67.5642 46.0312C66.033 44.9875 64.0938 44.7555 62.358 45.407L59.2233 46.5955C64.3125 37.8847 64.2545 27.0997 59.092 18.4325L61.017 16.5185C62.3875 15.1567 62.3875 12.9529 61.017 11.6053L58.4795 9.08335C57.108 7.72052 54.892 7.72052 53.5358 9.08335L52.0625 10.5464C48.7375 8.0103 44.917 6.25637 40.833 5.38704V3.61786C40.833 1.70489 39.258 0.139435 37.333 0.139435H32.667C30.742 0.139435 29.167 1.70489 29.167 3.61786V5.38704C16.5233 8.06803 7 19.2441 7 32.6088C6.98578 37.9566 8.53125 43.19 11.4483 47.6685C11.3312 47.6827 0 47.6827 0 47.6827V50.002H11.0983C13.2705 50.002 15.342 49.1468 16.8733 47.625L18.608 45.9005C19.7017 44.8132 21.1892 44.2043 22.7358 44.2043H35.583C37.1875 44.2043 38.5 45.5094 38.5 47.1031C38.5 48.698 37.1875 50.002 35.583 50.002H19.833V52.3213H26.5267L32.2875 56.4381C33.8767 57.5831 35.933 57.8446 37.7705 57.1484L63.2045 47.5672C64.9108 46.9299 66.8205 47.7851 67.4625 49.4802C67.608 49.8571 67.6813 50.2493 67.6813 50.6404C67.6813 51.9161 66.9375 53.0752 65.7705 53.6264L38.85 66.0771C35.5545 67.599 31.8205 67.904 28.3205 66.9181L17.6608 63.9179H0V66.2372H17.3392L27.6795 69.1361C31.7188 70.2669 36.0205 69.9183 39.8267 68.1644L66.7483 55.7137C69.5767 54.4086 70.8017 51.0751 69.475 48.2633C69.0517 47.3788 68.3955 46.5955 67.5642 46.0312ZM55.1688 10.7207C55.6205 10.2719 56.3642 10.2719 56.817 10.7207L59.3545 13.2426C59.8063 13.6926 59.8063 14.4312 59.3545 14.8811L57.7795 16.4466C56.6267 14.8517 55.3 13.3734 53.842 12.04L55.1688 10.7207ZM31.5 3.61786C31.5 2.98057 32.025 2.45875 32.667 2.45875H37.333C37.975 2.45875 38.5 2.98057 38.5 3.61786V4.99486C36.1813 4.70508 33.8188 4.70508 31.5 4.99486V3.61786ZM54.7455 48.2775L50.7063 44.262L49.058 45.9005L52.3545 49.1763L36.9392 54.9882C35.8455 55.4087 34.6063 55.2496 33.658 54.5535L30.5233 52.3213H35.583C38.4858 52.3213 40.833 49.9879 40.833 47.1031C40.833 44.2184 38.4858 41.885 35.583 41.885H22.7358C20.5625 41.885 18.492 42.7401 16.9608 44.262L15.225 45.9876C14.817 46.3929 14.3358 46.7415 13.8108 47.016C11.0983 43.1029 9.55172 38.5078 9.34828 33.7679H15.167V31.4486H9.3625C9.61078 26.0561 11.5795 20.8673 14.9767 16.6633L19.2938 20.9545L20.942 19.316L16.5233 14.9247C21.0733 10.213 27.2705 7.41549 33.833 7.12571V12.8951H36.167V7.12571C42.7295 7.41549 48.9267 10.213 53.4767 14.9247L49.3358 19.0415L50.983 20.6788L55.008 16.6786C58.4205 20.8815 60.3892 26.0713 60.6233 31.4627H54.833V33.7821H60.6375C60.4188 38.9425 58.6108 43.9145 55.4608 48.0161L54.7455 48.2775Z" fill="black"/>
<path d="M45.9517 13.5618C44.8142 12.9964 43.4295 13.3298 42.6705 14.3451L32.3608 28.3612L20.8108 30.1293C19.425 30.3472 18.492 31.6229 18.6955 32.9999C18.8562 34.0871 19.717 34.927 20.8108 35.1013L34.1687 37.1886C34.242 37.2027 34.3142 37.218 34.3875 37.218C36.4437 37.4936 38.442 36.377 39.2733 34.4923L47.1625 16.9542C47.7455 15.6785 47.2062 14.185 45.9517 13.5618ZM21.1608 32.7972C21.058 32.782 20.9858 32.6807 21 32.5794C21.0142 32.4922 21.0733 32.4345 21.1608 32.4203L30.625 30.9703C30.217 32.0434 30.217 33.2166 30.6392 34.2755L21.1608 32.7972ZM35 34.927C33.717 34.927 32.667 33.8834 32.667 32.6088C32.667 31.3331 33.717 30.2894 35 30.2894C36.283 30.2894 37.333 31.3331 37.333 32.6088C37.333 33.8834 36.283 34.927 35 34.927ZM45.033 15.9966L38.7767 29.8973C38.0045 28.8395 36.8233 28.1433 35.5108 27.9985L44.5517 15.7221C44.6392 15.5914 44.8142 15.5761 44.9455 15.6633C45.0483 15.7363 45.092 15.8811 45.033 15.9966Z" fill="black"/>
<path d="M30.5572 69.6449C29.0883 69.4215 27.6719 69.0675 22.8648 67.7199L17.3797 66.1828H0V64.0171H17.7855L23.0825 65.5095C30.1372 67.4977 30.0125 67.4704 32.3914 67.477C34.5242 67.4835 35.8498 67.2765 37.5211 66.6784C37.9794 66.5139 44.5966 63.4942 52.2277 59.9678C62.2245 55.3466 66.2353 53.4402 66.5809 53.1438C67.9689 51.9531 68.0947 49.7765 66.8555 48.3745C66.2703 47.711 65.3559 47.3265 64.3858 47.3341C63.607 47.3406 63.1378 47.5073 50.9666 52.1024C44.03 54.7202 38.0734 56.96 37.73 57.0798C36.1944 57.6125 34.7813 57.5788 33.4305 56.9763C33.0564 56.8096 31.3633 55.6843 29.668 54.4762L26.5847 52.2789H19.8363V49.9998H28.0952C37.147 49.9998 36.7139 50.0314 37.5495 49.3026C38.7603 48.2448 38.8533 46.2338 37.7453 45.0562C37.5758 44.8753 37.1788 44.6074 36.8638 44.4592L36.2895 44.189L29.0664 44.1901C21.2406 44.1901 21.2877 44.1869 19.9741 44.8252C19.5355 45.0388 18.8519 45.6031 17.78 46.6336C15.6855 48.6512 14.8334 49.2057 13.0889 49.6872C12.2555 49.9171 11.9077 49.9312 6.10531 49.9726L0 50.0151V47.7198H5.73344C8.88563 47.7198 11.4658 47.6969 11.4658 47.6675C11.4658 47.6391 11.1081 46.9953 10.6717 46.2371C8.85281 43.0811 7.65297 39.3663 7.21656 35.5414C7.01094 33.7439 7.13344 29.7775 7.44844 28.0192C8.62422 21.448 11.8409 15.83 16.8963 11.5203C19.973 8.89707 23.4763 7.02658 27.4061 5.91105C28.0667 5.72367 28.7448 5.54065 28.9133 5.5047L29.2195 5.43934L29.2578 4.10048C29.2917 2.90106 29.33 2.69189 29.6231 2.09926C30.0223 1.28876 30.8328 0.614421 31.71 0.360593C32.2153 0.214614 32.8617 0.188469 35.2833 0.217882C38.2342 0.253832 38.2397 0.253832 38.8194 0.557773C39.1388 0.725539 39.5959 1.0785 39.8355 1.34214C40.5344 2.11016 40.728 2.67991 40.7936 4.15277L40.8505 5.43825L41.3219 5.55917C44.9488 6.48298 47.5923 7.63338 50.5214 9.56269L52.0767 10.5867L53.0272 9.66618C54.2041 8.52341 54.9248 8.15955 56.0109 8.15955C57.2611 8.15955 57.7948 8.48092 59.6925 10.3732C60.5872 11.2643 61.425 12.2077 61.5595 12.4725C61.9795 13.3037 62.0725 13.9911 61.8691 14.7787C61.6317 15.7025 61.4928 15.904 60.1628 17.2505L59.0209 18.4064L59.5984 19.4729C61.1166 22.2759 62.1523 25.4144 62.6784 28.8014C62.9628 30.6315 62.965 34.6198 62.6839 36.438C62.172 39.7367 61.0947 43.031 59.6695 45.651C59.3841 46.175 59.1664 46.6195 59.1861 46.6369C59.2058 46.6554 59.9441 46.3918 60.8267 46.053C61.7105 45.7142 62.7419 45.3612 63.1203 45.2697C66.5569 44.4352 69.9431 47.1413 69.9431 50.7221C69.9431 52.4935 68.8406 54.4032 67.2886 55.3194C66.3141 55.8956 39.1519 68.404 38.033 68.793C36.3016 69.3943 35.012 69.6089 32.8497 69.6547C31.7778 69.6786 30.7464 69.6732 30.5572 69.6449ZM44.485 52.2255C48.7397 50.6154 52.267 49.27 52.3228 49.2351C52.3786 49.2013 51.6841 48.4355 50.7795 47.5346L49.1345 45.8961L49.9067 45.1281L50.68 44.3601L52.6794 46.3449L54.6788 48.3309L55.1152 48.1991C55.4958 48.0847 55.6609 47.9071 56.373 46.8395C58.1875 44.1215 59.3436 41.4743 60.0688 38.3749C60.3477 37.181 60.655 35.0283 60.655 34.2679V33.7025H54.9227V31.5368H60.655V31.0913C60.655 30.1936 60.2798 27.7937 59.9134 26.3513C59.4519 24.532 58.8831 22.9982 58.0366 21.2824C57.3989 19.9904 55.6161 17.1906 55.1895 16.8104C54.9773 16.622 54.8986 16.6851 52.9703 18.6046L50.9709 20.595L50.1933 19.828L49.4167 19.0622L53.6036 14.8811L52.8588 14.1948C49.9177 11.4855 46.6277 9.51694 43.1123 8.36109C41.0233 7.67477 39.4472 7.36539 36.7194 7.10284L36.1178 7.0451V12.8461H33.9391V7.03203L33.2806 7.09631C27.4684 7.6617 23.1766 9.32085 18.9678 12.6293C17.9331 13.4431 16.5113 14.7711 16.5113 14.9236C16.5113 14.9802 17.4661 15.9661 18.632 17.1154C19.7991 18.2648 20.7539 19.2507 20.7539 19.3062C20.7539 19.3607 20.4302 19.7245 20.0342 20.1145L19.3156 20.8227L17.1981 18.7147C16.0333 17.5556 15.0456 16.6078 15.003 16.6078C14.8652 16.6078 13.697 18.2321 12.9533 19.4566C10.9014 22.8391 9.74531 26.4603 9.34172 30.7677L9.26953 31.5368H15.1353V33.7025H9.28703V34.0206C9.28703 34.1949 9.36141 34.9292 9.45109 35.6526C9.79016 38.363 10.5842 41.1278 11.702 43.482C12.3703 44.8895 13.6467 47.0367 13.8152 47.0367C14.0886 47.0367 14.9319 46.3537 16.2816 45.0398C18.3105 43.0659 19.4217 42.422 21.3905 42.0811C22.843 41.8294 35.5917 41.8283 36.6647 42.08C39.3389 42.7064 41.1086 45.2316 40.6973 47.832C40.3944 49.7482 39.1923 51.1862 37.2356 51.9727C36.6898 52.1917 36.3442 52.22 33.5377 52.2756L30.4423 52.3355L32.1891 53.5894C34.3427 55.1352 34.6183 55.2573 35.8313 55.1984C36.7073 55.1559 37.0956 55.0219 44.485 52.2255ZM58.6677 15.6676C59.5744 14.7482 59.7384 14.4955 59.7384 14.0107C59.7384 13.5586 59.3031 13.0019 57.8747 11.6271C56.1805 9.99518 55.8173 9.95269 54.5355 11.236L53.7556 12.0182L54.8636 13.1446C55.4728 13.7645 56.3675 14.77 56.852 15.38C57.3355 15.989 57.7588 16.489 57.7916 16.4912C57.8244 16.4923 58.2192 16.1219 58.6677 15.6676ZM34.2836 4.90445C35.6388 4.87503 37.1481 4.89682 37.637 4.95238L38.5263 5.0537V4.1081C38.5263 3.22569 38.5044 3.13854 38.1916 2.79103L37.8569 2.41846L35.2964 2.38142C33.6153 2.35636 32.5861 2.38795 32.2995 2.47292C31.6455 2.66684 31.418 3.12002 31.4169 4.22576C31.4169 5.03409 31.4366 5.11361 31.617 5.03953C31.7275 4.99378 32.9273 4.93386 34.2836 4.90445Z" fill="#C83737"/>
<path d="M34.3984 37.1624C34.2398 37.133 31.1445 36.6482 27.5187 36.085C23.8919 35.5207 20.7189 35.0065 20.4673 34.9401C19.7914 34.7647 18.9897 33.9008 18.8092 33.1545C18.5402 32.039 19.1986 30.8015 20.2945 30.3613C20.5155 30.2731 23.3319 29.7992 26.5541 29.3068L32.4111 28.4135L37.5616 21.4C40.3933 17.5414 42.8914 14.2166 43.1112 14.0096C44.6731 12.5465 47.3091 13.7176 47.2905 15.867C47.285 16.5152 47.0684 17.0283 43.1791 25.6682C40.9216 30.6827 38.9091 35.0163 38.7067 35.2974C38.243 35.9445 37.38 36.6025 36.6209 36.8868C36.0106 37.1156 34.8928 37.2539 34.3984 37.1624ZM36.1287 34.6906C36.4066 34.5446 36.7883 34.2069 36.9775 33.94C37.2848 33.5075 37.322 33.3637 37.322 32.6197C37.322 31.8745 37.2848 31.7329 36.9731 31.2917C36.4908 30.6086 35.8816 30.2873 35.0645 30.2851C34.2377 30.2829 33.8756 30.4213 33.3342 30.9431C32.4658 31.7819 32.3892 33.1644 33.1614 34.0947C33.8712 34.951 35.1455 35.207 36.1287 34.6906ZM30.5452 33.7417C30.4577 33.4487 30.3855 32.9443 30.3855 32.6197C30.3855 32.295 30.4577 31.7906 30.5452 31.4987C30.6983 30.9943 30.695 30.967 30.4861 30.967C30.2061 30.967 21.3227 32.3201 21.1181 32.3931C21.0339 32.4236 20.9836 32.5369 21.0044 32.6458C21.0361 32.8136 21.6989 32.9465 25.4559 33.5435C27.883 33.928 30.0573 34.2505 30.2881 34.2581L30.7059 34.2723L30.5452 33.7417ZM41.9475 23.0178C43.6614 19.2103 45.0636 15.9792 45.0625 15.8387C45.0614 15.648 44.9947 15.5826 44.8033 15.5859C44.5966 15.5881 43.657 16.7984 40.0455 21.7116C37.5703 25.0778 35.5425 27.8808 35.5392 27.9396C35.5359 27.9985 35.8072 28.1161 36.1408 28.2011C36.9239 28.3994 37.8842 28.9724 38.3392 29.5116C38.5361 29.7458 38.7275 29.9387 38.7647 29.9398C38.8008 29.9408 40.2336 26.8263 41.9475 23.0178Z" fill="#C83737"/>
</svg>
