<svg width="35" height="43" viewBox="0 0 35 43" fill="none" xmlns="http://www.w3.org/2000/svg">
<path d="M17.5 34.4C7.85094 34.4 0 26.6837 0 17.2C0 7.71635 7.85094 0 17.5 0C27.1491 0 35 7.71635 35 17.2C35 26.6837 27.1491 34.4 17.5 34.4ZM17.5 2.02315C8.98406 2.02315 2.05844 8.83005 2.05844 17.2C2.05844 25.57 8.98406 32.3769 17.5 32.3769C26.0159 32.3769 32.9416 25.57 32.9416 17.2C32.9416 8.83005 26.0159 2.02315 17.5 2.02315Z" fill="#CB333B"/>
<path d="M23.2684 21.3666C23.695 21.7859 23.695 22.4674 23.2662 22.8867C22.8396 23.3059 22.1462 23.3038 21.7196 22.8845L11.7315 13.0332C11.305 12.6118 11.305 11.9324 11.7337 11.511C12.1625 11.0939 12.8537 11.0939 13.2803 11.5153L23.2684 21.3666Z" fill="#CB333B"/>
<path d="M11.7315 21.3669C11.305 21.7861 11.305 22.4677 11.7337 22.8869C12.1603 23.3062 12.8537 23.304 13.2803 22.8848L23.2662 13.0313C23.6928 12.6099 23.6928 11.9305 23.264 11.5091C22.8353 11.0942 22.1462 11.0942 21.7196 11.5156L11.7315 21.3669Z" fill="#CB333B"/>
</svg>
