<svg width="40" height="40" viewBox="0 0 40 40" fill="none" xmlns="http://www.w3.org/2000/svg">
<g clip-path="url(#clip0_1_2)">
<mask id="mask0_1_2" style="mask-type:luminance" maskUnits="userSpaceOnUse" x="0" y="0" width="40" height="40">
<path d="M40 0H0V40H40V0Z" fill="white"/>
</mask>
<g mask="url(#mask0_1_2)">
<path d="M32 0H8C5.879 0.00238211 3.84555 0.846002 2.34578 2.34578C0.846002 3.84555 0.00238211 5.879 0 8V32C0.00238211 34.121 0.846002 36.1544 2.34578 37.6542C3.84555 39.154 5.879 39.9976 8 40H32C34.121 39.9978 36.1546 39.1542 37.6544 37.6544C39.1542 36.1546 39.9978 34.121 40 32V8C39.9978 5.87895 39.1542 3.84541 37.6544 2.3456C36.1546 0.845792 34.121 0.0022236 32 0ZM36 32C35.9988 33.0605 35.577 34.0772 34.8271 34.8271C34.0772 35.577 33.0605 35.9988 32 36H8C6.93946 35.9989 5.92266 35.5772 5.17274 34.8273C4.42283 34.0773 4.00106 33.0605 4 32V8C4.00106 6.93946 4.42283 5.92266 5.17274 5.17274C5.92266 4.42283 6.93946 4.00106 8 4H32C33.0605 4.00122 34.0772 4.42304 34.8271 5.17292C35.577 5.9228 35.9988 6.93951 36 8V32Z" fill="#C83737"/>
<path d="M20 11.0772C18.2353 11.0774 16.5102 11.6009 15.043 12.5815C13.5758 13.562 12.4323 14.9556 11.7571 16.5861C11.0819 18.2165 10.9054 20.0106 11.2498 21.7414C11.5942 23.4722 12.4441 25.062 13.692 26.3097C14.9399 27.5575 16.5298 28.4072 18.2606 28.7514C19.9914 29.0956 21.7855 28.9189 23.4158 28.2435C25.0462 27.5681 26.4397 26.4245 27.4201 24.9572C28.4005 23.4898 28.9238 21.7647 28.9238 20C28.9211 17.6342 27.98 15.3661 26.307 13.6933C24.6341 12.0205 22.3658 11.0796 20 11.0772ZM20 24.9228C19.0264 24.9226 18.0747 24.6337 17.2653 24.0927C16.4559 23.5516 15.8251 22.7827 15.4526 21.8832C15.0802 20.9837 14.9829 19.9939 15.1729 19.039C15.363 18.0841 15.8319 17.2071 16.5204 16.5187C17.2089 15.8303 18.0861 15.3616 19.041 15.1717C19.9959 14.9819 20.9856 15.0794 21.8851 15.452C22.7846 15.8247 23.5533 16.4556 24.0942 17.2652C24.6351 18.0747 24.9238 19.0264 24.9238 20C24.9224 21.3054 24.4032 22.5569 23.4801 23.4798C22.5569 24.4027 21.3054 24.9217 20 24.9228Z" fill="#C83737"/>
</g>
</g>
<defs>
<clipPath id="clip0_1_2">
<rect width="40" height="40" fill="white"/>
</clipPath>
</defs>
</svg>
