<svg width="40" height="40" viewBox="0 0 40 40" fill="none" xmlns="http://www.w3.org/2000/svg">
<path d="M29.9603 22.9948C29.9603 23.4832 29.56 23.8828 29.0707 23.8828H12.9693C12.48 23.8828 12.0797 23.4832 12.0797 22.9948C12.0797 22.5064 12.48 22.1068 12.9693 22.1068H29.0707C29.56 22.1068 29.9603 22.5064 29.9603 22.9948ZM12.9693 15.8464H23.0215C23.5108 15.8464 23.9111 15.4468 23.9111 14.9584C23.9111 14.47 23.5108 14.0704 23.0215 14.0704H12.9693C12.48 14.0704 12.0797 14.47 12.0797 14.9584C12.0797 15.4468 12.48 15.8464 12.9693 15.8464ZM39.6122 23.2612C37.7441 32.3188 29.5155 38.89 19.9969 38.89H19.9525C17.5061 38.89 15.1042 38.446 12.7913 37.6024C9.90019 39.6004 6.56426 40 4.5627 40C3.53968 40 2.82802 39.9112 2.73906 39.9112C2.38323 39.8668 2.07187 39.6004 1.98291 39.2008C1.89396 38.8456 2.07187 38.4904 2.38323 38.2684C4.16239 37.114 5.05197 34.8052 5.49676 32.896C-0.908227 26.2804 -1.84229 16.2016 3.36177 8.60916C8.65478 0.927947 18.885 -2.04686 27.6474 1.46075C36.4542 5.01275 41.4804 14.1592 39.6122 23.2612ZM26.9802 3.10355C24.7117 2.21555 22.3543 1.77155 20.0414 1.77155C14.0812 1.77155 8.29895 4.61315 4.82958 9.63036C0.0258342 16.6012 0.959895 25.9696 7.09801 31.9192C7.32041 32.1412 7.40936 32.452 7.36489 32.7184C6.92009 34.9828 6.11947 36.8032 5.05197 38.1352C6.92009 38.0908 9.81124 37.6468 12.1241 35.8264C12.391 35.6488 12.7024 35.6044 13.0137 35.6932C15.2377 36.5812 17.5951 37.0252 19.9969 37.0252C28.6704 37.0252 36.1873 31.0312 37.8775 22.8172C39.5678 14.6476 34.9864 6.34475 26.9802 3.10355Z" fill="white"/>
</svg>
