<svg width="41" height="41" viewBox="0 0 41 41" fill="none" xmlns="http://www.w3.org/2000/svg">
<path d="M20.5 0.5C9.47206 0.5 0.5 9.47206 0.5 20.5C0.5 31.5279 9.47206 40.5 20.5 40.5C31.5279 40.5 40.5 31.5279 40.5 20.5C40.5 9.47206 31.5279 0.5 20.5 0.5ZM20.5 36.6644C11.5866 36.6644 4.33562 29.4134 4.33562 20.5C4.33562 11.5866 11.5866 4.33562 20.5 4.33562C29.4134 4.33562 36.6644 11.5866 36.6644 20.5C36.6644 29.4134 29.4134 36.6644 20.5 36.6644ZM18.0173 23.7071L11.2025 18.4074L8.84795 21.4348L18.4726 28.9197L31.5668 14.4496L28.7236 11.8759L18.0173 23.7071Z" fill="#3CD216"/>
</svg>
