<svg width="40" height="40" viewBox="0 0 40 40" fill="none" xmlns="http://www.w3.org/2000/svg">
<g clip-path="url(#clip0_1_2)">
<path d="M0.533131 16.4164L39.0027 0.0498439C39.5804 -0.196838 40.1318 0.512163 39.972 1.295L33.2414 34.2707C33.1223 34.853 32.6549 35.1718 32.2332 34.9579L18.6423 28.0743C18.1078 27.8033 17.9756 26.8711 18.3992 26.3576L29.0609 13.421C29.7163 12.6264 29.0089 11.2235 28.2132 11.7421L10.3653 23.3663C10.1698 23.4939 9.9436 23.5031 9.74247 23.3932L0.476113 18.3404C-0.186172 17.9788 -0.148578 16.7059 0.533131 16.4164ZM21.9174 19.2046C22.252 18.8153 21.8804 18.1139 21.4951 18.4075L12.99 24.6274C12.2231 25.2123 11.8628 26.4322 12.1234 27.5616L14.7507 39.4065C14.8841 40.0065 15.4468 40.2003 15.7795 39.7606L21.0233 33.1136C21.2375 32.83 21.1692 32.3459 20.8923 32.1882L15.4512 28.5567C15.1523 28.357 15.0934 27.8209 15.3359 27.5146L21.9174 19.2046Z" fill="black"/>
<path fill-rule="evenodd" clip-rule="evenodd" d="M32.2838 34.9232C32.2322 34.898 29.263 33.3963 25.6857 31.5861C22.1083 29.7759 19.0201 28.2142 18.8232 28.1157C18.3967 27.9024 18.1949 27.5796 18.1949 27.1111C18.1949 26.9365 18.2339 26.7201 18.2816 26.6301C18.3293 26.5401 20.7746 23.5454 23.7156 19.9752C26.6566 16.405 29.1192 13.3988 29.188 13.2948C29.2806 13.1547 29.3131 12.9868 29.3131 12.6474C29.3131 12.2251 29.2947 12.1666 29.0795 11.9024C28.6371 11.3596 29.282 10.9909 19.3116 17.4858C14.3555 20.7144 10.216 23.3748 10.1128 23.3978C9.96727 23.4302 8.85156 22.8541 5.14182 20.8312C2.51098 19.3965 0.308489 18.1622 0.247394 18.0881C0.186299 18.0141 0.105659 17.8165 0.0681944 17.6491C-0.0144066 17.2799 0.106948 16.8088 0.335429 16.6116C0.548723 16.4276 39.0663 0.0581055 39.286 0.0581055C39.5218 0.0581055 39.8906 0.47942 39.945 0.811062C39.9744 0.990052 39.0977 5.40659 36.6331 17.4949C34.7896 26.5371 33.2366 34.0987 33.1819 34.2984C33.037 34.8273 32.6454 35.0997 32.2838 34.9232Z" fill="#C83737"/>
<path fill-rule="evenodd" clip-rule="evenodd" d="M14.9799 39.7351C14.9102 39.6314 14.8367 39.507 14.8166 39.4585C14.7965 39.41 14.1731 36.635 13.4314 33.2918C12.0063 26.8687 11.9877 26.7595 12.1836 25.9896C12.4073 25.1104 12.4703 25.0554 17.2315 21.5785C19.9591 19.5866 21.6487 18.3992 21.7324 18.4154C21.8061 18.4297 21.9093 18.5442 21.9618 18.6699C22.0563 18.896 22.0532 18.9038 21.6673 19.4236C21.4528 19.7125 19.9294 21.6449 18.282 23.7177C16.6347 25.7905 15.2554 27.5731 15.2171 27.6789C15.1215 27.9425 15.1296 28.1271 15.2465 28.3506C15.3073 28.467 16.4112 29.253 18.1077 30.388C19.6269 31.4044 20.9191 32.2943 20.9793 32.3658C21.0395 32.4372 21.0888 32.5993 21.0888 32.7261C21.0888 32.9204 20.7381 33.4009 18.8529 35.7895C17.6232 37.3476 16.3869 38.9152 16.1057 39.273C15.6472 39.8562 15.5691 39.9235 15.3504 39.9235C15.1768 39.9235 15.0701 39.8692 14.9799 39.7351Z" fill="#C83737"/>
</g>
<defs>
<clipPath id="clip0_1_2">
<rect width="40" height="40" fill="white"/>
</clipPath>
</defs>
</svg>
