<svg width="15" height="15" viewBox="0 0 15 15" fill="none" xmlns="http://www.w3.org/2000/svg">
<g clip-path="url(#clip0_7_2)">
<mask id="mask0_7_2" style="mask-type:luminance" maskUnits="userSpaceOnUse" x="0" y="0" width="15" height="15">
<path d="M15 0H0V15H15V0Z" fill="white"/>
</mask>
<g mask="url(#mask0_7_2)">
<path d="M10.9367 14.9697C8.20943 14.7762 5.34954 13.2064 3.10192 10.6695C1.32702 8.66601 0.246139 6.34184 0.0354768 4.07577C0.00564892 3.75492 0.0233195 3.24251 0.0720803 3.01435C0.206627 2.38479 0.51197 1.82571 0.956967 1.39413C1.46014 0.906115 2.1073 0.496348 2.66984 0.309562C3.11202 0.162741 3.565 0.222801 3.9526 0.479646C4.20381 0.646099 4.35285 0.837733 4.69853 1.43872C4.91994 1.82365 5.25685 2.5086 5.39778 2.86032C5.60363 3.37405 5.76556 3.90882 5.87083 4.42251C5.97563 4.93392 5.91621 5.32391 5.67794 5.68864C5.62966 5.76254 5.39587 6.03327 5.15841 6.29025C4.92094 6.54723 4.71585 6.78248 4.70265 6.81302C4.66655 6.89666 4.68793 6.95229 4.84394 7.18059C5.72997 8.47736 6.87953 9.58533 8.17259 10.3889C8.47679 10.5779 8.52455 10.5975 8.60069 10.5649C8.63213 10.5514 8.84111 10.3668 9.06503 10.1547C9.28901 9.94245 9.51155 9.74067 9.55955 9.70623C9.80213 9.53205 10.1275 9.42561 10.4172 9.42561C10.8081 9.42561 11.7389 9.68055 12.4478 9.98187C13.1156 10.2657 14.0816 10.8012 14.4421 11.0875C14.6701 11.2686 14.8656 11.586 14.9448 11.9037C14.9803 12.0459 14.9849 12.103 14.9774 12.3091C14.9696 12.525 14.9617 12.5699 14.899 12.757C14.7734 13.1313 14.53 13.588 14.3124 13.8574C13.8788 14.3941 13.2536 14.7686 12.5602 14.9071C12.1722 14.9847 11.5076 15.0103 10.9367 14.9697ZM12.1464 14.1794C12.9856 14.0963 13.6268 13.6621 13.9957 12.9273C14.1758 12.5684 14.2414 12.3207 14.2068 12.1298C14.1643 11.8953 14.0456 11.7395 13.7777 11.5665C13.0526 11.0982 12.089 10.6346 11.4154 10.4299C10.8592 10.261 10.4723 10.1865 10.3085 10.2167C10.1123 10.253 10.0297 10.3066 9.72173 10.5982C9.05633 11.2279 8.99915 11.2712 8.74799 11.3356C8.60129 11.3732 8.37749 11.3607 8.23523 11.3068C8.03303 11.2303 7.41401 10.8369 6.95411 10.4928C5.91984 9.71876 4.9656 8.7206 4.21614 7.62891C3.98582 7.29339 3.92214 7.13258 3.92216 6.8867C3.9222 6.58526 4.00916 6.40179 4.30371 6.08169C4.41598 5.95968 4.62567 5.73176 4.76969 5.57521C5.05142 5.26896 5.11042 5.17609 5.14384 4.98637C5.16896 4.84378 5.13664 4.62125 5.02985 4.20138C4.81469 3.35543 4.4498 2.51662 3.89407 1.59047C3.64259 1.17136 3.4977 1.05017 3.20423 1.0135C2.84646 0.968803 2.04052 1.41682 1.48128 1.97128C1.18743 2.26262 1.01695 2.53564 0.894255 2.91145C0.753651 3.34211 0.751239 3.84303 0.885927 4.64364C1.24487 6.77727 2.41768 8.91603 4.23099 10.7437C5.29166 11.8128 6.40595 12.6304 7.61975 13.2303C8.73401 13.7808 9.79601 14.0868 10.9367 14.1857C11.1139 14.2011 11.9727 14.1966 12.1464 14.1794Z" fill="white"/>
<path d="M11.9328 7.9845C11.8877 7.97238 11.8277 7.93248 11.7748 7.87956C11.6744 7.77918 11.6461 7.69182 11.6461 7.48224C11.6461 7.05168 11.523 6.45762 11.3415 6.01272C10.7988 4.68242 9.62405 3.71713 8.24171 3.46563C8.03813 3.42859 7.94819 3.41889 7.65383 3.40224C7.41881 3.38894 7.38473 3.38261 7.30877 3.33808C7.08767 3.20852 7.05287 2.91364 7.23689 2.7296C7.34633 2.6202 7.44269 2.60164 7.77887 2.62526C8.80583 2.6974 9.65903 3.01753 10.476 3.63721C10.7278 3.82819 11.1976 4.3019 11.3923 4.56117C12.0288 5.40859 12.3748 6.37014 12.4135 7.39902L12.4242 7.68462L12.3707 7.78572C12.2833 7.95048 12.1057 8.03112 11.9328 7.9845Z" fill="white"/>
<path d="M14.5301 7.9896C14.4326 7.96596 14.3557 7.91538 14.2998 7.83822C14.2331 7.74612 14.2311 7.73424 14.208 7.2882C14.1543 6.24912 13.9294 5.39561 13.47 4.48745C13.1483 3.85121 12.786 3.34719 12.273 2.82204C11.7339 2.27009 11.2193 1.88464 10.5722 1.54816C9.67324 1.08066 8.79928 0.847865 7.7737 0.802745C7.3687 0.784925 7.3237 0.772901 7.216 0.653705C7.15054 0.581201 7.11316 0.484241 7.11328 0.387097C7.1134 0.303817 7.19326 0.149153 7.26304 0.0969876C7.37452 0.0136811 7.44334 0.00279264 7.77574 0.0158626C10.9692 0.141434 13.728 2.30032 14.6672 5.4086C14.8646 6.0618 14.9813 6.81702 14.9815 7.44096C14.9816 7.67268 14.9763 7.72374 14.9465 7.78188C14.8678 7.9353 14.6841 8.02698 14.5301 7.9896Z" fill="white"/>
</g>
</g>
<defs>
<clipPath id="clip0_7_2">
<rect width="15" height="15" fill="white"/>
</clipPath>
</defs>
</svg>
