<svg width="25" height="25" viewBox="0 0 25 25" fill="none" xmlns="http://www.w3.org/2000/svg">
<g clip-path="url(#clip0_1_2)">
<path d="M18.2279 24.9497C13.6824 24.6271 8.91592 22.0109 5.16989 17.7826C2.21171 14.4435 0.410247 10.5699 0.0591433 6.79311C0.0094301 6.25835 0.038881 5.40434 0.120149 5.02408C0.344394 3.97481 0.853299 3.04301 1.59496 2.3237C2.43359 1.51035 3.51218 0.827405 4.44975 0.516095C5.18672 0.271392 5.94169 0.371493 6.58769 0.799568C7.00636 1.07699 7.25476 1.39638 7.8309 2.39803C8.19992 3.03958 8.76143 4.18115 8.99632 4.76736C9.3394 5.62357 9.60928 6.51485 9.78473 7.37101C9.95939 8.22335 9.86037 8.87334 9.46325 9.48122C9.38278 9.60439 8.99313 10.0556 8.59736 10.4839C8.20158 10.9122 7.85976 11.3043 7.83776 11.3552C7.7776 11.4946 7.81323 11.5873 8.07325 11.9678C9.54997 14.1291 11.4659 15.9757 13.621 17.315C14.128 17.63 14.2076 17.6627 14.3345 17.6084C14.3869 17.5859 14.7352 17.2782 15.1084 16.9246C15.4817 16.5709 15.8526 16.2346 15.9326 16.1772C16.3369 15.8869 16.8791 15.7095 17.362 15.7095C18.0135 15.7095 19.5648 16.1344 20.7463 16.6366C21.8594 17.1097 23.4693 18.0022 24.0702 18.4794C24.4502 18.7812 24.776 19.3101 24.908 19.8397C24.9671 20.0766 24.9748 20.1719 24.9623 20.5154C24.9493 20.8752 24.9362 20.95 24.8316 21.2618C24.6224 21.8857 24.2167 22.6469 23.854 23.0958C23.1313 23.9903 22.0894 24.6145 20.9337 24.8454C20.287 24.9746 19.1794 25.0173 18.2279 24.9497ZM20.244 23.6325C21.6426 23.494 22.7113 22.7704 23.3261 21.5457C23.6264 20.9475 23.7357 20.5347 23.678 20.2165C23.6071 19.8256 23.4093 19.566 22.9628 19.2776C21.7543 18.4972 20.1483 17.7245 19.0256 17.3834C18.0987 17.1018 17.4538 16.9776 17.1809 17.028C16.8538 17.0885 16.7162 17.1779 16.2029 17.6638C15.0939 18.7133 14.9986 18.7855 14.58 18.8928C14.3355 18.9555 13.9625 18.9346 13.7254 18.8449C13.3884 18.7173 12.3567 18.0617 11.5902 17.4881C9.86642 16.1981 8.27601 14.5345 7.02692 12.715C6.64305 12.1558 6.53691 11.8878 6.53695 11.478C6.53701 10.9756 6.68194 10.6698 7.17286 10.1363C7.35998 9.93296 7.70947 9.5531 7.9495 9.29217C8.41904 8.78176 8.51738 8.62698 8.57308 8.31077C8.61494 8.07312 8.56109 7.70224 8.3831 7.00246C8.0245 5.59254 7.41635 4.19452 6.49014 2.65094C6.071 1.95242 5.82951 1.75044 5.34039 1.68933C4.74411 1.61483 3.40088 2.36153 2.46882 3.28562C1.97907 3.77119 1.69494 4.22623 1.49044 4.85258C1.2561 5.57034 1.25208 6.40521 1.47656 7.73956C2.0748 11.2956 4.02948 14.8602 7.05166 17.9064C8.81944 19.6882 10.6766 21.0509 12.6996 22.0506C14.5567 22.9682 16.3267 23.4781 18.2279 23.643C18.5232 23.6686 19.9545 23.6612 20.244 23.6325Z" fill="white"/>
<path d="M19.8881 13.3069C19.813 13.2867 19.713 13.2202 19.6248 13.132C19.4575 12.9647 19.4103 12.8191 19.4103 12.4698C19.4103 11.7522 19.2051 10.7621 18.9026 10.0206C17.9981 7.80344 16.0402 6.19463 13.7363 5.77546C13.397 5.71372 13.2471 5.69756 12.7565 5.6698C12.3648 5.64764 12.308 5.63709 12.1814 5.56288C11.8129 5.34694 11.7549 4.85548 12.0616 4.54874C12.244 4.3664 12.4046 4.33548 12.9649 4.37484C14.6765 4.49507 16.0985 5.02863 17.4601 6.06142C17.8797 6.37972 18.6627 7.16924 18.9872 7.60135C20.0481 9.01373 20.6248 10.6163 20.6893 12.3311L20.7071 12.8071L20.6179 12.9756C20.4723 13.2502 20.1763 13.3846 19.8881 13.3069Z" fill="white"/>
<path d="M24.2168 13.3158C24.0544 13.2764 23.9262 13.1921 23.833 13.0635C23.7218 12.91 23.7185 12.8902 23.6801 12.1468C23.5905 10.415 23.2157 8.99249 22.4501 7.47888C21.9138 6.41849 21.31 5.57845 20.4551 4.7032C19.5566 3.78328 18.6989 3.14086 17.6204 2.58006C16.1221 1.8009 14.6655 1.41291 12.9562 1.33771C12.2812 1.30801 12.2062 1.28797 12.0267 1.08931C11.9176 0.96847 11.8553 0.806869 11.8555 0.644963C11.8557 0.506162 11.9888 0.24839 12.1051 0.161447C12.2909 0.0226029 12.4056 0.00445542 12.9596 0.0262387C18.282 0.235525 22.8801 3.83367 24.4454 9.01413C24.7743 10.1028 24.9689 11.3615 24.9692 12.4014C24.9693 12.7876 24.9605 12.8727 24.9109 12.9696C24.7797 13.2253 24.4735 13.3781 24.2168 13.3158Z" fill="white"/>
</g>
<defs>
<clipPath id="clip0_1_2">
<rect width="25" height="25" fill="white"/>
</clipPath>
</defs>
</svg>
