<?xml version="1.0" encoding="UTF-8" standalone="no"?>
<svg
   width="15"
   height="15"
   viewBox="0 0 15 15"
   fill="none"
   version="1.1"
   id="svg36"
   sodipodi:docname="time.svg"
   inkscape:version="1.2.2 (732a01da63, 2022-12-09)"
   xmlns:inkscape="http://www.inkscape.org/namespaces/inkscape"
   xmlns:sodipodi="http://sodipodi.sourceforge.net/DTD/sodipodi-0.dtd"
   xmlns="http://www.w3.org/2000/svg"
   xmlns:svg="http://www.w3.org/2000/svg">
  <sodipodi:namedview
     id="namedview38"
     pagecolor="#ffffff"
     bordercolor="#000000"
     borderopacity="0.25"
     inkscape:showpageshadow="2"
     inkscape:pageopacity="0.0"
     inkscape:pagecheckerboard="0"
     inkscape:deskcolor="#d1d1d1"
     showgrid="false"
     inkscape:zoom="54.266667"
     inkscape:cx="7.5"
     inkscape:cy="7.5"
     inkscape:window-width="1920"
     inkscape:window-height="1001"
     inkscape:window-x="-9"
     inkscape:window-y="-9"
     inkscape:window-maximized="1"
     inkscape:current-layer="svg36" />
  <g
     clip-path="url(#clip0_1_2)"
     id="g29">
    <path
       d="M7.5 1.13441C9.25765 1.13441 10.8493 1.84698 12.0011 2.99892C13.153 4.15067 13.8656 5.74235 13.8656 7.5C13.8656 9.25765 13.153 10.8493 12.0011 12.0011C10.8493 13.153 9.25765 13.8656 7.5 13.8656C5.74235 13.8656 4.15067 13.153 2.99892 12.0011C1.84698 10.8493 1.13441 9.25765 1.13441 7.5C1.13441 5.74235 1.84698 4.15067 2.99892 2.99892C4.15067 1.84698 5.74235 1.13441 7.5 1.13441ZM7.26316 6.70071V4.42443C7.26316 4.29371 7.36927 4.18759 7.5 4.18759C7.63073 4.18759 7.73684 4.29371 7.73684 4.42443V6.70071C7.87186 6.74081 7.99252 6.81391 8.0893 6.9107C8.23999 7.06138 8.33342 7.26987 8.33342 7.5C8.33342 7.73013 8.23999 7.93862 8.0893 8.0893C7.93862 8.23999 7.73013 8.33342 7.5 8.33342C7.3965 8.33342 7.29729 8.31458 7.20572 8.2799L6.23729 9.24814C6.14498 9.34045 5.99467 9.34045 5.90235 9.24814C5.81004 9.15583 5.81004 9.00552 5.90235 8.91321L6.82566 7.9899C6.72551 7.85246 6.66658 7.68313 6.66658 7.5C6.66658 7.26987 6.76001 7.06138 6.9107 6.9107C7.00748 6.81391 7.12814 6.74081 7.26316 6.70071ZM7.75437 7.24563C7.68947 7.18073 7.5994 7.14026 7.5 7.14026C7.4006 7.14026 7.31053 7.18073 7.24563 7.24563C7.18073 7.31053 7.14026 7.4006 7.14026 7.5C7.14026 7.5994 7.18073 7.68947 7.24563 7.75437C7.31053 7.81927 7.4006 7.85974 7.5 7.85974C7.5994 7.85974 7.68947 7.81927 7.75437 7.75437C7.81927 7.68947 7.85974 7.5994 7.85974 7.5C7.85974 7.4006 7.81927 7.31053 7.75437 7.24563ZM7.5 0C9.57095 0 11.4463 0.839571 12.8034 2.19665C14.1604 3.55372 15 5.42905 15 7.5C15 9.57095 14.1604 11.4463 12.8034 12.8034C11.4463 14.1604 9.57095 15 7.5 15C5.42905 15 3.55372 14.1604 2.19665 12.8034C0.839571 11.4463 0 9.57095 0 7.5C0 5.42905 0.839571 3.55372 2.19665 2.19665C3.55372 0.839571 5.42905 0 7.5 0ZM12.4684 2.53158C11.1971 1.26029 9.44023 0.47368 7.5 0.47368C5.55978 0.47368 3.80287 1.26029 2.53158 2.53158C1.26029 3.80287 0.47368 5.55978 0.47368 7.5C0.47368 9.44023 1.26029 11.1971 2.53158 12.4684C3.80287 13.7397 5.55978 14.5263 7.5 14.5263C9.44023 14.5263 11.1971 13.7397 12.4684 12.4684C13.7397 11.1971 14.5263 9.44023 14.5263 7.5C14.5263 5.55978 13.7397 3.80287 12.4684 2.53158ZM3.16974 11.4953L3.63727 11.0278C3.72958 10.9355 3.87989 10.9355 3.9722 11.0278C4.06451 11.1201 4.06451 11.2704 3.9722 11.3627L3.50467 11.8303C4.50052 12.7496 5.81489 13.33 7.26316 13.3873V12.7258C7.26316 12.595 7.36927 12.4889 7.5 12.4889C7.63073 12.4889 7.73684 12.595 7.73684 12.7258V13.3873C9.18511 13.33 10.4995 12.7496 11.4953 11.8303L11.0278 11.3627C10.9355 11.2704 10.9355 11.1201 11.0278 11.0278C11.1201 10.9355 11.2704 10.9355 11.3627 11.0278L11.8303 11.4953C12.7496 10.4995 13.33 9.18511 13.3873 7.73684H12.7258C12.595 7.73684 12.4889 7.63073 12.4889 7.5C12.4889 7.36927 12.595 7.26316 12.7258 7.26316H13.3873C13.33 5.81489 12.7496 4.50052 11.8303 3.50467L11.3627 3.9722C11.2704 4.06451 11.1201 4.06451 11.0278 3.9722C10.9355 3.87989 10.9355 3.72958 11.0278 3.63727L11.4953 3.16974C10.4995 2.25035 9.18511 1.67 7.73684 1.61275V2.27423C7.73684 2.40495 7.63073 2.51106 7.5 2.51106C7.36927 2.51106 7.26316 2.40495 7.26316 2.27423V1.61275C5.81489 1.67 4.50052 2.25035 3.50467 3.16974L3.9722 3.63727C4.06451 3.72958 4.06451 3.87989 3.9722 3.9722C3.87989 4.06451 3.72958 4.06451 3.63727 3.9722L3.16974 3.50467C2.25035 4.50052 1.67 5.81489 1.61275 7.26316H2.27423C2.40495 7.26316 2.51106 7.36927 2.51106 7.5C2.51106 7.63073 2.40495 7.73684 2.27423 7.73684H1.61275C1.67 9.18511 2.25035 10.4995 3.16974 11.4953Z"
       fill="black"
       id="path21" />
    <path
       fill-rule="evenodd"
       clip-rule="evenodd"
       d="M6.98841 14.9726C6.74912 14.9562 6.27996 14.89 5.99395 14.8323C3.14884 14.2583 0.835629 11.9928 0.199729 9.1575C0.0572675 8.52231 0.0320084 8.2723 0.0320282 7.49758C0.0320479 6.72732 0.0596885 6.45298 0.199366 5.8367C0.695311 3.64853 2.19911 1.75601 4.22432 0.771316C6.23776 -0.207649 8.54936 -0.23977 10.589 0.682875C12.542 1.56632 14.0431 3.27718 14.6642 5.32753C15.0119 6.47528 15.0749 7.75803 14.8423 8.95641C14.3989 11.2403 12.8593 13.2264 10.7466 14.2399C9.87058 14.6601 9.06593 14.8785 8.07949 14.964C7.80816 14.9875 7.26719 14.9918 6.98841 14.9726ZM8.19209 14.5041C10.3662 14.2881 12.3162 13.077 13.4752 11.2229C14.014 10.3609 14.3603 9.37241 14.4957 8.30983C14.5417 7.94962 14.5352 6.99885 14.4842 6.6149C14.2169 4.60127 13.1428 2.83935 11.4861 1.69708C10.251 0.845497 8.8169 0.428433 7.27936 0.47369C6.41998 0.498985 5.70191 0.644484 4.9149 0.952789C3.30237 1.58448 1.96059 2.82065 1.1928 4.38192C0.762004 5.25792 0.544569 6.07765 0.477182 7.07978C0.420931 7.91631 0.533647 8.82478 0.795192 9.64289C1.43358 11.6398 2.93244 13.2513 4.87701 14.0316C5.52085 14.29 6.05804 14.4185 6.89142 14.5135C7.06554 14.5333 7.96301 14.5268 8.19209 14.5041Z"
       fill="white"
       id="path23" />
    <path
       fill-rule="evenodd"
       clip-rule="evenodd"
       d="M6.87349 13.8254C6.06662 13.7332 5.33953 13.5189 4.64863 13.1696C4.05473 12.8693 3.58107 12.5325 3.10318 12.0709C2.0863 11.0886 1.47131 9.91978 1.22511 8.50146C1.15106 8.07485 1.14436 6.98196 1.21324 6.5641C1.40165 5.42101 1.83809 4.42364 2.53959 3.53307C2.90055 3.07482 3.54932 2.49197 4.07767 2.15128C5.51801 1.22249 7.3346 0.918179 8.99864 1.32691C9.88631 1.54494 10.7784 1.98787 11.4982 2.5679C11.8034 2.81383 12.3179 3.34313 12.5436 3.64329C13.4134 4.80005 13.8448 6.07804 13.8448 7.49759C13.8448 8.7664 13.4989 9.92933 12.8099 10.9769C11.8077 12.5005 10.223 13.5133 8.40681 13.7907C8.10916 13.8362 7.15639 13.8577 6.87349 13.8254ZM7.27159 13.0141C7.27927 12.6424 7.28 12.6381 7.34537 12.5728C7.44168 12.4766 7.5658 12.4814 7.65824 12.5849L7.72791 12.6628V13.0298V13.3968L7.97644 13.3815C8.45233 13.3521 9.10539 13.2073 9.58581 13.0246C10.2245 12.7817 10.9286 12.36 11.3844 11.9473L11.513 11.8308L11.245 11.5591C11.0155 11.3266 10.9769 11.2762 10.9769 11.2094C10.9769 11.1665 10.9881 11.1104 11.0019 11.0847C11.0391 11.0152 11.165 10.9581 11.2396 10.9768C11.2745 10.9856 11.4204 11.1084 11.5638 11.2497L11.8246 11.5066L11.8769 11.46C11.9739 11.3735 12.2419 11.0278 12.4203 10.759C12.8542 10.1053 13.143 9.40199 13.2907 8.63946C13.3387 8.39176 13.4011 7.88866 13.4015 7.74611C13.4015 7.72313 13.3083 7.7158 13.0158 7.7158H12.63L12.5672 7.64121C12.4822 7.54016 12.485 7.4406 12.5753 7.35024L12.6462 7.27937H13.0259H13.4057L13.3901 7.09146C13.2879 5.86345 12.8709 4.78244 12.139 3.84773C12.0335 3.71297 11.9194 3.5767 11.8856 3.54491L11.8241 3.48711L11.5582 3.75212C11.3063 4.00324 11.2872 4.01713 11.1927 4.01713C11.0662 4.01713 10.9769 3.92596 10.9769 3.79679C10.9769 3.72079 11.0064 3.6812 11.2454 3.43661L11.514 3.16182L11.3121 2.98873C10.6412 2.41343 9.67562 1.93502 8.79475 1.74152C8.48842 1.67423 8.00467 1.60573 7.83578 1.60573H7.72791V1.97185V2.33797L7.64548 2.4204C7.54282 2.52306 7.46399 2.52629 7.35854 2.43215L7.27936 2.36146L7.27154 1.98014L7.26372 1.59882L7.0354 1.61486C5.8607 1.69744 4.637 2.19535 3.71949 2.96408L3.48137 3.16359L3.7498 3.43565C3.99494 3.68412 4.01822 3.71556 4.01822 3.79816C4.01822 3.86664 4.00028 3.90656 3.94436 3.96248C3.88069 4.02614 3.85825 4.03435 3.78182 4.02195C3.70996 4.01029 3.64399 3.95856 3.43398 3.7492C3.29144 3.60711 3.16324 3.49801 3.14908 3.50676C3.09657 3.53921 2.719 4.02657 2.55559 4.27282C2.33123 4.61092 2.03425 5.22602 1.90002 5.63062C1.74185 6.1074 1.66889 6.48245 1.60641 7.13995L1.59317 7.27937H1.97107H2.34896L2.41983 7.35025C2.51372 7.44413 2.51644 7.56223 2.42679 7.65188C2.3631 7.71558 2.3615 7.71581 1.97802 7.71581H1.59316L1.6064 7.85522C1.66821 8.50567 1.74135 8.88426 1.89566 9.35243C2.1414 10.098 2.56794 10.8462 3.05682 11.3891L3.16598 11.5104L3.41631 11.2645C3.55399 11.1293 3.69183 11.0058 3.72262 10.9901C3.85393 10.9232 4.01821 11.0411 4.01821 11.2022C4.01821 11.2782 3.98914 11.3169 3.75006 11.5593L3.4819 11.831L3.63489 11.9634C4.38466 12.6121 5.3423 13.0864 6.29192 13.2794C6.5719 13.3363 6.9365 13.384 7.11398 13.387L7.26381 13.3895L7.27159 13.0141Z"
       fill="white"
       id="path25" />
    <path
       fill-rule="evenodd"
       clip-rule="evenodd"
       d="M5.98718 9.27835C5.89656 9.24025 5.82971 9.122 5.85096 9.03736C5.85941 9.00368 6.05741 8.78267 6.29397 8.54287C6.52921 8.30439 6.74703 8.08194 6.77799 8.04853L6.83429 7.98779L6.76796 7.85786C6.67307 7.67198 6.66007 7.41858 6.73522 7.21937C6.80267 7.04058 6.9865 6.83865 7.1502 6.76355L7.26723 6.70986V5.56169C7.26723 4.31243 7.26968 4.28839 7.4029 4.22769C7.47966 4.19271 7.51605 4.19297 7.59524 4.22905C7.72753 4.28933 7.72791 4.2932 7.72791 5.55338V6.71512L7.83775 6.75706C7.97664 6.81011 8.1605 6.98878 8.23797 7.14601C8.28875 7.24908 8.2977 7.30177 8.2977 7.49759C8.2977 7.68764 8.28814 7.74733 8.24303 7.83887C8.06916 8.19171 7.6789 8.38484 7.3158 8.29773L7.18896 8.2673L6.67649 8.77661C6.39463 9.05673 6.14102 9.29128 6.11291 9.29782C6.0848 9.30437 6.02822 9.2956 5.98718 9.27835ZM7.70614 7.80624C7.94871 7.6442 7.90837 7.2457 7.64044 7.15728C7.52804 7.12018 7.36365 7.13855 7.28259 7.19727C7.20856 7.25088 7.12153 7.41481 7.12229 7.49918C7.12321 7.60144 7.21165 7.76069 7.29613 7.8122C7.40936 7.88123 7.59799 7.87849 7.70614 7.80624Z"
       fill="white"
       id="path27" />
  </g>
  <defs
     id="defs34">
    <clipPath
       id="clip0_1_2">
      <rect
         width="15"
         height="15"
         fill="white"
         id="rect31" />
    </clipPath>
  </defs>
  <path
     style="fill:#ffffff;stroke-width:0.0184275"
     d="M 6.8550369,14.952999 C 6.065932,14.858008 5.5093166,14.73234 4.9363738,14.519819 2.9075842,13.767281 1.2806059,12.159021 0.50997999,10.144349 0.3361929,9.6900118 0.17128135,9.0660562 0.10158233,8.5991449 0.02983563,8.1185163 0.01981301,7.0721996 0.08196308,6.5509828 0.17256951,5.7911189 0.44056207,4.9131273 0.80243563,4.1905861 1.7834154,2.2318955 3.5334686,0.80939145 5.6296069,0.26689347 6.3310616,0.08535116 6.7227227,0.03726736 7.5,0.03726736 c 0.7772714,0 1.1665964,0.04779427 1.8718098,0.22978696 C 11.270691,0.757094 12.915919,1.993139 13.923274,3.6865286 c 0.520988,0.8757944 0.846956,1.8172552 0.985398,2.8460267 0.04954,0.3681245 0.06899,1.1827585 0.03754,1.5724327 -0.15613,1.934705 -1.059283,3.726568 -2.526067,5.011737 -0.97118,0.850931 -2.19023,1.45901 -3.4195341,1.705711 -0.5316346,0.10669 -0.8284388,0.135802 -1.4453303,0.141767 -0.3091217,0.003 -0.6242322,-0.0021 -0.7002457,-0.0112 z M 8.5042998,14.476348 C 9.4561354,14.329245 10.337479,14.014839 11.130221,13.53959 12.737919,12.575775 13.881104,11.028425 14.336047,9.2003665 14.510424,8.4996802 14.562234,7.9288832 14.525129,7.1172291 14.493379,6.4227098 14.386665,5.8646622 14.158463,5.1998047 13.312385,2.734786 11.154159,0.92579567 8.6056511,0.54552739 7.932999,0.44515955 7.0857013,0.44155419 6.4312039,0.53627488 5.5508123,0.6636876 4.6660424,0.98167334 3.8718722,1.4560972 3.0475474,1.9485348 2.2847027,2.6614297 1.7228835,3.4643735 1.1888496,4.2276068 0.78973939,5.1474037 0.60885592,6.0317821 0.49690651,6.579127 0.47115287,6.8507003 0.47049674,7.4907862 c -3.7573e-4,0.3665573 0.008191,0.6517701 0.0232461,0.7739558 0.18002788,1.4610649 0.70274486,2.680659 1.62304246,3.786855 0.207775,0.249745 0.6827391,0.714548 0.9421828,0.922026 0.4447793,0.355692 0.7963266,0.580076 1.3083538,0.835092 0.768513,0.38276 1.3473475,0.552314 2.3955774,0.701721 0.065878,0.0094 0.426597,0.01453 0.801597,0.01143 0.5883092,-0.0049 0.7172,-0.01111 0.9398035,-0.04552 z"
     id="path267" />
  <path
     style="fill:#ffffff;stroke-width:0.0184275"
     d="M 6.8734644,13.818198 C 5.9611961,13.699404 5.2200118,13.467022 4.4871007,13.070008 3.3607257,12.459856 2.4139679,11.485026 1.8314109,10.335575 1.5549282,9.790043 1.3225555,9.0599256 1.2251159,8.4305897 1.185128,8.1723184 1.1666322,7.1711532 1.1955147,6.8282924 1.2318797,6.3966079 1.3764416,5.7865996 1.5597377,5.291379 1.6651861,5.0064837 1.9690817,4.3900095 2.1319193,4.130667 2.4400168,3.6399774 2.8075631,3.208708 3.2669348,2.7988693 3.734812,2.3814418 4.1506176,2.0929571 4.6437346,1.8436492 5.9480936,1.1841972 7.4626843,0.99246834 8.8715716,1.3084561 9.7902905,1.5145079 10.69345,1.9510958 11.482619,2.5706388 c 0.193878,0.152205 0.715593,0.6717415 0.916032,0.9122066 0.18797,0.2255058 0.531294,0.7375966 0.683632,1.0196843 0.384379,0.7117618 0.612328,1.4369794 0.713371,2.2695833 0.0443,0.3650468 0.04416,1.0862978 -2.85e-4,1.455774 -0.102817,0.8547247 -0.347285,1.6146801 -0.752361,2.338792 -0.914188,1.6342 -2.477858,2.778938 -4.3051348,3.15172 -0.1487361,0.03034 -0.3450607,0.06414 -0.4362769,0.07511 -0.1686643,0.02028 -1.3103922,0.04002 -1.4281327,0.02469 z m 0.4062079,-0.720839 c 9.896e-4,-0.380756 0.014033,-0.456876 0.089898,-0.524662 0.089081,-0.07959 0.1833846,-0.07195 0.2778495,0.02251 l 0.07371,0.07371 v 0.36855 c 0,0.338788 0.0026,0.368535 0.032248,0.36836 0.091015,-5.36e-4 0.496228,-0.0415 0.64957,-0.06566 0.7952901,-0.12533 1.4882878,-0.380335 2.2019192,-0.810248 0.319893,-0.192713 0.881058,-0.620896 0.909586,-0.694038 0.0036,-0.0091 -0.110105,-0.13559 -0.252584,-0.281039 -0.142479,-0.14545 -0.26413,-0.284682 -0.270335,-0.309405 -0.03072,-0.122397 0.07549,-0.25342 0.205434,-0.25342 0.06935,0 0.199776,0.104421 0.458004,0.366685 0.08084,0.08211 0.156345,0.149285 0.167782,0.149285 0.07233,0 0.542303,-0.614765 0.779762,-1.019988 0.442848,-0.7557152 0.678777,-1.4991912 0.785877,-2.4765121 0.02424,-0.2211603 0.02513,-0.2708794 0.0051,-0.2835907 -0.01337,-0.00848 -0.187346,-0.01554 -0.386614,-0.015696 l -0.362305,-2.821e-4 -0.04952,-0.058851 C 12.494536,7.5336306 12.492885,7.4614413 12.58817,7.3529178 l 0.05692,-0.064834 h 0.385069 c 0.242063,0 0.385069,-0.00678 0.385069,-0.018259 0,-0.010043 -0.01306,-0.1447939 -0.02901,-0.2994472 C 13.280502,5.9457829 12.969387,5.0562923 12.430638,4.2383292 12.276765,4.0047092 12.033874,3.6885776 11.909531,3.5600888 l -0.0857,-0.08856 -0.231632,0.2285195 c -0.27866,0.2749134 -0.321094,0.3079572 -0.39536,0.307868 -0.127707,-1.474e-4 -0.235689,-0.1322861 -0.205713,-0.2517215 0.0065,-0.025922 0.09618,-0.1353555 0.199265,-0.243186 0.10309,-0.1078306 0.220868,-0.2319175 0.261729,-0.275749 L 11.52641,3.1575668 11.4527,3.0935348 C 10.774558,2.5044328 10.01969,2.0879237 9.1584767,1.8276632 8.8063856,1.7212605 8.2765351,1.6255328 7.9007985,1.6004394 L 7.7211302,1.5884403 v 0.3674836 0.3674837 l -0.078317,0.074934 c -0.043074,0.041214 -0.092901,0.080023 -0.1107251,0.086244 -0.044918,0.015675 -0.1082816,-0.011638 -0.186675,-0.080469 L 7.2788698,2.3456907 V 1.9674617 1.5892326 L 7.0899877,1.601856 C 6.1356654,1.6656349 5.1696735,1.9839393 4.325206,2.5128803 4.0122394,2.7089102 3.482801,3.1194359 3.482801,3.1660799 c 0,0.010136 0.1153625,0.1361961 0.2563612,0.2801344 0.1526735,0.1558564 0.2591783,0.2795321 0.2633261,0.3057801 0.019618,0.1241462 -0.0777,0.2559909 -0.1889545,0.2559909 -0.080965,0 -0.1154397,-0.024508 -0.3491603,-0.2482185 C 3.3680897,3.6676069 3.257145,3.56786 3.2178295,3.5381071 L 3.1463469,3.4840109 3.08356,3.557116 C 2.9613531,3.6994056 2.638914,4.1301002 2.527241,4.3002129 2.4649775,4.3950595 2.3404921,4.6189539 2.250607,4.7977559 1.8418964,5.6107732 1.7044436,6.1073591 1.5931746,7.1729115 l -0.012027,0.115172 h 0.3872388 0.3872387 l 0.055599,0.070199 c 0.073508,0.092811 0.086683,0.1514785 0.049966,0.222483 -0.058653,0.1134225 -0.08948,0.1212873 -0.5024097,0.1281818 -0.2683215,0.00448 -0.3740135,0.012298 -0.3740135,0.027666 0,0.058138 0.076305,0.6785688 0.1007373,0.8190903 0.1806205,1.038825 0.6966898,2.1036684 1.3926573,2.8735704 l 0.08369,0.09258 0.2798471,-0.26282 c 0.1539161,-0.144551 0.3010797,-0.268149 0.3270306,-0.274662 0.1029754,-0.02585 0.2306154,0.0885 0.2340608,0.209683 0.00217,0.07634 -0.036025,0.127087 -0.2928127,0.389052 -0.1249467,0.127465 -0.2271757,0.239475 -0.2271757,0.248912 0,0.0203 0.2252491,0.213076 0.4330467,0.37062 0.5279439,0.400265 1.2406914,0.766387 1.8519656,0.951312 0.4713512,0.142596 0.9347863,0.22174 1.4603808,0.249402 l 0.050676,0.0027 8.016e-4,-0.308661 z"
     id="path269" />
  <path
     style="fill:#ffff00;stroke-width:0.0184275"
     d="M 6.0080091,9.2726086 C 5.9355582,9.2476548 5.8599509,9.1490018 5.8599509,9.0794213 c 0,-0.061169 0.092215,-0.1672196 0.5758599,-0.662262 C 6.65625,8.1915254 6.8366093,7.9995188 6.8366093,7.9904777 c 0,-0.00904 -0.024575,-0.069197 -0.054612,-0.1336791 C 6.7519607,7.7923161 6.7183778,7.68089 6.7073686,7.6091849 6.6567689,7.2796183 6.8343853,6.9483908 7.1508995,6.7820674 l 0.1279703,-0.067247 5.689e-4,-1.0631843 c 6.27e-4,-1.1714642 0.00934,-1.3165088 0.082947,-1.3809275 0.1060356,-0.092798 0.2497291,-0.065173 0.3126757,0.060113 0.035482,0.070621 0.037083,0.1166522 0.042982,1.2351094 l 0.00613,1.1617551 0.091352,0.032445 c 0.1236448,0.043915 0.3228954,0.2332817 0.4048375,0.3847561 0.061545,0.1137702 0.062513,0.1191145 0.06266,0.3462451 1.475e-4,0.2228232 -0.00188,0.2348127 -0.059313,0.351518 C 8.1467582,7.9990078 7.9857448,8.154192 7.8199787,8.2317632 7.673102,8.3004953 7.4720411,8.3202527 7.2971545,8.2831393 L 7.1875598,8.2598816 6.7494924,8.6892531 C 6.3333513,9.0971335 6.1132091,9.2979455 6.0847313,9.295643 6.0776513,9.2950717 6.0431313,9.284705 6.0080091,9.2726086 Z M 7.5917685,7.8576942 C 7.7024147,7.8339649 7.7821321,7.7722135 7.8344128,7.6697346 7.8645171,7.6107252 7.8709268,7.5698031 7.8653958,7.4719203 7.8525744,7.2450123 7.7312051,7.1330322 7.499691,7.1345069 c -0.180015,0.00115 -0.2733621,0.062067 -0.3482654,0.2272867 -0.048888,0.107836 -0.047707,0.1727366 0.00521,0.2863797 0.047723,0.102485 0.1352916,0.1868952 0.211183,0.2035667 0.02709,0.00595 0.057548,0.013586 0.067683,0.016967 0.033647,0.011224 0.061843,0.00924 0.1562648,-0.011013 z"
     id="path271" />
  <path
     style="fill:#ffff00;stroke-width:0.0184275"
     d="M 6.8550369,14.952999 C 6.5519512,14.916514 6.1710829,14.856827 5.9613022,14.812939 4.050992,14.413283 2.3695419,13.264488 1.2588156,11.600123 0.87050897,11.018265 0.52638448,10.282828 0.33310677,9.621766 0.09480035,8.8066937 0.02198178,8.213168 0.04340027,7.2604423 0.05842564,6.5920918 0.09805719,6.2887647 0.25045983,5.6756757 0.76876813,3.5906123 2.2555893,1.7521593 4.1922604,0.8016431 4.9651052,0.42233169 5.7431401,0.19013512 6.6431204,0.07020908 c 0.3420536,-0.04558004 1.3717056,-0.04558004 1.7137592,0 1.7152904,0.22856951 3.1570404,0.91723198 4.3463014,2.07604322 1.082899,1.055173 1.815846,2.3833386 2.110661,3.8247059 0.116461,0.5693855 0.139018,0.8165866 0.139524,1.5290418 5.1e-4,0.7193996 -0.01625,0.9119287 -0.128363,1.4742015 -0.295671,1.4829055 -1.035964,2.8303535 -2.143005,3.9006035 -0.57754,0.558346 -1.152041,0.960264 -1.892686,1.324116 -0.8105631,0.3982 -1.4759591,0.600324 -2.3679361,0.719294 -0.2442529,0.03258 -0.4145957,0.04162 -0.8660933,0.04599 -0.3091217,0.003 -0.6242322,-0.0021 -0.7002457,-0.0112 z m 1.335995,-0.442613 c 0.8072597,-0.07057 1.7088021,-0.33155 2.4789031,-0.71759 0.953252,-0.47785 1.819284,-1.200457 2.462245,-2.054467 0.678117,-0.900706 1.123817,-1.9460434 1.323891,-3.1050366 0.09993,-0.5789038 0.104452,-1.5998466 0.0097,-2.2020885 C 14.285215,5.2827866 13.818919,4.1746526 13.132094,3.2616708 12.925781,2.9874238 12.746265,2.7835784 12.458307,2.4965694 11.277143,1.3192969 9.7750229,0.6265106 8.1027516,0.48776267 7.7503238,0.45852184 6.8937894,0.473594 6.5824091,0.51451564 5.2322681,0.69195135 4.0000583,1.2370037 2.9391892,2.1260477 2.7185609,2.3109416 2.2938619,2.7381363 2.1033182,2.9668305 1.3701078,3.8468438 0.82882135,4.9563455 0.6094483,6.0288903 0.497314,6.5771302 0.47142326,6.8497752 0.47062478,7.4907862 c -4.5756e-4,0.3673447 0.00803,0.6515075 0.0231181,0.7739558 0.11120456,0.9025108 0.34640541,1.6870738 0.73197072,2.441646 0.6943854,1.35895 1.7998745,2.446709 3.1676593,3.116855 0.7048855,0.345359 1.3318813,0.536561 2.1299686,0.649534 0.1469595,0.0208 0.28793,0.04108 0.3132678,0.04506 0.1034801,0.01626 1.1489645,0.01051 1.3544226,-0.0075 z"
     id="path355" />
  <path
     style="fill:#ffff00;stroke-width:0.0184275"
     d="M 6.8826781,13.817565 C 5.9824701,13.707396 5.1895343,13.458066 4.4562245,13.054593 3.412401,12.480273 2.5272878,11.596333 1.9369928,10.5387 1.5503873,9.8460179 1.2556133,8.8936937 1.1978405,8.1507262 1.1745344,7.8510053 1.1748515,7.0571123 1.1983839,6.7905405 1.2540382,6.1600963 1.5018186,5.3339493 1.8345629,4.6693988 2.1489368,4.0415373 2.4827414,3.571807 2.9462443,3.1050389 3.3484345,2.7000152 3.7748775,2.3536005 4.1922604,2.092856 4.602403,1.8366346 5.2196014,1.5627793 5.703317,1.4223893 7.7327639,0.83337798 9.7854783,1.2411917 11.482985,2.5706388 c 0.192276,0.1505859 0.713673,0.669933 0.913363,0.9097734 0.289173,0.3473127 0.659854,0.9335624 0.853854,1.3504091 0.220121,0.4729708 0.376324,0.9589073 0.475935,1.4806038 0.139844,0.7324044 0.139966,1.6393863 3.21e-4,2.3771498 -0.313911,1.6584271 -1.303484,3.1427561 -2.725491,4.0881541 -0.899969,0.598329 -1.9637956,0.971212 -2.9492069,1.03373 -0.2815626,0.01786 -1.0433484,0.02249 -1.1690816,0.0071 z m 0.3969942,-0.720206 c 9.896e-4,-0.380756 0.014033,-0.456876 0.089898,-0.524662 0.087512,-0.07819 0.1811985,-0.07155 0.2770736,0.01966 l 0.074486,0.07086 v 0.371404 c 0,0.341505 0.0026,0.371388 0.032248,0.371213 0.090949,-5.36e-4 0.4962026,-0.04149 0.64957,-0.06565 0.8884189,-0.139929 1.6678661,-0.44851 2.4416461,-0.966643 0.272158,-0.18224 0.672604,-0.506999 0.672604,-0.545476 0,-0.0056 -0.115823,-0.129183 -0.257384,-0.274679 -0.141562,-0.145495 -0.262373,-0.284418 -0.268473,-0.308718 -0.03053,-0.121654 0.07608,-0.25265 0.205627,-0.25265 0.06935,0 0.199776,0.104421 0.458005,0.366685 0.08084,0.08211 0.155787,0.149285 0.166539,0.149285 0.04655,0 0.283695,-0.281752 0.519589,-0.617322 0.597791,-0.850381 0.922916,-1.7442037 1.047292,-2.8791781 0.02424,-0.2211603 0.02513,-0.2708794 0.0051,-0.2835907 -0.01337,-0.00848 -0.187346,-0.01554 -0.386614,-0.015696 l -0.362305,-2.821e-4 -0.04952,-0.058851 C 12.494536,7.5336306 12.492885,7.4614413 12.58817,7.3529178 l 0.05692,-0.064834 h 0.385069 c 0.251527,0 0.385069,-0.00657 0.385069,-0.018952 0,-0.072804 -0.06276,-0.5923962 -0.09273,-0.7677014 C 13.192726,5.7423302 12.915737,5.0119633 12.51055,4.3604698 12.362783,4.122876 12.082611,3.747647 11.935758,3.5906615 L 11.82408,3.4712773 11.592323,3.6999225 c -0.278789,0.2750441 -0.321212,0.308083 -0.395484,0.3079938 -0.126203,-1.474e-4 -0.235726,-0.13214 -0.206448,-0.2487952 0.0061,-0.024312 0.125057,-0.165432 0.264345,-0.3135994 0.139287,-0.1481672 0.25548,-0.275498 0.258207,-0.2829573 0.0027,-0.00746 -0.06361,-0.071812 -0.147421,-0.1430051 C 10.40385,2.2026307 9.1348367,1.6828541 7.9007985,1.6004394 L 7.7211302,1.5884403 v 0.3674836 0.3674837 l -0.078317,0.074934 c -0.043074,0.041214 -0.092901,0.080023 -0.1107251,0.086244 -0.044918,0.015675 -0.1082816,-0.011638 -0.186675,-0.080469 L 7.2788698,2.3456907 V 1.9676343 1.589578 L 7.080774,1.6028008 C 6.0284654,1.6730423 4.9324292,2.0686977 4.0542942,2.6953225 3.818257,2.8637553 3.482801,3.1401641 3.482801,3.1662212 c 0,0.010497 0.1117371,0.1326105 0.2483049,0.2713636 0.1365676,0.1387532 0.2563889,0.2735414 0.2662695,0.2995296 0.042506,0.111799 -0.065457,0.2708709 -0.1838416,0.2708709 -0.080594,0 -0.1133124,-0.02325 -0.3512878,-0.249624 C 3.3647921,3.6656582 3.2538474,3.5660055 3.215702,3.5369106 l -0.069355,-0.0529 -0.063125,0.073105 C 2.9555499,3.7049735 2.5845364,4.2060606 2.4901539,4.3581081 2.3515899,4.5813304 2.0824413,5.12797 1.9736765,5.407071 1.7724015,5.9235625 1.6703852,6.3957754 1.5941771,7.1636978 l -0.012344,0.1243857 h 0.3868962 0.3868961 l 0.055599,0.070199 c 0.073508,0.092811 0.086683,0.1514785 0.049966,0.222483 -0.058653,0.1134225 -0.08948,0.1212873 -0.5024097,0.1281818 -0.2680791,0.00448 -0.3740103,0.012305 -0.3740022,0.027641 4.24e-5,0.078214 0.082152,0.7178585 0.1126362,0.8774408 0.1987866,1.0406317 0.6983995,2.0594379 1.3802413,2.8145739 l 0.083184,0.09213 0.2801202,-0.262199 c 0.154066,-0.144209 0.3014574,-0.267554 0.3275364,-0.274099 0.1032131,-0.0259 0.2308439,0.08829 0.2342937,0.209624 0.00217,0.07642 -0.035992,0.127054 -0.2947544,0.391029 -0.1260145,0.128553 -0.2261705,0.241609 -0.2225688,0.251236 0.00932,0.02492 0.2765336,0.251856 0.4397191,0.373443 0.6146773,0.457989 1.3520156,0.818959 2.0454823,1.001384 0.4043186,0.106361 0.7518325,0.15909 1.2667403,0.192206 0.041424,0.0027 0.041463,0.0024 0.042264,-0.305994 z"
     id="path357" />
</svg>
