<svg width="40" height="40" viewBox="0 0 40 40" fill="none" xmlns="http://www.w3.org/2000/svg">
<g clip-path="url(#clip0_1_2)">
<path d="M39.3679 14.7218C37.5366 7.83271 31.89 2.29152 24.7936 0.56926C17.6972 -1.153 9.99041 1.09343 5.10688 6.48485C-0.921236 13.0744 -1.68429 22.9587 3.19925 30.4468C2.81772 33.1425 2.5125 35.8382 2.13097 38.5339C1.97836 39.5073 3.19925 40.1813 4.03861 39.9566C6.70929 39.2078 9.45628 38.5339 12.127 37.7851C19.376 40.7054 27.7695 39.3576 33.5687 34.1159C38.9864 29.2487 41.1993 21.6108 39.3679 14.7218ZM34.0266 29.1738C29.4483 35.7633 20.4442 38.2344 13.0426 34.9396C13.0426 34.9396 13.0426 34.9396 12.9663 34.9396C12.6611 34.7898 12.2796 34.715 11.8217 34.7898C9.68519 35.3889 7.54865 35.9131 5.4121 36.5121C5.64102 34.715 5.86993 32.9927 6.09885 31.1956C6.17515 30.5965 6.32776 29.9226 6.02254 29.3235C5.79363 28.9491 5.4884 28.5747 5.25949 28.1254C4.72535 27.2269 4.26752 26.2534 3.88599 25.28C2.66511 21.8354 2.58881 18.0165 3.73338 14.572C5.71732 8.50664 11.3639 3.9389 17.7736 3.19009C24.4121 2.29152 31.0507 5.43652 34.4844 10.9028C37.9944 16.5189 37.7655 23.7075 34.0266 29.1738Z" fill="black"/>
<path d="M30.5928 22.135L27.1591 19.5141C26.0908 18.6904 24.641 18.8402 23.7254 19.7388L22.7334 20.7122C21.9703 20.2629 21.2836 19.7388 20.5968 19.1397C19.9864 18.5407 19.4523 17.7919 18.9944 17.0431L19.9864 16.0696C20.9021 15.171 20.9784 13.7483 20.2153 12.7L17.5446 9.25544C17.0105 8.50663 16.1711 8.05735 15.2555 8.05735C14.3398 7.98246 13.4242 8.35687 12.8137 8.95592L9.83781 11.8763C8.15909 13.5237 7.77756 16.0696 8.84584 18.1663C10.2956 20.862 12.127 23.2582 14.2635 25.3548C16.4001 27.4515 18.9181 29.2487 21.5888 30.6714C22.4282 31.1207 23.2675 31.2704 24.1069 31.2704C25.4804 31.2704 26.9302 30.7463 27.9222 29.6979L30.8981 26.7776C31.5085 26.1785 31.89 25.28 31.8137 24.3814C31.8137 23.4828 31.3559 22.6591 30.5928 22.135ZM28.7615 24.6809L25.7856 27.6013C25.0226 28.3501 23.878 28.4998 22.9623 28.0506C20.5205 26.7776 18.3077 25.2051 16.3238 23.2582C14.3398 21.3113 12.7374 19.1397 11.4402 16.7435C10.9824 15.845 11.135 14.7217 11.898 13.9729L14.874 11.0526C14.874 11.0526 14.874 11.0526 14.9503 11.0526C15.0266 11.0526 15.0266 11.0526 15.0266 11.1275L17.4683 14.2725L16.4764 15.171C15.7133 15.9198 15.4844 17.1179 16.0185 18.0914C16.629 19.2895 17.4683 20.3378 18.384 21.2364C19.2997 22.135 20.3679 22.9587 21.5888 23.5577C22.5808 24.0819 23.7254 23.8572 24.4884 23.1084L25.5567 22.0601L28.6852 24.4563C28.6852 24.4563 28.7615 24.4563 28.7615 24.5312C28.7615 24.606 28.7615 24.6809 28.7615 24.6809Z" fill="black"/>
<path d="M3.02745 39.794C2.61891 39.6074 2.27168 39.2593 2.19506 38.9597C2.16867 38.8565 2.18144 38.5031 2.22343 38.1743C2.26543 37.8455 2.50991 35.9657 2.76671 33.997L3.23363 30.4175L2.84816 29.777C1.40834 27.3849 0.533944 24.8201 0.174352 21.9342C0.00311318 20.56 0.0598295 17.8755 0.287779 16.5656C1.38862 10.2398 5.18547 5.06686 10.8122 2.22694C15.3838 -0.0803949 20.8338 -0.580895 25.6935 0.860318C32.8084 2.97032 38.2935 8.96452 39.6237 16.0834C40.5067 20.8092 39.5633 25.7951 37.0062 29.9168C36.1958 31.2232 35.287 32.3497 34.119 33.4959C31.0449 36.5127 27.3043 38.356 22.8186 39.0648C21.7742 39.2298 18.3162 39.2491 17.2792 39.0957C15.6639 38.8567 14.1305 38.48 12.8291 38.0025L12.1288 37.7456L10.8793 38.0816C5.98569 39.3977 3.78692 39.9681 3.61007 39.9675C3.49755 39.9671 3.23537 39.8891 3.02745 39.794ZM8.73158 35.663C10.4789 35.1976 12.0439 34.8167 12.2094 34.8167C12.3749 34.8167 12.7396 34.9012 13.0199 35.0044C14.6248 35.5954 15.0196 35.725 15.8094 35.9196C21.5088 37.3243 27.5363 35.7527 31.8936 31.7258C33.9758 29.8015 35.7158 26.8128 36.4748 23.8571C37.9525 18.1025 36.3328 12.1118 32.1807 7.97466C29.8539 5.65627 26.6663 3.98196 23.3231 3.32218C21.1176 2.88693 18.4332 2.92924 16.1331 3.4355C13.0183 4.12105 9.83201 5.88945 7.64256 8.14781C6.31542 9.51673 5.4086 10.7875 4.60266 12.4076C3.74863 14.1245 3.27545 15.6615 3.02499 17.5322C2.85469 18.8042 2.90939 21.3219 3.13429 22.5635C3.54056 24.8063 4.35722 26.835 5.67921 28.8852C6.24799 29.7673 6.24852 29.7929 5.77364 33.4219C5.34715 36.681 5.36383 36.5094 5.47372 36.5094C5.51824 36.5094 6.98427 36.1285 8.73158 35.663Z" fill="#C83737"/>
<path d="M22.7433 31.069C22.1294 30.9063 21.7569 30.7305 20.5894 30.0526C15.8766 27.3159 12.183 23.7035 9.48543 19.1927C8.5022 17.5485 8.277 16.8139 8.33619 15.4434C8.36862 14.6925 8.41199 14.4414 8.59579 13.9409C8.98622 12.8777 9.19587 12.6131 11.2794 10.553C13.0544 8.79804 13.2766 8.60335 13.7532 8.38549C14.403 8.08847 15.315 8.01303 15.9761 8.20162C16.7627 8.42603 17.0731 8.72203 18.6503 10.7518C19.4523 11.7839 20.1869 12.7487 20.2828 12.8956C20.5582 13.3181 20.7151 13.9505 20.6728 14.4674C20.6162 15.16 20.3997 15.5453 19.641 16.3046C19.27 16.6758 18.9665 17.0069 18.9665 17.0404C18.9665 17.1411 19.7568 18.2657 20.143 18.7145C20.5633 19.203 21.3581 19.8656 22.1625 20.3983L22.7301 20.7742L23.4245 20.1058C24.3056 19.2579 24.7494 19.0362 25.5659 19.0362C26.0113 19.0362 26.2141 19.0753 26.5408 19.2242C27.1262 19.4909 30.9429 22.4214 31.2352 22.8286C31.6271 23.3745 31.7528 23.8026 31.7528 24.5912C31.7528 25.2549 31.7372 25.3248 31.4742 25.8422C31.2238 26.3348 30.9988 26.5837 29.2516 28.2997C27.143 30.3706 26.8018 30.6308 25.7549 30.9659C24.9263 31.2312 23.5347 31.2788 22.7433 31.069ZM25.0784 28.1278C25.3686 28.0016 25.831 27.5957 27.1245 26.3312C28.1846 25.295 28.7879 24.6525 28.7744 24.574C28.7627 24.506 28.0329 23.8983 27.1527 23.2237L25.5524 21.997L24.8279 22.6936C23.9589 23.5294 23.623 23.715 22.8951 23.7616C22.2546 23.8027 21.9811 23.7261 21.1788 23.2812C19.0757 22.1149 16.9545 19.9378 16.0276 17.9942C15.833 17.586 15.7925 17.4106 15.7928 16.9781C15.7935 16.1248 16.0005 15.7132 16.8206 14.9348C17.4066 14.3786 17.4921 14.2675 17.4205 14.155C17.0914 13.6379 15.0287 11.0787 14.9272 11.0616C14.8458 11.0479 14.2071 11.6282 13.1452 12.6806C11.6621 14.1506 11.4734 14.3653 11.3287 14.747C11.1539 15.208 11.1159 15.9038 11.2413 16.3449C11.3525 16.7358 12.1448 18.1001 12.9297 19.2518C15.2562 22.6658 18.3168 25.4684 22.0289 27.5837C22.5078 27.8566 23.0692 28.1395 23.2766 28.2123C23.7764 28.3878 24.5655 28.3508 25.0784 28.1278Z" fill="#C83737"/>
</g>
<defs>
<clipPath id="clip0_1_2">
<rect width="40" height="40" fill="white"/>
</clipPath>
</defs>
</svg>
