<svg width="70" height="70" viewBox="0 0 70 70" fill="none" xmlns="http://www.w3.org/2000/svg">
<g clip-path="url(#clip0_5_195)">
<path d="M3.5788 69.7366C3.14432 69.453 2.652 68.787 2.47201 68.2394C2.1095 67.1365 1.69317 60.8952 1.69301 56.5608C1.69296 54.898 1.69161 54.885 1.454 54.234C0.481603 51.5699 0.0710522 48.8653 0.0725137 45.1329C0.0745444 39.9467 0.590565 35.8129 1.56767 33.1553C1.90822 32.2291 2.39154 31.2848 3.45977 29.4586C4.51709 27.6511 5.08772 26.4305 5.41886 25.2683C5.55922 24.7756 5.78283 24.0596 5.91579 23.6772L6.15751 22.9818L5.73064 21.1594C5.24445 19.0838 4.97281 18.2837 4.69425 18.1071C4.58844 18.0401 4.17289 17.8683 3.77081 17.7253C1.92194 17.0679 1.12738 16.1412 1.11947 14.6332C1.11596 13.9662 1.12017 13.9522 1.46221 13.4955C1.83802 12.9936 2.36223 12.6142 3.01135 12.3741C3.57446 12.1659 5.59786 12.0741 6.17325 12.2306C7.22286 12.5162 8.04866 13.3791 8.28326 14.4352C8.52476 15.5224 8.29198 16.4292 7.52148 17.4031L7.05946 17.9869L7.10956 18.5448C7.13711 18.8515 7.2074 19.2233 7.26575 19.371C7.40686 19.7282 7.66634 20.0269 7.76561 19.9467C8.05573 19.7121 8.78523 18.2338 10.7751 13.8481C11.8678 11.4398 13.0115 9.03475 15.5133 3.88343C15.8479 3.1943 16.3145 2.37852 16.55 2.0706C17.3763 0.990494 18.3694 0.41436 19.7328 0.224446C20.8686 0.0662042 26.3284 0.0735907 28.2035 0.235906C37.1178 1.00758 46.2829 2.65923 51.7897 4.48643C54.595 5.41729 55.3982 5.83937 56.2084 6.80845C56.8423 7.56668 57.1703 8.29314 57.5454 9.7692C58.2329 12.4756 59.5737 18.1621 60.1034 20.6179C61.4382 26.8062 61.7602 28.0487 62.029 28.0487C62.1046 28.0487 62.2705 27.934 62.3978 27.794L62.6289 27.5395L63.0334 28.2976C63.2558 28.7146 63.4669 29.0558 63.5025 29.0558C63.5381 29.0558 63.7911 28.8707 64.0648 28.6446L64.5622 28.2335L65.1016 28.3939L65.6409 28.5545L66.0455 28.2029C66.6168 27.7065 67.3531 27.4818 67.9198 27.6308C68.8382 27.8721 69.4921 28.5675 69.7941 29.6238C69.9788 30.2698 69.9929 30.9982 69.839 31.9447C69.4015 34.6354 68.3482 36.3983 67.1733 36.4055C66.664 36.4088 65.944 35.9146 65.6005 35.3259C65.2424 34.7122 65.0236 33.7517 64.975 32.5807C64.9192 31.2358 64.8615 31.0468 64.3789 30.6276C63.939 30.2455 63.5766 30.0053 63.54 30.0717C63.5274 30.0945 63.3712 30.412 63.1928 30.7773L62.8686 31.4413L62.9806 32.3887C63.0422 32.9097 63.1265 33.744 63.1679 34.2425C63.2614 35.3663 63.5693 36.6426 64.3036 38.9506C65.3128 42.1229 65.4562 43.0739 65.3835 46.118C65.355 47.3143 65.276 48.6141 65.1902 49.2991L65.0452 50.4573L65.6372 51.263C66.3246 52.1985 66.6456 52.7871 66.9545 53.6787C68.0617 56.8747 67.6037 60.8074 65.7484 64.0308C64.5377 66.1345 62.8438 67.8514 60.9965 68.8468C57.6352 70.6581 54.008 70.1259 51.732 67.4878L51.3665 67.064L42.4014 65.0785C37.4706 63.9865 33.3765 63.0939 33.3034 63.0949C33.2303 63.096 33.1128 63.2119 33.0424 63.3527C32.8748 63.6873 32.3115 64.1145 31.909 64.2121C31.6783 64.2679 28.7957 63.8724 21.547 62.7904C16.0237 61.9659 11.3565 61.2639 11.1754 61.2306L10.8463 61.17L10.853 64.0218C10.8584 66.3065 10.836 66.9892 10.7401 67.4557C10.5694 68.2858 10.3743 68.7364 9.97935 69.2129C9.40658 69.9039 9.1974 69.9459 6.35402 69.9413C4.04696 69.9374 3.86622 69.9242 3.5788 69.7366ZM60.1604 64.549C61.2447 63.9214 62.4407 62.5171 62.9943 61.2215C63.3936 60.287 63.6404 59.1333 63.6404 58.2007C63.6404 57.7917 63.6145 57.4575 63.5827 57.4583C63.5509 57.4592 63.2653 58.0127 62.9478 58.6885C62.0312 60.6398 61.0871 62.2248 59.9721 63.6838C59.4079 64.4222 58.9463 65.0428 58.9463 65.0633C58.9463 65.1295 59.7333 64.7961 60.1604 64.549ZM44.6714 61.2798C46.0971 61.1421 47.5298 60.8362 48.6684 60.4265C50.8454 59.6429 52.0649 58.6669 52.518 57.346C52.8155 56.4783 52.7718 55.7755 52.3277 54.2844C51.9339 52.9615 49.9145 47.7213 49.4242 46.7499C48.833 45.5779 47.744 44.5954 46.463 44.078C45.3004 43.6083 39.9093 42.4491 39.7651 42.6376C39.7067 42.7142 39.7082 43.1762 39.7705 44.232C39.8209 45.0868 39.8295 45.7561 39.7906 45.8071C39.7516 45.8579 39.5317 45.7269 39.273 45.4987C37.8587 44.2511 35.6461 43.0588 33.8211 42.5606C32.7364 42.2645 24.9808 41.3389 21.0083 41.0313C18.5996 40.8447 17.4648 41.0324 16.2417 41.8193C15.3265 42.4083 14.0978 44.1155 12.1767 47.4674C11.1298 49.2939 10.9659 49.7328 10.9659 50.7091C10.9659 51.3027 11.0055 51.5695 11.1505 51.9551C12.0914 54.4567 16.6567 57.4347 22.432 59.314C25.5509 60.329 30.1006 61.3502 31.0968 61.2589C31.8244 61.1921 32.3416 60.806 32.6447 60.1033C32.7789 59.7918 32.9265 59.573 33.0011 59.5746C33.0711 59.5761 34.808 59.98 36.8606 60.4721L40.5929 61.3668L42.0936 61.3754C42.9189 61.38 44.0789 61.337 44.6714 61.2798ZM59.4725 54.3909C59.9552 54.1679 60.2398 53.84 60.4585 53.255C61.2953 51.0168 58.9287 49.1111 57.5513 50.9137C56.2789 52.5789 57.7257 55.1975 59.4725 54.3909ZM6.80643 46.2358C7.74208 45.5181 7.88535 43.9413 7.10743 42.9231C6.472 42.0915 5.41609 42.0373 4.65491 42.7971C3.87781 43.5728 3.87773 45.2342 4.65473 46.0457C5.0527 46.4613 5.3626 46.581 5.93898 46.542C6.32489 46.5158 6.54065 46.4396 6.80643 46.2358ZM56.2966 43.2725C56.7049 42.2388 57.0477 41.3806 57.0583 41.3655C57.0689 41.3502 57.8644 41.5228 58.8262 41.7489C59.7879 41.975 60.6315 42.1458 60.701 42.1283C61.0482 42.0408 61.1382 39.9151 60.8412 38.8142C60.4252 37.2714 59.383 35.9822 58.1415 35.4741C57.3746 35.1604 56.1248 35.1598 55.3647 35.4727C54.4183 35.8625 53.4477 36.8381 52.9905 37.8594C52.6412 38.6392 52.598 38.5984 54.0598 38.873C55.4354 39.1316 55.444 39.0821 53.9058 39.7682L52.5206 40.386L52.4963 40.774C52.4397 41.6757 53.0277 43.2956 53.6976 44.0836C54.3184 44.8137 55.2763 45.4479 55.4611 45.251C55.5123 45.1966 55.8882 44.3062 56.2966 43.2725ZM11.4307 38.4703C12.626 38.0708 13.7376 36.9178 14.2443 35.5517C14.5021 34.8566 14.5057 34.8277 14.5057 33.4871V32.1276L14.218 31.3387C13.2091 28.5734 10.5125 27.4608 8.24088 28.8726C7.59652 29.273 6.66549 30.47 6.37498 31.2715C6.01879 32.2541 5.90477 33.5654 6.08597 34.5949C6.39696 36.3621 7.69229 38.0084 9.13022 38.464C9.73705 38.6562 10.8649 38.6593 11.4307 38.4703ZM56.7537 25.8983C57.4691 25.4623 57.8405 24.6558 57.7747 23.6815C57.6865 22.3767 55.38 12.9883 54.541 10.5192C54.3049 9.82442 53.9366 9.26556 53.5402 9.00099C53.3735 8.88966 52.6258 8.60061 51.8784 8.35864C50.5269 7.92098 47.2716 6.99959 47.0769 6.99959C47.0028 6.99959 46.7728 8.44259 46.2381 12.2619C45.8328 15.1561 45.5112 17.5485 45.5234 17.5785C45.5356 17.6084 47.52 18.5135 49.9331 19.5897C52.3463 20.666 54.3097 21.5613 54.296 21.5793C54.2821 21.5972 52.1509 21.0631 49.5595 20.3923C46.9682 19.7216 44.8293 19.1976 44.8062 19.2278C44.7831 19.2581 44.9466 19.8522 45.1695 20.5483C45.3924 21.2444 45.5595 21.8339 45.5406 21.8586C45.5219 21.8831 45.1169 21.3345 44.6406 20.6394C44.1642 19.9445 43.7449 19.3897 43.7085 19.4067C43.5561 19.4781 40.7749 23.7438 40.835 23.8139C40.8711 23.8561 43.065 24.217 45.7103 24.6159C48.3556 25.0147 51.6108 25.5151 52.944 25.7277C55.8934 26.1984 56.2361 26.2137 56.7537 25.8983ZM41.3019 21.7792C42.5379 19.55 42.6673 19.2989 42.6145 19.2299C42.5934 19.2022 40.7645 19.6111 38.5506 20.1385C36.3365 20.666 34.5142 21.0835 34.5011 21.0663C34.4881 21.0491 35.7667 20.3131 37.3427 19.4307C38.9186 18.5483 40.2082 17.7706 40.2082 17.7025C40.2082 17.6345 39.4406 16.5429 38.5023 15.2767L36.7964 12.9748L35.5203 12.79C34.8185 12.6884 34.2443 12.5783 34.2443 12.5454C34.2443 12.5125 34.633 12.3816 35.1081 12.2545C35.5831 12.1274 35.9862 12.0048 36.0037 11.9819C36.0211 11.9591 35.4549 11.146 34.7455 10.175C34.0361 9.20401 33.4806 8.40958 33.5111 8.40958C33.5415 8.40958 34.3642 9.11616 35.3393 9.97973L37.1119 11.5499L38.2368 10.845C38.8555 10.4573 39.3673 10.1473 39.3743 10.1561C39.3813 10.1649 39.3529 10.8967 39.3113 11.7823L39.2356 13.3926L39.4442 13.6103C39.6161 13.7897 39.7992 13.8405 40.4883 13.8994C40.9479 13.9387 41.3236 13.9772 41.323 13.985C41.3226 13.9928 41.2739 14.2365 41.2148 14.5268L41.1075 15.0546L41.9586 15.8247C42.4268 16.2483 42.8612 16.6 42.924 16.6063C43.0002 16.6139 43.2243 16.0795 43.5952 15.0063C44.898 11.2364 46.3438 7.04165 46.3766 6.93665C46.4439 6.72094 41.7791 5.71837 37.5532 5.04034C32.9674 4.30454 26.6398 3.7792 22.355 3.77854C20.4059 3.77824 19.6397 3.88741 19.1946 4.22874C18.5124 4.75203 16.2524 9.00311 13.6298 14.696C12.5454 17.05 12.4441 17.4047 12.6203 18.2288C12.7431 18.8022 13.1416 19.4077 13.5699 19.6712C13.8524 19.8449 15.2656 20.079 22.1716 21.0954C26.7165 21.7643 32.4782 22.6228 34.9754 23.0031C37.4724 23.3834 39.6756 23.6998 39.8712 23.7063L40.2268 23.7179L41.3019 21.7792Z" fill="#C83737"/>
</g>
<defs>
<clipPath id="clip0_5_195">
<rect width="70" height="70" fill="white"/>
</clipPath>
</defs>
</svg>
