<svg width="70" height="70" viewBox="0 0 70 70" fill="none" xmlns="http://www.w3.org/2000/svg">
<g clip-path="url(#clip0_5_197)">
<mask id="mask0_5_197" style="mask-type:luminance" maskUnits="userSpaceOnUse" x="0" y="0" width="70" height="70">
<path d="M70 0H0V70H70V0Z" fill="white"/>
</mask>
<g mask="url(#mask0_5_197)">
<path d="M54.2471 26.832C50.8895 25.2929 46.9023 26.762 45.2934 30.1203L38.0884 45.6526L36.6894 41.9445C36.3396 41.0349 35.3603 40.6152 34.451 40.895C33.5415 41.2449 33.1218 42.2243 33.4017 43.1339L34.5208 46.1424L22.6991 40.6152C21.5799 40.1254 20.3908 39.9854 19.2016 40.1953C19.1316 40.1953 19.0618 40.1953 18.9918 40.2653C18.9918 40.2653 18.9217 40.2653 18.8519 40.2653C17.4529 40.5452 16.2637 41.3147 15.4243 42.4342L1.78378 60.8351C-0.104896 63.3538 0.384762 66.992 2.97295 68.881C3.95226 69.5807 5.14144 70.0005 6.3306 70.0005C6.6104 70.0005 6.89021 70.0005 7.17001 69.9305C8.70895 69.7206 10.038 68.881 10.9474 67.6916L21.9296 52.999L38.578 60.7651C39.0677 60.9749 39.5573 61.1149 40.1169 61.1848L42.9849 68.881C43.2648 69.5807 43.8944 70.0005 44.5938 70.0005C44.8037 70.0005 45.0135 69.9305 45.2234 69.8606C46.1327 69.5107 46.5524 68.5312 46.2727 67.6216L43.6845 60.7651C45.2934 60.1354 46.5524 58.9459 47.3219 57.3368L57.3949 35.7175C58.1643 34.1084 58.2343 32.2894 57.6047 30.6102C57.1151 28.931 55.856 27.6016 54.2471 26.832ZM22.1395 49.2208C21.3701 48.871 20.4608 49.081 19.9711 49.7805L8.14932 65.5927C7.79958 66.0824 7.23997 66.3623 6.68036 66.4323C6.12075 66.5023 5.49119 66.3623 5.00154 66.0124C4.02222 65.2428 3.81236 63.8435 4.51187 62.8641L18.2223 44.5332C18.642 43.9735 19.2016 43.7636 19.5513 43.6936H19.6213C19.6213 43.6936 19.6213 43.6936 19.6912 43.6936H19.7612C20.2509 43.6236 20.7405 43.6236 21.1602 43.8335L36.1997 50.83L38.4382 56.847L22.1395 49.2208ZM54.317 34.3182L44.2441 55.9375C43.8944 56.707 43.2648 57.2668 42.5652 57.5466L39.8372 50.2703L48.5112 31.5896C49.2806 29.9805 51.1692 29.2808 52.7781 30.0505C53.5475 30.4002 54.1072 31.0299 54.457 31.8695C54.7367 32.6391 54.6668 33.5487 54.317 34.3182Z" fill="black"/>
<path d="M54.5268 25.0829C58.9337 25.0829 62.5012 21.5146 62.5012 17.1068C62.5012 12.6991 58.9337 9.13086 54.5268 9.13086C50.1198 9.13086 46.5524 12.6991 46.5524 17.1068C46.5524 21.5146 50.1898 25.0829 54.5268 25.0829ZM54.5268 12.6991C56.9751 12.6991 59.0037 14.7281 59.0037 17.1768C59.0037 19.6256 56.9751 21.6546 54.5268 21.6546C52.0784 21.6546 50.05 19.6256 50.05 17.1768C50.05 14.7281 52.0784 12.6991 54.5268 12.6991Z" fill="black"/>
<path d="M69.7762 21.7941C69.2865 20.9546 68.2373 20.6047 67.3979 21.0944L59.4235 25.4323C58.584 25.922 58.2343 26.9715 58.7239 27.8111C59.0737 28.3708 59.6333 28.7206 60.2629 28.7206C60.5426 28.7206 60.8225 28.6506 61.1022 28.5108L69.0767 24.1729C69.916 23.6832 70.2659 22.6337 69.7762 21.7941Z" fill="black"/>
<path d="M28.7848 26.3418L26.1267 23.6831C28.0854 21.1644 29.2746 18.0859 29.2746 14.6577C29.2746 11.2294 28.0854 8.15093 26.1267 5.63219L28.7848 2.97352C29.4844 2.27387 29.4844 1.15442 28.7848 0.524739C28.0854 -0.174913 26.9661 -0.174913 26.3365 0.524739L23.6785 3.1834C21.2302 1.22439 18.0824 0.0349829 14.6548 0.0349829C11.2971 0.0349829 8.1493 1.22439 5.63107 3.1834L3.04287 0.524739C2.34336 -0.174913 1.22414 -0.174913 0.594585 0.524739C-0.104926 1.22439 -0.104926 2.34382 0.594585 2.97352L3.18277 5.63219C1.22414 8.15093 0.0349759 11.2993 0.0349759 14.6577C0.0349759 18.0859 1.22414 21.1644 3.18277 23.6831L0.524634 26.3418C-0.174878 27.0414 -0.174878 28.1609 0.524634 28.7906C0.874389 29.1404 1.29409 29.2803 1.78375 29.2803C2.2734 29.2803 2.69311 29.1404 3.04287 28.7906L5.63107 26.2018C8.1493 28.1609 11.2271 29.3503 14.6548 29.3503C18.0824 29.3503 21.1602 28.1609 23.6785 26.2018L26.3365 28.8606C26.6864 29.2104 27.1061 29.3503 27.5957 29.3503C28.0854 29.3503 28.5051 29.2104 28.8548 28.8606C29.4844 28.1609 29.4844 27.0414 28.7848 26.3418ZM25.8469 14.6577C25.8469 17.1065 25.0775 19.3453 23.6785 21.1644L17.173 14.6577L23.6785 8.15093C25.0075 9.97002 25.8469 12.2089 25.8469 14.6577ZM14.6548 3.53324C17.1031 3.53324 19.3414 4.30284 21.1602 5.70214L14.6548 12.2089L8.1493 5.70214C9.96803 4.30284 12.2065 3.53324 14.6548 3.53324ZM3.53254 14.6577C3.53254 12.2089 4.30199 9.97002 5.70101 8.15093L12.2065 14.6577L5.70101 21.1644C4.30199 19.3453 3.53254 17.1065 3.53254 14.6577ZM14.6548 25.7821C12.2065 25.7821 9.96803 25.0125 8.1493 23.6132L14.6548 17.1065L21.1602 23.6132C19.3414 25.0125 17.1031 25.7821 14.6548 25.7821Z" fill="black"/>
<path d="M5.5141 66.2083C4.4229 65.7351 3.84812 64.3009 4.34923 63.302C4.44239 63.1164 7.65483 58.7708 11.488 53.6451C16.4765 46.9745 18.5772 44.2459 18.8792 44.0446C19.2422 43.8024 19.4141 43.7636 20.1144 43.7652L20.9279 43.767L28.5399 47.3217L36.1517 50.8766L37.2202 53.7511C37.8079 55.3321 38.2738 56.638 38.2555 56.6532C38.2373 56.6684 34.5485 54.9589 30.0585 52.8544C22.6047 49.3607 21.8472 49.0283 21.3481 49.0332C20.9928 49.0367 20.682 49.1142 20.4605 49.2544C20.2533 49.3856 17.7077 52.6923 13.9712 57.6831C8.48409 65.0127 7.77129 65.922 7.34355 66.1377C6.78396 66.42 6.06593 66.4477 5.5141 66.2083Z" fill="#FF0000"/>
<path d="M41.2509 53.865L39.9041 50.2756L44.3304 40.7457C47.8831 33.0968 48.8369 31.1323 49.163 30.7921C49.7419 30.1883 50.596 29.8228 51.428 29.8228C53.4167 29.8228 54.9849 31.8063 54.4646 33.6637C54.3518 34.0666 47.3588 49.1969 44.305 55.6455C43.9492 56.3966 43.406 57.0362 42.9026 57.2966L42.5978 57.4543L41.2509 53.865Z" fill="#FF0000"/>
<path d="M53.2594 21.3895C51.5692 20.7852 50.495 19.5426 50.175 17.8212C49.845 16.0465 50.88 14.0977 52.6057 13.2448C54.5844 12.2666 56.927 12.8964 58.1557 14.7367C58.7389 15.6103 58.9367 16.3475 58.8796 17.4352C58.7942 19.0632 57.8631 20.4348 56.3499 21.1613C55.4276 21.604 54.1281 21.7 53.2594 21.3895Z" fill="#FF0000"/>
<path d="M5.77823 66.244C4.91615 65.9677 4.25073 65.0455 4.25073 64.127C4.25073 63.6601 4.31282 63.4769 4.61665 63.0476C6.27998 60.6972 16.4997 47.0523 17.7933 45.4545C18.9953 43.9699 19.1252 43.8754 20.0506 43.8121L20.7855 43.7617L28.4495 47.3443L36.1135 50.9271L37.12 53.6613C37.6737 55.1651 38.1048 56.4174 38.078 56.4442C38.024 56.4982 38.2585 56.6052 30.3458 52.9153C22.4144 49.2167 21.5621 48.8524 21.1461 48.983C21.0659 49.0082 20.871 49.0571 20.7128 49.0917C20.3479 49.1713 19.8006 49.8622 13.6239 58.0431C8.21812 65.2029 7.64092 65.9324 7.23681 66.1166C6.84905 66.2933 6.12855 66.3562 5.77823 66.244Z" fill="#AA0000"/>
<path d="M42.6028 57.2299C42.5725 57.1808 41.9667 55.5985 41.2567 53.7137L39.9656 50.2868L43.3602 42.9784C47.9989 32.9915 48.9919 30.975 49.4388 30.6341C50.8168 29.5827 52.5653 29.696 53.6594 30.9073C54.2251 31.5335 54.4563 32.1107 54.4589 32.9041C54.4612 33.5509 54.3843 33.7442 52.4301 38.0075C50.3555 42.5329 47.6988 48.2615 45.3197 53.3393C44.1608 55.813 43.9161 56.2557 43.4334 56.7506C42.8902 57.3075 42.7136 57.4094 42.6028 57.2299Z" fill="#AA0000"/>
<path d="M53.3501 21.3296C52.0477 20.9134 50.9657 19.9128 50.4721 18.668C50.2858 18.1981 50.2264 17.831 50.2246 17.1368C50.2223 16.3322 50.2625 16.1376 50.5623 15.5012C51.0343 14.4989 51.736 13.7832 52.7272 13.2932C53.4849 12.9186 53.5996 12.8931 54.5093 12.8968C55.7977 12.902 56.4907 13.172 57.401 14.0236C58.5477 15.0966 59.0066 16.3647 58.7691 17.8037C58.4613 19.667 57.0783 21.0806 55.2175 21.4335C54.4324 21.5825 54.0798 21.5629 53.3501 21.3296Z" fill="#FF0000"/>
<path d="M5.53199 66.0739C4.75886 65.6855 4.1982 64.6294 4.33089 63.8115C4.40102 63.3793 4.62299 63.0679 9.99214 55.8691C17.2175 46.1816 18.6518 44.345 19.2132 44.062C19.369 43.9834 19.7769 43.8916 20.1199 43.8578L20.7434 43.7964L27.4244 46.9184C31.0989 48.6353 34.5471 50.2465 35.0868 50.4985L36.0683 50.9568L36.306 51.5864C36.7067 52.648 37.3878 54.5327 37.7102 55.4718C37.997 56.3075 38.0031 56.3597 37.8068 56.2974C37.6916 56.2609 35.0473 55.045 31.9306 53.5954C25.6729 50.6851 22.5029 49.2516 21.8785 49.0499C21.2192 48.837 20.5978 48.9846 20.1738 49.455C19.692 49.9896 17.4454 52.9003 14.3941 56.9435C8.39716 64.8896 7.60109 65.8915 7.12659 66.0898C6.66357 66.2833 5.93441 66.276 5.53199 66.0739Z" fill="#FF0000"/>
<path d="M42.525 56.9163C41.7449 54.9108 40.0671 50.39 40.0671 50.2938C40.0671 50.1169 46.0323 37.307 47.6512 34.0074C48.3899 32.5021 49.112 31.1158 49.2562 30.9268C49.915 30.0629 51.5749 29.7271 52.6571 30.2391C53.2388 30.5142 53.9756 31.2657 54.2071 31.82C54.4681 32.4447 54.423 33.3123 54.0853 34.1657C53.5316 35.5651 45.6734 52.555 44.4539 54.9896C43.8362 56.2226 43.0956 57.2117 42.79 57.2117C42.7074 57.2117 42.5881 57.0787 42.525 56.9163Z" fill="#FF0000"/>
<path d="M53.6322 21.4376C52.6352 21.2007 51.4995 20.4009 50.9225 19.5294C49.4638 17.327 50.2814 14.5023 52.7272 13.2932C53.4849 12.9186 53.5995 12.8931 54.5094 12.8968C55.7977 12.902 56.4908 13.172 57.401 14.0236C59.2296 15.7345 59.3222 18.3247 57.6196 20.1451C56.6364 21.1965 54.9363 21.7477 53.6322 21.4376Z" fill="#FF0000"/>
<path d="M20.4095 17.8351L17.2416 14.6652L20.4404 11.4691L23.6392 8.27295L23.8508 8.54155C24.173 8.95034 24.5811 9.69668 24.9308 10.517C26.2423 13.5926 25.997 17.2902 24.2948 20.1079C24.019 20.5644 23.7447 20.9531 23.6854 20.9714C23.626 20.9899 22.1518 19.5785 20.4095 17.8351Z" fill="#FF0000"/>
<path d="M13.0513 25.6136C11.6929 25.4197 10.0009 24.7697 8.78078 23.973L8.2699 23.6395L11.4656 20.4417L14.6613 17.2441L17.8533 20.4354L21.0452 23.6267L20.5931 23.9332C18.4829 25.3637 15.678 25.9887 13.0513 25.6136Z" fill="#FF0000"/>
<path d="M5.24191 20.3854C3.65095 17.9149 3.18142 14.6935 3.98281 11.7466C4.20813 10.9181 5.1131 8.99359 5.48675 8.54839L5.70646 8.28662L8.89513 11.4759L12.0838 14.6652L8.91607 17.835C7.17383 19.5783 5.72388 21.0042 5.69397 21.0037C5.66406 21.0032 5.46062 20.7249 5.24191 20.3854Z" fill="#FF0000"/>
<path d="M11.4549 8.87889L8.24841 5.67045L9.03864 5.18164C9.99629 4.58927 10.8512 4.22496 12.0448 3.90065C12.8074 3.69346 13.2052 3.65671 14.6628 3.65877C16.1074 3.66081 16.527 3.70021 17.2945 3.90598C18.2601 4.16487 20.1232 5.00825 20.6987 5.44701L21.0417 5.7084L17.8515 8.89786L14.6614 12.0873L11.4549 8.87889Z" fill="#FF0000"/>
<path d="M5.40206 65.9182C4.87207 65.595 4.48261 64.9255 4.42578 64.2401C4.38108 63.7009 4.4104 63.6029 4.78536 63.0379C5.68451 61.6828 15.4847 48.57 17.4103 46.1455C18.8092 44.384 19.0857 44.1144 19.6188 43.9906C20.5861 43.766 20.4892 43.7282 28.4382 47.4415L36.0426 50.9937L36.7134 52.8403C37.6238 55.3467 37.9083 56.1838 37.8647 56.2273C37.8444 56.2475 34.7909 54.8633 31.0791 53.1512C21.7338 48.8409 22.0947 48.9946 21.3226 48.9935C20.8514 48.9929 20.605 49.0482 20.4063 49.1993C20.05 49.4701 18.5089 51.4371 14.339 56.9431C8.47702 64.6834 7.59076 65.7984 7.13463 66.0063C6.70168 66.2036 5.79435 66.1575 5.40206 65.9182Z" fill="white"/>
<path d="M42.6874 57.0917C42.5165 56.8712 40.1747 50.5652 40.1747 50.3253C40.1747 50.1176 41.888 46.3421 44.8993 39.914C47.2654 34.8632 49.027 31.303 49.3507 30.9185C49.8131 30.3687 50.5186 30.0902 51.4536 30.0884C52.4402 30.0866 52.9222 30.3107 53.6341 31.1026C53.9984 31.5079 54.1583 31.7961 54.2527 32.2174C54.4866 33.2632 54.4821 33.2752 51.1834 40.4512C45.1801 53.5111 44.0353 55.8723 43.3237 56.6621C42.9052 57.1265 42.7799 57.211 42.6874 57.0917Z" fill="white"/>
<path d="M53.487 21.3952C51.5041 20.8605 50.0335 18.8342 50.1923 16.8553C50.3933 14.3504 53.0376 12.3815 55.4406 12.9473C56.2708 13.1428 56.7854 13.4316 57.4733 14.0877C59.2345 15.7679 59.2969 18.3521 57.6198 20.1454C56.5843 21.2527 54.8751 21.7695 53.487 21.3952Z" fill="white"/>
<path d="M12.3224 25.4034C11.2725 25.1452 10.0433 24.6395 9.10077 24.0779L8.3728 23.644L11.517 20.4978L14.6612 17.3516L17.8017 20.4913L20.942 23.631L20.273 24.0569C19.3564 24.6402 17.9974 25.1773 16.8246 25.4193C15.4997 25.6928 13.4705 25.6856 12.3224 25.4034Z" fill="#C83737"/>
<path d="M20.4997 17.8069L17.3481 14.6721L20.4937 11.5262L23.6392 8.38037L23.8525 8.64898C24.2332 9.12797 25.0182 10.8271 25.3169 11.8184C25.5863 12.712 25.6084 12.9283 25.6074 14.6656C25.6065 16.2714 25.5717 16.6713 25.3693 17.4053C25.13 18.2729 24.2458 20.19 23.8601 20.6778L23.6512 20.9418L20.4997 17.8069Z" fill="#C83737"/>
<path d="M11.5051 8.82127L8.34888 5.66311L9.19623 5.16632C10.9758 4.123 12.5353 3.70654 14.6626 3.70654C16.6614 3.70654 17.7345 3.97456 19.7072 4.96644C21.1643 5.69906 21.3791 5.26309 17.7957 8.84577L14.6612 11.9795L11.5051 8.82127Z" fill="#C83737"/>
<path d="M5.29064 20.3327C3.97018 18.1459 3.429 15.6414 3.7529 13.2164C3.91085 12.0339 4.15578 11.2793 4.83446 9.88417C5.69991 8.10508 5.22205 7.90918 8.83737 11.5252L11.9763 14.6648L8.86234 17.7808C7.14964 19.4945 5.722 20.8968 5.68979 20.8968C5.65758 20.8968 5.47796 20.6429 5.29064 20.3327Z" fill="#C83737"/>
</g>
</g>
<defs>
<clipPath id="clip0_5_197">
<rect width="70" height="70" fill="white"/>
</clipPath>
</defs>
</svg>
