<svg width="70" height="70" viewBox="0 0 70 70" fill="none" xmlns="http://www.w3.org/2000/svg">
<g clip-path="url(#clip0_5_226)">
<mask id="mask0_5_226" style="mask-type:luminance" maskUnits="userSpaceOnUse" x="0" y="0" width="70" height="70">
<path d="M70 0H0V70H70V0Z" fill="white"/>
</mask>
<g mask="url(#mask0_5_226)">
<path d="M60.5828 56.5524C60.5813 56.5492 60.5774 56.5459 60.5774 56.5459C60.1915 56.1432 59.6853 55.9209 59.1478 55.9209H28.506C27.9756 55.9209 27.4545 56.1506 27.0749 56.5499C26.6976 56.9493 26.4806 57.5028 26.4806 58.0677V60.5958H24.0098C23.4412 60.5958 22.9815 61.0833 22.9815 61.6836V64.21H18.6797C18.1134 64.21 17.6531 64.6967 17.6531 65.2987V68.9114C17.6531 69.5132 18.1134 70 18.6797 70H68.9734C69.5396 70 70.0001 69.5132 70.0001 68.9114V65.2987C70.0001 64.6967 69.5396 64.21 68.9734 64.21H64.6724V61.6836C64.6724 61.0833 64.2119 60.5958 63.6456 60.5958H61.1747V58.0677C61.1747 57.497 60.9647 56.9584 60.5828 56.5524ZM62.6166 62.7714V65.2978C62.6166 65.899 63.0771 66.3848 63.6456 66.3848H67.9444V67.8226H19.7094V66.3848H24.0105C24.5775 66.3848 25.0371 65.8981 25.0371 65.2978V62.7714H27.5089C28.0766 62.7714 28.5356 62.2839 28.5356 61.6827L28.506 58.0965L59.119 58.0916V61.6819C59.119 62.2831 59.5794 62.7705 60.1473 62.7705L62.6166 62.7714Z" fill="black"/>
<path d="M36.5575 33.7428C35.2975 35.2951 35.1987 37.6281 36.43 39.3054C37.2473 40.4163 38.4731 40.9986 39.7113 40.9986C40.6011 40.9986 41.4978 40.6972 42.2538 40.0754L53.7501 30.6062C54.6242 29.8857 55.1827 28.8473 55.3211 27.6836C55.4581 26.5201 55.1578 25.368 54.4788 24.4416C53.4055 22.979 51.5847 22.4241 49.9639 22.9635L38.0057 6.68566C38.8954 5.15728 38.8426 3.15785 37.77 1.69782C37.0895 0.770581 36.1087 0.179319 35.0081 0.0343865C33.9052 -0.110547 32.8195 0.205671 31.9453 0.926219L20.4483 10.3963C18.6423 11.8835 18.3165 14.6488 19.7218 16.5634C20.5386 17.6726 21.7619 18.2539 23.0002 18.2539C23.6263 18.2539 24.2539 18.0958 24.8364 17.7912L28.6188 22.9396L0.730265 44.4983C0.342936 44.7989 0.0808273 45.2609 0.0147169 45.7649C-0.00783839 45.9288 -0.00239418 46.0926 0.01705 46.2566C0.0559385 46.5941 0.171826 46.9218 0.372491 47.1953L3.95256 52.0695C4.04901 52.1996 4.16256 52.3083 4.28312 52.4055C4.54056 52.6147 4.84233 52.7505 5.17133 52.7884C5.23589 52.7958 5.29889 52.7999 5.36266 52.7999C5.77877 52.7999 6.18787 52.6467 6.50832 52.3643L33.1135 29.0539L36.5575 33.7428ZM50.0984 25.2683L50.1521 25.2354C50.1551 25.2346 50.1551 25.2337 50.1551 25.2337C50.4865 25.0305 50.8498 24.9332 51.2114 24.9332C51.8375 24.9332 52.452 25.2272 52.8556 25.7774C53.565 26.7432 53.4001 28.1382 52.4885 28.8893L40.9916 38.3568C40.0792 39.1079 38.7608 38.9333 38.0516 37.9681C37.3422 37.003 37.5071 35.6056 38.4178 34.8571L49.9171 25.3869C49.9748 25.34 50.037 25.3054 50.0984 25.2683ZM24.4359 15.4862L24.2827 15.6146C23.3719 16.364 22.0528 16.1903 21.3436 15.226C20.6333 14.2601 20.7983 12.8634 21.7106 12.1124L33.2069 2.64482C33.5779 2.33849 34.0266 2.17708 34.4894 2.17708C34.5765 2.17708 34.666 2.18203 34.7537 2.19439C35.3084 2.26768 35.8037 2.56578 36.1467 3.03351C36.7837 3.899 36.7115 5.14739 35.9787 5.93876L35.9313 5.98899C35.8831 6.0417 35.8372 6.09851 35.7797 6.14463L24.4359 15.4862ZM26.5157 16.532L34.0959 10.2876L36.559 8.26015L48.1711 24.0677L38.1286 32.3389L26.5157 16.532ZM29.843 29.0959L5.40777 50.5057L2.16136 46.0869L27.7897 26.2755L29.8819 24.6582L31.8504 27.337L29.843 29.0959Z" fill="black"/>
<path d="M3.85199 48.2692C2.67764 46.6766 2.32786 46.1205 2.43106 46.0102C2.50635 45.9298 5.79272 43.373 9.73413 40.3286C13.6755 37.2841 19.7929 32.5558 23.3282 29.821C26.8636 27.0863 29.7982 24.8486 29.8495 24.8486C29.9008 24.8486 30.3484 25.4063 30.8441 26.0876L31.7453 27.3268L18.8367 38.6385C11.737 44.86 5.8115 50.0474 5.66896 50.1661C5.41261 50.3796 5.39286 50.359 3.85199 48.2692Z" fill="#FF0000"/>
<path d="M32.4741 24.504C29.3726 20.2769 26.7895 16.7554 26.7339 16.6782C26.667 16.5854 28.2934 15.1706 31.531 12.5051C34.225 10.2872 36.4694 8.46137 36.5182 8.44782C36.6528 8.41051 48.0247 23.9679 47.9529 24.0911C47.8917 24.1958 38.5372 31.921 38.2559 32.0991C38.1627 32.158 36.1591 29.5263 32.4741 24.504Z" fill="#FF0000"/>
<path d="M38.8673 38.5191C37.7715 37.9921 37.3788 36.7481 37.9374 35.5732C38.0704 35.2935 49.1098 26.0381 50.1634 25.3229C51.277 24.5671 52.7992 25.2424 53.1575 26.6514C53.3385 27.3632 53.1333 28.0591 52.5691 28.6465C51.8521 29.393 40.8415 38.395 40.4143 38.584C39.8842 38.8185 39.4522 38.8003 38.8673 38.5191Z" fill="#FF0000"/>
<path d="M22.1557 15.7975C21.3598 15.3581 21.0209 14.7925 21.0209 13.904C21.0209 13.5807 21.1057 13.1269 21.2093 12.8955C21.3479 12.5865 22.9338 11.2069 27.1914 7.69174C30.3778 5.06097 33.2552 2.75202 33.5856 2.56076C34.2877 2.15418 34.6363 2.13227 35.3028 2.45281C36.536 3.04577 36.8812 4.63467 36.014 5.72586C35.6804 6.14562 24.4321 15.4441 23.857 15.7755C23.3816 16.0495 22.6298 16.0593 22.1557 15.7975Z" fill="#6C5353"/>
<path d="M19.8264 67.0853V66.453H22.1049H24.3834L24.7326 66.0834C25.0782 65.7173 25.0817 65.6993 25.0817 64.2497V62.7857H26.5204C27.8886 62.7857 27.9733 62.7706 28.2522 62.4753C28.539 62.1717 28.5453 62.1217 28.5453 60.136V58.1069H43.761H58.9766L59.019 60.1411L59.0613 62.1755L59.3964 62.4807C59.7102 62.7664 59.8223 62.7857 61.1581 62.7857H62.5847V64.292V65.7983L62.9522 66.1256C63.3192 66.4526 63.3226 66.453 65.5798 66.453H67.84V67.0853V67.7177H43.8332H19.8264V67.0853Z" fill="#6C5353"/>
<path d="M22.0051 15.6177C21.4291 15.2459 21.1412 14.6638 21.1407 13.87C21.1405 13.5003 21.1935 13.0923 21.2586 12.9635C21.4567 12.5716 25.7316 8.93679 31.1729 4.53367C34.0591 2.19819 34.3625 2.05691 35.3479 2.5892C35.9427 2.91044 36.3254 3.48544 36.3979 4.16641C36.4881 5.01343 36.1937 5.49199 34.8935 6.61133C33.3328 7.95503 27.581 12.7129 25.4105 14.4557C23.6847 15.8415 23.6364 15.87 23.0218 15.8695C22.6065 15.8692 22.2627 15.7841 22.0051 15.6177Z" fill="#FF0000"/>
<path d="M19.8264 67.0853V66.453H22.2071H24.5877L24.8346 66.0858C25.0502 65.7652 25.0817 65.5318 25.0817 64.2521V62.7857H26.5538C28.6025 62.7857 28.5453 62.8613 28.5453 60.1537V58.1069H43.6964H58.8476L58.9238 58.9605C58.9657 59.4299 59.0002 60.365 59.0008 61.0384C59.0016 62.2451 59.0065 62.2665 59.3486 62.5242C59.6532 62.7539 59.871 62.7857 61.14 62.7857H62.5847V64.3574C62.5847 66.538 62.4654 66.453 65.527 66.453H67.84V67.0853V67.7177H43.8332H19.8264V67.0853Z" fill="#803300"/>
<path d="M19.8264 67.0853V66.453H22.2718H24.7172L24.8995 66.0799C25.0319 65.8088 25.0817 65.3081 25.0817 64.2464V62.7857H26.5747C28.6314 62.7857 28.5453 62.8991 28.5453 60.1935V58.1069H43.6487H58.7519L58.8111 58.5178C58.8437 58.7439 58.9013 59.6686 58.9391 60.5728C59.004 62.128 59.024 62.232 59.3099 62.5013C59.5889 62.7639 59.7263 62.7857 61.0984 62.7857H62.5847V64.3424C62.5847 65.4861 62.6296 65.964 62.7541 66.1443C62.9106 66.3713 63.1095 66.3927 65.3816 66.4287L67.84 66.4675V67.0925V67.7175H43.8332H19.8264V67.0853Z" fill="white"/>
<path d="M4.79651 49.3933C3.4951 47.7376 2.41504 46.1388 2.52845 46.036C2.84988 45.7444 19.3232 32.993 26.264 27.6631C28.1952 26.1801 29.8182 24.9829 29.8707 25.0027C29.9232 25.0224 30.3445 25.5494 30.8069 26.1736C31.4614 27.0573 31.615 27.3408 31.4999 27.4528C30.9204 28.0172 5.68323 50.0418 5.55737 50.0929C5.46298 50.1313 5.15124 49.8447 4.79651 49.3933Z" fill="white"/>
<path d="M37.7283 31.3928C35.9712 29.1576 26.8733 16.8009 26.8733 16.6497C26.8733 16.4859 30.5007 13.4119 34.7739 9.95428L36.5236 8.53857L37.4461 9.75291C41.0477 14.4941 47.8157 23.8977 47.7569 24.079C47.6867 24.295 38.4481 31.9303 38.257 31.9303C38.1986 31.9303 37.9607 31.6885 37.7283 31.3928Z" fill="white"/>
<path d="M22.6331 15.7495C21.6633 15.5103 21.2606 14.927 21.2599 13.7606L21.2595 12.9789L22.6629 11.7355C25.4466 9.26912 32.4591 3.5221 33.4878 2.86406C34.275 2.36041 34.8066 2.32201 35.4215 2.72435C36.0176 3.11441 36.3076 3.6623 36.3081 4.39959C36.3084 4.94827 36.2548 5.06666 35.7413 5.64946C35.1631 6.30558 32.5901 8.49232 27.3443 12.7861C23.5887 15.8603 23.4459 15.95 22.6331 15.7495Z" fill="white"/>
<path d="M38.7965 38.376C38.1368 38.0069 37.8015 37.4308 37.8015 36.6666C37.8015 36.2737 37.8813 35.8999 38.0091 35.6933C38.3113 35.205 48.7627 26.3939 50.1238 25.48C50.8184 25.0137 51.4554 24.9853 52.1315 25.3906C52.683 25.7214 53.1443 26.4968 53.1471 27.0981C53.1521 28.1523 52.7863 28.503 45.4454 34.4833C40.5709 38.4544 40.3242 38.6333 39.7297 38.6266C39.4576 38.6236 39.0376 38.5108 38.7965 38.376Z" fill="#C83737"/>
<path d="M19.8264 67.0848V66.4525H22.3155H24.8044L24.9431 66.1304C25.0235 65.9435 25.0817 65.1746 25.0817 64.2968V62.7854H26.6159C28.6557 62.7854 28.5453 62.9323 28.5453 60.2142V58.1055L43.6242 58.1375L58.703 58.1697L58.7977 59.5606C59.0291 62.9633 58.9045 62.7854 61.0546 62.7854H62.5847L62.5865 64.3976C62.5875 65.2844 62.6393 66.0953 62.7014 66.1997C62.7934 66.3537 63.2802 66.4047 65.2973 66.4712C66.6629 66.5163 67.7936 66.5588 67.81 66.566C67.8264 66.5732 67.8398 66.835 67.8398 67.1481V67.7172H43.8332H19.8264V67.0848Z" fill="white"/>
<path d="M38.8192 38.2843C38.5908 38.1628 38.2769 37.864 38.1219 37.6207C37.8882 37.2536 37.849 37.0606 37.8924 36.4899C37.9519 35.7047 37.6969 35.9896 40.6084 33.4568C44.4892 30.081 49.688 25.8083 50.3664 25.4371C51.5933 24.7659 53.0298 25.7119 53.0298 27.191C53.0298 27.777 53.0018 27.8252 52.1562 28.6936C51.1 29.7779 43.1972 36.3253 41.0837 37.8668C40.1005 38.5839 39.5674 38.6823 38.8192 38.2843Z" fill="white"/>
<path d="M19.8264 67.0853V66.453H22.3155H24.8044L24.9431 66.1309C25.0235 65.9439 25.0817 65.175 25.0817 64.2973V62.7857H26.6276C28.6421 62.7857 28.5453 62.918 28.5453 60.1654V58.1069H43.5981C55.5324 58.1069 58.6617 58.1397 58.7036 58.265C58.7327 58.3519 58.807 59.268 58.8691 60.3005C59.0212 62.8378 58.9756 62.7857 61.0529 62.7857H62.5847V64.4142C62.5847 65.7739 62.6173 66.0714 62.7819 66.2163C62.9271 66.3438 63.6142 66.4116 65.3798 66.4721C66.7 66.5173 67.7936 66.5599 67.81 66.5669C67.8264 66.5737 67.84 66.8355 67.84 67.1486V67.7177H43.8332H19.8264V67.0853Z" fill="#C83737"/>
</g>
</g>
<defs>
<clipPath id="clip0_5_226">
<rect width="70" height="70" fill="white"/>
</clipPath>
</defs>
</svg>
