<svg width="70" height="70" viewBox="0 0 70 70" fill="none" xmlns="http://www.w3.org/2000/svg">
<g clip-path="url(#clip0_5_248)">
<mask id="mask0_5_248" style="mask-type:luminance" maskUnits="userSpaceOnUse" x="0" y="0" width="70" height="70">
<path d="M70 0H0V70H70V0Z" fill="white"/>
</mask>
<g mask="url(#mask0_5_248)">
<path d="M33.8261 13.9227L33.8253 10.8051V4.56782H36.174V13.9227H36.1715V13.9246L34.9992 13.9227H33.8261ZM5.5265 45.4287L11.3833 44.2716L13.7456 43.805V43.8032L13.54 42.498L13.3385 41.2149L13.3377 41.2131L5.11811 42.8368L5.5265 45.4287ZM57.4608 22.2719L53.2375 25.0027V25.0046L53.8889 26.2709L54.4109 27.2814L61.6385 22.6044L60.4642 20.3259L57.4608 22.2719ZM20.991 56.9905L20.0658 56.1204L14.7003 63.285L16.4997 64.9772L18.8343 61.8577L21.8645 57.8106L20.991 56.9905ZM60.4362 56.3464L61.609 54.0663L59.0877 52.4342L54.383 49.387V49.3888L53.7345 50.6458L53.2102 51.666V51.668L60.4362 56.3464ZM5.12803 33.7119L8.0593 34.2892L13.3462 35.3368V35.335L13.6963 33.1087L13.7529 32.744V32.7422L5.53377 31.1163L5.12803 33.7119ZM64.4151 31.1867L62.1811 31.6273L56.1956 32.8084V32.8103L56.4969 34.7297L56.6027 35.3998V35.4017L64.8231 33.7781L64.4151 31.1867ZM26.4548 15.8305V15.8325L28.3601 15.0535L28.6594 14.9313L25.807 6.13924L23.6006 7.04084L24.0075 8.29419L26.4548 15.8305ZM9.47477 56.287L16.7016 51.6106V51.6088L15.7977 49.8546L15.5281 49.3305L8.30003 54.0071L9.47477 56.287ZM48.0322 57.8532L53.3967 65.0217L55.1937 63.3296V63.3276L49.8308 56.1609L48.5829 57.3348L48.0322 57.8532ZM8.33062 22.5471L15.5583 27.2261L16.5749 25.2508L16.7314 24.9476V24.9456L9.50369 20.2686L8.33062 22.5471ZM64.8115 42.9034L56.5928 41.278L56.5053 41.8335L56.1848 43.87L64.4043 45.4955L64.8115 42.9034ZM16.5437 11.5936L14.7458 13.2853L16.717 15.918L20.1109 20.4515L21.1729 19.4516L21.9078 18.7607L21.9086 18.7589L16.5437 11.5936ZM43.4868 8.3288L41.3347 14.9528L41.3364 14.9548L42.8064 15.5527L43.5414 15.8522L46.3973 7.0623L44.1906 6.16305L43.4868 8.3288ZM49.4196 20.0669L49.8754 20.4945L55.2409 13.327L53.4423 11.6372L48.0768 18.8024V18.8042L49.4196 20.0669ZM35 0C15.7017 0 0 17.5987 0 39.2322C0 51.6936 5.21605 62.8074 13.3235 70H16.8668C7.9689 63.3888 2.08723 52.0678 2.08723 39.2322C2.08723 18.8892 16.8515 2.34006 34.9999 2.34006C53.1489 2.34006 67.9132 18.8892 67.9132 39.2322C67.9132 52.0678 62.0315 63.3888 53.1332 70H56.6769C64.7832 62.8074 70 51.6936 70 39.2322C70.0003 17.5994 54.2986 0 35 0ZM28.1679 56.4127C28.9022 56.4127 29.2683 55.5927 29.2683 53.9543C29.2683 52.2584 28.9096 51.4086 28.1907 51.4086C27.433 51.4086 27.0535 52.2704 27.0535 53.9959C27.0535 55.6076 27.4256 56.4127 28.1679 56.4127ZM25.0306 48.5002H31.2554V59.4157H25.0306V48.5002ZM26.4313 54.0284C26.4313 54.9874 26.5782 55.7186 26.8734 56.226C27.1683 56.7322 27.5787 56.9867 28.1056 56.9867C28.6688 56.9867 29.1066 56.7202 29.4203 56.1907C29.7342 55.6585 29.8914 54.8909 29.8914 53.8831C29.8914 51.8493 29.3356 50.8319 28.2246 50.8319C27.6436 50.8319 27.2003 51.0994 26.8929 51.6419C26.5847 52.1807 26.4313 52.9767 26.4313 54.0284ZM32.0734 48.5002H38.1865V59.4157H32.0734V48.5002ZM33.6792 56.7405C33.922 56.9034 34.2882 56.9867 34.7794 56.9867C35.3619 56.9867 35.8215 56.8109 36.1551 56.4591C36.4888 56.1074 36.6573 55.6427 36.6573 55.0669C36.6573 54.5114 36.5021 54.0726 36.1914 53.7523C35.8795 53.4338 35.44 53.2727 34.8718 53.2727C34.733 53.2727 34.5834 53.2783 34.4201 53.2893V51.5453H36.4162V50.9306H33.845V53.9174C34.253 53.8839 34.5309 53.8674 34.6783 53.8674C35.1165 53.8674 35.4521 53.9766 35.6863 54.195C35.9208 54.4137 36.0388 54.719 36.0388 55.1076C36.0388 55.5022 35.924 55.8167 35.6936 56.0557C35.4637 56.2946 35.1617 56.4129 34.7865 56.4129C34.4107 56.4129 34.0423 56.2815 33.6785 56.0185L33.6792 56.7405ZM38.82 48.5002H44.9684V59.4157H38.82V48.5002ZM40.3486 54.0284C40.3486 54.9874 40.4957 55.7186 40.7912 56.226C41.0859 56.7322 41.4966 56.9867 42.0234 56.9867C42.5866 56.9867 43.0251 56.7202 43.3381 56.1907C43.6519 55.6585 43.8088 54.8909 43.8088 53.8831C43.8088 51.8493 43.2522 50.8319 42.1413 50.8319C41.561 50.8319 41.1173 51.0994 40.8093 51.6419C40.5023 52.1807 40.3486 52.9767 40.3486 54.0284ZM42.0862 56.4127C42.8196 56.4127 43.1871 55.5927 43.1871 53.9543C43.1871 52.2584 42.8278 51.4086 42.1093 51.4086C41.3512 51.4086 40.9721 52.2704 40.9721 53.9959C40.9713 55.6076 41.343 56.4127 42.0862 56.4127ZM36.0212 42.8646C35.8742 42.8646 35.7454 42.924 35.61 42.9555L19.5693 27.0929L33.8381 45.0955C33.8286 45.1861 33.7882 45.2677 33.7882 45.3575C33.7882 46.7433 34.7864 47.8633 36.0212 47.8633C37.2484 47.8633 38.246 46.7433 38.246 45.3575C38.2477 43.9846 37.2485 42.8646 36.0212 42.8646Z" fill="black"/>
<path d="M15.5866 64.049C14.7994 63.2818 14.7927 63.2714 14.9416 63.062C15.4423 62.358 19.9801 56.3421 20.0436 56.2981C20.1153 56.2486 21.7389 57.6806 21.7512 57.8044C21.7612 57.9044 16.5798 64.7848 16.4795 64.8048C16.4259 64.8155 16.0241 64.4753 15.5866 64.049Z" fill="#FF0000"/>
<path d="M8.95427 55.1593C8.66452 54.6036 8.42768 54.1131 8.42798 54.0693C8.42836 54.0126 15.0627 49.6675 15.4805 49.4504C15.5653 49.4063 16.6105 51.5547 16.5396 51.6271C16.4498 51.7185 9.74763 56.0549 9.59394 56.121C9.52128 56.1523 9.29346 55.8097 8.95427 55.1593Z" fill="#FF0000"/>
<path d="M5.55278 45.2518C5.50508 45.0894 5.16925 42.91 5.18854 42.8882C5.22989 42.8413 13.2499 41.2891 13.2793 41.3223C13.3287 41.3783 13.6962 43.7317 13.66 43.7608C13.6436 43.774 11.9081 44.1216 9.80334 44.5332C7.6986 44.9448 5.88983 45.3043 5.78385 45.332C5.66508 45.3633 5.57644 45.3325 5.55278 45.2518Z" fill="#FF0000"/>
<path d="M9.07263 34.4478C6.94423 34.0224 5.19837 33.669 5.19289 33.6624C5.18743 33.6559 5.26729 33.1083 5.37036 32.4456C5.55048 31.2873 5.56585 31.2409 5.76727 31.2459C5.8825 31.2487 7.71212 31.5944 9.83308 32.0139L13.6894 32.7768L13.6363 33.1654C13.6071 33.3792 13.5221 33.9336 13.4474 34.3976C13.3254 35.1547 13.2927 35.24 13.127 35.2311C13.0255 35.2258 11.201 34.8733 9.07263 34.4478Z" fill="#FF0000"/>
<path d="M12.038 24.8753C10.1233 23.6343 8.52074 22.6044 8.47684 22.5866C8.43293 22.5689 8.64451 22.0679 8.94701 21.4734C9.35483 20.6718 9.53108 20.4069 9.6288 20.4485C9.74029 20.496 15.7686 24.3714 16.4344 24.8236L16.6584 24.976L16.1186 26.0205C15.8218 26.5949 15.5655 27.08 15.5491 27.0984C15.5327 27.1167 13.9528 26.1163 12.038 24.8753Z" fill="#FF0000"/>
<path d="M17.4727 16.833C16.0453 14.9262 14.8792 13.3322 14.8817 13.2906C14.8841 13.249 15.2541 12.8719 15.7039 12.4525C16.5036 11.7071 16.5253 11.6942 16.6774 11.8742C16.7629 11.9754 17.9578 13.5629 19.3327 15.402L21.8326 18.7456L21.0113 19.5227C20.5597 19.9501 20.1628 20.2999 20.1292 20.2999C20.0956 20.2999 18.9001 18.7398 17.4727 16.833Z" fill="#FF0000"/>
<path d="M26.4418 15.6462C26.421 15.5814 25.7882 13.6278 25.0356 11.3049L23.6672 7.08138L23.8945 6.98267C24.7247 6.62211 25.7443 6.22983 25.7716 6.26048C25.8186 6.31314 28.5504 14.737 28.5504 14.8293C28.5504 14.9133 28.4712 14.9512 27.2784 15.4379C26.7065 15.6713 26.4686 15.7305 26.4418 15.6462Z" fill="#FF0000"/>
<path d="M33.8821 9.21524V4.58838H35.0001H36.118V9.21524V13.8421H35.0001H33.8821V9.21524Z" fill="#FF0000"/>
<path d="M42.4179 15.3481C41.8861 15.1294 41.4504 14.9071 41.4497 14.8541C41.449 14.8011 42.0724 12.8414 42.8351 10.4992L44.2217 6.24072L45.1662 6.61997C45.6857 6.82854 46.1593 7.03148 46.2187 7.07095C46.2988 7.12422 45.9667 8.24695 44.9298 11.4286C44.1617 13.7858 43.4997 15.7215 43.459 15.73C43.4183 15.7387 42.9497 15.5668 42.4179 15.3481Z" fill="#FF0000"/>
<path d="M49.0418 19.6422C48.606 19.2304 48.2287 18.8701 48.2037 18.8419C48.1705 18.8048 52.897 12.3868 53.395 11.7927C53.445 11.7331 54.5438 12.6913 55.0288 13.2174C55.1316 13.329 54.8045 13.8104 52.8203 16.467C51.5393 18.1823 50.3434 19.7668 50.1628 19.9885L49.8342 20.3912L49.0418 19.6422Z" fill="#FF0000"/>
<path d="M53.8596 26.106C53.5667 25.537 53.3537 25.0413 53.3865 25.0043C53.4193 24.9674 54.8972 23.9986 56.6709 22.8515C58.4446 21.7044 60.017 20.6824 60.1653 20.5802L60.4349 20.3945L60.959 21.4014C61.2472 21.9553 61.4935 22.4523 61.5064 22.5059C61.5278 22.5952 54.6093 27.1463 54.4582 27.1423C54.4218 27.1413 54.1524 26.6749 53.8596 26.106Z" fill="#FF0000"/>
<path d="M56.6328 35.2268C56.5758 35.0403 56.2443 32.8914 56.2683 32.8646C56.2966 32.8329 64.1426 31.2886 64.2754 31.2886C64.3479 31.2886 64.4484 31.6972 64.5741 32.5045C64.6784 33.1731 64.7521 33.7295 64.7376 33.7407C64.7234 33.7519 62.9895 34.0971 60.8848 34.5077C58.7801 34.9185 56.9713 35.2776 56.8653 35.306C56.7462 35.3378 56.6574 35.3077 56.6328 35.2268Z" fill="#FF0000"/>
<path d="M60.301 44.6415C58.1117 44.2032 56.3042 43.8263 56.2843 43.804C56.2646 43.7818 56.3326 43.2153 56.4358 42.5453C56.622 41.3353 56.6246 41.3273 56.8407 41.3746C56.9601 41.4008 58.772 41.7611 60.8669 42.1754C62.9619 42.5895 64.692 42.9464 64.7116 42.9684C64.7605 43.0231 64.3813 45.4609 64.3259 45.4485C64.3015 45.443 62.4904 45.08 60.301 44.6415Z" fill="#FF0000"/>
<path d="M56.886 53.985C54.994 52.7476 53.4084 51.7186 53.3623 51.6984C53.3161 51.6781 53.5267 51.1755 53.8301 50.5812C54.178 49.8998 54.4224 49.5182 54.4917 49.548C54.552 49.5741 56.1625 50.606 58.0702 51.8415L61.5389 54.0877L60.9806 55.1713C60.6734 55.7672 60.4004 56.2504 60.3739 56.2449C60.3475 56.2395 58.7779 55.2225 56.886 53.985Z" fill="#FF0000"/>
<path d="M52.4834 63.7015C50.3398 60.8592 48.1987 57.9779 48.1762 57.9052C48.1518 57.8265 49.6272 56.3756 49.7798 56.3283C49.8918 56.2934 55.1401 63.3136 55.0587 63.3897C55.0232 63.4232 54.6382 63.7842 54.2033 64.1921L53.4128 64.9338L52.4834 63.7015Z" fill="#FF0000"/>
<path d="M12.5392 69.1956C12.1014 68.7847 11.2273 67.8877 10.5968 67.2023C4.70024 60.7929 1.0016 52.1596 0.212657 42.9638C0.0616612 41.2039 0.0419096 37.4899 0.174822 35.8498C1.20384 23.1516 7.48184 12.0357 17.3466 5.44543C21.4002 2.73741 26.098 0.978038 31.1303 0.28329C32.8901 0.0403355 37.1101 0.0403355 38.8699 0.28329C45.2499 1.16409 50.8899 3.67123 55.8581 7.83495C57.292 9.03669 58.1401 9.86465 59.6232 11.5108C65.5301 18.0669 69.1143 26.6621 69.836 36.0022C69.9832 37.9083 69.8904 42.413 69.6659 44.2539C68.5845 53.1188 65.0443 61.0395 59.4109 67.1984C58.7789 67.8893 57.9025 68.7893 57.4632 69.1985L56.6645 69.9426H55.0165C54.1103 69.9426 53.4056 69.9061 53.4505 69.8616C53.4953 69.8169 53.9804 69.4105 54.5284 68.9583C60.379 64.1294 64.6072 57.3477 66.6557 49.5074C67.0647 47.9421 67.5239 45.4225 67.7362 43.5792C67.9524 41.7041 67.9528 36.7274 67.7369 34.9039C66.9688 28.4102 65.0411 22.8255 61.8345 17.8024C56.3307 9.18103 48.049 3.73877 38.5531 2.50307C36.7947 2.27427 33.1999 2.27514 31.4313 2.5048C23.8451 3.48988 17.1089 7.11061 11.776 13.0696C6.41796 19.0567 3.28834 26.24 2.26323 34.9039C2.04755 36.7268 2.0479 41.7038 2.26385 43.5792C2.96813 49.6956 4.72596 54.9486 7.7473 59.966C9.88515 63.5162 12.8656 66.9314 15.9186 69.3294C16.2918 69.6225 16.597 69.8803 16.597 69.9025C16.597 69.9246 15.8632 69.9426 14.966 69.9426H13.3351L12.5392 69.1956Z" fill="#FF0000"/>
<path d="M38.87 53.9414V48.5435H41.8799H44.8897V53.9414V59.3394H41.8799H38.87V53.9414ZM42.6794 56.8959C43.0687 56.7134 43.4663 56.1709 43.6546 55.5649C43.8982 54.7812 43.8725 52.7509 43.6093 51.9935C43.2808 51.0486 42.6048 50.6342 41.7436 50.8502C41.2209 50.9814 40.8594 51.3573 40.5786 52.0618C40.3102 52.7351 40.2442 54.552 40.4563 55.4301C40.6207 56.1105 40.9973 56.6927 41.4002 56.8893C41.7441 57.0571 42.3286 57.0602 42.6794 56.8959Z" fill="#FF0000"/>
<path d="M32.0763 53.9414V48.5435H35.1291H38.182V53.9414V59.3394H35.1291H32.0763V53.9414ZM35.8056 56.7895C36.4789 56.4218 36.8509 55.4219 36.6403 54.5455C36.443 53.7246 35.8548 53.2727 34.9786 53.2689L34.4842 53.2668V52.4474V51.6281H35.4731H36.4621V51.2425V50.857H35.1291H33.7962V52.3992V53.9414H34.444C35.4948 53.9414 35.9696 54.2984 35.9696 55.0883C35.9696 56.1225 35.0331 56.6481 34.0663 56.1564C33.8602 56.0515 33.6764 55.9657 33.6579 55.9657C33.6394 55.9657 33.6243 56.1597 33.6243 56.3968C33.6243 56.7993 33.6428 56.8341 33.9037 56.9229C34.3461 57.0735 35.4238 56.9979 35.8056 56.7895Z" fill="#FF0000"/>
<path d="M41.4977 56.0382C41.2766 55.7899 41.1957 55.5876 41.1078 55.0642C40.9882 54.3516 41.0285 52.9841 41.1869 52.3884C41.4627 51.35 42.4252 51.1337 42.8282 52.0196C43.1928 52.8204 43.2482 54.4681 42.9455 55.5067C42.6913 56.3796 42.0207 56.6257 41.4977 56.0382Z" fill="#FF0000"/>
<path d="M25.1107 53.9414V48.5435H28.1636H31.2164V53.9414V59.3394H28.1636H25.1107V53.9414ZM28.6954 56.9236C29.5567 56.5587 29.9943 55.3101 29.9017 53.4822C29.8256 51.9845 29.576 51.3619 28.897 50.9774C28.0105 50.4755 27.05 50.9503 26.6439 52.0918C26.4742 52.5686 26.4484 52.8163 26.4462 53.9897C26.4438 55.1975 26.4644 55.3896 26.6413 55.82C26.8784 56.3966 27.1281 56.7169 27.4756 56.89C27.7896 57.0465 28.3675 57.0623 28.6954 56.9236Z" fill="#FF0000"/>
<path d="M27.6659 56.1571C27.2824 55.8192 27.1312 55.1882 27.1346 53.9412C27.1377 52.742 27.2343 52.2741 27.5712 51.8251C27.9855 51.2734 28.6463 51.3873 28.9311 52.0599C29.2497 52.8127 29.3119 54.435 29.0601 55.4277C28.8534 56.2428 28.169 56.6008 27.6659 56.1571Z" fill="#FF0000"/>
<path d="M35.1983 47.6306C34.763 47.4184 34.1631 46.7374 34.0064 46.2775C33.9279 46.0472 33.8582 45.6671 33.8515 45.4332C33.8393 45.0116 33.7781 44.9306 27.2838 36.7326C23.6782 32.1812 20.7433 28.4408 20.7613 28.4205C20.7795 28.4001 24.1093 31.6615 28.1607 35.6679L35.5273 42.9524L36.0161 42.9533C37.603 42.9564 38.649 44.781 37.977 46.3744C37.7327 46.9536 37.4117 47.3078 36.892 47.5715C36.435 47.8034 35.6117 47.8321 35.1983 47.6306Z" fill="#FF0000"/>
<path d="M12.4694 69.0513C10.3665 66.9887 8.55097 64.83 7.10777 62.6762C3.33289 57.0428 0.959693 50.3141 0.298997 43.3714C0.111023 41.3961 0.108515 36.8136 0.294442 35.0485C1.10974 27.3079 3.63564 20.5651 7.98565 14.5168C8.95285 13.172 11.9353 9.85321 13.0969 8.82915C18.4284 4.12872 23.6965 1.57528 30.3996 0.442511C31.3103 0.288602 32.2002 0.225733 34.0542 0.184353C36.9237 0.120312 38.4743 0.225713 40.6159 0.630348C46.6796 1.77608 52.0787 4.49583 56.9681 8.86774C58.2015 9.9706 61.1195 13.2772 62.2084 14.806C66.1753 20.3752 68.5577 26.5312 69.5759 33.8441C69.81 35.5242 69.9021 40.1781 69.7491 42.5851C69.4495 47.2999 68.1658 52.3196 66.0809 56.9295C64.8734 59.5995 63.4887 61.953 61.7397 64.3085C60.8697 65.4799 58.4606 68.1871 57.3875 69.199L56.5989 69.9427L56.0546 69.9421C55.7551 69.9418 55.0775 69.9137 54.5487 69.8797L53.5872 69.8175L54.7206 68.8561C58.8047 65.3921 61.9841 61.2047 64.2427 56.3158C66.0458 52.4127 67.1214 48.6131 67.7254 44.013C67.9058 42.6378 67.9863 38.0252 67.8626 36.1478C67.5322 31.1345 66.0109 25.5494 63.7694 21.1198C61.1984 16.0389 57.6367 11.7175 53.4032 8.54266C48.982 5.22703 44.1527 3.24447 38.5691 2.45281C37.4222 2.29022 32.5831 2.28976 31.4315 2.45214C24.4598 3.43508 18.5199 6.3422 13.4617 11.2469C12.3363 12.3382 10.3827 14.5868 9.44071 15.8752C6.31721 20.1473 4.19096 24.9048 3.01083 30.262C2.3011 33.4839 2.06275 35.7464 2.06595 39.2314C2.06831 41.8176 2.16435 43.3072 2.45319 45.2378C3.47197 52.0473 6.04868 58.1929 10.0834 63.4362C11.6372 65.4554 14.0432 67.9225 15.7893 69.2868L16.4437 69.798L15.725 69.8608C15.3297 69.8952 14.6386 69.9266 14.1894 69.9302L13.3724 69.9369L12.4694 69.0513Z" fill="black"/>
<path d="M35.1292 47.5162C34.4808 47.1343 34.0078 46.3882 33.9108 45.5942C33.8263 44.9035 34.1432 45.3266 25.7653 34.7194C23.466 31.8079 21.6017 29.4067 21.6227 29.3831C21.6628 29.3382 23.4927 31.1264 30.9355 38.4836L35.4346 42.9308L36.0129 42.9969C36.9778 43.1073 37.6653 43.6227 37.9823 44.4729C38.3977 45.587 37.8413 47.071 36.8304 47.5459C36.4507 47.7243 35.4528 47.7069 35.1292 47.5162Z" fill="black"/>
<path d="M32.0763 53.9414V48.5435H35.1291H38.182V53.9414V59.3394H35.1291H32.0763V53.9414ZM35.5591 56.9204C36.2914 56.6976 36.7741 55.8305 36.7027 54.8659C36.6271 53.8432 36.0191 53.2668 35.016 53.2668H34.4842V52.4474V51.6281H35.4731H36.4621V51.2425V50.857H35.1291H33.7962V52.3823V53.9076L34.5774 54.0081C35.4549 54.1211 35.7687 54.3073 35.8917 54.7883C35.9984 55.2051 35.8968 55.5583 35.5627 55.9328C35.3116 56.2143 35.2197 56.2549 34.834 56.2549C34.5913 56.2549 34.2537 56.1898 34.0839 56.1103C33.6443 55.9044 33.6243 55.9173 33.6243 56.4026C33.6243 56.7655 33.657 56.8543 33.8178 56.9267C34.0896 57.0492 35.1483 57.0454 35.5591 56.9204Z" fill="black"/>
<path d="M38.87 53.9414V48.5435H41.8799H44.8897V53.9414V59.3394H41.8799H38.87V53.9414ZM42.7869 56.8728C43.1079 56.702 43.449 56.2472 43.666 55.7007C43.8487 55.2402 43.8733 52.7706 43.7015 52.1287C43.561 51.6032 43.0773 50.9977 42.6811 50.8511C41.8633 50.5485 41.0211 50.9723 40.6199 51.8882C40.3826 52.4299 40.3749 52.4941 40.3749 53.9414C40.3749 55.3869 40.3828 55.4537 40.6186 55.9919C40.9491 56.7465 41.3211 57.0261 41.9942 57.0261C42.2773 57.0261 42.6254 56.9587 42.7869 56.8728Z" fill="black"/>
<path d="M41.7967 56.1824C41.303 55.9032 41.1641 55.5123 41.1221 54.2837C41.1009 53.6604 41.1283 52.9831 41.1877 52.6623C41.4444 51.2759 42.5794 51.1287 42.9325 52.4361C42.9925 52.6584 43.0394 53.3412 43.0392 53.9896C43.0386 55.3378 42.8688 55.9323 42.4076 56.1997C42.0911 56.3831 42.1551 56.385 41.7967 56.1824Z" fill="black"/>
<path d="M25.1107 53.9414V48.5435H28.1636H31.2164V53.9414V59.3394H28.1636H25.1107V53.9414ZM28.9607 56.8331C29.6677 56.35 29.9738 55.2615 29.9077 53.4649C29.8714 52.4754 29.8338 52.2421 29.6403 51.8022C29.3445 51.1304 28.9523 50.8327 28.2921 50.7791C27.6628 50.7282 27.1946 50.9942 26.8312 51.609C26.485 52.1949 26.3786 52.8863 26.4145 54.3151C26.4432 55.4502 26.4624 55.5667 26.7 56.049C27.0615 56.7833 27.4144 57.0262 28.1189 57.0256C28.5271 57.0254 28.7559 56.9731 28.9607 56.8331Z" fill="black"/>
<path d="M27.6088 55.9849C27.3147 55.6554 27.1746 54.9956 27.1746 53.9411C27.1746 52.8331 27.3127 52.2245 27.6504 51.8463C28.1221 51.3175 28.6654 51.4814 28.9419 52.2359C29.1344 52.7612 29.2074 54.3852 29.0714 55.1193C28.875 56.1795 28.16 56.6028 27.6088 55.9849Z" fill="black"/>
<path d="M15.8068 64.1694C14.7632 63.2275 14.7914 63.3453 15.4119 62.5128C18.661 58.153 20.0629 56.3574 20.1663 56.4226C20.4124 56.5782 21.6708 57.7273 21.6708 57.7964C21.6708 57.9202 16.5578 64.7367 16.4649 64.7367C16.4487 64.7367 16.1525 64.4814 15.8068 64.1694Z" fill="#C83737"/>
<path d="M9.44104 55.8936C9.28729 55.6961 8.51343 54.2171 8.51343 54.1208C8.51343 54.0848 9.43251 53.4481 10.5558 52.706C14.6147 50.0241 15.4287 49.5168 15.526 49.6073C15.578 49.6558 15.8193 50.121 16.062 50.6412L16.5032 51.5871L16.3164 51.7178C15.9535 51.9718 10.7838 55.3175 10.1825 55.6874C9.60719 56.0415 9.56512 56.0531 9.44104 55.8936Z" fill="#C83737"/>
<path d="M5.51302 44.76C5.29989 43.5487 5.23884 43.0187 5.30453 42.9498C5.39449 42.8556 12.2842 41.5184 12.8565 41.4843L13.2864 41.4585L13.4507 42.5435C13.541 43.1403 13.5902 43.6564 13.5601 43.6901C13.5036 43.7534 6.00516 45.2655 5.74645 45.2658C5.64086 45.2659 5.57813 45.13 5.51302 44.76Z" fill="#C83737"/>
<path d="M12.5984 35.097C12.5511 35.0792 10.9065 34.7501 8.94362 34.3657C6.98077 33.9811 5.34561 33.6388 5.30991 33.605C5.23098 33.5301 5.54967 31.488 5.65949 31.3649C5.70624 31.3125 6.37191 31.3975 7.31908 31.5767C9.46491 31.9827 13.2442 32.723 13.4693 32.7814L13.6521 32.8287L13.4987 33.7862C13.2815 35.1418 13.2799 35.1459 12.9581 35.1369C12.8076 35.1327 12.6457 35.1148 12.5984 35.097Z" fill="#C83737"/>
<path d="M12.035 24.8131C10.1219 23.5875 8.54287 22.5724 8.52616 22.5571C8.4801 22.5152 9.20198 21.0258 9.41023 20.733L9.59266 20.4766L10.5365 21.0763C11.549 21.7198 16.538 24.9398 16.5784 24.9757C16.5975 24.993 15.6012 26.9385 15.5313 27.0204C15.5215 27.0321 13.9482 26.0386 12.035 24.8131Z" fill="#C83737"/>
<path d="M18.7994 18.5075C16.9011 16.0001 14.9626 13.3565 14.9672 13.2813C14.9719 13.2022 16.3515 11.8933 16.481 11.8449C16.571 11.8112 16.8206 12.1329 19.9011 16.2517C20.7931 17.4445 21.5787 18.4927 21.6466 18.5809C21.7577 18.7252 21.6918 18.8142 20.9862 19.4725C20.5551 19.8746 20.1748 20.2026 20.1412 20.2014C20.1074 20.2001 19.5036 19.4378 18.7994 18.5075Z" fill="#C83737"/>
<path d="M26.4866 15.6418C26.4866 15.6296 25.8678 13.7146 25.1115 11.3861C24.1115 8.30744 23.7649 7.13287 23.8409 7.08022C24.0097 6.96326 25.7175 6.2957 25.7469 6.33518C25.8356 6.45449 28.4645 14.6469 28.4645 14.8044C28.4645 14.8488 28.1886 15.0032 27.8515 15.1477C27.2337 15.4123 26.4866 15.6828 26.4866 15.6418Z" fill="#C83737"/>
<path d="M36.1578 9.21484C36.1578 6.64356 36.1689 5.59168 36.1825 6.87731C36.1961 8.16295 36.1961 10.2667 36.1825 11.5524C36.1689 12.838 36.1578 11.7861 36.1578 9.21484Z" fill="#C83737"/>
<path d="M43.0407 15.5577C42.8989 15.5024 42.4992 15.3269 42.1527 15.1677C41.5565 14.8937 41.5257 14.8646 41.5787 14.6252C41.6095 14.486 42.2205 12.5612 42.9364 10.3477C44.1374 6.63508 44.2517 6.32802 44.4134 6.3839C44.8235 6.52565 45.9739 7.00826 46.079 7.08268C46.1737 7.1497 46.1714 7.24504 46.0657 7.63515C45.7665 8.73924 43.6951 15.0971 43.5018 15.5048C43.4115 15.6951 43.3975 15.6967 43.0407 15.5577Z" fill="#C83737"/>
<path d="M33.8821 9.21524V4.58838H35.0001H36.118V9.21524V13.8421H35.0001H33.8821V9.21524Z" fill="#C83737"/>
<path d="M49.1028 19.6313C48.7012 19.2516 48.359 18.8976 48.3425 18.8445C48.3097 18.7398 48.784 18.0735 51.5791 14.2979L53.4182 11.814L54.1141 12.4242C55.0227 13.2208 55.0397 13.2548 54.7557 13.7135C54.5246 14.0872 51.0947 18.7147 50.2767 19.7568L49.8331 20.3219L49.1028 19.6313Z" fill="#C83737"/>
<path d="M54.216 26.6542C54.0942 26.4381 53.8601 25.987 53.6957 25.652L53.397 25.0427L55.1415 23.9092C56.1011 23.2858 57.674 22.262 58.637 21.6342C59.6001 21.0063 60.4009 20.4927 60.4166 20.4927C60.4323 20.4927 60.6673 20.9326 60.9389 21.4702L61.4327 22.4476L61.241 22.6215C60.8588 22.9684 54.6491 27.0473 54.5033 27.0473C54.467 27.0473 54.3376 26.8705 54.216 26.6542Z" fill="#C83737"/>
<path d="M56.594 34.7349C56.3994 33.6283 56.3208 33.0164 56.3637 32.9387C56.3884 32.8939 56.5548 32.8333 56.7333 32.804C56.9118 32.7749 58.6053 32.4437 60.4966 32.0682C62.3879 31.6926 64.0197 31.3853 64.123 31.3853C64.2844 31.3853 64.329 31.4761 64.4417 32.0358C64.5138 32.3937 64.599 32.9121 64.6311 33.1878C64.6861 33.6604 64.6778 33.692 64.4855 33.7419C64.0613 33.8519 56.9654 35.2409 56.8275 35.2409C56.7219 35.2409 56.6591 35.1048 56.594 34.7349Z" fill="#C83737"/>
<path d="M60.7128 44.6779C58.9391 44.3128 57.2242 43.9613 56.902 43.8965L56.3159 43.7787L56.3729 43.2933C56.4398 42.7228 56.662 41.4845 56.7064 41.4347C56.7387 41.3984 64.6042 42.951 64.6547 43.0035C64.6892 43.0395 64.5349 44.1888 64.403 44.878C64.3252 45.2843 64.2802 45.3607 64.124 45.3519C64.0215 45.3462 62.4864 45.0429 60.7128 44.6779Z" fill="#C83737"/>
<path d="M56.8789 53.9226C54.9908 52.6979 53.4323 51.6833 53.4157 51.6679C53.3696 51.6256 54.0913 50.1364 54.3002 49.8428L54.4829 49.5859L57.9417 51.8202C59.8442 53.0491 61.4007 54.103 61.4007 54.1624C61.4007 54.2878 60.4855 56.029 60.3818 56.101C60.3433 56.1276 58.767 55.1473 56.8789 53.9226Z" fill="#C83737"/>
<path d="M52.7703 63.9932C51.1094 61.8014 48.2447 57.9356 48.2441 57.885C48.2432 57.7994 49.6168 56.4997 49.743 56.467C49.9013 56.426 54.9503 63.0908 54.9492 63.3394C54.9487 63.4209 54.4418 63.922 53.6047 64.668C53.4127 64.8391 53.4092 64.8363 52.7703 63.9932Z" fill="#C83737"/>
</g>
</g>
<defs>
<clipPath id="clip0_5_248">
<rect width="70" height="70" fill="white"/>
</clipPath>
</defs>
</svg>
