<svg width="70" height="70" viewBox="0 0 70 70" fill="none" xmlns="http://www.w3.org/2000/svg">
<g clip-path="url(#clip0_5_299)">
<mask id="mask0_5_299" style="mask-type:luminance" maskUnits="userSpaceOnUse" x="0" y="0" width="70" height="70">
<path d="M70 0H0V70H70V0Z" fill="white"/>
</mask>
<g mask="url(#mask0_5_299)">
<path d="M55.9301 16.0152C55.0201 16.0152 54.3201 15.2403 54.1801 14.121V13.9488C53.9701 12.1407 52.7101 10.7631 51.2401 10.7631C49.7701 10.7631 48.5101 12.1407 48.3001 13.9488V14.121C48.1601 15.1542 47.4601 16.0152 46.5501 16.0152H46.1301C45.1501 16.0152 44.3801 15.0681 44.3801 13.8627V6.28582C44.3801 5.25262 45.0801 4.3916 45.9201 4.3916H56.2801C57.1201 4.3916 57.8201 5.25262 57.8201 6.28582V13.8627C57.6801 15.0681 56.9101 16.0152 55.9301 16.0152ZM51.1701 9.04104C53.3401 9.04104 55.2301 11.1075 55.5101 13.7766V13.9488C55.5101 14.121 55.6501 14.2932 55.8601 14.2932C56.0701 14.2932 56.2101 14.121 56.2101 13.8627V6.28582C56.2101 6.19972 56.1401 6.19972 56.1401 6.19972H45.8501C45.7801 6.19972 45.7801 6.28582 45.7801 6.28582V13.8627C45.7801 14.121 45.9201 14.2932 46.1301 14.2932H46.5501C46.6901 14.2932 46.9001 14.121 46.9001 13.9488V13.7766C47.1101 11.1075 49.0001 9.04104 51.1701 9.04104Z" fill="black"/>
<path d="M66.43 70.0001H35.98C34.02 70.0001 32.41 68.0198 32.41 65.609V11.7959C32.41 9.38511 34.02 7.40479 35.98 7.40479H45.01C45.43 7.40479 45.71 7.8353 45.71 8.2658C45.71 8.7824 45.36 9.1268 45.01 9.1268H35.98C34.79 9.1268 33.81 10.3322 33.81 11.7959V65.5229C33.81 66.9866 34.79 68.192 35.98 68.192H66.43C67.62 68.192 68.6 66.9866 68.6 65.5229V11.7959C68.6 10.3322 67.62 9.1268 66.43 9.1268H56.98C56.56 9.1268 56.28 8.6963 56.28 8.2658C56.28 7.74918 56.63 7.40479 56.98 7.40479H66.43C68.39 7.40479 70 9.38511 70 11.7959V65.5229C70 68.0198 68.39 70.0001 66.43 70.0001Z" fill="black"/>
<path d="M57.47 64.7483H37.31C36.89 64.7483 36.61 64.3178 36.61 63.8873V13.5182C36.61 13.0016 36.96 12.6572 37.31 12.6572C37.66 12.6572 38.01 13.0877 38.01 13.5182V63.0263H57.12L64.33 54.1578V13.5182C64.33 13.0016 64.68 12.6572 65.03 12.6572C65.45 12.6572 65.73 13.0877 65.73 13.5182V54.5883C65.73 54.8466 65.66 55.0188 65.52 55.191L57.96 64.49C57.82 64.6622 57.68 64.7483 57.47 64.7483Z" fill="black"/>
<path d="M44.5902 40.2098C44.3802 40.2098 44.2402 40.1237 44.1002 39.9515L42.4902 37.971C42.2102 37.6266 42.2102 37.11 42.4902 36.7656C42.7702 36.4212 43.1902 36.4212 43.4702 36.7656L44.5902 38.1432L47.4602 34.4409C47.7402 34.0965 48.1602 34.0965 48.4402 34.4409C48.7202 34.7853 48.7202 35.3019 48.4402 35.6463L45.0802 40.0376C45.0102 40.1237 44.8002 40.2098 44.5902 40.2098Z" fill="black"/>
<path d="M43.19 28.0692C42.98 28.0692 42.84 27.9831 42.7 27.8109C42.42 27.4665 42.42 26.9499 42.7 26.6055L46.69 21.6978C46.97 21.3534 47.39 21.3534 47.67 21.6978C47.95 22.0422 47.95 22.5588 47.67 22.9032L43.68 27.8109C43.54 27.9831 43.33 28.0692 43.19 28.0692Z" fill="black"/>
<path d="M47.18 28.0692C46.97 28.0692 46.83 27.9831 46.69 27.8109L42.63 22.9032C42.35 22.5588 42.35 22.0422 42.63 21.6978C42.91 21.3534 43.33 21.3534 43.61 21.6978L47.6 26.6055C47.88 26.9499 47.88 27.4665 47.6 27.8109C47.53 27.9831 47.32 28.0692 47.18 28.0692Z" fill="black"/>
<path d="M43.19 53.3828C42.98 53.3828 42.84 53.2967 42.7 53.1245C42.42 52.7801 42.42 52.2635 42.7 51.9191L46.69 47.0112C46.97 46.6668 47.39 46.6668 47.67 47.0112C47.95 47.3556 47.95 47.8722 47.67 48.2166L43.68 53.1245C43.54 53.2967 43.33 53.3828 43.19 53.3828Z" fill="black"/>
<path d="M47.18 53.3828C46.97 53.3828 46.83 53.2967 46.69 53.1245L42.7 48.2166C42.42 47.8722 42.42 47.3556 42.7 47.0112C42.98 46.6668 43.4 46.6668 43.68 47.0112L47.67 51.9191C47.95 52.2635 47.95 52.7801 47.67 53.1245C47.53 53.2967 47.32 53.3828 47.18 53.3828Z" fill="black"/>
<path d="M61.5302 28.0692H49.9802C49.5602 28.0692 49.2802 27.6387 49.2802 27.2082C49.2802 26.7777 49.6302 26.3472 49.9802 26.3472H61.5302C61.9502 26.3472 62.2302 26.7777 62.2302 27.2082C62.2302 27.6387 61.9502 28.0692 61.5302 28.0692Z" fill="black"/>
<path d="M61.5302 40.4676H49.9802C49.5602 40.4676 49.2802 40.0371 49.2802 39.6066C49.2802 39.09 49.6302 38.7456 49.9802 38.7456H61.5302C61.9502 38.7456 62.2302 39.1761 62.2302 39.6066C62.3002 40.1232 61.9502 40.4676 61.5302 40.4676Z" fill="black"/>
<path d="M22.75 37.5402C21.42 37.5402 20.09 36.9375 19.11 35.8182L16.94 33.3213C16.66 32.9769 16.66 32.4603 16.87 32.1159C17.15 31.7715 17.57 31.7715 17.85 32.0298L20.02 34.5267C20.79 35.3877 21.7 35.8182 22.75 35.8182H29.54C29.96 35.8182 30.24 36.2487 30.24 36.6792C30.24 37.1958 29.89 37.5402 29.54 37.5402H22.75Z" fill="black"/>
<path d="M18.06 50.6271H8.46995C8.04995 50.6271 7.76995 50.1966 7.76995 49.7661C7.76995 49.3356 8.11995 48.9051 8.46995 48.9051H16.66V47.8719C16.66 46.4082 15.75 45.1167 14.56 44.8584L8.32995 43.825C7.90995 43.7389 7.69995 43.3084 7.69995 42.8779C7.76995 42.3613 8.11995 42.103 8.46995 42.103L14.7 43.1362C16.59 43.4806 18.06 45.5472 18.06 47.8719V50.6271Z" fill="black"/>
<path d="M3.63994 57.3435C3.21994 57.3435 2.93994 56.913 2.93994 56.4825V38.2292C2.93994 37.7126 3.28994 37.3682 3.63994 37.3682C3.98994 37.3682 4.33994 37.7987 4.33994 38.2292V56.3964C4.33994 56.913 4.05994 57.3435 3.63994 57.3435Z" fill="black"/>
<path d="M3.64 39.0902C3.43 39.0902 3.29 39.0041 3.15 38.8319L0.7 35.5601C0.21 35.0435 0 34.3547 0 33.6659V30.0497C0 28.5858 0.98 27.3804 2.17 27.3804H7.35L12.04 16.3596C12.04 16.2735 12.11 16.2735 12.11 16.2735C13.23 14.4653 14.91 13.4321 16.73 13.4321H29.96C30.38 13.4321 30.66 13.8626 30.66 14.2931C30.66 14.8097 30.31 15.1542 29.96 15.1542H16.73C15.4 15.1542 14.07 15.9291 13.23 17.2206L8.4 28.6719C8.26 28.9302 8.05 29.1026 7.77 29.1026H2.17C1.75 29.1026 1.47 29.5331 1.47 29.9636V33.5798C1.47 33.8381 1.54 34.0964 1.68 34.2686C1.68 34.2686 1.68 34.2686 1.75 34.3547L4.2 37.6265C4.48 37.9709 4.48 38.5736 4.13 38.8319C3.99 39.0041 3.78 39.0902 3.64 39.0902Z" fill="black"/>
<path d="M8.12012 63.5425C5.25012 63.5425 2.87012 60.6151 2.87012 57.085V56.3962C2.87012 55.8796 3.22012 55.5352 3.57012 55.5352C3.92012 55.5352 4.27012 55.9657 4.27012 56.3962V57.085C4.27012 59.668 5.95012 61.7344 8.05012 61.7344C10.1501 61.7344 11.8301 59.668 11.8301 57.085V56.3962C11.8301 55.8796 12.1801 55.5352 12.5301 55.5352C12.9501 55.5352 13.2301 55.9657 13.2301 56.3962V57.085C13.3701 60.6151 11.0601 63.5425 8.12012 63.5425Z" fill="black"/>
<path d="M29.54 57.3431H8.47002C8.05002 57.3431 7.77002 56.9126 7.77002 56.4821C7.77002 55.9655 8.12002 55.6211 8.47002 55.6211H29.6099C30.0299 55.6211 30.3099 56.0516 30.3099 56.4821C30.2399 56.9126 29.96 57.3431 29.54 57.3431Z" fill="black"/>
<path d="M29.26 50.6278H25.69C25.27 50.6278 24.99 50.1973 24.99 49.7668C24.99 49.3363 25.34 48.9058 25.69 48.9058H29.26C29.68 48.9058 29.96 49.3363 29.96 49.7668C29.96 50.1973 29.68 50.6278 29.26 50.6278Z" fill="black"/>
<path d="M29.82 29.1883H12.8799C12.4599 29.1883 12.1799 28.7578 12.1799 28.3273C12.1799 27.8107 12.5299 27.4663 12.8799 27.4663H29.82C30.24 27.4663 30.52 27.8968 30.52 28.3273C30.52 28.7578 30.24 29.1883 29.82 29.1883Z" fill="black"/>
<path d="M54.32 1.72201H47.67C47.25 1.72201 46.97 1.29151 46.97 0.861008C46.97 0.430504 47.32 0 47.67 0H54.32C54.74 0 55.02 0.430504 55.02 0.861008C55.02 1.29151 54.74 1.72201 54.32 1.72201Z" fill="black"/>
<path d="M35.3264 67.9649C34.7965 67.7325 34.3177 67.179 34.0643 66.5058C33.8725 65.9965 33.8651 64.9696 33.8629 38.7552C33.8611 17.6374 33.89 11.4122 33.9922 10.9924C34.1609 10.2999 34.7638 9.55854 35.3267 9.35106C35.6419 9.23493 36.9724 9.18896 40.0191 9.18896H44.2716L44.3063 11.8664C44.3394 14.4085 44.3539 14.5691 44.5939 15.0438C45.1168 16.0783 46.521 16.4166 47.4656 15.7357C47.9456 15.3896 48.3701 14.5511 48.3746 13.9401C48.3758 13.7631 48.4754 13.3505 48.5956 13.0233C49.1614 11.4841 50.5283 10.5815 51.7897 10.9143C52.9879 11.2303 53.8228 12.3358 54.1249 14.0057C54.3153 15.0585 54.6138 15.5743 55.2099 15.8807C56.0161 16.295 56.8597 15.9983 57.4478 15.0939L57.778 14.5861L57.8109 11.8875L57.8439 9.18896L62.3257 9.19189C66.4281 9.19455 66.8438 9.21517 67.2383 9.43558C67.7803 9.7384 68.3204 10.4856 68.4671 11.1356C68.6348 11.8785 68.6249 65.315 68.4569 66.1358C68.2964 66.9198 67.6144 67.8118 67.0224 68.0118C66.7189 68.1143 62.0554 68.1556 51.167 68.152C38.3483 68.1478 35.6715 68.1161 35.3264 67.9649ZM61.7804 59.926L65.7862 54.9988V34.0772C65.7862 13.3318 65.7844 13.1533 65.5712 12.8911C65.2948 12.5511 64.7726 12.5511 64.4963 12.8911C64.2832 13.1532 64.2812 13.3318 64.2812 33.6156V54.0758L60.654 58.5389L57.0266 63.0021H47.5398H38.0528V38.0787C38.0528 13.3318 38.0513 13.1537 37.8378 12.8911C37.5614 12.5511 37.0392 12.5511 36.7628 12.8911C36.5493 13.1537 36.5478 13.3318 36.5478 38.6797V64.204L36.8117 64.5285L37.0756 64.853H47.4251H57.7747L61.7804 59.926ZM44.3273 52.4319L45.1987 51.3815L46.0735 52.4319C47.0279 53.5775 47.2539 53.6797 47.6784 53.1577C48.1311 52.6008 48.0355 52.2475 47.1174 51.0871L46.2925 50.0445L47.1174 49.0021C47.7191 48.2414 47.9423 47.866 47.9423 47.6137C47.9423 47.1349 47.5883 46.7391 47.1602 46.7391C46.8651 46.7391 46.6792 46.8988 46.0098 47.7276L45.2114 48.7163L44.3856 47.7276C43.6977 46.9043 43.5006 46.7391 43.2065 46.7391C42.7515 46.7391 42.46 47.0687 42.46 47.583C42.46 47.9127 42.616 48.1822 43.2877 49.0134L44.1154 50.0373L43.2877 51.0836C42.6235 51.923 42.46 52.2092 42.46 52.5319C42.46 52.9802 42.8729 53.4822 43.2413 53.4822C43.3648 53.4822 43.8261 53.0362 44.3273 52.4319ZM62.0424 40.306C62.1668 40.1674 62.2389 39.9036 62.2389 39.5862C62.2389 38.6367 62.5028 38.6737 55.7319 38.6737C49.8128 38.6737 49.6984 38.6786 49.4674 38.9433C49.1706 39.2834 49.161 39.9085 49.4471 40.2603C49.6571 40.5186 49.8054 40.5248 55.754 40.5248C61.2715 40.5248 61.8643 40.5042 62.0424 40.306ZM45.9887 38.9723C47.9726 36.4189 48.6946 35.3773 48.6946 35.0683C48.6946 34.5318 48.4031 34.1783 47.9606 34.1783C47.5864 34.1783 47.4679 34.299 46.073 36.1015L44.5846 38.0248L43.9079 37.2254C43.1669 36.3501 42.8939 36.2513 42.4939 36.7136C42.0095 37.2731 42.1372 37.6663 43.2455 39.0297C44.6084 40.7061 44.6422 40.7054 45.9887 38.9723ZM44.3804 27.1124L45.1985 26.1284L46.0206 27.1124C46.6442 27.8587 46.9149 28.0963 47.142 28.0963C47.5598 28.0963 47.8347 27.7471 47.8347 27.2168C47.8347 26.8499 47.7047 26.6065 47.0682 25.7825L46.3019 24.79L47.122 23.7342C48.031 22.5639 48.1229 22.2243 47.6784 21.6777C47.2536 21.1551 47.0281 21.2576 46.0686 22.4093L45.1889 23.4656L44.6038 22.7955C43.1736 21.1575 43.0815 21.1057 42.6164 21.6777C42.1807 22.2136 42.2686 22.4999 43.2369 23.6971L44.1212 24.7906L43.2906 25.8183C42.4106 26.9073 42.3022 27.2314 42.6273 27.8024C42.7471 28.0127 42.9038 28.0963 43.1783 28.0963C43.5107 28.0963 43.6718 27.9643 44.3804 27.1124ZM62.0424 27.8775C62.2774 27.6157 62.3005 26.9284 62.0863 26.5679C61.9389 26.3198 61.7303 26.31 55.8495 26.275L49.7651 26.2388L49.4986 26.5665C49.1766 26.9626 49.1558 27.4736 49.4471 27.8318C49.6571 28.09 49.8054 28.0963 55.754 28.0963C61.2715 28.0963 61.8643 28.0756 62.0424 27.8775Z" fill="#FF0000"/>
<path d="M45.9214 14.0547C45.8271 13.9387 45.7925 12.8736 45.7925 10.0882V6.28027H50.9537H56.1151L56.0865 10.2138C56.0592 13.993 56.05 14.1472 55.8516 14.1472C55.6877 14.1472 55.6156 13.9874 55.5019 13.3717C54.8516 9.84998 51.8293 8.00754 49.2323 9.54976C48.0655 10.2426 47.0651 11.8785 46.9058 13.354C46.8664 13.7176 46.7813 14.0588 46.7165 14.1122C46.5324 14.264 46.0639 14.2301 45.9214 14.0547Z" fill="#AA0000"/>
<path d="M35.3285 67.8333C34.8505 67.6237 34.453 67.2027 34.1996 66.6378C34.036 66.273 34.0196 64.0528 33.9937 38.8918C33.9754 21.0672 34.0028 11.3723 34.0724 11.0541C34.1966 10.4869 34.7374 9.75321 35.2124 9.50764C35.4526 9.38343 36.7192 9.31095 39.8444 9.24256L44.1458 9.14844L44.2159 10.0611C44.2544 10.5631 44.2862 11.7285 44.2866 12.6509C44.2871 13.5734 44.3389 14.4956 44.4019 14.7003C44.7899 15.9637 46.321 16.5459 47.4261 15.8503C47.8804 15.5644 48.2668 14.8315 48.4374 13.9321C48.6265 12.9353 48.8901 12.3843 49.4699 11.7738C50.3226 10.876 51.4938 10.6858 52.4227 11.294C53.2776 11.8537 53.6755 12.4984 54.0176 13.878C54.3277 15.1287 54.5939 15.6191 55.1051 15.8819C55.9582 16.3203 56.9135 15.9967 57.5508 15.0534C57.8267 14.6452 57.8316 14.6015 57.8326 12.6074C57.8332 11.4907 57.8648 10.2569 57.903 9.86556L57.9725 9.15404L62.4437 9.25181C67.2955 9.35792 67.3164 9.36128 67.9041 10.1363C68.4659 10.8772 68.4429 10.2569 68.5104 26.5095C68.545 34.836 68.5387 47.1917 68.4966 53.9667L68.4198 66.2849L68.0974 66.8478C67.92 67.1575 67.5616 67.5493 67.3011 67.7185L66.8273 68.0262L51.2845 68.0204C38.401 68.0155 35.671 67.9835 35.3285 67.8333ZM61.8354 59.9945L65.7863 55.1361L65.7846 34.2449C65.7834 17.7218 65.7548 13.2846 65.6477 13.0231C65.5416 12.7639 65.4167 12.684 65.0682 12.6525C64.211 12.5753 64.2813 10.7059 64.2813 33.5788V53.9434L60.6003 58.4726L56.9191 63.0019H47.4859H38.0529L38.0512 38.1778C38.0499 18.4291 38.0218 13.2861 37.9137 13.0231C37.7993 12.7453 37.7016 12.6926 37.3004 12.6926C36.8991 12.6926 36.8013 12.7453 36.687 13.0231C36.5788 13.2862 36.5507 18.5492 36.5494 38.7973L36.5479 64.2409L36.7815 64.5469L37.0153 64.8529H47.4498H57.8843L61.8354 59.9945ZM44.3613 52.4971L45.2232 51.5121L45.5884 51.9844C46.1814 52.7512 46.9773 53.4821 47.2194 53.4821C47.544 53.4821 47.9423 52.9692 47.9423 52.5513C47.9423 52.1477 47.7113 51.7317 46.9406 50.7465L46.4039 50.0605L47.173 49.0474C47.781 48.2466 47.9423 47.9493 47.9423 47.6285C47.9423 47.0529 47.6709 46.7389 47.1734 46.7389C46.81 46.7389 46.6671 46.848 45.9808 47.6492L45.2011 48.5595L44.4118 47.6492C43.7489 46.8849 43.5624 46.7389 43.2491 46.7389C42.6576 46.7389 42.4601 46.9353 42.4601 47.5235C42.4601 47.9741 42.5501 48.1528 43.2232 49.0394L43.9862 50.0444L43.2232 51.0494C42.5873 51.8868 42.4601 52.1295 42.4601 52.5038C42.4601 53.0585 42.7781 53.4821 43.1946 53.4821C43.4248 53.4821 43.7101 53.2411 44.3613 52.4971ZM62.064 40.355C62.2092 40.2244 62.2449 40.0353 62.219 39.5339C62.1896 38.9681 62.1499 38.8706 61.9164 38.7912C61.7687 38.741 58.9617 38.6941 55.6789 38.6868C48.9612 38.672 49.2321 38.6336 49.2321 39.5992C49.2321 40.5643 48.9506 40.5246 55.7927 40.5246C60.5728 40.5246 61.9157 40.4883 62.064 40.355ZM45.2655 39.9369C45.6774 39.5136 47.806 36.7253 48.2828 35.9842C48.9325 34.975 48.79 34.1781 47.96 34.1781C47.593 34.1781 47.4505 34.3168 46.0684 36.0202L44.5738 37.8622L43.9229 37.1378C43.3643 36.5161 43.22 36.4189 42.9037 36.4527C42.6521 36.4796 42.4671 36.6047 42.3205 36.8472C42.1264 37.1682 42.12 37.2444 42.253 37.6404C42.4272 38.1593 43.919 40.0631 44.2945 40.2458C44.6163 40.4025 44.9004 40.3121 45.2655 39.9369ZM44.4118 27.1875L45.2028 26.2787L45.9914 27.1875C46.6405 27.9352 46.8435 28.0961 47.1384 28.0961C47.593 28.0961 47.8348 27.8005 47.8348 27.245C47.8348 26.771 47.6329 26.3847 46.8806 25.4184L46.3913 24.7901L46.9343 24.0963C48.0084 22.724 48.1592 22.249 47.7085 21.6589C47.2769 21.0938 46.9317 21.261 45.8427 22.5626L45.1944 23.3375L44.2984 22.3566C43.8057 21.8171 43.3101 21.346 43.1972 21.3097C43.074 21.27 42.8642 21.3758 42.6722 21.5745C42.1414 22.1238 42.226 22.4875 43.1711 23.7235L43.9898 24.7939L43.2249 25.7843C42.6185 26.5695 42.4601 26.8586 42.4601 27.1796C42.4601 27.8771 42.6254 28.0961 43.1517 28.0961C43.5831 28.0961 43.6841 28.0233 44.4118 27.1875ZM62.0311 27.9592C62.3039 27.7795 62.3249 26.7619 62.0613 26.4927C61.9171 26.3454 60.7467 26.2986 55.8536 26.245L49.8234 26.1789L49.5278 26.5012C49.3195 26.7283 49.2321 26.9505 49.2321 27.2538C49.2321 28.1214 49.0353 28.0961 55.7665 28.0961C59.7359 28.0961 61.8947 28.0489 62.0311 27.9592Z" fill="#C83737"/>
<path d="M45.0853 67.8965L35.295 67.828L34.8981 67.4556C34.6798 67.2508 34.4176 66.9263 34.3153 66.7343C34.1408 66.4069 34.1275 64.6905 34.0984 38.878C34.0813 23.7489 34.0941 11.2378 34.1268 11.0755C34.2061 10.6823 34.7848 9.88442 35.1674 9.64108C35.4123 9.48531 36.3412 9.41952 39.7379 9.31735C42.0826 9.24683 44.0282 9.22264 44.0615 9.26359C44.0948 9.30455 44.1629 10.5094 44.2127 11.941C44.3205 15.0348 44.3849 15.2763 45.2508 15.8328C45.9585 16.2874 46.7033 16.3179 47.3725 15.9195C47.8894 15.6116 48.271 14.9343 48.4823 13.9496C48.672 13.0655 48.9572 12.4546 49.407 11.9687C50.4542 10.8378 51.7006 10.7338 52.7944 11.686C53.3231 12.1461 53.5962 12.6698 53.9874 13.9729C54.3992 15.3452 54.5296 15.5925 54.9788 15.8547C55.763 16.3123 56.8886 16.0245 57.5093 15.2075C57.7468 14.895 57.7861 14.6973 57.8473 13.5089C57.8854 12.7691 57.9223 11.5689 57.9295 10.8417C57.9368 10.1145 57.9796 9.44776 58.025 9.36003C58.1267 9.16321 66.4758 9.36649 67.081 9.58056C67.2906 9.65465 67.6197 9.91543 67.8125 10.16C68.0947 10.5183 68.1874 10.7821 68.2885 11.5166C68.3815 12.1909 68.4149 19.4227 68.417 39.28L68.42 66.1318L68.1026 66.695C67.927 67.0068 67.543 67.4291 67.2427 67.641L66.7001 68.0239L60.7879 67.9945C57.5361 67.9782 50.47 67.9341 45.0853 67.8965ZM61.892 60.0572L65.7901 55.2613L65.7614 34.1471C65.7294 10.7469 65.7987 12.7417 65.0128 12.5713C64.672 12.4974 64.5956 12.5282 64.4753 12.7873C64.3621 13.0313 64.3294 17.0065 64.3058 33.4511L64.2762 53.8129L60.544 58.4074L56.8117 63.0021H47.4323H38.053L38.0513 38.178C38.05 18.4941 38.0218 13.2855 37.9144 13.0233C37.809 12.7656 37.683 12.6841 37.3423 12.6532C36.5355 12.58 36.6048 10.2295 36.5737 38.7153C36.5478 62.4899 36.5589 64.3844 36.7248 64.6098C36.8963 64.8429 37.3464 64.8531 47.4489 64.8531H57.9942L61.892 60.0572ZM44.3804 52.5646L45.227 51.6469L45.5367 52.0448C46.1101 52.7819 46.9336 53.4823 47.2268 53.4823C47.6235 53.4823 47.9423 53.0496 47.9423 52.5109C47.9423 52.1574 47.801 51.8645 47.2401 51.0559L46.5378 50.0435L47.2401 49.053C47.8121 48.2463 47.9423 47.9784 47.9423 47.6086C47.9423 47.0138 47.704 46.7391 47.1878 46.7391C46.8472 46.7391 46.6571 46.856 46.1474 47.3785C45.8044 47.7302 45.459 48.1145 45.3799 48.2325C45.2509 48.4247 45.1527 48.3578 44.4398 47.5932C43.7251 46.8265 43.5963 46.7391 43.1809 46.7391C42.6115 46.7391 42.4602 46.9114 42.4602 47.5595C42.4602 47.9899 42.5618 48.2062 43.1628 49.0536L43.8655 50.0446L43.1628 51.0356C42.5711 51.8701 42.4602 52.1033 42.4602 52.5127C42.4602 53.1368 42.7148 53.4823 43.1749 53.4823C43.4659 53.4823 43.6937 53.3089 44.3804 52.5646ZM62.0311 40.388C62.1935 40.281 62.239 40.1084 62.239 39.5994C62.239 39.0902 62.1935 38.9176 62.0311 38.8106C61.8024 38.6601 50.1756 38.6407 49.6084 38.7899C49.2978 38.8717 49.286 38.9011 49.286 39.6006C49.286 40.3265 49.286 40.3265 49.6622 40.4083C50.3391 40.5553 61.8054 40.5365 62.0311 40.388ZM45.0185 40.2039C45.4644 39.914 48.0941 36.5122 48.4908 35.7121C48.7211 35.2475 48.7579 34.5734 48.5659 34.3371C48.4949 34.2497 48.2294 34.1783 47.9759 34.1783C47.5297 34.1783 47.4673 34.2351 46.0356 35.9447L44.5563 37.7109L43.9331 37.0685C43.2214 36.3349 42.7983 36.2377 42.3864 36.7136C41.901 37.2745 42.1536 37.901 43.5098 39.5001C44.3019 40.4342 44.5129 40.5326 45.0185 40.2039ZM44.4228 27.2605L45.2019 26.4247L45.9801 27.2605C46.6432 27.9728 46.8187 28.0963 47.1675 28.0963C47.6906 28.0963 47.8349 27.9101 47.8349 27.235C47.8349 26.7625 47.7494 26.5661 47.1857 25.7423L46.5366 24.7938L47.2395 23.7805C47.7793 23.0022 47.9423 22.6713 47.9423 22.354C47.9423 21.3101 47.1986 21.0177 46.4681 21.7746C46.2442 22.0064 45.8636 22.4256 45.6221 22.7063L45.1829 23.2164L44.2361 22.2187C43.7153 21.6699 43.2501 21.2209 43.2022 21.2209C42.9642 21.2209 42.5356 21.5745 42.4091 21.8755C42.2113 22.3463 42.3611 22.7248 43.1999 23.8725L43.8861 24.8112L43.4609 25.3629C42.6353 26.4343 42.4602 26.771 42.4602 27.2867C42.4602 27.9239 42.6136 28.0963 43.1809 28.0963C43.5953 28.0963 43.7251 28.0089 44.4228 27.2605ZM62.133 27.8958C62.3015 27.646 62.3106 26.6771 62.1464 26.4751C62.0225 26.3228 56.9225 26.1445 52.0696 26.1231L49.8011 26.113L49.5106 26.4443C49.2678 26.7209 49.2254 26.8679 49.253 27.3361C49.2827 27.8394 49.3191 27.9053 49.6084 27.9808C49.7858 28.0271 52.646 28.0721 55.9643 28.0806C61.2363 28.0943 62.0148 28.0709 62.133 27.8958Z" fill="#C83737"/>
<path d="M45.9732 13.9883C45.9433 13.9288 45.8834 12.1703 45.8402 10.0803L45.7615 6.28048L50.9097 6.28037L56.0579 6.28027L56.0294 9.88334C55.9927 14.503 55.9298 14.8667 55.4817 13.0569C55.0944 11.4927 54.2871 10.2651 53.1801 9.5572C50.6641 7.94837 47.6267 9.65639 46.898 13.0897C46.7112 13.9698 46.6849 14.0173 46.3645 14.0558C46.1791 14.0781 46.003 14.0477 45.9732 13.9883Z" fill="#C83737"/>
</g>
</g>
<defs>
<clipPath id="clip0_5_299">
<rect width="70" height="70" fill="white"/>
</clipPath>
</defs>
</svg>
