<svg width="70" height="50" viewBox="0 0 70 50" fill="none" xmlns="http://www.w3.org/2000/svg">
<g clip-path="url(#clip0_4_148)">
<path d="M27.2456 50.0002C24.1612 50.0002 21.5908 45.968 21.5908 41.1293C21.5908 36.2906 24.1612 32.2583 27.2456 32.2583C30.33 32.2583 32.9003 36.2906 32.9003 41.1293C32.9003 45.968 30.33 50.0002 27.2456 50.0002ZM27.2456 35.4841C25.2921 35.4841 23.6471 38.0648 23.6471 41.1293C23.6471 44.1938 25.2921 46.7744 27.2456 46.7744C29.199 46.7744 30.844 44.1938 30.844 41.1293C30.844 38.0648 29.199 35.4841 27.2456 35.4841Z" fill="black"/>
<path d="M27.2456 43.5487C26.4231 43.5487 25.7034 42.4196 25.7034 41.1293C25.7034 39.839 26.4231 38.71 27.2456 38.71C28.0681 38.71 28.7878 39.839 28.7878 41.1293C28.7878 42.4196 28.0681 43.5487 27.2456 43.5487ZM27.2456 40.3229C26.9371 40.3229 26.7315 40.6454 26.7315 41.1293C26.7315 41.6132 26.9371 41.9358 27.2456 41.9358C27.554 41.9358 27.7596 41.6132 27.7596 41.1293C27.7596 40.6454 27.554 40.3229 27.2456 40.3229Z" fill="black"/>
<path d="M65.6978 41.9355H62.7162V38.7097H65.6978C66.3147 38.5484 67.6512 35 67.8569 33.5484C68.2681 30.9677 67.754 29.0322 67.3428 28.0645C66.7259 26.6129 66.0062 25.9677 65.595 25.9677C64.3612 25.6451 62.4077 25 60.4543 24.5161C57.9868 23.7097 54.7996 22.9032 54.3883 22.7419V19.5161C54.6967 19.5161 55.7249 19.8387 60.7627 21.2903C62.7162 21.9355 64.6696 22.4193 65.9034 22.7419C67.0343 23.0645 68.1653 24.5161 68.9878 26.2903C69.7075 27.9032 70.3244 30.6451 69.8103 34.3548C69.7075 35.4839 67.9597 41.9355 65.6978 41.9355Z" fill="black"/>
<path d="M22.619 41.9355H19.5346C16.6558 41.9355 14.3939 38.3871 14.3939 33.871V27.4194C14.3939 22.9033 16.6558 19.3549 19.5346 19.3549H24.0584L26.1147 12.742C27.3484 8.87101 29.9188 6.45166 32.6947 6.45166H45.9577C48.4252 6.45166 50.6871 8.38714 52.0236 11.7742L55.3137 20.1613L53.5658 21.9355L50.2758 13.5484C49.3505 11.1291 47.7055 9.67747 45.9577 9.67747H32.6947C30.6384 9.67747 28.8906 11.4517 27.9653 14.1936L25.2921 22.5807H19.5346C17.7868 22.5807 16.4502 24.6775 16.4502 27.4194V33.871C16.4502 36.613 17.7868 38.7097 19.5346 38.7097H22.619V41.9355Z" fill="black"/>
<path d="M58.0896 50.0002C55.0051 50.0002 52.4348 45.968 52.4348 41.1293C52.4348 36.2906 55.0051 32.2583 58.0896 32.2583C61.174 32.2583 63.7443 36.2906 63.7443 41.1293C63.7443 45.968 61.174 50.0002 58.0896 50.0002ZM58.0896 35.4841C56.1361 35.4841 54.4911 38.0648 54.4911 41.1293C54.4911 44.1938 56.1361 46.7744 58.0896 46.7744C60.043 46.7744 61.688 44.1938 61.688 41.1293C61.688 38.0648 60.043 35.4841 58.0896 35.4841Z" fill="black"/>
<path d="M58.0896 43.5487C57.2671 43.5487 56.5474 42.4196 56.5474 41.1293C56.5474 39.839 57.2671 38.71 58.0896 38.71C58.9121 38.71 59.6318 39.839 59.6318 41.1293C59.6318 42.4196 58.9121 43.5487 58.0896 43.5487ZM58.0896 40.3229C57.7811 40.3229 57.5755 40.6454 57.5755 41.1293C57.5755 41.6132 57.7811 41.9358 58.0896 41.9358C58.398 41.9358 58.6036 41.6132 58.6036 41.1293C58.6036 40.6454 58.398 40.3229 58.0896 40.3229Z" fill="black"/>
<path d="M42.1536 14.5163V19.355H54.4912V22.5809H40.0973V11.2905H50.3786V14.5163H42.1536Z" fill="black"/>
<path d="M41.1254 22.5809H31.7694C30.9469 22.5809 30.33 21.9357 29.9188 20.8067C29.5075 19.6776 29.5075 18.3873 29.9188 17.4196L31.461 13.3873C31.9751 12.097 32.9004 11.2905 33.8257 11.2905H41.1254V14.5163H33.8257C33.6201 14.5163 33.3116 14.6776 33.2088 15.0002L31.6666 19.0325L31.7694 19.1938H41.1254V22.5809Z" fill="black"/>
<path d="M52.4349 38.7095H31.8722V41.9353H52.4349V38.7095Z" fill="black"/>
<path d="M18.5065 25.8066H15.4221V29.0324H18.5065V25.8066Z" fill="black"/>
<path d="M68.8851 29.0322H64.7726V32.258H68.8851V29.0322Z" fill="black"/>
<path d="M39.0691 27.4194H37.0128V30.6452H39.0691V27.4194Z" fill="black"/>
<path d="M41.1254 30.645H39.0691V33.8708H41.1254V30.645Z" fill="black"/>
<path d="M43.1816 27.4194H41.1254V30.6452H43.1816V27.4194Z" fill="black"/>
<path d="M47.2943 27.4194H45.238V30.6452H47.2943V27.4194Z" fill="black"/>
<path d="M45.2379 30.645H43.1816V33.8708H45.2379V30.645Z" fill="black"/>
<path d="M46.2661 8.06452H44.2098V4.83871C44.2098 4.03226 43.6957 3.22581 42.976 3.22581H37.2185C36.6016 3.22581 35.9847 3.87097 35.9847 4.83871V8.06452H33.9285V4.83871C33.9285 2.25806 35.3679 0 37.2185 0H42.976C44.8267 0 46.2661 2.09677 46.2661 4.83871V8.06452Z" fill="black"/>
<path d="M11.3094 29.0322H5.14062V32.258H11.3094V29.0322Z" fill="black"/>
<path d="M9.25321 20.9678H0V24.1936H9.25321V20.9678Z" fill="black"/>
<path d="M19.5345 12.9033H5.14062V16.1291H19.5345V12.9033Z" fill="black"/>
<path d="M52.4769 38.9415C52.4736 38.7455 50.4184 38.6938 42.6328 38.6938H32.7928L32.4064 37.3984C31.9487 35.8639 30.8763 34.0205 30.0122 33.2827C29.2411 32.6243 28.1019 32.155 27.2747 32.155C25.0982 32.155 22.928 34.3476 22.0869 37.3964L21.7172 38.7363L20.263 38.6564C18.5813 38.564 17.8738 38.1641 17.2295 36.9423C16.6503 35.8438 16.4755 34.6333 16.4755 31.7228V29.1828H17.554H18.6325L18.596 27.4491L18.5595 25.7153L17.6434 25.6571L16.7273 25.5988L16.9059 25.0626C17.1335 24.3792 17.6784 23.5848 18.2437 23.1125C18.637 22.7839 19.0559 22.7364 22.0379 22.6821L25.3899 22.621L26.8741 17.9591C28.5137 12.8094 28.9698 11.8316 30.2129 10.8021C31.4782 9.75426 31.695 9.73141 39.7158 9.80025L47.1048 9.86367L47.9258 10.4581L48.7467 11.0525L40.9158 11.1516C33.1936 11.2493 33.0777 11.2566 32.5795 11.6784C31.8647 12.2835 31.5359 12.91 30.5127 15.6168C29.6953 17.7793 29.6113 18.1006 29.6113 19.0669C29.6113 20.2926 30.0079 21.5563 30.585 22.1701C30.9228 22.5293 31.4294 22.5493 42.684 22.6482L54.4305 22.7514L57.5251 23.6986C59.227 24.2196 61.8287 24.9933 63.3066 25.4181C65.3091 25.9937 66.0922 26.3006 66.3807 26.6229C66.7655 27.0526 67.5033 28.4943 67.5033 28.8163C67.5033 28.9089 66.878 28.9847 66.1139 28.9847H64.7245V30.6689V32.3532H66.3034C67.7879 32.3532 67.8822 32.3764 67.8822 32.742C67.8822 33.848 66.7675 37.139 66.0294 38.2121C65.7351 38.6401 65.5837 38.6938 64.6727 38.6938H63.6472L63.2446 37.3383C62.2573 34.0137 59.9615 31.9105 57.6512 32.214C55.4288 32.5059 53.4224 34.9138 52.7117 38.1418C52.5848 38.7179 52.4792 39.0777 52.4769 38.9415ZM41.2315 32.3532V30.768H42.1788H43.1261V32.3532V33.9383H44.1997H45.2733V32.3532V30.768H46.2838H47.2942V29.0838V27.3995H46.2206H45.147V28.9847V30.5699H44.1997H43.2524V28.9847V27.3995H42.1788H41.1052V28.9847V30.5699H40.0948H39.0843V28.9847V27.3995H38.0107H36.9371V29.0838V30.768H37.9476H38.958V32.3532V33.9383H40.0948H41.2315V32.3532Z" fill="#C83737"/>
<path d="M25.8224 46.0952C23.1452 44.1083 23.0307 38.508 25.622 36.2955C26.9156 35.191 28.3716 35.4477 29.478 36.9755C30.3293 38.1511 30.7379 39.4959 30.7359 41.1153C30.7338 42.7154 30.5013 43.5915 29.7392 44.8696C28.6613 46.6774 27.2162 47.1296 25.8224 46.0952ZM27.8334 43.418C29.2068 42.5178 29.1114 39.3637 27.6923 38.749C26.6312 38.2894 25.6392 39.4959 25.6407 41.2443C25.6414 42.0435 26.0791 43.0705 26.5584 43.3974C27.0787 43.7522 27.3176 43.7561 27.8334 43.418Z" fill="#1A1A1A"/>
<path d="M57.0529 46.3895C54.8964 45.128 53.9738 41.5505 55.0243 38.5226C56.1573 35.257 58.8726 34.6433 60.5494 37.2739C61.2544 38.3798 61.5657 39.5563 61.5657 41.115C61.5657 43.2609 60.8375 45.0915 59.5853 46.0936C58.9167 46.6288 57.7042 46.7704 57.0529 46.3895ZM58.7074 43.414C60.0873 42.2945 59.9326 39.351 58.4611 38.7294C57.1747 38.186 56.0394 40.4578 56.6823 42.2886C56.9397 43.0214 57.6039 43.6909 58.0736 43.6909C58.2345 43.6909 58.5197 43.5663 58.7074 43.414Z" fill="#1A1A1A"/>
</g>
<defs>
<clipPath id="clip0_4_148">
<rect width="70" height="50" fill="white"/>
</clipPath>
</defs>
</svg>
