<svg width="250" height="75" viewBox="0 0 250 75" fill="none" xmlns="http://www.w3.org/2000/svg">
<g clip-path="url(#clip0_17_2)">
<mask id="mask0_17_2" style="mask-type:luminance" maskUnits="userSpaceOnUse" x="0" y="0" width="250" height="75">
<path d="M0.5 0.5H249.5V74.5H0.5V0.5Z" fill="white" stroke="white"/>
</mask>
<g mask="url(#mask0_17_2)">
<mask id="mask1_17_2" style="mask-type:luminance" maskUnits="userSpaceOnUse" x="9" y="0" width="241" height="45">
<path d="M250 0H9.61536V44.1176H250V0Z" fill="white"/>
</mask>
<g mask="url(#mask1_17_2)">
<path d="M118.651 0.781424C98.5861 3.35509 81.2615 12.3653 64.2316 19.7682C24.8845 24.0582 9.61536 44.1176 9.61536 44.1176C36.9234 19.7682 86.4503 23.4144 86.4503 23.4144C86.4503 23.4144 74.5082 21.3771 71.083 20.0894C71.083 20.0894 97.7056 9.1478 114.539 5.71678C131.375 2.28418 147.133 2.92642 170.426 9.68406C170.426 9.68406 152.551 18.5819 138.422 19.4456C157.702 20.4106 193.723 8.8267 193.723 8.8267C177.423 3.63826 152.387 0 132.714 0C127.577 0 122.805 0.248343 118.651 0.781424ZM130.982 26.3107C193.723 22.0604 236.223 1.85392 248.888 42.1878C251.199 27.8119 241.486 17.6218 241.486 17.6218C241.486 17.6218 248.141 16.4416 250 13.3318C241.582 15.7979 211.829 13.868 202.604 11.0792C189.856 18.1596 157.104 23.6707 130.982 26.3107Z" fill="url(#paint0_linear_17_2)"/>
<mask id="mask2_17_2" style="mask-type:luminance" maskUnits="userSpaceOnUse" x="-55" y="-57" width="369" height="225">
<path d="M-54.303 -56.8027H313.92V167.396H-54.303V-56.8027Z" fill="white"/>
</mask>
<g mask="url(#mask2_17_2)">
<path d="M42.0474 40.1483C46.2476 33.9759 54.0388 29.8267 62.963 29.8267C71.9492 29.8267 79.7865 34.0359 83.9651 40.2795H78.3159C74.4101 35.2255 67.726 31.8911 60.1325 31.8911C52.6042 31.8911 45.9676 35.1655 42.0474 40.1483Z" fill="#AB222B"/>
<path d="M182.747 36.9538C187.306 30.7815 195.764 26.6338 205.454 26.6338C215.213 26.6338 223.723 30.8415 228.26 37.085H222.125C217.885 32.031 210.627 28.6966 202.383 28.6966C194.21 28.6966 187.003 31.9725 182.747 36.9538Z" fill="#AB222B"/>
</g>
</g>
</g>
<g filter="url(#filter0_d_17_2)">
<path d="M21.0268 64H15.4268L22.7908 46.5H31.0228L32.2548 64H26.6268L26.5148 61.228H22.1188L21.0268 64ZM26.0948 56.776V51.876H25.8148L23.8548 56.776H26.0948ZM14.5308 63.888L3.05078 62.656H15.0628L14.5308 63.888ZM15.6788 61.172L4.19878 59.94H16.2108L15.6788 61.172ZM16.8268 58.484L5.34678 57.252H17.3308L16.8268 58.484ZM17.9468 55.796L6.49478 54.564H18.4788L17.9468 55.796ZM19.0948 53.108L7.64278 51.876H19.5988L19.0948 53.108ZM21.3628 47.704L9.93878 46.5H21.8668L21.3628 47.704ZM20.2148 50.392L8.79078 49.188H20.7188L20.2148 50.392ZM21.3628 47.704L21.8668 46.5H9.93878L21.3628 47.704ZM49.2672 49.188C51.9925 49.188 53.3552 50.42 53.3552 52.884C53.3552 54.004 53.1312 55.1707 52.6832 56.384C52.2352 57.5787 51.4792 58.4747 50.4152 59.072L52.0112 64H46.7752L45.7112 59.688H45.0392L44.2832 64H39.5792L42.1552 49.188H49.2672ZM48.2312 54.032C48.2312 54.0133 48.2405 53.92 48.2592 53.752C48.2592 53.4347 47.7645 53.276 46.7752 53.276H46.1592L45.7112 55.852H46.6072C47.4659 55.852 47.9512 55.572 48.0632 55.012L48.2312 54.032ZM38.6552 63.916L26.7832 62.656H38.8792L38.6552 63.916ZM39.6072 58.512L27.7352 57.252H39.8312L39.6072 58.512ZM40.0832 55.824L28.2112 54.564H40.3072L40.0832 55.824ZM40.5592 53.136L28.6872 51.876H40.7832L40.5592 53.136ZM41.0352 50.448L29.1632 49.188H41.2312L41.0352 50.448ZM39.1312 61.2L27.2592 59.94H39.3552L39.1312 61.2ZM71.6029 53.388H68.5789L66.7309 64H61.8029L63.6509 53.388H60.5429L61.2989 49.188H72.3589L71.6029 53.388ZM60.9629 63.916L49.0909 62.656H61.1869L60.9629 63.916ZM61.9149 58.512L50.0429 57.252H62.1389L61.9149 58.512ZM62.3909 55.824L50.5189 54.564H62.6149L62.3909 55.824ZM59.7029 53.136L47.8309 51.876H59.9269L59.7029 53.136ZM60.1789 50.448L48.3069 49.188H60.3749L60.1789 50.448ZM61.4389 61.2L49.5669 59.94H61.6629L61.4389 61.2ZM77.2322 58.512L65.3602 57.252H77.4562L77.2322 58.512ZM77.7082 55.824L65.8362 54.564H77.9322L77.7082 55.824ZM78.1842 53.136L66.3122 51.876H78.4082L78.1842 53.136ZM78.6602 50.448L66.7882 49.188H78.8562L78.6602 50.448ZM77.1202 59.94V60.5C77.1202 60.8173 77.1295 61.0507 77.1482 61.2L65.2762 59.94H77.1202ZM78.2122 63.916L66.3402 62.656H77.4002C77.6055 63.1787 77.8762 63.5987 78.2122 63.916ZM83.9522 60.08C84.4562 60.08 84.8015 60.024 84.9882 59.912C85.1935 59.7813 85.3335 59.4827 85.4082 59.016L87.1722 49.188H91.8762L90.4202 57.532C89.9722 60.1453 89.2442 61.9373 88.2362 62.908C87.2469 63.86 85.5482 64.336 83.1402 64.336C81.2175 64.336 79.8735 64.056 79.1082 63.496C78.3429 62.9173 77.9602 61.9187 77.9602 60.5C77.9602 59.716 78.0629 58.7267 78.2682 57.532L79.7522 49.188H84.4562L82.5522 60.08H83.9522ZM107.236 49.188C109.961 49.188 111.324 50.42 111.324 52.884C111.324 54.004 111.1 55.1707 110.652 56.384C110.204 57.5787 109.448 58.4747 108.384 59.072L109.98 64H104.744L103.68 59.688H103.008L102.252 64H97.5479L100.124 49.188H107.236ZM106.2 54.032C106.2 54.0133 106.209 53.92 106.228 53.752C106.228 53.4347 105.733 53.276 104.744 53.276H104.128L103.68 55.852H104.576C105.435 55.852 105.92 55.572 106.032 55.012L106.2 54.032ZM96.6239 63.916L84.7519 62.656H96.8479L96.6239 63.916ZM97.5759 58.512L85.7039 57.252H97.7999L97.5759 58.512ZM98.0519 55.824L86.1799 54.564H98.2759L98.0519 55.824ZM98.5279 53.136L86.6559 51.876H98.7519L98.5279 53.136ZM99.0039 50.448L87.1319 49.188H99.1999L99.0039 50.448ZM97.0999 61.2L85.2279 59.94H97.3239L97.0999 61.2ZM122.992 64H117.392L124.756 46.5H132.988L134.22 64H128.592L128.48 61.228H124.084L122.992 64ZM128.06 56.776V51.876H127.78L125.82 56.776H128.06ZM116.496 63.888L105.016 62.656H117.028L116.496 63.888ZM117.644 61.172L106.164 59.94H118.176L117.644 61.172ZM118.792 58.484L107.312 57.252H119.296L118.792 58.484ZM119.912 55.796L108.46 54.564H120.444L119.912 55.796ZM121.06 53.108L109.608 51.876H121.564L121.06 53.108ZM123.328 47.704L111.904 46.5H123.832L123.328 47.704ZM122.18 50.392L110.756 49.188H122.684L122.18 50.392ZM123.328 47.704L123.832 46.5H111.904L123.328 47.704ZM141.572 58.512L129.7 57.252H141.796L141.572 58.512ZM142.048 55.824L130.176 54.564H142.272L142.048 55.824ZM142.524 53.136L130.652 51.876H142.748L142.524 53.136ZM143 50.448L131.128 49.188H143.196L143 50.448ZM141.46 59.94V60.5C141.46 60.8173 141.469 61.0507 141.488 61.2L129.616 59.94H141.46ZM142.552 63.916L130.68 62.656H141.74C141.945 63.1787 142.216 63.5987 142.552 63.916ZM148.292 60.08C148.796 60.08 149.141 60.024 149.328 59.912C149.533 59.7813 149.673 59.4827 149.748 59.016L151.512 49.188H156.216L154.76 57.532C154.312 60.1453 153.584 61.9373 152.576 62.908C151.587 63.86 149.888 64.336 147.48 64.336C145.557 64.336 144.213 64.056 143.448 63.496C142.683 62.9173 142.3 61.9187 142.3 60.5C142.3 59.716 142.403 58.7267 142.608 57.532L144.092 49.188H148.796L146.892 60.08H148.292ZM173.732 53.388H170.708L168.86 64H163.932L165.78 53.388H162.672L163.428 49.188H174.488L173.732 53.388ZM163.092 63.916L151.22 62.656H163.316L163.092 63.916ZM164.044 58.512L152.172 57.252H164.268L164.044 58.512ZM164.52 55.824L152.648 54.564H164.744L164.52 55.824ZM161.832 53.136L149.96 51.876H162.056L161.832 53.136ZM162.308 50.448L150.436 49.188H162.504L162.308 50.448ZM163.568 61.2L151.696 59.94H163.792L163.568 61.2ZM187.873 48.908C189.889 48.908 191.326 49.3 192.185 50.084C193.044 50.8493 193.473 52.0533 193.473 53.696C193.473 54.4987 193.37 55.4693 193.165 56.608C192.698 59.296 191.877 61.256 190.701 62.488C189.525 63.72 187.677 64.336 185.157 64.336C183.178 64.336 181.769 63.9533 180.929 63.188C180.089 62.404 179.669 61.2 179.669 59.576C179.669 58.736 179.772 57.7467 179.977 56.608C180.444 53.92 181.256 51.9693 182.413 50.756C183.57 49.524 185.39 48.908 187.873 48.908ZM185.969 60.08C186.51 60.08 186.912 60.0147 187.173 59.884C187.453 59.7533 187.64 59.464 187.733 59.016L188.797 53.164H187.089C186.566 53.164 186.156 53.2293 185.857 53.36C185.577 53.4907 185.409 53.7707 185.353 54.2L184.317 60.08H185.969ZM178.997 57.252C178.922 57.8307 178.876 58.2227 178.857 58.428L167.825 57.252H178.997ZM179.529 54.564L179.277 55.74L168.329 54.564H179.529ZM178.829 59.94C178.829 60.2387 178.866 60.6307 178.941 61.116L167.937 59.94H178.829ZM180.509 51.876C180.285 52.3613 180.126 52.7347 180.033 52.996L169.449 51.876H180.509ZM179.417 62.656C179.641 63.104 179.884 63.4493 180.145 63.692L170.373 62.656H179.417ZM182.945 49.188C182.497 49.4493 182.114 49.7573 181.797 50.112L173.201 49.188H182.945ZM196.883 59.94C196.771 60.3133 196.687 60.7333 196.631 61.2L190.415 59.94H196.883ZM196.827 63.916L190.555 62.656H196.519C196.557 63.1973 196.659 63.6173 196.827 63.916ZM197.471 61.228C197.658 60.1267 197.985 59.352 198.451 58.904C198.937 58.456 199.693 58.232 200.719 58.232C201.765 58.232 202.465 58.372 202.819 58.652C203.193 58.932 203.379 59.3333 203.379 59.856C203.379 60.3787 203.342 60.836 203.267 61.228C203.081 62.3293 202.745 63.0947 202.259 63.524C201.793 63.9533 201.037 64.168 199.991 64.168C198.965 64.168 198.265 64.0373 197.891 63.776C197.537 63.496 197.359 63.104 197.359 62.6C197.359 62.0773 197.397 61.62 197.471 61.228ZM219.373 49.188C222.098 49.188 223.461 50.42 223.461 52.884C223.461 54.004 223.237 55.1707 222.789 56.384C222.341 57.5787 221.585 58.4747 220.521 59.072L222.117 64H216.881L215.817 59.688H215.145L214.389 64H209.685L212.261 49.188H219.373ZM218.337 54.032C218.337 54.0133 218.346 53.92 218.365 53.752C218.365 53.4347 217.87 53.276 216.881 53.276H216.265L215.817 55.852H216.713C217.571 55.852 218.057 55.572 218.169 55.012L218.337 54.032ZM208.761 63.916L196.889 62.656H208.985L208.761 63.916ZM209.713 58.512L197.841 57.252H209.937L209.713 58.512ZM210.189 55.824L198.317 54.564H210.413L210.189 55.824ZM210.665 53.136L198.793 51.876H210.889L210.665 53.136ZM211.141 50.448L199.269 49.188H211.337L211.141 50.448ZM209.237 61.2L197.365 59.94H209.461L209.237 61.2ZM230.302 58.12L217.582 56.77H230.542L230.302 58.12ZM230.812 55.24L218.092 53.89H231.052L230.812 55.24ZM231.322 52.36L218.602 51.01H231.562L231.322 52.36ZM231.832 49.48L219.112 48.13H232.042L231.832 49.48ZM230.182 59.65V60.25C230.182 60.59 230.192 60.84 230.212 61L217.492 59.65H230.182ZM231.352 63.91L218.632 62.56H230.482C230.702 63.12 230.992 63.57 231.352 63.91ZM237.502 59.8C238.042 59.8 238.412 59.74 238.612 59.62C238.832 59.48 238.982 59.16 239.062 58.66L240.952 48.13H245.992L244.432 57.07C243.952 59.87 243.172 61.79 242.092 62.83C241.032 63.85 239.212 64.36 236.632 64.36C234.572 64.36 233.132 64.06 232.312 63.46C231.492 62.84 231.082 61.77 231.082 60.25C231.082 59.41 231.192 58.35 231.412 57.07L233.002 48.13H238.042L236.002 59.8H237.502ZM82.9506 91.728L69.3826 90.288H83.2066L82.9506 91.728ZM83.4946 88.656L69.9266 87.216H83.7506L83.4946 88.656ZM84.0386 85.584L70.4706 84.144H84.2946L84.0386 85.584ZM84.5826 82.512L71.0146 81.072H84.8066L84.5826 82.512ZM82.8226 93.36V94C82.8226 94.3627 82.8333 94.6293 82.8546 94.8L69.2866 93.36H82.8226ZM84.0706 97.904L70.5026 96.464H83.1426C83.3773 97.0613 83.6866 97.5413 84.0706 97.904ZM90.6306 93.52C91.2066 93.52 91.6013 93.456 91.8146 93.328C92.0493 93.1787 92.2093 92.8373 92.2946 92.304L94.3106 81.072H99.6866L98.0226 90.608C97.5106 93.5947 96.6786 95.6427 95.5266 96.752C94.396 97.84 92.4546 98.384 89.7026 98.384C87.5053 98.384 85.9693 98.064 85.0946 97.424C84.22 96.7627 83.7826 95.6213 83.7826 94C83.7826 93.104 83.9 91.9733 84.1346 90.608L85.8306 81.072H91.2066L89.0306 93.52H90.6306ZM106.201 91.728L92.6326 90.288H106.457L106.201 91.728ZM106.745 88.656L93.1766 87.216H107.001L106.745 88.656ZM107.289 85.584L93.7206 84.144H107.545L107.289 85.584ZM107.833 82.512L94.2646 81.072H108.057L107.833 82.512ZM106.073 93.36V94C106.073 94.3627 106.083 94.6293 106.105 94.8L92.5366 93.36H106.073ZM107.321 97.904L93.7526 96.464H106.393C106.627 97.0613 106.937 97.5413 107.321 97.904ZM113.881 93.52C114.457 93.52 114.851 93.456 115.065 93.328C115.299 93.1787 115.459 92.8373 115.545 92.304L117.561 81.072H122.937L121.273 90.608C120.761 93.5947 119.929 95.6427 118.777 96.752C117.646 97.84 115.705 98.384 112.953 98.384C110.755 98.384 109.219 98.064 108.345 97.424C107.47 96.7627 107.033 95.6213 107.033 94C107.033 93.104 107.15 91.9733 107.385 90.608L109.081 81.072H114.457L112.281 93.52H113.881ZM125.195 93.36C125.067 93.7867 124.971 94.2667 124.907 94.8L117.803 93.36H125.195ZM125.131 97.904L117.963 96.464H124.779C124.821 97.0827 124.939 97.5627 125.131 97.904ZM125.867 94.832C126.08 93.5733 126.453 92.688 126.987 92.176C127.541 91.664 128.405 91.408 129.579 91.408C130.773 91.408 131.573 91.568 131.979 91.888C132.405 92.208 132.619 92.6667 132.619 93.264C132.619 93.8613 132.576 94.384 132.491 94.832C132.277 96.0907 131.893 96.9653 131.339 97.456C130.805 97.9467 129.941 98.192 128.747 98.192C127.573 98.192 126.773 98.0427 126.347 97.744C125.941 97.424 125.739 96.976 125.739 96.4C125.739 95.8027 125.781 95.28 125.867 94.832ZM150.897 81.072C154.012 81.072 155.569 82.48 155.569 85.296C155.569 86.576 155.313 87.9093 154.801 89.296C154.289 90.6613 153.425 91.6853 152.209 92.368L154.033 98H148.049L146.833 93.072H146.065L145.201 98H139.825L142.769 81.072H150.897ZM149.713 86.608C149.713 86.5867 149.724 86.48 149.745 86.288C149.745 85.9253 149.18 85.744 148.049 85.744H147.345L146.833 88.688H147.857C148.838 88.688 149.393 88.368 149.521 87.728L149.713 86.608ZM138.769 97.904L125.201 96.464H139.025L138.769 97.904ZM139.857 91.728L126.289 90.288H140.113L139.857 91.728ZM140.401 88.656L126.833 87.216H140.657L140.401 88.656ZM140.945 85.584L127.377 84.144H141.201L140.945 85.584ZM141.489 82.512L127.921 81.072H141.713L141.489 82.512ZM139.313 94.8L125.745 93.36H139.569L139.313 94.8ZM162.919 91.728L149.351 90.288H163.175L162.919 91.728ZM163.463 88.656L149.895 87.216H163.719L163.463 88.656ZM164.007 85.584L150.439 84.144H164.263L164.007 85.584ZM164.551 82.512L150.983 81.072H164.775L164.551 82.512ZM162.791 93.36V94C162.791 94.3627 162.802 94.6293 162.823 94.8L149.255 93.36H162.791ZM164.039 97.904L150.471 96.464H163.111C163.346 97.0613 163.655 97.5413 164.039 97.904ZM170.599 93.52C171.175 93.52 171.57 93.456 171.783 93.328C172.018 93.1787 172.178 92.8373 172.263 92.304L174.279 81.072H179.655L177.991 90.608C177.479 93.5947 176.647 95.6427 175.495 96.752C174.365 97.84 172.423 98.384 169.671 98.384C167.474 98.384 165.938 98.064 165.063 97.424C164.189 96.7627 163.751 95.6213 163.751 94C163.751 93.104 163.869 91.9733 164.103 90.608L165.799 81.072H171.175L168.999 93.52H170.599Z" fill="#959797"/>
</g>
</g>
<defs>
<filter id="filter0_d_17_2" x="-0.949219" y="46.5" width="250.942" height="59.8838" filterUnits="userSpaceOnUse" color-interpolation-filters="sRGB">
<feFlood flood-opacity="0" result="BackgroundImageFix"/>
<feColorMatrix in="SourceAlpha" type="matrix" values="0 0 0 0 0 0 0 0 0 0 0 0 0 0 0 0 0 0 127 0" result="hardAlpha"/>
<feOffset dy="4"/>
<feGaussianBlur stdDeviation="2"/>
<feComposite in2="hardAlpha" operator="out"/>
<feColorMatrix type="matrix" values="0 0 0 0 0 0 0 0 0 0 0 0 0 0 0 0 0 0 0.25 0"/>
<feBlend mode="normal" in2="BackgroundImageFix" result="effect1_dropShadow_17_2"/>
<feBlend mode="normal" in="SourceGraphic" in2="effect1_dropShadow_17_2" result="shape"/>
</filter>
<linearGradient id="paint0_linear_17_2" x1="9.6164" y1="22.0591" x2="250" y2="22.0591" gradientUnits="userSpaceOnUse">
<stop stop-color="#515456"/>
<stop offset="0.310867" stop-color="#827D85"/>
<stop offset="0.311594" stop-color="#827D85"/>
<stop offset="0.552099" stop-color="#B0B3B1"/>
<stop offset="0.55314" stop-color="#B0B3B1"/>
<stop offset="0.816266" stop-color="#706E78"/>
<stop offset="0.819989" stop-color="#706E78"/>
<stop offset="0.999224" stop-color="#959797"/>
<stop offset="1" stop-color="#959797"/>
</linearGradient>
<clipPath id="clip0_17_2">
<rect width="250" height="75" fill="white"/>
</clipPath>
</defs>
</svg>
