<svg width="250" height="75" viewBox="0 0 250 75" fill="none" xmlns="http://www.w3.org/2000/svg">
<g clip-path="url(#clip0_2_25)">
<mask id="mask0_2_25" style="mask-type:luminance" maskUnits="userSpaceOnUse" x="9" y="0" width="241" height="45">
<path d="M250 0H9.61539V44.1176H250V0Z" fill="white"/>
</mask>
<g mask="url(#mask0_2_25)">
<path d="M118.651 0.781416C98.5861 3.35508 81.2615 12.3653 64.2316 19.7682C24.8845 24.0582 9.61539 44.1176 9.61539 44.1176C36.9234 19.7682 86.4503 23.4144 86.4503 23.4144C86.4503 23.4144 74.5082 21.3771 71.083 20.0894C71.083 20.0894 97.7056 9.14779 114.539 5.71677C131.375 2.28417 147.133 2.92641 170.426 9.68405C170.426 9.68405 152.551 18.5819 138.422 19.4456C157.702 20.4106 193.723 8.82669 193.723 8.82669C177.423 3.63825 152.387 -7.62939e-06 132.714 -7.62939e-06C127.577 -7.62939e-06 122.805 0.248335 118.651 0.781416ZM130.982 26.3107C193.723 22.0604 236.223 1.85391 248.888 42.1878C251.199 27.8119 241.486 17.6218 241.486 17.6218C241.486 17.6218 248.141 16.4416 250 13.3318C241.582 15.7979 211.829 13.868 202.604 11.0792C189.856 18.1596 157.104 23.6707 130.982 26.3107Z" fill="url(#paint0_linear_2_25)"/>
<mask id="mask1_2_25" style="mask-type:luminance" maskUnits="userSpaceOnUse" x="-55" y="-57" width="369" height="225">
<path d="M-54.303 -56.8025H313.92V167.396H-54.303V-56.8025Z" fill="white"/>
</mask>
<g mask="url(#mask1_2_25)">
<path d="M42.0474 40.1484C46.2476 33.976 54.0388 29.8268 62.963 29.8268C71.9492 29.8268 79.7865 34.036 83.9651 40.2796H78.3159C74.4101 35.2256 67.726 31.8912 60.1325 31.8912C52.6042 31.8912 45.9676 35.1656 42.0474 40.1484Z" fill="#AB222B"/>
<path d="M182.747 36.9538C187.306 30.7815 195.764 26.6338 205.454 26.6338C215.213 26.6338 223.723 30.8415 228.26 37.085H222.125C217.885 32.031 210.627 28.6966 202.383 28.6966C194.21 28.6966 187.003 31.9725 182.747 36.9538Z" fill="#AB222B"/>
</g>
</g>
<g filter="url(#filter0_d_2_25)">
<path d="M23.4359 66.1765H16.3846L25.657 45.9559H36.0224L37.5737 66.1765H30.4872L30.3461 62.9735H24.8109L23.4359 66.1765ZM29.8173 57.8294V52.1676H29.4647L26.9968 57.8294H29.8173ZM15.2564 66.0471L0.80127 64.6235H15.9263L15.2564 66.0471ZM16.7019 62.9088L2.24678 61.4853H17.3718L16.7019 62.9088ZM18.1474 59.8029L3.6923 58.3794H18.782L18.1474 59.8029ZM19.5577 56.6971L5.13781 55.2735H20.2276L19.5577 56.6971ZM21.0032 53.5912L6.58332 52.1676H21.6378L21.0032 53.5912ZM23.859 47.3471L9.47435 45.9559H24.4936L23.859 47.3471ZM22.4134 50.4529L8.02883 49.0618H23.0481L22.4134 50.4529ZM23.859 47.3471L24.4936 45.9559H9.47435L23.859 47.3471Z" fill="#E1E1E1" fill-opacity="0.61"/>
<path d="M58.995 49.0618C62.4266 49.0618 64.1424 50.4853 64.1424 53.3324C64.1424 54.6265 63.8604 55.9746 63.2963 57.3765C62.7322 58.7569 61.7803 59.7922 60.4405 60.4824L62.4501 66.1765H55.8572L54.5175 61.1941H53.6713L52.7194 66.1765H46.7963L50.0399 49.0618H58.995ZM57.6905 54.6588C57.6905 54.6372 57.7022 54.5294 57.7258 54.3353C57.7258 53.9687 57.1029 53.7853 55.8572 53.7853H55.0815L54.5175 56.7618H55.6457C56.7269 56.7618 57.338 56.4382 57.479 55.7912L57.6905 54.6588ZM45.6328 66.0794L30.6841 64.6235H45.9149L45.6328 66.0794ZM46.8315 59.8353L31.8828 58.3794H47.1136L46.8315 59.8353ZM47.4309 56.7294L32.4822 55.2735H47.713L47.4309 56.7294ZM48.0303 53.6235L33.0815 52.1676H48.3123L48.0303 53.6235ZM48.6296 50.5176L33.6809 49.0618H48.8764L48.6296 50.5176ZM46.2322 62.9412L31.2835 61.4853H46.5142L46.2322 62.9412Z" fill="#E1E1E1" fill-opacity="0.61"/>
<path d="M87.1192 53.9147H83.3115L80.9846 66.1765H74.7795L77.1064 53.9147H73.1929L74.1449 49.0618H88.0711L87.1192 53.9147ZM73.7218 66.0794L58.7731 64.6235H74.0038L73.7218 66.0794ZM74.9205 59.8353L59.9718 58.3794H75.2025L74.9205 59.8353ZM75.5199 56.7294L60.5711 55.2735H75.8019L75.5199 56.7294ZM72.1352 53.6235L57.1865 52.1676H72.4173L72.1352 53.6235ZM72.7346 50.5176L57.7859 49.0618H72.9814L72.7346 50.5176ZM74.3211 62.9412L59.3724 61.4853H74.6032L74.3211 62.9412Z" fill="#E1E1E1" fill-opacity="0.61"/>
<path d="M100.8 66.1765H93.749L103.021 45.9559H113.387L114.938 66.1765H107.852L107.711 62.9735H102.175L100.8 66.1765ZM107.182 57.8294V52.1676H106.829L104.361 57.8294H107.182ZM92.6208 66.0471L78.1657 64.6235H93.2907L92.6208 66.0471ZM94.0663 62.9088L79.6112 61.4853H94.7362L94.0663 62.9088ZM95.5118 59.8029L81.0567 58.3794H96.1465L95.5118 59.8029ZM96.9221 56.6971L82.5022 55.2735H97.592L96.9221 56.6971ZM98.3676 53.5912L83.9477 52.1676H99.0022L98.3676 53.5912ZM101.223 47.3471L86.8388 45.9559H101.858L101.223 47.3471ZM99.7779 50.4529L85.3932 49.0618H100.412L99.7779 50.4529ZM101.223 47.3471L101.858 45.9559H86.8388L101.223 47.3471Z" fill="#E1E1E1" fill-opacity="0.61"/>
<path d="M124.196 59.8353L109.247 58.3794H124.478L124.196 59.8353ZM124.795 56.7294L109.847 55.2735H125.077L124.795 56.7294ZM125.395 53.6235L110.446 52.1676H125.677L125.395 53.6235ZM125.994 50.5176L111.045 49.0618H126.241L125.994 50.5176ZM124.055 61.4853V62.1324C124.055 62.499 124.067 62.7687 124.09 62.9412L109.142 61.4853H124.055ZM125.43 66.0794L110.481 64.6235H124.408C124.666 65.2275 125.007 65.7128 125.43 66.0794ZM132.658 61.6471C133.292 61.6471 133.727 61.5823 133.962 61.4529C134.221 61.3019 134.397 60.9569 134.491 60.4176L136.712 49.0618H142.635L140.802 58.7029C140.238 61.7225 139.321 63.7931 138.052 64.9147C136.806 66.0147 134.667 66.5647 131.635 66.5647C129.214 66.5647 127.522 66.2412 126.558 65.5941C125.594 64.9254 125.113 63.7716 125.113 62.1324C125.113 61.2265 125.242 60.0834 125.5 58.7029L127.369 49.0618H133.292L130.895 61.6471H132.658Z" fill="#E1E1E1" fill-opacity="0.61"/>
<path d="M164.691 53.9147H160.883L158.556 66.1765H152.35L154.677 53.9147H150.764L151.716 49.0618H165.643L164.691 53.9147ZM151.293 66.0794L136.344 64.6235H151.575L151.293 66.0794ZM152.491 59.8353L137.543 58.3794H152.774L152.491 59.8353ZM153.091 56.7294L138.142 55.2735H153.373L153.091 56.7294ZM149.706 53.6235L134.758 52.1676H149.988L149.706 53.6235ZM150.306 50.5176L135.357 49.0618H150.552L150.306 50.5176ZM151.892 62.9412L136.943 61.4853H152.174L151.892 62.9412Z" fill="#E1E1E1" fill-opacity="0.61"/>
<path d="M182.497 48.7382C185.035 48.7382 186.845 49.1912 187.926 50.0971C189.006 50.9813 189.548 52.3725 189.548 54.2706C189.548 55.1981 189.418 56.3196 189.16 57.6353C188.572 60.7412 187.538 63.0059 186.058 64.4294C184.577 65.8529 182.25 66.5647 179.077 66.5647C176.585 66.5647 174.811 66.1225 173.753 65.2382C172.695 64.3324 172.167 62.9412 172.167 61.0647C172.167 60.0941 172.295 58.951 172.554 57.6353C173.141 54.5294 174.163 52.2754 175.622 50.8735C177.079 49.45 179.37 48.7382 182.497 48.7382ZM180.099 61.6471C180.78 61.6471 181.285 61.5716 181.615 61.4206C181.968 61.2696 182.202 60.9353 182.32 60.4176L183.66 53.6559H181.51C180.851 53.6559 180.333 53.7313 179.958 53.8824C179.606 54.0334 179.394 54.3569 179.324 54.8529L178.019 61.6471H180.099ZM171.321 58.3794C171.226 59.0481 171.167 59.501 171.144 59.7382L157.253 58.3794H171.321ZM171.99 55.2735L171.673 56.6323L157.887 55.2735H171.99ZM171.109 61.4853C171.109 61.8304 171.155 62.2834 171.25 62.8441L157.394 61.4853H171.109ZM173.224 52.1676C172.942 52.7284 172.742 53.1599 172.625 53.4618L159.298 52.1676H173.224ZM171.849 64.6235C172.131 65.1412 172.436 65.5401 172.766 65.8206L160.462 64.6235H171.849ZM176.292 49.0618C175.728 49.3637 175.245 49.7196 174.846 50.1294L164.022 49.0618H176.292Z" fill="#E1E1E1" fill-opacity="0.61"/>
<path d="M193.841 61.4853C193.7 61.9166 193.595 62.4019 193.524 62.9412L185.697 61.4853H193.841ZM193.771 66.0794L185.873 64.6235H193.383C193.429 65.249 193.559 65.7343 193.771 66.0794ZM194.582 62.9735C194.817 61.701 195.228 60.8059 195.816 60.2882C196.426 59.7706 197.378 59.5118 198.671 59.5118C199.987 59.5118 200.869 59.6735 201.316 59.9971C201.785 60.3206 202.021 60.7843 202.021 61.3882C202.021 61.9922 201.974 62.5206 201.88 62.9735C201.644 64.246 201.221 65.1304 200.611 65.6265C200.022 66.1225 199.07 66.3706 197.755 66.3706C196.462 66.3706 195.58 66.2196 195.111 65.9176C194.663 65.5941 194.441 65.1412 194.441 64.5588C194.441 63.9549 194.487 63.4265 194.582 62.9735Z" fill="#E1E1E1" fill-opacity="0.61"/>
<path d="M214.755 48.5118C217.082 48.5118 218.95 49.2559 220.361 50.7441C221.795 52.2324 222.511 54.4754 222.511 57.4735C222.511 59.4363 222.183 61.0971 221.524 62.4559C220.889 63.7931 219.986 64.8069 218.809 65.4971C217.659 66.1657 216.295 66.5 214.72 66.5C213.756 66.5 212.899 66.3813 212.146 66.1441C211.394 65.9069 210.748 65.6049 210.207 65.2382C209.691 64.85 209.244 64.4294 208.867 63.9765H208.655C208.704 64.3431 208.75 64.8069 208.796 65.3676C208.845 65.9284 208.867 66.4137 208.867 66.8235V73.9412H205.764V48.8353H208.303L208.726 51.1971H208.867C209.244 50.701 209.691 50.2481 210.207 49.8382C210.748 49.4284 211.383 49.1049 212.111 48.8676C212.864 48.6304 213.745 48.5118 214.755 48.5118ZM214.191 50.9059C212.921 50.9059 211.899 51.1324 211.123 51.5853C210.348 52.0166 209.784 52.6746 209.431 53.5588C209.078 54.4431 208.891 55.5647 208.867 56.9235V57.4735C208.867 58.8971 209.032 60.1049 209.361 61.0971C209.691 62.0893 210.242 62.8441 211.018 63.3618C211.817 63.8794 212.899 64.1382 214.261 64.1382C215.413 64.1382 216.354 63.8471 217.082 63.2647C217.835 62.6824 218.386 61.8952 218.739 60.9029C219.115 59.8893 219.303 58.7353 219.303 57.4412C219.303 55.4569 218.88 53.8716 218.034 52.6853C217.212 51.499 215.931 50.9059 214.191 50.9059Z" fill="#E1E1E1" fill-opacity="0.61"/>
<path d="M238.739 48.5765C240.619 48.7275 242.252 49.1804 243.639 49.9353C245.05 50.6902 246.143 51.704 246.918 52.9765C247.694 54.249 248.082 55.7588 248.082 57.5059C248.082 59.2529 247.705 60.7735 246.952 62.0677C246.2 63.3402 245.131 64.354 243.744 65.1088C242.357 65.8422 240.689 66.2843 238.739 66.4353V73.9412H235.707V66.4353C233.849 66.2843 232.216 65.8422 230.806 65.1088C229.396 64.354 228.303 63.3402 227.527 62.0677C226.752 60.7735 226.364 59.2529 226.364 57.5059C226.364 55.7372 226.739 54.2166 227.49 52.9441C228.244 51.65 229.325 50.6363 230.736 49.9029C232.146 49.1481 233.837 48.7059 235.811 48.5765V41.5882H238.739V48.5765ZM235.811 50.9382C234.378 51.0676 233.204 51.4019 232.287 51.9412C231.37 52.4804 230.687 53.2137 230.242 54.1412C229.819 55.0687 229.607 56.1901 229.607 57.5059C229.607 58.8 229.819 59.9216 230.242 60.8706C230.687 61.7981 231.37 62.5422 232.287 63.1029C233.204 63.6422 234.378 63.9765 235.811 64.1059V50.9382ZM238.739 64.1059C240.149 63.9549 241.3 63.6099 242.192 63.0706C243.109 62.5313 243.78 61.7981 244.203 60.8706C244.649 59.9216 244.873 58.8 244.873 57.5059C244.873 56.2118 244.649 55.101 244.203 54.1735C243.756 53.246 243.075 52.5128 242.159 51.9735C241.264 51.4343 240.125 51.1 238.739 50.9706V64.1059Z" fill="#E1E1E1" fill-opacity="0.61"/>
</g>
</g>
<defs>
<filter id="filter0_d_2_25" x="-3.19873" y="41.5882" width="255.28" height="40.3529" filterUnits="userSpaceOnUse" color-interpolation-filters="sRGB">
<feFlood flood-opacity="0" result="BackgroundImageFix"/>
<feColorMatrix in="SourceAlpha" type="matrix" values="0 0 0 0 0 0 0 0 0 0 0 0 0 0 0 0 0 0 127 0" result="hardAlpha"/>
<feOffset dy="4"/>
<feGaussianBlur stdDeviation="2"/>
<feComposite in2="hardAlpha" operator="out"/>
<feColorMatrix type="matrix" values="0 0 0 0 0 0 0 0 0 0 0 0 0 0 0 0 0 0 0.25 0"/>
<feBlend mode="normal" in2="BackgroundImageFix" result="effect1_dropShadow_2_25"/>
<feBlend mode="normal" in="SourceGraphic" in2="effect1_dropShadow_2_25" result="shape"/>
</filter>
<linearGradient id="paint0_linear_2_25" x1="9.61643" y1="22.0591" x2="250" y2="22.0591" gradientUnits="userSpaceOnUse">
<stop stop-color="#515456"/>
<stop offset="0.310867" stop-color="#827D85"/>
<stop offset="0.311594" stop-color="#827D85"/>
<stop offset="0.552099" stop-color="#B0B3B1"/>
<stop offset="0.55314" stop-color="#B0B3B1"/>
<stop offset="0.816266" stop-color="#706E78"/>
<stop offset="0.819989" stop-color="#706E78"/>
<stop offset="0.999224" stop-color="#959797"/>
<stop offset="1" stop-color="#959797"/>
</linearGradient>
<clipPath id="clip0_2_25">
<rect width="250" height="75" fill="white"/>
</clipPath>
</defs>
</svg>
