<?xml version="1.0" encoding="UTF-8" standalone="no"?>
<svg
   xml:space="preserve"
   version="1.1"
   style="image-rendering:optimizeQuality;shape-rendering:geometricPrecision;text-rendering:geometricPrecision"
   viewBox="0 0 347 347"
   x="0px"
   y="0px"
   fill-rule="evenodd"
   clip-rule="evenodd"
   id="svg38"
   sodipodi:docname="avatar.svg"
   width="347"
   height="347"
   inkscape:version="1.2.2 (732a01da63, 2022-12-09)"
   xmlns:inkscape="http://www.inkscape.org/namespaces/inkscape"
   xmlns:sodipodi="http://sodipodi.sourceforge.net/DTD/sodipodi-0.dtd"
   xmlns="http://www.w3.org/2000/svg"
   xmlns:svg="http://www.w3.org/2000/svg"><sodipodi:namedview
     id="namedview40"
     pagecolor="#ffffff"
     bordercolor="#000000"
     borderopacity="0.25"
     inkscape:showpageshadow="2"
     inkscape:pageopacity="0.0"
     inkscape:pagecheckerboard="0"
     inkscape:deskcolor="#d1d1d1"
     showgrid="false"
     inkscape:zoom="1.8766571"
     inkscape:cx="173.71314"
     inkscape:cy="174.24601"
     inkscape:window-width="1920"
     inkscape:window-height="1001"
     inkscape:window-x="-9"
     inkscape:window-y="-9"
     inkscape:window-maximized="1"
     inkscape:current-layer="svg38" /><defs
     id="defs24"><style
       type="text/css"
       id="style22">
   
    .fil0 {fill:black}
   
  </style></defs><g
     id="g32"><path
       class="fil0"
       d="m 68,220 52,-18 c 5,-1 10,0 14,4 l 39,47 40,-47 c 4,-4 9,-5 14,-4 l 52,18 c 7,3 12,9 13,16 l 2,17 c -27,40 -72,65 -121,65 -48,0 -93,-25 -120,-65 l 2,-17 c 1,-7 5,-13 13,-16 z"
       id="path26" /><path
       class="fil0"
       d="m 220,112 v 29 c 0,25 -21,47 -47,47 -25,0 -47,-22 -47,-47 v -29 c 0,-56 94,-55 94,0 z"
       id="path28" /><path
       class="fil0"
       d="m 173,0 c 96,0 174,78 174,173 0,96 -78,174 -174,174 C 78,347 0,269 0,173 0,78 78,0 173,0 Z m 0,19 C 88,19 19,88 19,173 19,259 88,328 173,328 259,328 328,259 328,173 328,88 259,19 173,19 Z"
       id="path30" /></g><path
     style="fill:#800000;stroke-width:0.532862"
     d="M 157.19441,346.01552 C 106.08649,341.30475 58.460319,312.69507 29.590137,269.36195 13.983267,245.93658 4.5550832,220.0944 1.3404528,191.93097 0.23328391,182.23104 0.23217385,164.13854 1.3381531,154.44944 7.9814652,96.249674 43.259169,45.543964 95.648802,18.893894 113.36771,9.8804674 131.69298,4.2519558 152.28352,1.4988372 c 9.64834,-1.29005965 32.41903,-1.2714302 41.94483,0.034316 27.64395,3.7892898 52.60575,13.0775608 74.61023,27.7624218 11.13827,7.433217 17.32376,12.511345 26.92665,22.106085 21.18456,21.166601 35.22941,44.596956 43.91649,73.26386 4.64042,15.3131 6.82612,30.84739 6.82612,48.51476 0,26.68 -5.3919,50.67718 -16.6638,74.16399 -26.86094,55.96902 -80.35177,93.22743 -141.74361,98.72985 -7.1612,0.64184 -23.64588,0.61059 -30.90602,-0.0586 z m 33.83676,-18.88518 c 65.62299,-7.1663 120.09104,-56.44385 133.67157,-120.93338 2.72935,-12.9608 3.23486,-18.19081 3.21702,-33.28311 -0.0141,-11.90942 -0.20354,-15.33088 -1.20976,-21.84736 -2.81327,-18.21927 -7.18794,-31.93646 -15.31883,-48.03361 C 296.34145,73.238187 271.53809,48.990127 241.12024,34.335186 220.05158,24.184573 201.0076,19.641713 177.13159,19.070972 164.14745,18.760594 157.01709,19.228159 146.12487,21.104198 86.754801,31.329894 37.935965,76.777485 23.407622,135.34705 c -10.750111,43.338 -2.598274,88.9784 22.461209,125.75553 5.873101,8.61933 10.307863,13.89248 18.835468,22.39633 33.411496,33.3184 78.418661,48.86322 126.326871,43.63143 z"
     id="path269" /><path
     style="fill:#800000;stroke-width:0.532862"
     d="m 162.20777,317.34144 c -41.641,-3.76375 -79.073317,-24.69898 -104.48715,-58.4378 l -4.466016,-5.92898 1.090408,-9.13188 c 0.599725,-5.02253 1.475904,-10.26749 1.947065,-11.65548 1.809331,-5.33007 6.171641,-9.76553 11.566598,-11.76057 1.510077,-0.55842 14.015634,-4.91898 27.790127,-9.69014 28.227418,-9.7773 28.660568,-9.86932 34.047658,-7.23366 2.77077,1.35561 4.36907,3.13141 22.50129,25.00013 10.73526,12.94747 19.81703,23.86098 20.18171,24.25224 0.54072,0.58012 4.47933,-3.77212 21.34697,-23.58882 18.50211,-21.73693 20.97997,-24.44503 23.49063,-25.67338 5.45808,-2.67039 5.75281,-2.60638 35.62615,7.7378 15.45237,5.35066 27.68911,9.88467 29.13343,10.79465 1.36967,0.86294 3.4893,2.65276 4.71029,3.97737 3.67787,3.99003 4.6157,6.75478 5.89932,17.39147 l 1.13833,9.43277 -3.12266,4.35045 c -10.07671,14.03876 -23.16109,26.51784 -38.29157,36.52016 -18.32588,12.1147 -38.5993,19.70214 -60.88907,22.78808 -7.27441,1.00711 -22.57824,1.45532 -29.21351,0.85559 z"
     id="path271" /><path
     style="fill:#800000;stroke-width:0.532862"
     d="m 165.56198,187.02397 c -8.93384,-1.69332 -17.20287,-5.9886 -23.96889,-12.45042 -5.16576,-4.9335 -8.26981,-9.18753 -10.99229,-15.06464 -3.85438,-8.32059 -3.95178,-9.04816 -4.17895,-31.21745 -0.21717,-21.19366 0.058,-24.63245 2.48779,-31.09 6.35161,-16.880359 25.49287,-27.656477 46.93418,-26.422931 18.05887,1.038951 33.0189,9.891378 39.74364,23.517847 3.70865,7.514924 3.93197,9.332594 3.9426,32.090394 0.0101,21.73733 -0.22125,24.0163 -3.19181,31.43492 -4.29278,10.72071 -13.49256,20.47111 -24.02221,25.45997 -8.14035,3.85683 -18.50263,5.30628 -26.75406,3.74231 z"
     id="path273" /></svg>
