<?xml  version="1.0" encoding="UTF-8" standalone="no"?>
<svg
fill="#cb333b"
   width="933.32666"
   height="736.38666"
   version="1.1"
   viewBox="0 0 699.995 552.28999"
   id="svg270"
   sodipodi:docname="check.svg"
   inkscape:version="1.2.2 (732a01da63, 2022-12-09)"
   xmlns:inkscape="http://www.inkscape.org/namespaces/inkscape"
   xmlns:sodipodi="http://sodipodi.sourceforge.net/DTD/sodipodi-0.dtd"
   xmlns="http://www.w3.org/2000/svg"
   xmlns:svg="http://www.w3.org/2000/svg">
  <sodipodi:namedview
  
     id="namedview272"
     pagecolor="#631d1b"
     bordercolor="#000000"
     borderopacity="0.25"
     inkscape:showpageshadow="2"
     inkscape:pageopacity="0.0"
     inkscape:pagecheckerboard="0"
     inkscape:deskcolor="#d1d1d1"
     inkscape:document-units="pt"
     showgrid="false"
     inkscape:zoom="0.87214286"
     inkscape:cx="466.66667"
     inkscape:cy="459.78706"
     inkscape:window-width="1920"
     inkscape:window-height="1001"
     inkscape:window-x="-9"
     inkscape:window-y="-9"
     inkscape:window-maximized="1"
     inkscape:current-layer="svg270" />
  <defs
     id="defs198">
    <symbol
       id="t"
       overflow="visible">
      <path
         d="M 3.0781,-0.1875 C 2.92185,-0.101562 2.75388,-0.03906 2.5781,0 2.41013,0.039062 2.23435,0.0625 2.04685,0.0625 c -0.5625,0 -1.0078,-0.15625 -1.3281,-0.46875 -0.32422,-0.3125 -0.48438,-0.73438 -0.48438,-1.2656 0,-0.53122 0.16016,-0.95312 0.48438,-1.2656 0.32031,-0.3125 0.76562,-0.46875 1.3281,-0.46875 0.1875,0 0.36328,0.023438 0.53125,0.0625 0.17578,0.042969 0.34375,0.10547 0.5,0.1875 v 0.6875 C 2.92185,-2.57026 2.7656,-2.64839 2.60935,-2.70308 c -0.15625,-0.050781 -0.32422,-0.078125 -0.5,-0.078125 -0.30469,0 -0.54297,0.10156 -0.71875,0.29688 -0.17969,0.19922 -0.26562,0.46875 -0.26562,0.8125 0,0.34375 0.085938,0.61719 0.26562,0.8125 0.17578,0.19922 0.41406,0.29688 0.71875,0.29688 0.17578,0 0.34375,-0.023438 0.5,-0.078125 0.15625,-0.050781 0.3125,-0.12891 0.46875,-0.23438 z"
         id="path138" />
    </symbol>
    <symbol
       id="c"
       overflow="visible">
      <path
         d="M 2.25,-1.8281 C 2.175781,-1.85935 2.10156,-1.878881 2.03125,-1.8906 1.96875,-1.910131 1.89844,-1.92185 1.82813,-1.92185 c -0.21094,0 -0.37109,0.070313 -0.48438,0.20312 -0.10547,0.125 -0.15625,0.3125 -0.15625,0.5625 V -3e-5 H 0.39062 v -2.5156 H 1.1875 v 0.42188 c 0.10156,-0.16406 0.22266,-0.28516 0.35938,-0.35938 0.13281,-0.082031 0.29688,-0.125 0.48438,-0.125 0.019531,0 0.046875,0.00781 0.078125,0.015625 h 0.14062 z"
         id="path141" />
    </symbol>
    <symbol
       id="a"
       overflow="visible">
      <path
         d="m 2.8906,-1.2656 v 0.23438 h -1.875 c 0.019531,0.1875 0.085937,0.32812 0.20312,0.42188 0.11328,0.09375 0.27344,0.14062 0.48438,0.14062 0.17578,0 0.35156,-0.023438 0.53125,-0.078125 0.17578,-0.050781 0.35938,-0.125 0.54688,-0.21875 v 0.60938 c -0.19922,0.074219 -0.39062,0.125 -0.57812,0.15625 -0.1875,0.039062 -0.375,0.0625 -0.5625,0.0625 -0.46094,0 -0.8125,-0.11328 -1.0625,-0.34375 -0.25,-0.22656 -0.375,-0.55078 -0.375,-0.96875 0,-0.41406 0.11719,-0.73828 0.35938,-0.96875 0.25,-0.23828 0.59375,-0.35938 1.0312,-0.35938 0.39453,0 0.70703,0.12109 0.9375,0.35938 0.23828,0.24219 0.35938,0.55859 0.35938,0.95312 z M 2.06248,-1.53122 c 0,-0.15625 -0.046875,-0.27344 -0.14062,-0.35938 -0.085937,-0.09375 -0.19922,-0.14062 -0.34375,-0.14062 -0.14844,0 -0.27344,0.042969 -0.375,0.125 -0.09375,0.085938 -0.15234,0.21094 -0.17188,0.375 z"
         id="path144" />
    </symbol>
    <symbol
       id="k"
       overflow="visible">
      <path
         d="m 1.5156,-1.125 c -0.16797,0 -0.29688,0.03125 -0.39062,0.09375 -0.085938,0.054688 -0.125,0.13281 -0.125,0.23438 0,0.10547 0.035156,0.1875 0.10938,0.25 0.070313,0.054687 0.16406,0.078125 0.28125,0.078125 0.15625,0 0.28125,-0.050781 0.375,-0.15625 0.10156,-0.11328 0.15625,-0.25 0.15625,-0.40625 v -0.09375 z M 2.7344,-1.4375 V 0 H 1.9219 V -0.375 C 1.81643,-0.21875 1.69534,-0.10156 1.56252,-0.03125 1.4258,0.03125 1.26564,0.0625 1.07814,0.0625 0.81642,0.0625 0.60158,-0.007812 0.43752,-0.15625 0.28127,-0.3125 0.20314,-0.50781 0.20314,-0.75 c 0,-0.30078 0.097656,-0.51953 0.29688,-0.65625 0.20703,-0.13281 0.52344,-0.20312 0.95312,-0.20312 h 0.46875 v -0.0625 c 0,-0.125 -0.054687,-0.21094 -0.15625,-0.26562 -0.09375,-0.0625 -0.24609,-0.09375 -0.45312,-0.09375 -0.17969,0 -0.33984,0.015625 -0.48438,0.046875 -0.14844,0.03125 -0.28125,0.085937 -0.40625,0.15625 v -0.60938 c 0.16406,-0.039062 0.33594,-0.070312 0.51562,-0.09375 0.17578,-0.03125 0.34766,-0.046875 0.51562,-0.046875 0.45703,0 0.78516,0.09375 0.98438,0.28125 0.19531,0.17969 0.29688,0.46484 0.29688,0.85938 z"
         id="path147" />
    </symbol>
    <symbol
       id="b"
       overflow="visible">
      <path
         d="m 1.2656,-3.2188 v 0.70312 h 0.82812 v 0.57812 H 1.2656 v 1.0625 c 0,0.11719 0.019531,0.19531 0.0625,0.23438 0.050781,0.042969 0.14453,0.0625 0.28125,0.0625 H 2.0156 V -6e-5 H 1.3281 c -0.3125,0 -0.53906,-0.0625 -0.67188,-0.1875 C 0.5195,-0.32037 0.4531,-0.55084 0.4531,-0.87506 v -1.0625 H 0.06248 V -2.51568 H 0.4531 V -3.2188 Z"
         id="path150" />
    </symbol>
    <symbol
       id="f"
       overflow="visible">
      <path
         d="M 2.0938,-2.1406 V -3.4844 H 2.9063 V 0 H 2.0938 v -0.35938 c -0.11719,0.14844 -0.24219,0.25781 -0.375,0.32812 -0.125,0.0625 -0.27734,0.09375 -0.45312,0.09375 -0.3125,0 -0.57031,-0.11719 -0.76562,-0.35938 -0.19922,-0.25 -0.29688,-0.56641 -0.29688,-0.95312 0,-0.38281 0.097656,-0.70312 0.29688,-0.95312 0.19531,-0.25 0.45312,-0.375 0.76562,-0.375 0.17578,0 0.32812,0.039063 0.45312,0.10938 0.13281,0.074219 0.25781,0.18359 0.375,0.32812 z m -0.53125,1.625 c 0.17578,0 0.30469,-0.0625 0.39062,-0.1875 0.09375,-0.125 0.14062,-0.30469 0.14062,-0.54688 0,-0.23828 -0.046875,-0.42188 -0.14062,-0.54688 -0.085937,-0.125 -0.21484,-0.1875 -0.39062,-0.1875 -0.16797,0 -0.29688,0.0625 -0.39062,0.1875 -0.09374,0.125 -0.14062,0.30859 -0.14062,0.54688 0,0.24219 0.046875,0.42188 0.14062,0.54688 0.093745,0.125 0.22266,0.1875 0.39062,0.1875 z"
         id="path153" />
    </symbol>
    <symbol
       id="j"
       overflow="visible">
      <path
         d="m 1.7188,-0.51562 c 0.17578,0 0.30469,-0.0625 0.39062,-0.1875 0.09375,-0.125 0.14062,-0.30469 0.14062,-0.54688 0,-0.23828 -0.046875,-0.42188 -0.14062,-0.54688 -0.085937,-0.125 -0.21484,-0.1875 -0.39062,-0.1875 -0.16797,0 -0.29688,0.0625 -0.39062,0.1875 -0.09374,0.125 -0.14062,0.30859 -0.14062,0.54688 0,0.24219 0.046875,0.42188 0.14062,0.54688 0.093745,0.125 0.22266,0.1875 0.39062,0.1875 z m -0.53125,-1.625 c 0.11328,-0.14453 0.23828,-0.25391 0.375,-0.32812 0.13281,-0.070312 0.28516,-0.10938 0.45312,-0.10938 0.3125,0 0.56641,0.125 0.76562,0.375 0.19531,0.25 0.29688,0.57031 0.29688,0.95312 0,0.38672 -0.10156,0.70312 -0.29688,0.95312 C 2.58207,-0.05469 2.32817,0.0625 2.01567,0.0625 1.8477,0.0625 1.69536,0.03125 1.56255,-0.03125 1.42583,-0.101562 1.30083,-0.21094 1.18755,-0.35937 V 1e-5 H 0.39067 v -3.4844 h 0.79688 z"
         id="path156" />
    </symbol>
    <symbol
       id="e"
       overflow="visible">
      <path
         d="m 0.0625,-2.5156 h 0.79688 l 0.67188,1.7031 0.57812,-1.7031 h 0.79688 l -1.0469,2.75 C 1.75389,0.51565 1.62889,0.70706 1.48436,0.81252 1.33592,0.9258 1.14842,0.9844 0.92186,0.9844 H 0.45311 V 0.46878 h 0.26562 c 0.13281,0 0.22656,-0.027344 0.28125,-0.078125 0.0625,-0.042969 0.11328,-0.11719 0.15625,-0.21875 L 1.171855,0.09378 Z"
         id="path159" />
    </symbol>
    <symbol
       id="i"
       overflow="visible">
      <path
         d="M 2.4531,-0.60938 H 1.1093 L 0.89055,0 h -0.875 l 1.25,-3.3438 h 1.0312 L 3.53115,0 H 2.67177 Z m -1.1406,-0.625 h 0.92188 l -0.45312,-1.3281 z"
         id="path162" />
    </symbol>
    <symbol
       id="h"
       overflow="visible">
      <path
         d="M 2.9062,-1.5312 V 0 H 2.10932 v -1.1719 c 0,-0.21875 -0.00781,-0.36719 -0.015625,-0.45312 -0.011719,-0.082031 -0.03125,-0.14062 -0.0625,-0.17188 -0.03125,-0.050781 -0.074219,-0.09375 -0.125,-0.125 -0.054688,-0.03125 -0.10938,-0.046875 -0.17188,-0.046875 -0.17969,0 -0.3125,0.070312 -0.40625,0.20312 -0.09375,0.125 -0.14062,0.30469 -0.14062,0.53125 V -5e-6 h -0.79688 v -2.5156 h 0.79688 v 0.375 c 0.125,-0.14453 0.25391,-0.25391 0.39062,-0.32812 0.13281,-0.070312 0.28516,-0.10938 0.45312,-0.10938 0.28125,0 0.49219,0.09375 0.64062,0.28125 0.15625,0.17969 0.23438,0.43359 0.23438,0.76562 z"
         id="path165" />
    </symbol>
    <symbol
       id="s"
       overflow="visible">
      <path
         d="m 0.42188,-3.3438 h 1.0938 l 0.76562,1.7812 0.76562,-1.7812 h 1.0938 V 0 H 3.32822 V -2.4531 L 2.5626,-0.6406 H 2.01572 L 1.23447,-2.4531 V 0 h -0.8125 z"
         id="path168" />
    </symbol>
    <symbol
       id="g"
       overflow="visible">
      <path
         d="m 2.4219,-2.4375 v 0.65625 C 2.30471,-1.851562 2.19143,-1.90625 2.07815,-1.9375 1.97268,-1.976562 1.86331,-2 1.75003,-2 c -0.23047,0 -0.40625,0.070312 -0.53125,0.20312 -0.125,0.125 -0.1875,0.30859 -0.1875,0.54688 0,0.23047 0.0625,0.41406 0.1875,0.54688 0.125,0.125 0.30078,0.1875 0.53125,0.1875 0.125,0 0.23828,-0.015625 0.34375,-0.046875 0.11328,-0.039062 0.22266,-0.097656 0.32812,-0.17188 v 0.65625 c -0.125,0.054688 -0.25781,0.085938 -0.39062,0.10938 -0.125,0.019531 -0.25781,0.03125 -0.39062,0.03125 -0.44922,0 -0.80469,-0.11328 -1.0625,-0.34375 -0.25,-0.22656 -0.375,-0.55078 -0.375,-0.96875 0,-0.41406 0.125,-0.73828 0.375,-0.96875 0.25781,-0.23828 0.61328,-0.35938 1.0625,-0.35938 0.13281,0 0.26562,0.015625 0.39062,0.046875 0.125,0.023438 0.25391,0.054688 0.39062,0.09375 z"
         id="path171" />
    </symbol>
    <symbol
       id="r"
       overflow="visible">
      <path
         d="m 2.0312,-3.4844 v 0.51562 H 1.5937 c -0.11719,0 -0.19531,0.023438 -0.23438,0.0625 -0.042969,0.042969 -0.0625,0.11719 -0.0625,0.21875 v 0.17188 H 1.9687 v 0.57812 H 1.29682 V -3e-5 h -0.8125 v -1.9375 H 0.0937 v -0.57812 h 0.39062 v -0.17188 c 0,-0.26953 0.070313,-0.46875 0.21875,-0.59375 C 0.85932,-3.41409 1.0976,-3.4844 1.42182,-3.4844 Z"
         id="path174" />
    </symbol>
    <symbol
       id="d"
       overflow="visible">
      <path
         d="m 1.5781,-2 c -0.17969,0 -0.3125,0.070312 -0.40625,0.20312 -0.09375,0.125 -0.14062,0.30859 -0.14062,0.54688 0,0.24219 0.046875,0.42188 0.14062,0.54688 0.093745,0.125 0.22656,0.1875 0.40625,0.1875 0.17578,0 0.3125,-0.0625 0.40625,-0.1875 0.09375,-0.125 0.14062,-0.30469 0.14062,-0.54688 0,-0.23828 -0.046875,-0.42188 -0.14062,-0.54688 C 1.8906,-1.92969 1.75388,-2 1.5781,-2 Z m 0,-0.57812 c 0.4375,0 0.77344,0.12109 1.0156,0.35938 0.23828,0.23047 0.35938,0.55469 0.35938,0.96875 0,0.40625 -0.12109,0.73047 -0.35938,0.96875 -0.24219,0.23047 -0.57812,0.34375 -1.0156,0.34375 -0.42969,0 -0.76562,-0.11328 -1.0156,-0.34375 -0.24219,-0.23828 -0.35938,-0.5625 -0.35938,-0.96875 0,-0.41406 0.11719,-0.73828 0.35938,-0.96875 0.25,-0.23828 0.58594,-0.35938 1.0156,-0.35938 z"
         id="path177" />
    </symbol>
    <symbol
       id="q"
       overflow="visible">
      <path
         d="m 2.7188,-2.0938 c 0.09375,-0.15625 0.20703,-0.27344 0.34375,-0.35938 0.14453,-0.082031 0.30078,-0.125 0.46875,-0.125 0.28906,0 0.50781,0.09375 0.65625,0.28125 0.15625,0.17969 0.23438,0.43359 0.23438,0.76562 v 1.5312 h -0.8125 v -1.3125 c 0.00781,-0.019531 0.015625,-0.039062 0.015625,-0.0625 v -0.078125 c 0,-0.1875 -0.027344,-0.31641 -0.078125,-0.39062 -0.054687,-0.082031 -0.14062,-0.125 -0.26562,-0.125 -0.14844,0 -0.26172,0.0625 -0.34375,0.1875 -0.085938,0.125 -0.125,0.30859 -0.125,0.54688 v 1.2344 h -0.8125 v -1.3125 c 0,-0.28125 -0.027344,-0.45703 -0.078125,-0.53125 -0.042969,-0.082031 -0.125,-0.125 -0.25,-0.125 -0.15625,0 -0.27734,0.0625 -0.35938,0.1875 -0.085938,0.125 -0.125,0.30859 -0.125,0.54688 v 1.2344 h -0.8125 v -2.5156 h 0.8125 v 0.375 c 0.10156,-0.14453 0.21875,-0.25391 0.34375,-0.32812 0.125,-0.070312 0.26562,-0.10938 0.42188,-0.10938 0.17578,0 0.32812,0.042969 0.45312,0.125 0.13281,0.085937 0.23828,0.20312 0.3125,0.35938 z"
         id="path180" />
    </symbol>
    <symbol
       id="p"
       overflow="visible">
      <path
         d="M 2.9062,-1.5312 V 0 H 2.10932 v -1.1719 c 0,-0.21875 -0.00781,-0.36719 -0.015625,-0.45312 -0.011719,-0.082031 -0.03125,-0.14062 -0.0625,-0.17188 -0.03125,-0.050781 -0.074219,-0.09375 -0.125,-0.125 -0.054688,-0.03125 -0.10938,-0.046875 -0.17188,-0.046875 -0.17969,0 -0.3125,0.070312 -0.40625,0.20312 -0.09375,0.125 -0.14062,0.30469 -0.14062,0.53125 V -5e-6 h -0.79688 v -3.4844 h 0.79688 v 1.3438 c 0.125,-0.14453 0.25391,-0.25391 0.39062,-0.32812 0.13281,-0.070312 0.28516,-0.10938 0.45312,-0.10938 0.28125,0 0.49219,0.09375 0.64062,0.28125 0.15625,0.17969 0.23438,0.43359 0.23438,0.76562 z"
         id="path183" />
    </symbol>
    <symbol
       id="o"
       overflow="visible">
      <path
         d="m 0.42188,-3.3438 h 0.96875 l 1.2188,2.2969 v -2.2969 h 0.8125 V 0 H 2.45318 L 1.23438,-2.2969 V 0 h -0.8125 z"
         id="path186" />
    </symbol>
    <symbol
       id="n"
       overflow="visible">
      <path
         d="m 0.35938,-0.98438 v -1.5312 h 0.8125 v 0.25 c 0,0.13672 -0.00781,0.30859 -0.015625,0.51562 v 0.40625 c 0,0.21094 0.00391,0.35938 0.015625,0.45312 0.00781,0.085937 0.03125,0.14844 0.0625,0.1875 0.03125,0.054687 0.070313,0.09375 0.125,0.125 0.050781,0.023437 0.11328,0.03125 0.1875,0.03125 0.16406,0 0.29688,-0.0625 0.39062,-0.1875 0.09374,-0.125 0.14062,-0.30078 0.14062,-0.53125 v -1.25 h 0.8125 V 1e-5 H 2.07812 V -0.35937 C 1.96093,-0.21093 1.83593,-0.10156 1.70312,-0.03125 1.5664,0.03125 1.41406,0.0625 1.25,0.0625 0.95703,0.0625 0.73438,-0.023438 0.57812,-0.20312 0.42968,-0.3789 0.35937,-0.64062 0.35937,-0.98437 Z"
         id="path189" />
    </symbol>
    <symbol
       id="m"
       overflow="visible">
      <path
         d="m 0.42188,-3.3438 h 1.4375 c 0.42578,0 0.75,0.09375 0.96875,0.28125 0.22656,0.1875 0.34375,0.46094 0.34375,0.8125 0,0.34375 -0.11719,0.61719 -0.34375,0.8125 -0.21875,0.1875 -0.54297,0.28125 -0.96875,0.28125 H 1.28126 V -1e-4 H 0.42188 Z m 0.85938,0.625 v 0.9375 h 0.48438 c 0.16406,0 0.28906,-0.039062 0.375,-0.125 0.09375,-0.082031 0.14062,-0.19531 0.14062,-0.34375 0,-0.15625 -0.046875,-0.26953 -0.14062,-0.34375 -0.085937,-0.082031 -0.21094,-0.125 -0.375,-0.125 z"
         id="path192" />
    </symbol>
    <symbol
       id="l"
       overflow="visible">
      <path
         d="M 0.39062,-2.5156 H 1.1875 v 2.4688 c 0,0.33203 -0.085938,0.58594 -0.25,0.76562 C 0.78125,0.8946 0.55078,0.98444 0.25,0.98444 H -0.15625 V 0.46882 h 0.14062 c 0.15625,0 0.25781,-0.039062 0.3125,-0.10938 0.0625,-0.0625 0.09375,-0.19922 0.09375,-0.40625 z m 0,-0.96875 H 1.1875 V -2.8281 H 0.39062 Z"
         id="path195" />
    </symbol>
  </defs>
  <g
     id="g268"
     transform="translate(-0.001,-4.82)">
    <path
       d="m 59.633,344.27 c 50.457,37.613 114.68,93.578 152.29,145.87 203.67,-245.87 212.84,-285.32 443.12,-485.32 h 44.953 c -200,169.73 -331.19,356.88 -442.2,537.61 l -73.395,14.68 C 176.1432,511.239 37.611,372.71 0.001,344.27 Z"
       fill-rule="evenodd"
       id="path200" />
  </g>
</svg>
