<?xml version="1.0" encoding="UTF-8" standalone="no"?>
<svg
   width="697.50323"
   height="686.47998"
   version="1.1"
   viewBox="0 0 523.12743 514.85999"
   id="svg487"
   sodipodi:docname="keys-car.svg"
   inkscape:version="1.2.2 (732a01da63, 2022-12-09)"
   xmlns:inkscape="http://www.inkscape.org/namespaces/inkscape"
   xmlns:sodipodi="http://sodipodi.sourceforge.net/DTD/sodipodi-0.dtd"
   xmlns="http://www.w3.org/2000/svg"
   xmlns:svg="http://www.w3.org/2000/svg">
  <sodipodi:namedview
     id="namedview489"
     pagecolor="#ffffff"
     bordercolor="#000000"
     borderopacity="0.25"
     inkscape:showpageshadow="2"
     inkscape:pageopacity="0.0"
     inkscape:pagecheckerboard="0"
     inkscape:deskcolor="#d1d1d1"
     inkscape:document-units="pt"
     showgrid="false"
     inkscape:zoom="0.87214286"
     inkscape:cx="345.12695"
     inkscape:cy="431.12203"
     inkscape:window-width="1920"
     inkscape:window-height="1001"
     inkscape:window-x="-9"
     inkscape:window-y="-9"
     inkscape:window-maximized="1"
     inkscape:current-layer="svg487" />
  <defs
     id="defs389">
    <symbol
       id="x"
       overflow="visible">
      <path
         d="m 18.766,-1.125 c -0.96875,0.5 -1.9805,0.875 -3.0312,1.125 -1.043,0.25781 -2.1367,0.39062 -3.2812,0.39062 -3.3984,0 -6.0898,-0.94531 -8.0781,-2.8438 -1.9922,-1.9062 -2.9844,-4.4844 -2.9844,-7.7344 0,-3.2578 0.99219,-5.8359 2.9844,-7.7344 1.9883,-1.9062 4.6797,-2.8594 8.0781,-2.8594 1.1445,0 2.2383,0.13281 3.2812,0.39062 1.0508,0.25 2.0625,0.625 3.0312,1.125 v 4.2188 c -0.98047,-0.65625 -1.9453,-1.1406 -2.8906,-1.4531 -0.94922,-0.3125 -1.9492,-0.46875 -3,-0.46875 -1.875,0 -3.3516,0.60547 -4.4219,1.8125 -1.0742,1.1992 -1.6094,2.8555 -1.6094,4.9688 0,2.1055 0.53516,3.7617 1.6094,4.9688 1.0703,1.1992 2.5469,1.7969 4.4219,1.7969 1.0508,0 2.0508,-0.14844 3,-0.45312 0.94531,-0.3125 1.9102,-0.80078 2.8906,-1.4688 z"
         id="path317" />
    </symbol>
    <symbol
       id="c"
       overflow="visible">
      <path
         d="m 13.734,-11.141 c -0.4375,-0.19531 -0.87109,-0.34375 -1.2969,-0.4375 -0.41797,-0.10156 -0.83984,-0.15625 -1.2656,-0.15625 -1.2617,0 -2.2305,0.40625 -2.9062,1.2188 -0.67969,0.80469 -1.0156,1.9531 -1.0156,3.4531 v 7.0625 H 2.3591 v -15.312 h 4.8906 v 2.5156 c 0.625,-1 1.3438,-1.7266 2.1562,-2.1875 0.82031,-0.46875 1.8008,-0.70312 2.9375,-0.70312 0.16406,0 0.34375,0.01172 0.53125,0.03125 0.19531,0.01172 0.47656,0.03906 0.84375,0.07813 z"
         id="path320" />
    </symbol>
    <symbol
       id="a"
       overflow="visible">
      <path
         d="m 17.641,-7.7031 v 1.4062 H 6.188 c 0.125,1.1484 0.53906,2.0078 1.25,2.5781 0.70703,0.57422 1.7031,0.85938 2.9844,0.85938 1.0312,0 2.082,-0.14844 3.1562,-0.45312 1.082,-0.3125 2.1914,-0.77344 3.3281,-1.3906 v 3.7656 c -1.1562,0.4375 -2.3125,0.76562 -3.4688,0.98438 -1.1562,0.22656 -2.3125,0.34375 -3.4688,0.34375 -2.7734,0 -4.9297,-0.70312 -6.4688,-2.1094 -1.5312,-1.4062 -2.2969,-3.3789 -2.2969,-5.9219 0,-2.5 0.75391,-4.4609 2.2656,-5.8906 1.5078,-1.4375 3.582,-2.1562 6.2188,-2.1562 2.4062,0 4.332,0.73047 5.7812,2.1875 1.4453,1.4492 2.1719,3.3828 2.1719,5.7969 z m -5.0312,-1.625 c 0,-0.92578 -0.27344,-1.6719 -0.8125,-2.2344 -0.54297,-0.57031 -1.25,-0.85938 -2.125,-0.85938 -0.94922,0 -1.7188,0.26562 -2.3125,0.79688 -0.5937,0.53126 -0.96484,1.2969 -1.1094,2.2969 z"
         id="path323" />
    </symbol>
    <symbol
       id="e"
       overflow="visible">
      <path
         d="m 9.2188,-6.8906 c -1.0234,0 -1.793,0.17188 -2.3125,0.51562 -0.51172,0.34375 -0.76562,0.85547 -0.76562,1.5312 0,0.625 0.20703,1.1172 0.625,1.4688 0.41406,0.34375 0.98828,0.51562 1.7188,0.51562 0.92578,0 1.7031,-0.32812 2.3281,-0.98438 0.63281,-0.66406 0.95312,-1.4922 0.95312,-2.4844 v -0.5625 z m 7.4688,-1.8438 V 0 h -4.9219 v -2.2656 c -0.65625,0.92969 -1.3984,1.6055 -2.2188,2.0312 -0.82422,0.41406 -1.8242,0.625 -3,0.625 -1.5859,0 -2.8711,-0.45703 -3.8594,-1.375 -0.99219,-0.92578 -1.4844,-2.1289 -1.4844,-3.6094 0,-1.7891 0.61328,-3.1016 1.8438,-3.9375 1.2383,-0.84375 3.1797,-1.2656 5.8281,-1.2656 h 2.8906 v -0.39062 c 0,-0.76953 -0.30859,-1.332 -0.92188,-1.6875 -0.61719,-0.36328 -1.5703,-0.54688 -2.8594,-0.54688 -1.0547,0 -2.0312,0.10547 -2.9375,0.3125 -0.89844,0.21094 -1.7305,0.52344 -2.5,0.9375 v -3.7344 c 1.0391,-0.25 2.0859,-0.44141 3.1406,-0.57812 1.0625,-0.13281 2.125,-0.20312 3.1875,-0.20312 2.7578,0 4.75,0.54688 5.9688,1.6406 1.2266,1.0859 1.8438,2.8555 1.8438,5.3125 z"
         id="path326" />
    </symbol>
    <symbol
       id="b"
       overflow="visible">
      <path
         d="m 7.7031,-19.656 v 4.3438 H 12.75 v 3.5 H 7.7031 v 6.5 c 0,0.71094 0.14062,1.1875 0.42188,1.4375 0.28126,0.25 0.83594,0.375 1.6719,0.375 h 2.5156 v 3.5 h -4.1875 c -1.9375,0 -3.3125,-0.39844 -4.125,-1.2031 -0.80469,-0.8125 -1.2031,-2.1797 -1.2031,-4.1094 v -6.5 h -2.4219 v -3.5 h 2.4219 v -4.3438 z"
         id="path329" />
    </symbol>
    <symbol
       id="k"
       overflow="visible">
      <path
         d="m 12.766,-13.078 v -8.2031 h 4.9219 V -1e-4 H 12.766 v -2.2188 c -0.66797,0.90625 -1.4062,1.5703 -2.2188,1.9844 -0.8126,0.4141 -1.7578,0.625 -2.8281,0.625 -1.8867,0 -3.4336,-0.75 -4.6406,-2.25 -1.2109,-1.5 -1.8125,-3.4258 -1.8125,-5.7812 0,-2.3633 0.60156,-4.2969 1.8125,-5.7969 1.207,-1.5 2.7539,-2.25 4.6406,-2.25 1.0625,0 2,0.21484 2.8125,0.64062 0.82031,0.42969 1.5664,1.0859 2.2344,1.9688 z m -3.2188,9.9219 c 1.0391,0 1.8359,-0.37891 2.3906,-1.1406 0.55078,-0.76953 0.82812,-1.8828 0.82812,-3.3438 0,-1.457 -0.27734,-2.5664 -0.82812,-3.3281 -0.55469,-0.76953 -1.3516,-1.1562 -2.3906,-1.1562 -1.043,0 -1.8398,0.38672 -2.3906,1.1562 -0.55469,0.76172 -0.82812,1.8711 -0.82812,3.3281 0,1.4609 0.27344,2.5742 0.82812,3.3438 0.55078,0.76172 1.3477,1.1406 2.3906,1.1406 z"
         id="path332" />
    </symbol>
    <symbol
       id="j"
       overflow="visible">
      <path
         d="m 10.5,-3.1562 c 1.0508,0 1.8516,-0.37891 2.4062,-1.1406 0.55078,-0.76953 0.82812,-1.8828 0.82812,-3.3438 0,-1.457 -0.27734,-2.5664 -0.82812,-3.3281 -0.55469,-0.76953 -1.3555,-1.1562 -2.4062,-1.1562 -1.0547,0 -1.8594,0.38672 -2.4219,1.1562 -0.55469,0.77344 -0.82812,1.8828 -0.82812,3.3281 0,1.4492 0.27344,2.5586 0.82812,3.3281 0.5625,0.77344 1.3672,1.1562 2.4219,1.1562 z m -3.25,-9.9219 c 0.67578,-0.88281 1.4219,-1.5391 2.2344,-1.9688 0.82031,-0.42578 1.7656,-0.64062 2.8281,-0.64062 1.8945,0 3.4453,0.75 4.6562,2.25 1.207,1.5 1.8125,3.4336 1.8125,5.7969 0,2.3555 -0.60547,4.2812 -1.8125,5.7812 -1.2109,1.5 -2.7617,2.25 -4.6562,2.25 -1.0625,0 -2.0078,-0.21094 -2.8281,-0.625 C 8.6719,-0.6602 7.9258,-1.32032 7.25,-2.21882 V -2e-5 H 2.3594 v -21.281 H 7.25 Z"
         id="path335" />
    </symbol>
    <symbol
       id="i"
       overflow="visible">
      <path
         d="m 0.34375,-15.312 h 4.8906 l 4.125,10.391 3.5,-10.391 h 4.8906 l -6.4375,16.766 c -0.64844,1.6953 -1.4023,2.8828 -2.2656,3.5625 -0.86719,0.6875 -2,1.0312 -3.4062,1.0312 H 2.79685 V 2.8289 h 1.5312 c 0.83203,0 1.4375,-0.13672 1.8125,-0.40625 C 6.52336,2.16093 6.82024,1.69218 7.03117,1.01645 L 7.17179,0.59457 Z"
         id="path338" />
    </symbol>
    <symbol
       id="h"
       overflow="visible">
      <path
         d="m 2.5781,-20.406 h 5.25 V -1.984 C 7.8281,0.5551 7.13279,2.4574 5.75,3.7191 4.375,4.9769 2.2891,5.6097 -0.5,5.6097 H -1.5781 V 1.6253 h 0.82812 c 1.0938,0 1.9219,-0.30859 2.4844,-0.92188 0.5625,-0.60547 0.84375,-1.5 0.84375,-2.6875 z"
         id="path341" />
    </symbol>
    <symbol
       id="g"
       overflow="visible">
      <path
         d="m 2.1875,-5.9688 v -9.3438 h 4.9219 v 1.5312 c 0,0.83594 -0.00781,1.875 -0.015625,3.125 -0.011719,1.25 -0.015625,2.0859 -0.015625,2.5 0,1.2422 0.03125,2.1328 0.09375,2.6719 0.070313,0.54297 0.17969,0.93359 0.32812,1.1719 0.20703,0.32422 0.47266,0.57422 0.79688,0.75 0.32031,0.16797 0.69141,0.25 1.1094,0.25 1.0195,0 1.8203,-0.39062 2.4062,-1.1719 0.58203,-0.78125 0.875,-1.8672 0.875,-3.2656 v -7.5625 h 4.8906 V -6e-4 H 12.6875 V -2.2194 C 11.94531,-1.32096 11.1641,-0.6608 10.3437,-0.235 9.51948,0.17906 8.6093,0.39 7.6093,0.39 5.8476,0.39 4.5038,-0.14906 3.5781,-1.235 2.64841,-2.317 2.1875,-3.8952 2.1875,-5.9694 Z"
         id="path344" />
    </symbol>
    <symbol
       id="w"
       overflow="visible">
      <path
         d="m 14.312,-14.828 v 3.7188 c -1.043,-0.4375 -2.0547,-0.76562 -3.0312,-0.98438 -0.98047,-0.21875 -1.9023,-0.32812 -2.7656,-0.32812 -0.92969,0 -1.6211,0.11719 -2.0781,0.34375 -0.44922,0.23047 -0.67188,0.58984 -0.67188,1.0781 0,0.38672 0.17188,0.68359 0.51562,0.89062 0.34375,0.21094 0.95703,0.36719 1.8438,0.46875 l 0.85938,0.125 c 2.5078,0.32422 4.1953,0.85156 5.0625,1.5781 0.86328,0.73047 1.2969,1.8711 1.2969,3.4219 0,1.6367 -0.60547,2.8672 -1.8125,3.6875 -1.1992,0.8125 -2.9922,1.2188 -5.375,1.2188 -1.0234,0 -2.0742,-0.078125 -3.1562,-0.23438 -1.0742,-0.15625 -2.1797,-0.39453 -3.3125,-0.71875 v -3.7188 c 0.96875,0.48047 1.9609,0.83984 2.9844,1.0781 1.0312,0.23047 2.0781,0.34375 3.1406,0.34375 0.95703,0 1.6758,-0.12891 2.1562,-0.39062 0.47656,-0.26953 0.71875,-0.66406 0.71875,-1.1875 0,-0.4375 -0.16797,-0.75781 -0.5,-0.96875 -0.33594,-0.21875 -0.99609,-0.38281 -1.9844,-0.5 L 7.34339,-6.01551 c -2.1797,-0.26953 -3.7031,-0.77344 -4.5781,-1.5156 -0.875,-0.73828 -1.3125,-1.8594 -1.3125,-3.3594 0,-1.625 0.55078,-2.8281 1.6562,-3.6094 1.1133,-0.78906 2.8203,-1.1875 5.125,-1.1875 0.89453,0 1.8359,0.07422 2.8281,0.21875 1,0.13672 2.082,0.35156 3.25,0.64062 z"
         id="path347" />
    </symbol>
    <symbol
       id="v"
       overflow="visible">
      <path
         d="M 2.3594,-15.312 H 7.25 V 0 H 2.3594 Z m 0,-5.9688 H 7.25 v 4 H 2.3594 Z"
         id="path350" />
    </symbol>
    <symbol
       id="f"
       overflow="visible">
      <path
         d="M 17.75,-9.3281 V 0 h -4.9219 v -7.1406 c 0,-1.3203 -0.03125,-2.2344 -0.09375,-2.7344 -0.0625,-0.5 -0.16797,-0.86719 -0.3125,-1.1094 -0.1875,-0.3125 -0.44922,-0.55469 -0.78125,-0.73438 -0.32422,-0.17578 -0.69531,-0.26562 -1.1094,-0.26562 -1.0234,0 -1.8242,0.39844 -2.4062,1.1875 -0.58594,0.78125 -0.875,1.8711 -0.875,3.2656 V -1e-4 H 2.3594 v -15.312 H 7.25 v 2.2344 c 0.73828,-0.88281 1.5195,-1.5391 2.3438,-1.9688 0.83203,-0.42578 1.75,-0.64062 2.75,-0.64062 1.7695,0 3.1133,0.54688 4.0312,1.6406 0.91406,1.0859 1.375,2.6562 1.375,4.7188 z"
         id="path353" />
    </symbol>
    <symbol
       id="u"
       overflow="visible">
      <path
         d="m 10.75,-12.516 c 0.82031,0 1.4453,-0.17969 1.875,-0.54688 0.4375,-0.36328 0.65625,-0.89844 0.65625,-1.6094 0,-0.69531 -0.21875,-1.2266 -0.65625,-1.5938 -0.42969,-0.375 -1.0547,-0.5625 -1.875,-0.5625 H 7.8281 v 4.3125 z m 0.17188,8.9375 c 1.0625,0 1.8594,-0.22266 2.3906,-0.67188 0.53125,-0.44531 0.79688,-1.125 0.79688,-2.0312 0,-0.88281 -0.26562,-1.5469 -0.79688,-1.9844 -0.52344,-0.4375 -1.3203,-0.65625 -2.3906,-0.65625 h -3.0938 v 5.3438 z m 4.8906,-7.3438 c 1.1328,0.32422 2.0078,0.92969 2.625,1.8125 0.625,0.88672 0.9375,1.9688 0.9375,3.25 0,1.9688 -0.66797,3.4375 -2,4.4062 -1.3359,0.96875 -3.3555,1.4531 -6.0625,1.4531 h -8.7344 v -20.406 h 7.8906 c 2.832,0 4.8828,0.42969 6.1562,1.2812 1.2812,0.85547 1.9219,2.2266 1.9219,4.1094 0,1 -0.23438,1.8516 -0.70312,2.5469 -0.46875,0.6875 -1.1484,1.2031 -2.0312,1.5469 z"
         id="path356" />
    </symbol>
    <symbol
       id="t"
       overflow="visible">
      <path
         d="M 2.3594,-21.281 H 7.25 V 0 H 2.3594 Z"
         id="path359" />
    </symbol>
    <symbol
       id="s"
       overflow="visible">
      <path
         d="M 2.3594,-21.281 H 7.25 v 11.594 l 5.625,-5.625 h 5.6875 L 11.0937,-8.2808 19.1562,4e-4 H 13.2187 L 7.2499,-6.3902 V 4e-4 H 2.3593 Z"
         id="path362" />
    </symbol>
    <symbol
       id="r"
       overflow="visible">
      <path
         d="m 12.422,-21.281 v 3.2188 H 9.7189 c -0.6875,0 -1.1719,0.125 -1.4531,0.375 -0.27344,0.25 -0.40625,0.6875 -0.40625,1.3125 v 1.0625 h 4.1875 v 3.5 H 7.85955 V -2e-4 h -4.8906 v -11.812 h -2.4375 v -3.5 h 2.4375 v -1.0625 c 0,-1.6641 0.46094,-2.8984 1.3906,-3.7031 0.92578,-0.80078 2.3672,-1.2031 4.3281,-1.2031 z"
         id="path365" />
    </symbol>
    <symbol
       id="d"
       overflow="visible">
      <path
         d="m 9.6406,-12.188 c -1.0859,0 -1.9141,0.39062 -2.4844,1.1719 -0.57422,0.78125 -0.85938,1.9062 -0.85938,3.375 0,1.4688 0.28516,2.5938 0.85938,3.375 0.57031,0.77344 1.3984,1.1562 2.4844,1.1562 1.0625,0 1.875,-0.38281 2.4375,-1.1562 0.57031,-0.78125 0.85938,-1.9062 0.85938,-3.375 0,-1.4688 -0.28906,-2.5938 -0.85938,-3.375 -0.5625,-0.78125 -1.375,-1.1719 -2.4375,-1.1719 z m 0,-3.5 c 2.6328,0 4.6914,0.71484 6.1719,2.1406 1.4766,1.418 2.2188,3.3867 2.2188,5.9062 0,2.5117 -0.74219,4.4805 -2.2188,5.9062 C 14.332,-0.317 12.2734,0.39 9.6406,0.39 6.9922,0.39 4.9258,-0.31703 3.4375,-1.735 1.9453,-3.1608 1.2031,-5.1295 1.2031,-7.6412 c 0,-2.5195 0.74219,-4.4883 2.2344,-5.9062 1.4883,-1.4258 3.5547,-2.1406 6.2031,-2.1406 z"
         id="path368" />
    </symbol>
    <symbol
       id="q"
       overflow="visible">
      <path
         d="m 16.547,-12.766 c 0.61328,-0.94531 1.3477,-1.6719 2.2031,-2.1719 0.85156,-0.5 1.7891,-0.75 2.8125,-0.75 1.7578,0 3.0977,0.54688 4.0156,1.6406 0.92578,1.0859 1.3906,2.6562 1.3906,4.7188 V -4e-4 h -4.9219 v -7.9844 -0.35938 c 0.0078,-0.13281 0.01563,-0.32031 0.01563,-0.5625 0,-1.082 -0.16406,-1.8633 -0.48438,-2.3438 -0.3125,-0.48828 -0.82422,-0.73438 -1.5312,-0.73438 -0.92969,0 -1.6484,0.38672 -2.1562,1.1562 -0.51172,0.76172 -0.77344,1.8672 -0.78125,3.3125 v 7.5156 h -4.9219 v -7.9844 c 0,-1.6953 -0.14844,-2.7852 -0.4375,-3.2656 -0.29297,-0.48828 -0.8125,-0.73438 -1.5625,-0.73438 -0.9375,0 -1.6641,0.38672 -2.1719,1.1562 -0.51172,0.76172 -0.76562,1.8594 -0.76562,3.2969 v 7.5312 h -4.9219 v -15.312 h 4.9219 v 2.2344 c 0.60156,-0.86328 1.2891,-1.5156 2.0625,-1.9531 0.78125,-0.4375 1.6406,-0.65625 2.5781,-0.65625 1.0625,0 2,0.25781 2.8125,0.76562 0.8125,0.51172 1.4258,1.2305 1.8438,2.1562 z"
         id="path371" />
    </symbol>
    <symbol
       id="p"
       overflow="visible">
      <path
         d="M 17.75,-9.3281 V 0 h -4.9219 v -7.1094 c 0,-1.3438 -0.03125,-2.2656 -0.09375,-2.7656 -0.0625,-0.5 -0.16797,-0.86719 -0.3125,-1.1094 -0.1875,-0.3125 -0.44922,-0.55469 -0.78125,-0.73438 -0.32422,-0.17578 -0.69531,-0.26562 -1.1094,-0.26562 -1.0234,0 -1.8242,0.39844 -2.4062,1.1875 -0.58594,0.78125 -0.875,1.8711 -0.875,3.2656 V -1e-4 H 2.3594 v -21.281 H 7.25 v 8.2031 c 0.73828,-0.88281 1.5195,-1.5391 2.3438,-1.9688 0.83203,-0.42578 1.75,-0.64062 2.75,-0.64062 1.7695,0 3.1133,0.54688 4.0312,1.6406 0.91406,1.0859 1.375,2.6562 1.375,4.7188 z"
         id="path374" />
    </symbol>
    <symbol
       id="o"
       overflow="visible">
      <path
         d="m 2.5781,-20.406 h 5.875 l 7.4219,14 v -14 h 4.9844 V 0 h -5.875 L 7.5625,-14 V 0 H 2.5781 Z"
         id="path377" />
    </symbol>
    <symbol
       id="n"
       overflow="visible">
      <path
         d="m 2.5781,-20.406 h 8.7344 c 2.5938,0 4.582,0.57812 5.9688,1.7344 1.3945,1.1484 2.0938,2.7891 2.0938,4.9219 0,2.1367 -0.69922,3.7812 -2.0938,4.9375 -1.3867,1.1562 -3.375,1.7344 -5.9688,1.7344 H 7.8281 V 3e-4 h -5.25 z m 5.25,3.8125 v 5.7031 H 10.75 c 1.0195,0 1.8047,-0.25 2.3594,-0.75 0.5625,-0.5 0.84375,-1.2031 0.84375,-2.1094 0,-0.91406 -0.28125,-1.6172 -0.84375,-2.1094 -0.55469,-0.48828 -1.3398,-0.73438 -2.3594,-0.73438 z"
         id="path380" />
    </symbol>
    <symbol
       id="m"
       overflow="visible">
      <path
         d="M 2.3594,-15.312 H 7.25 v 15.031 c 0,2.0508 -0.49609,3.6172 -1.4844,4.7031 -0.98047,1.082 -2.4062,1.625 -4.2812,1.625 H -0.9375 V 2.8283 h 0.85938 c 0.92578,0 1.5625,-0.21094 1.9062,-0.625 0.35156,-0.41797 0.53125,-1.2461 0.53125,-2.4844 z m 0,-5.9688 H 7.25 v 4 H 2.3594 Z"
         id="path383" />
    </symbol>
    <symbol
       id="l"
       overflow="visible">
      <path
         d="m 14.719,-14.828 v 3.9844 c -0.65625,-0.45703 -1.3242,-0.79688 -2,-1.0156 -0.66797,-0.21875 -1.3594,-0.32812 -2.0781,-0.32812 -1.3672,0 -2.4336,0.40234 -3.2031,1.2031 -0.76172,0.79297 -1.1406,1.9062 -1.1406,3.3438 0,1.4297 0.37891,2.543 1.1406,3.3438 0.76953,0.79297 1.8359,1.1875 3.2031,1.1875 0.75781,0 1.4844,-0.10938 2.1719,-0.32812 0.6875,-0.22656 1.3203,-0.56641 1.9062,-1.0156 v 4 c -0.76172,0.28125 -1.5391,0.48828 -2.3281,0.625 -0.78125,0.14453 -1.5742,0.21875 -2.375,0.21875 -2.7617,0 -4.9219,-0.70703 -6.4844,-2.125 -1.5547,-1.4141 -2.3281,-3.3828 -2.3281,-5.9062 0,-2.5312 0.77344,-4.5039 2.3281,-5.9219 1.5625,-1.4141 3.7227,-2.125 6.4844,-2.125 0.80078,0 1.5938,0.07422 2.375,0.21875 0.78125,0.13672 1.5547,0.35156 2.3281,0.64062 z"
         id="path386" />
    </symbol>
  </defs>
  <g
     id="g485"
     transform="translate(-91.5613,-26.541)">
    <path
       d="m 372.12,168.5 c -10.078,0 -18.258,8.1758 -18.258,18.258 0,10.078 8.1758,18.258 18.258,18.258 10.078,0 18.258,-8.1758 18.258,-18.258 C 390.374,176.676 382.1983,168.5 372.12,168.5 Z m 0,25.312 c -3.9219,0 -7.0547,-3.1914 -7.0547,-7.0547 0,-3.8633 3.1914,-7.0547 7.0547,-7.0547 3.8633,0 7.0547,3.1914 7.0547,7.0547 0,3.8633 -3.1914,7.0547 -7.0547,7.0547 z"
       id="path391" />
    <path
       d="m 372.12,209.5 c -10.078,0 -18.258,8.1758 -18.258,18.258 0,10.078 8.1758,18.258 18.258,18.258 10.078,0 18.258,-8.1758 18.258,-18.258 C 390.374,217.731 382.1983,209.5 372.12,209.5 Z m 0,25.367 c -3.9219,0 -7.0547,-3.1914 -7.0547,-7.0547 0,-3.8633 3.1914,-7.0547 7.0547,-7.0547 3.8633,0 7.0547,3.1914 7.0547,7.0547 0,3.8633 -3.1914,7.0547 -7.0547,7.0547 z"
       id="path393" />
    <path
       d="m 612.59,196.67 -61.098,-69.945 c 9.7422,-20.551 6.4414,-45.191 -8.6797,-62.441 -16.855,-19.266 -43.848,-24.586 -66.191,-14.895 -10.305,-13.832 -26.711,-22.848 -45.246,-22.848 -31.137,0 -56.449,25.312 -56.449,56.449 0,0.55859 0.11328,1.1211 0.11328,1.7344 h -26.938 c -21.727,0 -39.367,17.641 -39.367,39.367 v 102.98 c 0,16.801 10.641,31.191 25.535,36.793 4.3125,1.625 8.9609,2.5742 13.832,2.5742 h 47.938 c 4.8711,0 9.5195,-0.95312 13.832,-2.5742 14.895,-5.6016 25.535,-19.992 25.535,-36.793 l -0.004,-87.918 c 5.8789,-0.44922 11.703,-1.6797 17.137,-3.8633 1.1211,1.5664 2.3516,3.1367 3.6406,4.5938 15.121,17.305 39.09,23.855 60.703,16.969 l 11.984,13.719 c 2.0156,2.2969 5.0977,3.3594 8.0625,2.7422 l 8.457,-1.6797 c -0.55859,2.6328 0.11328,5.375 1.9023,7.4492 1.793,2.0703 4.4805,3.1367 7.168,2.8555 -0.61719,2.6328 0.11328,5.4336 1.9023,7.4492 1.793,2.0703 4.4805,3.1367 7.168,2.8555 -0.61719,2.6328 0.11328,5.4336 1.9023,7.4492 1.793,2.0703 4.4258,3.0781 7.1133,2.8555 -0.67187,2.6875 0,5.543 1.8477,7.6719 l 9.6875,11.09 c 1.625,1.8477 3.9766,2.9102 6.4414,2.9102 0.55859,0 1.1211,-0.0547 1.625,-0.16797 l 12.375,-2.4648 c 3.0781,-0.61719 5.6016,-2.8555 6.4961,-5.9375 l 3.3047,-11.145 c 0.84375,-2.6328 0.22656,-5.6562 -1.7305,-7.8398 z m -11.816,14.391 -9.2383,1.8477 -7.6172,-8.7344 0.72656,-2.1836 c 0.95312,-2.8555 0.33594,-6.0469 -1.625,-8.3438 -1.793,-2.0703 -4.4805,-3.1367 -7.168,-2.8555 0.61719,-2.6328 -0.11328,-5.4336 -1.9023,-7.4492 -1.793,-2.0703 -4.4805,-3.0781 -7.168,-2.8555 0.61719,-2.6328 -0.11328,-5.4336 -1.9023,-7.4492 -1.793,-2.0703 -4.4805,-3.0781 -7.168,-2.8555 0.61719,-2.6328 -0.11328,-5.4336 -1.9023,-7.4492 -2.0156,-2.2969 -5.0391,-3.3594 -8.0625,-2.7422 l -11.48,2.2383 -16.07,-18.426 -3.6953,1.457 c -18.199,7.2227 -39.09,2.1289 -51.969,-12.602 -16.801,-19.207 -14.84,-48.551 4.4258,-65.352 1.1758,-1.0078 2.3516,-1.9609 3.5859,-2.8008 0.72656,1.5664 1.3438,3.1367 1.8477,4.7617 -0.78516,0.50391 -1.5664,1.0078 -2.2969,1.625 -6.7188,5.8789 -7.3906,16.07 -1.5117,22.793 2.8555,3.2461 6.7773,5.207 11.09,5.4883 0.39062,0 0.72656,0.05469 1.1211,0.05469 3.9219,0 7.6172,-1.3984 10.586,-3.9766 6.7188,-5.8789 7.3906,-16.07 1.5117,-22.793 -2.5195,-2.9102 -5.8789,-4.5938 -9.4062,-5.207 -0.83984,-2.8008 -1.8477,-5.4883 -3.0781,-8.0625 17.695,-7 38.695,-2.5742 51.91,12.543 12.879,14.727 15.062,36.121 5.4883,53.145 l -1.9609,3.4727 65.238,74.648 z m -255.3,43.848 v -79.855 c 0,-14.672 11.93,-26.656 26.656,-26.656 14.672,0 26.656,11.93 26.656,26.656 v 79.91 c -0.95312,0.0586 -52.418,0.0586 -53.312,-0.0547 z m 78.793,-27.887 c 0,10.473 -5.8242,19.543 -14.336,24.359 v -76.328 c 0,-20.887 -16.969,-37.855 -37.855,-37.855 -20.887,0 -37.855,16.969 -37.855,37.855 v 76.383 c -8.5117,-4.8711 -14.336,-13.887 -14.336,-24.359 l -0.004,-103.04 c 0,-15.512 12.656,-28.168 28.168,-28.168 h 47.938 c 15.512,0 28.168,12.656 28.168,28.168 v 3.5859 c -6.5508,-1.0625 -12.711,-3.5859 -18.145,-7.2227 v -18.648 h -67.871 v 31.473 h 67.816 c 5.7109,2.9102 11.871,4.9297 18.312,5.7695 z m -40.656,-114.13 c 2.0703,3.3047 4.4805,6.3281 7.1133,9.0703 h -41.441 v -9.0703 z m 51.855,15.066 v -3.9219 c 0,-21.727 -17.641,-39.367 -39.367,-39.367 h -9.8008 c 0,-0.55859 -0.11328,-1.1211 -0.11328,-1.7344 0,-24.977 20.328,-45.246 45.246,-45.246 14.336,0 27.105,6.7188 35.391,17.137 -1.7344,1.2305 -3.4727,2.5195 -5.0977,3.9766 -19.434,16.969 -24.695,44.184 -14.727,66.641 -3.75,1.2812 -7.6133,2.1797 -11.531,2.5156 z"
       id="path395" />
    <path
       d="m 413.45,392.89 v -4.5352 c 0,-8.9023 -7.2227,-16.184 -16.184,-16.184 h -17.527 c -3.1367,0 -6.1055,0.95312 -8.5664,2.5195 l -8.793,-63.113 c -1.625,-17.641 -77.168,-19.543 -109.87,-19.543 -32.703,0 -108.25,1.9023 -109.87,19.543 l -8.7969,63.172 c -2.4648,-1.5664 -5.4336,-2.5195 -8.5664,-2.5195 l -17.531,-0.004 c -8.9023,0 -16.184,7.2227 -16.184,16.184 v 4.5352 c 0,8.9023 7.2227,16.184 16.184,16.184 h 5.8789 v 105.28 h 15.457 v 11.312 c 0,8.625 7.0547,15.68 15.68,15.68 h 19.543 c 8.625,0 15.68,-7.0547 15.68,-15.68 v -11.312 h 40.039 v 4.7031 h 64.902 v -4.7031 h 40.039 v 11.312 c 0,8.625 7,15.68 15.68,15.68 h 19.602 c 8.625,0 15.68,-7 15.68,-15.68 v -11.312 h 15.457 v -105.28 h 5.8789 c 8.9648,-0.0547 16.191,-7.332 16.191,-16.238 z m -11.203,0 c 0,2.7422 -2.2383,4.9844 -4.9844,4.9844 h -13.945 c -2.4062,-1.2305 -5.2656,-2.4062 -8.5117,-3.4141 v -6.0469 c 0,-2.7422 2.2383,-4.9844 4.9844,-4.9844 h 17.527 c 2.7422,0 4.9844,2.2383 4.9844,4.9844 l 0.004,4.4766 z M 380.239,503.1 H 284.985 V 482.772 H 220.024 V 503.1 h -95.199 v -94.805 c 0.83984,-0.72656 2.4648,-1.5664 4.6484,-2.3516 2.8555,-1.0625 6.9453,-2.1289 11.93,-3.1914 2.8555,-0.61719 6.1055,-1.1758 9.6328,-1.793 14.391,-2.3516 34.047,-4.4258 58.184,-5.6016 13.215,-0.61719 27.609,-1.0078 43.289,-1.0078 8.9023,0 17.359,0.11328 25.48,0.33594 1.9609,0.0547 3.8633,0.11328 5.7695,0.16797 1.9023,0.0547 3.8086,0.11328 5.6016,0.22266 2.1836,0.11328 4.3125,0.16797 6.3828,0.28125 15.062,0.72656 28.391,1.793 39.762,3.0781 1.9023,0.22266 3.8633,0.44922 5.6562,0.67188 2.0156,0.22266 3.8633,0.50391 5.7109,0.78516 2.4648,0.33594 4.8164,0.72656 7.0547,1.0625 3.5273,0.55859 6.7773,1.1758 9.6328,1.793 5.0391,1.0625 9.0703,2.1289 11.93,3.1914 2.1836,0.78516 3.7539,1.625 4.6484,2.3516 v 0.72656 l -0.008,94.082 z m -15.512,22.566 c 0,2.4648 -2.0156,4.4805 -4.4805,4.4805 h -19.602 c -2.4648,0 -4.4805,-2.0156 -4.4805,-4.4805 v -11.312 h 28.559 z m -90.941,-17.809 h -42.504 v -13.832 h 42.504 z m -104.95,17.754 c 0,2.4648 -2.0156,4.4805 -4.4805,4.4805 h -19.543 c -2.4648,0 -4.4805,-2.0156 -4.4805,-4.4805 v -11.312 h 28.559 v 11.312 z m -66.078,-132.72 v -4.5352 c 0,-2.7422 2.2383,-4.9844 4.9844,-4.9844 h 17.527 c 2.7422,0 4.9844,2.2383 4.9844,4.9844 v 6.0469 c -3.2461,1.0625 -6.1602,2.1836 -8.5117,3.4141 l -14.004,0.004 c -2.7422,0.0547 -4.9805,-2.1836 -4.9805,-4.9297 z m 248.64,-79.184 10.809,77.449 c -4.4258,-0.89453 -9.1289,-1.7344 -14.113,-2.4648 -1.0078,-18.535 -16.352,-33.266 -35.113,-33.266 -16.969,0 -31.191,12.098 -34.496,28.113 -11.594,-0.33594 -20.945,-0.39062 -25.93,-0.39062 -15.68,0 -73.809,0.55859 -109.7,8.0078 l 10.809,-77.449 c 6.2734,-4.5352 42.84,-10.473 98.84,-10.473 56.004,0 92.629,5.9922 98.898,10.473 z m -14.781,73.527 c -15.457,-1.7344 -32.09,-2.7422 -46.648,-3.3047 2.9102,-9.9688 12.039,-17.305 22.961,-17.305 12.094,0.004 22.062,8.9648 23.688,20.609 z"
       id="path397" />
    <path
       d="m 149.86,414.68 c -10.809,0 -19.656,8.793 -19.656,19.656 0,10.863 8.793,19.656 19.656,19.656 10.863,0 19.656,-8.793 19.656,-19.656 0,-10.863 -8.793,-19.656 -19.656,-19.656 z m 0,28.113 c -4.6484,0 -8.457,-3.8086 -8.457,-8.457 0,-4.6484 3.8086,-8.457 8.457,-8.457 4.6484,0 8.457,3.8086 8.457,8.457 0,4.6484 -3.8086,8.457 -8.457,8.457 z"
       id="path399" />
    <path
       d="m 355.15,414.68 c -10.809,0 -19.656,8.793 -19.656,19.656 0,10.863 8.793,19.656 19.656,19.656 10.863,0 19.656,-8.793 19.656,-19.656 0,-10.863 -8.793,-19.656 -19.656,-19.656 z m 0,28.113 c -4.6484,0 -8.457,-3.8086 -8.457,-8.457 0,-4.6484 3.8086,-8.457 8.457,-8.457 4.6484,0 8.457,3.8086 8.457,8.457 0,4.6484 -3.8086,8.457 -8.457,8.457 z"
       id="path401" />
    <path
       d="m 180.38,414.68 v 61.656 H 324.64 V 414.68 Z m 133.06,11.199 v 39.258 H 191.58 v -39.258 z"
       id="path403" />
    <path
       d="m 146.72,285.6 c 3.0781,0 5.6016,-2.5195 5.6016,-5.6016 0,-85.734 54.711,-161.28 136.14,-187.88 2.9102,-0.95312 4.5352,-4.1445 3.5859,-7.0547 -0.95312,-2.9102 -4.1445,-4.5352 -7.0547,-3.5859 -86.02,28.113 -143.87,107.91 -143.87,198.52 0,3.0781 2.5195,5.6016 5.5977,5.6016 z"
       id="path405" />
    <path
       d="m 535.08,195.72 c -2.8555,1.1758 -4.1992,4.4805 -2.9688,7.3359 10.305,24.359 15.512,50.23 15.512,76.945 0,85.398 -54.434,160.83 -135.46,187.66 -2.9102,0.95312 -4.5352,4.1445 -3.5273,7.0547 0.78516,2.3516 2.9688,3.8633 5.3203,3.8633 0.55859,0 1.1758,-0.11328 1.7344,-0.28125 85.684,-28.332 143.2,-108.02 143.2,-198.29 0,-28.168 -5.543,-55.551 -16.406,-81.312 -1.2344,-2.8555 -4.5352,-4.1445 -7.3945,-2.9688 z"
       id="path407" />
  </g>
  <path
     style="fill:#aa0000;stroke-width:0.85995"
     d="m 33.99153,428.86477 v -47.23551 l 4.70499,-1.76037 c 9.90895,-3.70741 34.37145,-7.48398 62.80115,-9.69536 19.60222,-1.52474 101.71397,-1.55194 119.53317,-0.0396 29.89194,2.53698 56.5594,6.86348 64.05377,10.39202 l 3.0224,1.42302 0.22233,47.07566 0.22233,47.07565 h -47.30464 -47.30464 v -10.3194 -10.31942 h -33.10811 -33.10811 v 10.31942 10.3194 H 80.85885 33.99153 Z m 199.50859,-9.95123 v -31.3882 H 160.83428 88.16843 v 31.3882 31.38821 h 72.66585 72.66584 z m -168.39725,7.70087 c 7.7776,-2.65011 13.03847,-10.26804 13.03847,-18.88023 0,-20.77497 -27.87591,-27.58234 -37.4536,-9.14627 -4.96013,9.54773 -1.47904,21.89493 7.4874,26.55737 5.87693,3.05594 10.97274,3.49819 16.92773,1.46913 z m 204.63692,0.3306 c 4.45081,-1.3335 10.06507,-6.26922 12.0155,-10.56333 1.88983,-4.16065 2.12052,-12.24282 0.46237,-16.19969 -5.58925,-13.33783 -23.43311,-16.58038 -33.40779,-6.07079 -3.33772,3.51671 -4.99308,8.1152 -4.97145,13.81035 0.024,6.30572 2.18927,11.15078 6.66142,14.90537 5.77563,4.84893 12.20645,6.22538 19.23995,4.11809 z"
     id="path733" />
  <path
     style="fill:#d40000;stroke-width:0.85995"
     d="m 33.99153,429.18907 v -46.9112 l 3.03525,-1.26821 c 7.509,-3.13745 27.95297,-6.7955 53.29152,-9.53546 11.55432,-1.24941 22.78554,-1.49505 70.086,-1.53285 59.54686,-0.0476 63.46837,0.13543 92.87469,4.33434 15.84907,2.26308 28.08047,4.90783 32.03317,6.92641 l 2.36487,1.2077 0.009,43.62043 c 0.005,23.99123 0.24932,45.07158 0.54249,46.84524 l 0.53303,3.22481 H 241.35173 193.94192 V 465.78087 455.46145 H 160.83381 127.7257 v 10.31942 10.31941 H 80.85838 33.99107 Z m 199.50859,-10.27553 v -31.3882 H 160.83428 88.16843 v 31.3882 31.38821 h 72.66585 72.66584 z m -167.46928,7.7714 c 8.03904,-3.35892 12.1956,-9.81553 12.19992,-18.95076 0.003,-6.28584 -1.32219,-10.0138 -4.99707,-14.05788 -4.46605,-4.91472 -14.95902,-7.48708 -21.6002,-5.29529 -4.27188,1.40985 -9.78101,6.45706 -11.73784,10.75367 -3.04928,6.69533 -1.44048,17.67043 3.38763,23.1101 4.35945,4.91164 16.12345,7.20789 22.74756,4.44016 z m 209.15381,-2.20396 c 2.43079,-1.74604 5.0669,-4.6402 6.25909,-6.8718 1.77991,-3.33172 2.02188,-4.79841 1.78161,-10.799 -0.23416,-5.84749 -0.64834,-7.503 -2.62366,-10.48686 -3.38697,-5.11626 -8.929,-8.08617 -15.9927,-8.57032 -5.09228,-0.34903 -6.27261,-0.1129 -10.45536,2.09161 -2.96005,1.56008 -5.68076,3.85909 -7.30958,6.17662 -2.43681,3.46715 -2.59454,4.17923 -2.59454,11.71295 0,7.53372 0.15773,8.24581 2.59454,11.71296 1.63421,2.3252 4.33972,4.60785 7.30958,6.16712 4.15102,2.17941 5.43975,2.44012 10.77331,2.17936 5.31018,-0.2596 6.57682,-0.66865 10.25771,-3.31264 z"
     id="path735" />
  <path
     style="fill:#000000;stroke-width:0.85995"
     d="m 52.05049,363.13282 c 0,-0.45085 2.32979,-17.49495 5.17731,-37.87577 4.16065,-29.77937 5.46416,-37.27057 6.63805,-38.14856 4.54039,-3.39588 27.37399,-6.88581 58.08225,-8.87741 17.74564,-1.15089 77.28465,-0.56469 92.63311,0.91204 15.65515,1.50624 32.94243,4.20014 39.04111,6.08384 5.16256,1.59455 5.64527,1.95174 6.08526,4.50287 1.01,5.85616 9.90584,70.79003 9.9081,72.32276 10e-4,1.45074 -0.45857,1.55558 -4.51236,1.02686 -8.03074,-1.04743 -8.11614,-1.10012 -8.7013,-5.36935 -1.88685,-13.76605 -14.64966,-26.13086 -29.71026,-28.78373 -10.25433,-1.80627 -22.77412,2.34477 -30.40858,10.08222 -4.12057,4.17616 -9.2204,13.01251 -9.2204,15.97597 0,1.50502 -1.40072,1.58257 -28.59337,1.58304 -39.85118,7e-4 -75.13804,2.13582 -97.60442,5.90582 -5.12684,0.86031 -8.8145,1.13619 -8.8145,0.6594 z"
     id="path1013" />
  <path
     style="fill:#f2f2f2;stroke-width:0.85995"
     d="m 53.30148,357.64204 c 1.59949,-13.42325 9.15912,-64.68188 9.95383,-67.4928 0.82143,-2.90538 1.33478,-3.33381 5.38598,-4.49502 5.93055,-1.6999 17.32947,-3.60816 31.56645,-5.28442 15.21066,-1.79091 83.04641,-2.62666 104.70771,-1.29002 23.85504,1.472 49.07679,5.56511 52.63581,8.54199 1.49079,1.24695 2.29096,5.57781 5.99041,32.423 2.34837,17.04109 4.54239,33.64469 4.87559,36.89688 l 0.60581,5.91308 -5.05808,-0.52204 c -5.70393,-0.5887 -6.76074,-1.52447 -7.59192,-6.72243 -1.73455,-10.84735 -12.39485,-21.92435 -24.93324,-25.90787 -10.22521,-3.24861 -23.55983,-0.6316 -32.4043,6.35954 -4.63403,3.66299 -10.91221,12.47365 -11.71339,16.4383 -0.26483,1.31052 -0.82464,2.59484 -1.24403,2.85403 -0.41939,0.2592 -19.04109,0.81561 -41.38156,1.23647 -39.44939,0.74317 -61.03167,2.03696 -79.09617,4.74155 -4.60837,0.68997 -9.39344,1.25448 -10.63348,1.25448 -2.23978,0 -2.25074,-0.0326 -1.66542,-4.94472 z"
     id="path1084" />
  <path
     style="fill:#000000;stroke-width:0.85995"
     d="m 13.3527,369.46637 c -1.19212,-1.19212 -1.7199,-2.86651 -1.7199,-5.4564 0,-5.96182 1.27172,-6.58291 13.47866,-6.58291 11.91115,0 13.17982,0.63655 13.17982,6.61299 0,3.4173 -0.0699,3.49446 -4.80625,5.30697 -6.66009,2.54868 -17.63792,2.61375 -20.13233,0.11935 z"
     id="path1086" />
  <path
     style="fill:#000000;stroke-width:0.85995"
     d="m 287.89202,369.26251 c -4.30619,-1.6515 -4.51475,-1.87657 -4.51475,-4.87222 0,-1.72741 0.60241,-4.0008 1.33869,-5.05199 1.2607,-1.7999 1.9585,-1.91124 11.97789,-1.91124 12.52962,0 13.3419,0.41961 13.3419,6.89226 0,5.82507 -1.69733,6.89655 -10.72574,6.77082 -4.65344,-0.0648 -8.37463,-0.66044 -11.41799,-1.82763 z"
     id="path1088" />
  <path
     style="fill:#000000;stroke-width:0.85995"
     d="m 247.85547,503.04986 c -2.14494,-0.60193 -3.17598,-3.7855 -3.17598,-9.80655 v -5.10372 h 14.18919 14.18919 v 5.85529 c 0,8.94489 -0.30589,9.16399 -13.04314,9.34243 -5.83304,0.0817 -11.3047,-0.0476 -12.15926,-0.28745 z"
     id="path1090" />
  <path
     style="fill:#000000;stroke-width:0.85995"
     d="m 50.50258,501.72681 c -0.61414,-0.61414 -1.03194,-3.57357 -1.03194,-7.30958 v -6.27764 h 13.75922 13.7592 v 5.64621 c 0,9.1094 0.20707,8.97296 -13.61748,8.97296 -8.06,0 -12.16634,-0.32928 -12.869,-1.03195 z"
     id="path1092" />
  <path
     style="fill:#000000;stroke-width:0.85995"
     d="m 318.63526,183.48894 c 0,-38.274 -0.10788,-41.2177 -1.69933,-46.37018 -3.19584,-10.34696 -10.41444,-18.56583 -20.50494,-23.34629 -5.45603,-2.58484 -6.26172,-2.72134 -16.06354,-2.72134 -9.99364,0 -10.5087,0.0925 -16.3154,2.93008 -10.91736,5.33502 -18.82836,15.65957 -21.07466,27.50429 -0.51522,2.71675 -0.87776,20.5631 -0.87776,43.20881 0,22.27828 -0.32691,38.58041 -0.77366,38.58041 -0.42551,0 -2.71479,-2.12391 -5.0873,-4.7198 -7.7752,-8.50732 -7.46827,-5.64425 -7.46827,-69.66595 0,-65.23942 -0.43456,-61.64071 8.52319,-70.58357 8.13772,-8.124187 9.03708,-8.326462 38.92781,-8.755395 26.71746,-0.3834 34.00338,0.202613 40.27668,3.239467 8.32047,4.027868 14.41849,12.922838 15.56873,22.709548 l 0.59604,5.0714 -2.89026,-0.57806 c -1.58965,-0.31793 -5.51981,-1.79008 -8.7337,-3.27146 l -5.84344,-2.69341 v -9.76213 -9.76214 h -34.39803 -34.39803 v 16.33907 16.33907 h 34.01076 c 29.16815,0 34.38108,0.1915 36.61159,1.34494 1.43045,0.73971 5.37776,2.05029 8.77179,2.9124 l 6.17096,1.56746 v 46.83755 46.83754 l -3.00982,5.84378 c -1.8463,3.58471 -4.42269,7.0013 -6.66462,8.83807 l -3.65479,2.99428 z"
     id="path1094" />
</svg>
