<?xml version="1.0" encoding="UTF-8" standalone="no"?>
<svg
   version="1.1"
   x="0px"
   y="0px"
   viewBox="0 0 14.008 13.003999"
   xml:space="preserve"
   id="svg28"
   sodipodi:docname="quote.svg"
   width="14.008"
   height="13.004"
   inkscape:version="1.2.2 (732a01da63, 2022-12-09)"
   xmlns:inkscape="http://www.inkscape.org/namespaces/inkscape"
   xmlns:sodipodi="http://sodipodi.sourceforge.net/DTD/sodipodi-0.dtd"
   xmlns="http://www.w3.org/2000/svg"
   xmlns:svg="http://www.w3.org/2000/svg"><defs
     id="defs32" /><sodipodi:namedview
     id="namedview30"
     pagecolor="#ffffff"
     bordercolor="#000000"
     borderopacity="0.25"
     inkscape:showpageshadow="2"
     inkscape:pageopacity="0.0"
     inkscape:pagecheckerboard="0"
     inkscape:deskcolor="#d1d1d1"
     showgrid="false"
     inkscape:zoom="40.7"
     inkscape:cx="7.002457"
     inkscape:cy="8.022113"
     inkscape:window-width="1920"
     inkscape:window-height="1001"
     inkscape:window-x="-9"
     inkscape:window-y="-9"
     inkscape:window-maximized="1"
     inkscape:current-layer="svg28" /><g
     id="g22"
     transform="translate(-0.996,-2)"><path
       d="M 7,4 C 7,2.9 6.1,2 5,2 H 3 C 1.9,2 1,2.9 1,4 v 3 c 0,1.1 0.9,2 2,2 h 1 c 0.545,0 0.983,0.437 0.996,0.979 v 0.058 c 0,1.632 -1.344,2.96 -2.996,2.96 -0.555,0 -1.004,0.449 -1.004,1.004 0,0.555 0.449,1.003 1.004,1.003 2.759,0 5.004,-2.229 5.004,-4.968 z"
       id="path18" /><path
       d="M 15,4 C 15,2.9 14.1,2 13,2 H 11 C 9.9,2 9,2.9 9,4 v 3 c 0,1.1 0.9,2 2,2 h 1 c 0.546,0 0.985,0.438 0.996,0.98 v 0.056 c 0,1.632 -1.345,2.96 -2.996,2.96 -0.555,0 -1.004,0.449 -1.004,1.004 0,0.555 0.45,1.004 1.004,1.004 2.76,0 5.004,-2.229 5.004,-4.968 z"
       id="path20" /></g><path
     style="fill:#ff00ff;stroke-width:0.02457"
     d="m 0.8221818,12.974173 c -0.3060667,-0.06296 -0.5785205,-0.283499 -0.7201484,-0.582936 -0.070331,-0.148697 -0.077993,-0.187274 -0.07673,-0.386323 0.00161,-0.254411 0.049694,-0.404138 0.1920552,-0.598072 0.099502,-0.135549 0.292138,-0.277619 0.4574034,-0.337337 0.06132,-0.02216 0.2528285,-0.04969 0.4299754,-0.06181 0.5143968,-0.0352 0.8510772,-0.121057 1.2538893,-0.319745 C 3.3221278,10.212699 3.9413727,9.270027 4.0074238,8.177996 4.0418248,7.6092408 3.8109988,7.2223705 3.3275192,7.0384587 3.2362602,7.0037447 3.0831614,6.9939437 2.4192334,6.9803167 1.6820714,6.9651857 1.6074908,6.9596487 1.4487174,6.9082577 0.7695157,6.6884177 0.2786766,6.181057 0.0803761,5.493858 L 0.023656,5.2972973 V 3.5036855 c 0,-1.637324 0.00377,-1.8072688 0.043301,-1.9503441 C 0.1813193,1.1393979 0.3206072,0.8975329 0.6133366,0.6045865 0.859517,0.3582236 1.0835412,0.2169506 1.3895852,0.1150723 1.69959,0.0118756 1.9397118,-0.0024406 3.1686192,0.0090053 c 1.2840793,0.01196 1.2962297,0.013544 1.7199017,0.2242344 0.5158174,0.2565142 0.8982351,0.7312552 1.0412894,1.2926774 0.044919,0.1762847 0.047367,0.3324184 0.055673,3.5503686 C 5.9950233,8.77338 6.0007093,8.603359 5.8471133,9.216216 5.3584109,11.166171 3.7153045,12.65046 1.7304348,12.93499 1.3896675,12.98384 0.9594101,13.0024 0.8221816,12.97417 Z"
     id="path276" /><path
     style="fill:#ff8080;stroke-width:0.02457"
     d="M 8.8074398,12.967342 C 8.5005923,12.898066 8.2430922,12.692945 8.1097629,12.411584 8.0395011,12.263312 8.033484,12.230264 8.033484,11.992629 c 0,-0.232716 0.00673,-0.271684 0.06868,-0.397843 0.1046654,-0.213137 0.2630504,-0.373588 0.4694937,-0.475617 0.1660037,-0.08204 0.2012157,-0.08963 0.5201873,-0.112057 0.561508,-0.03948 0.890652,-0.125985 1.313575,-0.34523 0.999951,-0.518378 1.627831,-1.560562 1.591688,-2.641959 -0.0078,-0.2345181 -0.02035,-0.3137628 -0.0652,-0.4130434 C 11.844338,7.4130656 11.754718,7.2991889 11.599922,7.1850435 11.360662,7.0086155 11.30796,6.9995494 10.416781,6.9815152 L 9.630536,6.9656044 9.39712,6.8857236 C 9.061856,6.7709875 8.8559222,6.6409356 8.597688,6.3808646 8.3576082,6.1390769 8.2082142,5.8918251 8.0914333,5.5429975 L 8.0338542,5.3710074 8.026574,3.5896806 C 8.0202253,2.0362671 8.0243113,1.7835736 8.0585097,1.6146768 8.1371304,1.2263902 8.3250679,0.8802181 8.6103702,0.5981756 8.8710569,0.3404674 9.157325,0.1767581 9.532256,0.0709735 c 0.192641,-0.054353 0.222034,-0.055453 1.474201,-0.055173 1.249031,2.786e-4 1.282043,0.00152 1.474201,0.055458 0.704851,0.1978478 1.225989,0.7062366 1.44162,1.4063499 l 0.05646,0.1833253 0.0079,3.2923833 c 0.0055,2.2780705 -4.2e-4,3.375648 -0.01919,3.562654 -0.09501,0.946442 -0.461831,1.845322 -1.057822,2.592137 -0.190034,0.238126 -0.598549,0.643125 -0.834413,0.827234 -0.525374,0.410091 -1.206525,0.740224 -1.867322,0.905031 -0.489941,0.122195 -1.154696,0.182462 -1.4004912,0.126969 z"
     id="path278" /><path
     style="fill:#800000;stroke-width:0.02457"
     d="M 0.6911,12.917229 C 0.399995,12.79365 0.2429756,12.64151 0.1072928,12.351562 0.0333998,12.193657 0.0300118,12.173645 0.0418898,11.965317 0.0571358,11.697927 0.1464793,11.492961 0.3241308,11.317819 0.5207311,11.123996 0.6775456,11.064395 1.1047372,11.021134 1.5365409,10.977404 1.6739584,10.952454 1.940118,10.86943 2.8602011,10.582435 3.5878323,9.852858 3.8787888,8.925576 3.9663868,8.6464 4.0162851,8.342415 4.0162851,8.087939 4.0162851,7.5878241 3.8269097,7.2591985 3.430821,7.0719759 L 3.2753322,6.9984796 2.4234499,6.967172 C 1.5253742,6.9341666 1.5269448,6.9343872 1.2030172,6.7956246 1.0341345,6.7232794 0.7818673,6.5469091 0.6298781,6.3949199 0.3721166,6.1371582 0.198319,5.8388624 0.0865038,5.4623042 0.0337736,5.2847256 0.033419,5.2690236 0.0409971,3.4475622 l 0.00764,-1.8357686 0.087878,-0.2343995 C 0.3728145,0.7471051 0.8733467,0.2772951 1.5029807,0.094799 1.6911011,0.0402733 1.7171907,0.039312 3.008914,0.039312 c 1.4841816,0 1.4426939,-0.00436 1.8355536,0.1929451 0.4166,0.209229 0.7269486,0.5157168 0.9242032,0.912706 0.1751928,0.3525882 0.169869,0.3030147 0.189984,1.7690418 0.026091,1.9015919 0.025695,4.9365415 -7.125e-4,5.4545451 -0.019316,0.378895 -0.034858,0.490289 -0.1084821,0.777477 -0.3291226,1.283826 -1.0522993,2.308406 -2.1305708,3.018544 -0.7552223,0.497381 -1.6018439,0.764073 -2.5404422,0.800258 -0.3266532,0.01259 -0.3512021,0.0102 -0.4873472,-0.0476 z"
     id="path349" /><path
     style="opacity:1;fill:#800000;stroke-width:0.02457"
     d="m 8.7337297,12.929364 c -0.2701751,-0.08682 -0.4887928,-0.2824 -0.6158406,-0.550954 -0.063978,-0.135236 -0.072081,-0.178607 -0.072081,-0.385781 0,-0.20767 0.00803,-0.25038 0.072761,-0.387218 0.09097,-0.192294 0.2686395,-0.372227 0.465835,-0.471771 0.1319963,-0.06663 0.1985217,-0.08128 0.5129049,-0.11294 0.45403,-0.04572 0.695252,-0.09258 0.944045,-0.183379 0.849017,-0.309853 1.541956,-1.013471 1.8213,-1.849365 0.109542,-0.327789 0.144323,-0.576601 0.13436,-0.961158 -0.0084,-0.3226693 -0.01366,-0.3552005 -0.078,-0.4784636 C 11.794064,7.3089297 11.5532,7.0940801 11.33408,7.026572 11.289023,7.0126902 10.876236,6.9876641 10.416776,6.9709585 L 9.581396,6.9405845 9.355939,6.8539985 C 9.049252,6.7362172 8.8852019,6.6326762 8.6607577,6.4152334 8.4190151,6.1810317 8.2673203,5.9527219 8.1436713,5.6369867 L 8.045769,5.3869956 V 3.5586074 c 0,-1.7548549 0.002,-1.8362043 0.049703,-2.0227361 C 8.1545499,1.3048612 8.2511906,1.0907745 8.3848125,0.8948984 8.4828423,0.7511966 8.7547424,0.4754705 8.8948446,0.3776894 9.023843,0.2876579 9.303314,0.1570098 9.4954,0.0969396 c 0.183773,-0.05747 0.187897,-0.057628 1.511057,-0.057628 1.323145,0 1.327284,1.578e-4 1.510191,0.057593 0.370604,0.1163738 0.682564,0.3122569 0.934,0.5864698 0.195756,0.2134888 0.325537,0.4329953 0.431823,0.7303723 l 0.08467,0.2369064 v 3.4049355 c 0,3.7344334 0.0045,3.6084454 -0.148646,4.2022394 -0.160236,0.621456 -0.474803,1.261153 -0.878079,1.785645 -0.278937,0.36278 -0.772348,0.823415 -1.160007,1.082952 -0.302342,0.202417 -0.88119,0.482903 -1.235684,0.598761 -0.659951,0.215689 -1.485518,0.308766 -1.8109993,0.204178 z"
     id="path351" /></svg>
