<?xml version="1.0" encoding="UTF-8" standalone="no"?>
<svg
   width="685.96478"
   height="686.10931"
   version="1.1"
   viewBox="0 0 514.47359 514.58199"
   id="svg330"
   sodipodi:docname="search-auto.svg"
   inkscape:version="1.2.2 (732a01da63, 2022-12-09)"
   xmlns:inkscape="http://www.inkscape.org/namespaces/inkscape"
   xmlns:sodipodi="http://sodipodi.sourceforge.net/DTD/sodipodi-0.dtd"
   xmlns="http://www.w3.org/2000/svg"
   xmlns:svg="http://www.w3.org/2000/svg">
  <sodipodi:namedview
     id="namedview332"
     pagecolor="#ffffff"
     bordercolor="#000000"
     borderopacity="0.25"
     inkscape:showpageshadow="2"
     inkscape:pageopacity="0.0"
     inkscape:pagecheckerboard="0"
     inkscape:deskcolor="#d1d1d1"
     inkscape:document-units="pt"
     showgrid="false"
     inkscape:zoom="0.87214286"
     inkscape:cx="342.83374"
     inkscape:cy="439.72154"
     inkscape:window-width="1920"
     inkscape:window-height="1001"
     inkscape:window-x="-9"
     inkscape:window-y="-9"
     inkscape:window-maximized="1"
     inkscape:current-layer="svg330" />
  <defs
     id="defs240">
    <symbol
       id="x"
       overflow="visible">
      <path
         d="m 18.766,-1.125 c -0.96875,0.5 -1.9805,0.875 -3.0312,1.125 -1.043,0.25781 -2.1367,0.39062 -3.2812,0.39062 -3.3984,0 -6.0898,-0.94531 -8.0781,-2.8438 -1.9922,-1.9062 -2.9844,-4.4844 -2.9844,-7.7344 0,-3.2578 0.99219,-5.8359 2.9844,-7.7344 1.9883,-1.9062 4.6797,-2.8594 8.0781,-2.8594 1.1445,0 2.2383,0.13281 3.2812,0.39062 1.0508,0.25 2.0625,0.625 3.0312,1.125 v 4.2188 c -0.98047,-0.65625 -1.9453,-1.1406 -2.8906,-1.4531 -0.94922,-0.3125 -1.9492,-0.46875 -3,-0.46875 -1.875,0 -3.3516,0.60547 -4.4219,1.8125 -1.0742,1.1992 -1.6094,2.8555 -1.6094,4.9688 0,2.1055 0.53516,3.7617 1.6094,4.9688 1.0703,1.1992 2.5469,1.7969 4.4219,1.7969 1.0508,0 2.0508,-0.14844 3,-0.45312 0.94531,-0.3125 1.9102,-0.80078 2.8906,-1.4688 z"
         id="path168" />
    </symbol>
    <symbol
       id="c"
       overflow="visible">
      <path
         d="m 13.734,-11.141 c -0.4375,-0.19531 -0.87109,-0.34375 -1.2969,-0.4375 -0.41797,-0.10156 -0.83984,-0.15625 -1.2656,-0.15625 -1.2617,0 -2.2305,0.40625 -2.9062,1.2188 -0.67969,0.80469 -1.0156,1.9531 -1.0156,3.4531 v 7.0625 H 2.3591 v -15.312 h 4.8906 v 2.5156 c 0.625,-1 1.3438,-1.7266 2.1562,-2.1875 0.82031,-0.46875 1.8008,-0.70312 2.9375,-0.70312 0.16406,0 0.34375,0.01172 0.53125,0.03125 0.19531,0.01172 0.47656,0.03906 0.84375,0.07813 z"
         id="path171" />
    </symbol>
    <symbol
       id="a"
       overflow="visible">
      <path
         d="m 17.641,-7.7031 v 1.4062 H 6.188 c 0.125,1.1484 0.53906,2.0078 1.25,2.5781 0.70703,0.57422 1.7031,0.85938 2.9844,0.85938 1.0312,0 2.082,-0.14844 3.1562,-0.45312 1.082,-0.3125 2.1914,-0.77344 3.3281,-1.3906 v 3.7656 c -1.1562,0.4375 -2.3125,0.76562 -3.4688,0.98438 -1.1562,0.22656 -2.3125,0.34375 -3.4688,0.34375 -2.7734,0 -4.9297,-0.70312 -6.4688,-2.1094 -1.5312,-1.4062 -2.2969,-3.3789 -2.2969,-5.9219 0,-2.5 0.75391,-4.4609 2.2656,-5.8906 1.5078,-1.4375 3.582,-2.1562 6.2188,-2.1562 2.4062,0 4.332,0.73047 5.7812,2.1875 1.4453,1.4492 2.1719,3.3828 2.1719,5.7969 z m -5.0312,-1.625 c 0,-0.92578 -0.27344,-1.6719 -0.8125,-2.2344 -0.54297,-0.57031 -1.25,-0.85938 -2.125,-0.85938 -0.94922,0 -1.7188,0.26562 -2.3125,0.79688 -0.5937,0.53126 -0.96484,1.2969 -1.1094,2.2969 z"
         id="path174" />
    </symbol>
    <symbol
       id="e"
       overflow="visible">
      <path
         d="m 9.2188,-6.8906 c -1.0234,0 -1.793,0.17188 -2.3125,0.51562 -0.51172,0.34375 -0.76562,0.85547 -0.76562,1.5312 0,0.625 0.20703,1.1172 0.625,1.4688 0.41406,0.34375 0.98828,0.51562 1.7188,0.51562 0.92578,0 1.7031,-0.32812 2.3281,-0.98438 0.63281,-0.66406 0.95312,-1.4922 0.95312,-2.4844 v -0.5625 z m 7.4688,-1.8438 V 0 h -4.9219 v -2.2656 c -0.65625,0.92969 -1.3984,1.6055 -2.2188,2.0312 -0.82422,0.41406 -1.8242,0.625 -3,0.625 -1.5859,0 -2.8711,-0.45703 -3.8594,-1.375 -0.99219,-0.92578 -1.4844,-2.1289 -1.4844,-3.6094 0,-1.7891 0.61328,-3.1016 1.8438,-3.9375 1.2383,-0.84375 3.1797,-1.2656 5.8281,-1.2656 h 2.8906 v -0.39062 c 0,-0.76953 -0.30859,-1.332 -0.92188,-1.6875 -0.61719,-0.36328 -1.5703,-0.54688 -2.8594,-0.54688 -1.0547,0 -2.0312,0.10547 -2.9375,0.3125 -0.89844,0.21094 -1.7305,0.52344 -2.5,0.9375 v -3.7344 c 1.0391,-0.25 2.0859,-0.44141 3.1406,-0.57812 1.0625,-0.13281 2.125,-0.20312 3.1875,-0.20312 2.7578,0 4.75,0.54688 5.9688,1.6406 1.2266,1.0859 1.8438,2.8555 1.8438,5.3125 z"
         id="path177" />
    </symbol>
    <symbol
       id="b"
       overflow="visible">
      <path
         d="m 7.7031,-19.656 v 4.3438 H 12.75 v 3.5 H 7.7031 v 6.5 c 0,0.71094 0.14062,1.1875 0.42188,1.4375 0.28126,0.25 0.83594,0.375 1.6719,0.375 h 2.5156 v 3.5 h -4.1875 c -1.9375,0 -3.3125,-0.39844 -4.125,-1.2031 -0.80469,-0.8125 -1.2031,-2.1797 -1.2031,-4.1094 v -6.5 h -2.4219 v -3.5 h 2.4219 v -4.3438 z"
         id="path180" />
    </symbol>
    <symbol
       id="k"
       overflow="visible">
      <path
         d="m 12.766,-13.078 v -8.2031 h 4.9219 V -1e-4 H 12.766 v -2.2188 c -0.66797,0.90625 -1.4062,1.5703 -2.2188,1.9844 -0.8126,0.4141 -1.7578,0.625 -2.8281,0.625 -1.8867,0 -3.4336,-0.75 -4.6406,-2.25 -1.2109,-1.5 -1.8125,-3.4258 -1.8125,-5.7812 0,-2.3633 0.60156,-4.2969 1.8125,-5.7969 1.207,-1.5 2.7539,-2.25 4.6406,-2.25 1.0625,0 2,0.21484 2.8125,0.64062 0.82031,0.42969 1.5664,1.0859 2.2344,1.9688 z m -3.2188,9.9219 c 1.0391,0 1.8359,-0.37891 2.3906,-1.1406 0.55078,-0.76953 0.82812,-1.8828 0.82812,-3.3438 0,-1.457 -0.27734,-2.5664 -0.82812,-3.3281 -0.55469,-0.76953 -1.3516,-1.1562 -2.3906,-1.1562 -1.043,0 -1.8398,0.38672 -2.3906,1.1562 -0.55469,0.76172 -0.82812,1.8711 -0.82812,3.3281 0,1.4609 0.27344,2.5742 0.82812,3.3438 0.55078,0.76172 1.3477,1.1406 2.3906,1.1406 z"
         id="path183" />
    </symbol>
    <symbol
       id="j"
       overflow="visible">
      <path
         d="m 10.5,-3.1562 c 1.0508,0 1.8516,-0.37891 2.4062,-1.1406 0.55078,-0.76953 0.82812,-1.8828 0.82812,-3.3438 0,-1.457 -0.27734,-2.5664 -0.82812,-3.3281 -0.55469,-0.76953 -1.3555,-1.1562 -2.4062,-1.1562 -1.0547,0 -1.8594,0.38672 -2.4219,1.1562 -0.55469,0.77344 -0.82812,1.8828 -0.82812,3.3281 0,1.4492 0.27344,2.5586 0.82812,3.3281 0.5625,0.77344 1.3672,1.1562 2.4219,1.1562 z m -3.25,-9.9219 c 0.67578,-0.88281 1.4219,-1.5391 2.2344,-1.9688 0.82031,-0.42578 1.7656,-0.64062 2.8281,-0.64062 1.8945,0 3.4453,0.75 4.6562,2.25 1.207,1.5 1.8125,3.4336 1.8125,5.7969 0,2.3555 -0.60547,4.2812 -1.8125,5.7812 -1.2109,1.5 -2.7617,2.25 -4.6562,2.25 -1.0625,0 -2.0078,-0.21094 -2.8281,-0.625 C 8.6719,-0.6602 7.9258,-1.32032 7.25,-2.21882 V -2e-5 H 2.3594 v -21.281 H 7.25 Z"
         id="path186" />
    </symbol>
    <symbol
       id="i"
       overflow="visible">
      <path
         d="m 0.34375,-15.312 h 4.8906 l 4.125,10.391 3.5,-10.391 h 4.8906 l -6.4375,16.766 c -0.64844,1.6953 -1.4023,2.8828 -2.2656,3.5625 -0.86719,0.6875 -2,1.0312 -3.4062,1.0312 H 2.79685 V 2.8289 h 1.5312 c 0.83203,0 1.4375,-0.13672 1.8125,-0.40625 C 6.52336,2.16093 6.82024,1.69218 7.03117,1.01645 L 7.17179,0.59457 Z"
         id="path189" />
    </symbol>
    <symbol
       id="h"
       overflow="visible">
      <path
         d="m 2.5781,-20.406 h 5.25 V -1.984 C 7.8281,0.5551 7.13279,2.4574 5.75,3.7191 4.375,4.9769 2.2891,5.6097 -0.5,5.6097 H -1.5781 V 1.6253 h 0.82812 c 1.0938,0 1.9219,-0.30859 2.4844,-0.92188 0.5625,-0.60547 0.84375,-1.5 0.84375,-2.6875 z"
         id="path192" />
    </symbol>
    <symbol
       id="g"
       overflow="visible">
      <path
         d="m 2.1875,-5.9688 v -9.3438 h 4.9219 v 1.5312 c 0,0.83594 -0.00781,1.875 -0.015625,3.125 -0.011719,1.25 -0.015625,2.0859 -0.015625,2.5 0,1.2422 0.03125,2.1328 0.09375,2.6719 0.070313,0.54297 0.17969,0.93359 0.32812,1.1719 0.20703,0.32422 0.47266,0.57422 0.79688,0.75 0.32031,0.16797 0.69141,0.25 1.1094,0.25 1.0195,0 1.8203,-0.39062 2.4062,-1.1719 0.58203,-0.78125 0.875,-1.8672 0.875,-3.2656 v -7.5625 h 4.8906 V -6e-4 H 12.6875 V -2.2194 C 11.94531,-1.32096 11.1641,-0.6608 10.3437,-0.235 9.51948,0.17906 8.6093,0.39 7.6093,0.39 5.8476,0.39 4.5038,-0.14906 3.5781,-1.235 2.64841,-2.317 2.1875,-3.8952 2.1875,-5.9694 Z"
         id="path195" />
    </symbol>
    <symbol
       id="w"
       overflow="visible">
      <path
         d="m 14.312,-14.828 v 3.7188 c -1.043,-0.4375 -2.0547,-0.76562 -3.0312,-0.98438 -0.98047,-0.21875 -1.9023,-0.32812 -2.7656,-0.32812 -0.92969,0 -1.6211,0.11719 -2.0781,0.34375 -0.44922,0.23047 -0.67188,0.58984 -0.67188,1.0781 0,0.38672 0.17188,0.68359 0.51562,0.89062 0.34375,0.21094 0.95703,0.36719 1.8438,0.46875 l 0.85938,0.125 c 2.5078,0.32422 4.1953,0.85156 5.0625,1.5781 0.86328,0.73047 1.2969,1.8711 1.2969,3.4219 0,1.6367 -0.60547,2.8672 -1.8125,3.6875 -1.1992,0.8125 -2.9922,1.2188 -5.375,1.2188 -1.0234,0 -2.0742,-0.078125 -3.1562,-0.23438 -1.0742,-0.15625 -2.1797,-0.39453 -3.3125,-0.71875 v -3.7188 c 0.96875,0.48047 1.9609,0.83984 2.9844,1.0781 1.0312,0.23047 2.0781,0.34375 3.1406,0.34375 0.95703,0 1.6758,-0.12891 2.1562,-0.39062 0.47656,-0.26953 0.71875,-0.66406 0.71875,-1.1875 0,-0.4375 -0.16797,-0.75781 -0.5,-0.96875 -0.33594,-0.21875 -0.99609,-0.38281 -1.9844,-0.5 L 7.34339,-6.01551 c -2.1797,-0.26953 -3.7031,-0.77344 -4.5781,-1.5156 -0.875,-0.73828 -1.3125,-1.8594 -1.3125,-3.3594 0,-1.625 0.55078,-2.8281 1.6562,-3.6094 1.1133,-0.78906 2.8203,-1.1875 5.125,-1.1875 0.89453,0 1.8359,0.07422 2.8281,0.21875 1,0.13672 2.082,0.35156 3.25,0.64062 z"
         id="path198" />
    </symbol>
    <symbol
       id="v"
       overflow="visible">
      <path
         d="M 2.3594,-15.312 H 7.25 V 0 H 2.3594 Z m 0,-5.9688 H 7.25 v 4 H 2.3594 Z"
         id="path201" />
    </symbol>
    <symbol
       id="f"
       overflow="visible">
      <path
         d="M 17.75,-9.3281 V 0 h -4.9219 v -7.1406 c 0,-1.3203 -0.03125,-2.2344 -0.09375,-2.7344 -0.0625,-0.5 -0.16797,-0.86719 -0.3125,-1.1094 -0.1875,-0.3125 -0.44922,-0.55469 -0.78125,-0.73438 -0.32422,-0.17578 -0.69531,-0.26562 -1.1094,-0.26562 -1.0234,0 -1.8242,0.39844 -2.4062,1.1875 -0.58594,0.78125 -0.875,1.8711 -0.875,3.2656 V -1e-4 H 2.3594 v -15.312 H 7.25 v 2.2344 c 0.73828,-0.88281 1.5195,-1.5391 2.3438,-1.9688 0.83203,-0.42578 1.75,-0.64062 2.75,-0.64062 1.7695,0 3.1133,0.54688 4.0312,1.6406 0.91406,1.0859 1.375,2.6562 1.375,4.7188 z"
         id="path204" />
    </symbol>
    <symbol
       id="u"
       overflow="visible">
      <path
         d="m 10.75,-12.516 c 0.82031,0 1.4453,-0.17969 1.875,-0.54688 0.4375,-0.36328 0.65625,-0.89844 0.65625,-1.6094 0,-0.69531 -0.21875,-1.2266 -0.65625,-1.5938 -0.42969,-0.375 -1.0547,-0.5625 -1.875,-0.5625 H 7.8281 v 4.3125 z m 0.17188,8.9375 c 1.0625,0 1.8594,-0.22266 2.3906,-0.67188 0.53125,-0.44531 0.79688,-1.125 0.79688,-2.0312 0,-0.88281 -0.26562,-1.5469 -0.79688,-1.9844 -0.52344,-0.4375 -1.3203,-0.65625 -2.3906,-0.65625 h -3.0938 v 5.3438 z m 4.8906,-7.3438 c 1.1328,0.32422 2.0078,0.92969 2.625,1.8125 0.625,0.88672 0.9375,1.9688 0.9375,3.25 0,1.9688 -0.66797,3.4375 -2,4.4062 -1.3359,0.96875 -3.3555,1.4531 -6.0625,1.4531 h -8.7344 v -20.406 h 7.8906 c 2.832,0 4.8828,0.42969 6.1562,1.2812 1.2812,0.85547 1.9219,2.2266 1.9219,4.1094 0,1 -0.23438,1.8516 -0.70312,2.5469 -0.46875,0.6875 -1.1484,1.2031 -2.0312,1.5469 z"
         id="path207" />
    </symbol>
    <symbol
       id="t"
       overflow="visible">
      <path
         d="M 2.3594,-21.281 H 7.25 V 0 H 2.3594 Z"
         id="path210" />
    </symbol>
    <symbol
       id="s"
       overflow="visible">
      <path
         d="M 2.3594,-21.281 H 7.25 v 11.594 l 5.625,-5.625 h 5.6875 L 11.0937,-8.2808 19.1562,4e-4 H 13.2187 L 7.2499,-6.3902 V 4e-4 H 2.3593 Z"
         id="path213" />
    </symbol>
    <symbol
       id="r"
       overflow="visible">
      <path
         d="m 12.422,-21.281 v 3.2188 H 9.7189 c -0.6875,0 -1.1719,0.125 -1.4531,0.375 -0.27344,0.25 -0.40625,0.6875 -0.40625,1.3125 v 1.0625 h 4.1875 v 3.5 H 7.85955 V -2e-4 h -4.8906 v -11.812 h -2.4375 v -3.5 h 2.4375 v -1.0625 c 0,-1.6641 0.46094,-2.8984 1.3906,-3.7031 0.92578,-0.80078 2.3672,-1.2031 4.3281,-1.2031 z"
         id="path216" />
    </symbol>
    <symbol
       id="d"
       overflow="visible">
      <path
         d="m 9.6406,-12.188 c -1.0859,0 -1.9141,0.39062 -2.4844,1.1719 -0.57422,0.78125 -0.85938,1.9062 -0.85938,3.375 0,1.4688 0.28516,2.5938 0.85938,3.375 0.57031,0.77344 1.3984,1.1562 2.4844,1.1562 1.0625,0 1.875,-0.38281 2.4375,-1.1562 0.57031,-0.78125 0.85938,-1.9062 0.85938,-3.375 0,-1.4688 -0.28906,-2.5938 -0.85938,-3.375 -0.5625,-0.78125 -1.375,-1.1719 -2.4375,-1.1719 z m 0,-3.5 c 2.6328,0 4.6914,0.71484 6.1719,2.1406 1.4766,1.418 2.2188,3.3867 2.2188,5.9062 0,2.5117 -0.74219,4.4805 -2.2188,5.9062 C 14.332,-0.317 12.2734,0.39 9.6406,0.39 6.9922,0.39 4.9258,-0.31703 3.4375,-1.735 1.9453,-3.1608 1.2031,-5.1295 1.2031,-7.6412 c 0,-2.5195 0.74219,-4.4883 2.2344,-5.9062 1.4883,-1.4258 3.5547,-2.1406 6.2031,-2.1406 z"
         id="path219" />
    </symbol>
    <symbol
       id="q"
       overflow="visible">
      <path
         d="m 16.547,-12.766 c 0.61328,-0.94531 1.3477,-1.6719 2.2031,-2.1719 0.85156,-0.5 1.7891,-0.75 2.8125,-0.75 1.7578,0 3.0977,0.54688 4.0156,1.6406 0.92578,1.0859 1.3906,2.6562 1.3906,4.7188 V -4e-4 h -4.9219 v -7.9844 -0.35938 c 0.0078,-0.13281 0.01563,-0.32031 0.01563,-0.5625 0,-1.082 -0.16406,-1.8633 -0.48438,-2.3438 -0.3125,-0.48828 -0.82422,-0.73438 -1.5312,-0.73438 -0.92969,0 -1.6484,0.38672 -2.1562,1.1562 -0.51172,0.76172 -0.77344,1.8672 -0.78125,3.3125 v 7.5156 h -4.9219 v -7.9844 c 0,-1.6953 -0.14844,-2.7852 -0.4375,-3.2656 -0.29297,-0.48828 -0.8125,-0.73438 -1.5625,-0.73438 -0.9375,0 -1.6641,0.38672 -2.1719,1.1562 -0.51172,0.76172 -0.76562,1.8594 -0.76562,3.2969 v 7.5312 h -4.9219 v -15.312 h 4.9219 v 2.2344 c 0.60156,-0.86328 1.2891,-1.5156 2.0625,-1.9531 0.78125,-0.4375 1.6406,-0.65625 2.5781,-0.65625 1.0625,0 2,0.25781 2.8125,0.76562 0.8125,0.51172 1.4258,1.2305 1.8438,2.1562 z"
         id="path222" />
    </symbol>
    <symbol
       id="p"
       overflow="visible">
      <path
         d="M 17.75,-9.3281 V 0 h -4.9219 v -7.1094 c 0,-1.3438 -0.03125,-2.2656 -0.09375,-2.7656 -0.0625,-0.5 -0.16797,-0.86719 -0.3125,-1.1094 -0.1875,-0.3125 -0.44922,-0.55469 -0.78125,-0.73438 -0.32422,-0.17578 -0.69531,-0.26562 -1.1094,-0.26562 -1.0234,0 -1.8242,0.39844 -2.4062,1.1875 -0.58594,0.78125 -0.875,1.8711 -0.875,3.2656 V -1e-4 H 2.3594 v -21.281 H 7.25 v 8.2031 c 0.73828,-0.88281 1.5195,-1.5391 2.3438,-1.9688 0.83203,-0.42578 1.75,-0.64062 2.75,-0.64062 1.7695,0 3.1133,0.54688 4.0312,1.6406 0.91406,1.0859 1.375,2.6562 1.375,4.7188 z"
         id="path225" />
    </symbol>
    <symbol
       id="o"
       overflow="visible">
      <path
         d="m 2.5781,-20.406 h 5.875 l 7.4219,14 v -14 h 4.9844 V 0 h -5.875 L 7.5625,-14 V 0 H 2.5781 Z"
         id="path228" />
    </symbol>
    <symbol
       id="n"
       overflow="visible">
      <path
         d="m 2.5781,-20.406 h 8.7344 c 2.5938,0 4.582,0.57812 5.9688,1.7344 1.3945,1.1484 2.0938,2.7891 2.0938,4.9219 0,2.1367 -0.69922,3.7812 -2.0938,4.9375 -1.3867,1.1562 -3.375,1.7344 -5.9688,1.7344 H 7.8281 V 3e-4 h -5.25 z m 5.25,3.8125 v 5.7031 H 10.75 c 1.0195,0 1.8047,-0.25 2.3594,-0.75 0.5625,-0.5 0.84375,-1.2031 0.84375,-2.1094 0,-0.91406 -0.28125,-1.6172 -0.84375,-2.1094 -0.55469,-0.48828 -1.3398,-0.73438 -2.3594,-0.73438 z"
         id="path231" />
    </symbol>
    <symbol
       id="m"
       overflow="visible">
      <path
         d="M 2.3594,-15.312 H 7.25 v 15.031 c 0,2.0508 -0.49609,3.6172 -1.4844,4.7031 -0.98047,1.082 -2.4062,1.625 -4.2812,1.625 H -0.9375 V 2.8283 h 0.85938 c 0.92578,0 1.5625,-0.21094 1.9062,-0.625 0.35156,-0.41797 0.53125,-1.2461 0.53125,-2.4844 z m 0,-5.9688 H 7.25 v 4 H 2.3594 Z"
         id="path234" />
    </symbol>
    <symbol
       id="l"
       overflow="visible">
      <path
         d="m 14.719,-14.828 v 3.9844 c -0.65625,-0.45703 -1.3242,-0.79688 -2,-1.0156 -0.66797,-0.21875 -1.3594,-0.32812 -2.0781,-0.32812 -1.3672,0 -2.4336,0.40234 -3.2031,1.2031 -0.76172,0.79297 -1.1406,1.9062 -1.1406,3.3438 0,1.4297 0.37891,2.543 1.1406,3.3438 0.76953,0.79297 1.8359,1.1875 3.2031,1.1875 0.75781,0 1.4844,-0.10938 2.1719,-0.32812 0.6875,-0.22656 1.3203,-0.56641 1.9062,-1.0156 v 4 c -0.76172,0.28125 -1.5391,0.48828 -2.3281,0.625 -0.78125,0.14453 -1.5742,0.21875 -2.375,0.21875 -2.7617,0 -4.9219,-0.70703 -6.4844,-2.125 -1.5547,-1.4141 -2.3281,-3.3828 -2.3281,-5.9062 0,-2.5312 0.77344,-4.5039 2.3281,-5.9219 1.5625,-1.4141 3.7227,-2.125 6.4844,-2.125 0.80078,0 1.5938,0.07422 2.375,0.21875 0.78125,0.13672 1.5547,0.35156 2.3281,0.64062 z"
         id="path237" />
    </symbol>
  </defs>
  <g
     id="g328"
     transform="translate(-92.81375,-20.386)">
    <path
       d="M 593.32,453.77 509.488,369.879 C 500.5857,360.9767 488.32,356.102 475.55,356.16 L 422.183,302.793 C 471.464,231 462.839,135.243 400.847,73.253 366.8,39.202 321.441,20.386 273.227,20.386 c -48.215,0 -93.574,18.762 -127.62,52.863 -70.391,70.391 -70.391,184.91 0,255.3 35.168,35.168 81.199,53.199 127.57,53.145 35.336,0 70.84,-10.586 101.92,-31.922 l 53.426,53.426 c -0.11328,12.77 4.7617,24.977 13.719,33.938 l 83.887,83.887 c 8.9609,8.9609 20.945,13.945 33.656,13.945 12.711,0 24.641,-4.9297 33.656,-13.945 18.48,-18.535 18.48,-48.719 -0.10938,-67.254 z m -59.359,59.359 -83.832,-83.891 c -7.3906,-7.3906 -11.09,-17.305 -10.414,-27.945 0.55859,-8.9609 4.2578,-17.305 10.414,-23.465 6.1602,-6.1602 14.504,-9.8555 23.465,-10.414 0.78516,-0.0547 1.625,-0.0547 2.4062,-0.0547 9.7422,0 18.762,3.6953 25.535,10.473 l 83.887,83.887 c 14.168,14.168 14.168,37.238 0,51.465 -6.8867,6.8867 -16.016,10.641 -25.703,10.641 -9.7422,-0.0547 -18.871,-3.8633 -25.758,-10.695 z m -380.46,-192.47 c -31.977,-31.977 -49.617,-74.48 -49.617,-119.73 0,-45.25 17.641,-87.754 49.617,-119.73 31.977,-31.977 74.48,-49.617 119.73,-49.617 45.25,0 87.754,17.641 119.73,49.617 59.191,59.191 66.527,151.31 17.473,219.02 -5.3203,7.2812 -11.145,14.168 -17.473,20.441 -6.2734,6.2734 -13.16,12.152 -20.441,17.414 -67.699,49.113 -159.77,41.777 -219.01,-17.414 z m 230.83,22.566 c 1.3438,-1.0625 2.6875,-2.2383 3.9766,-3.3047 1.0078,-0.83984 2.0703,-1.6797 3.0781,-2.5742 3.2461,-2.8555 6.4961,-5.7695 9.5195,-8.793 3.0234,-3.0234 5.9375,-6.2148 8.7344,-9.4648 0.89453,-1.0078 1.7344,-2.0703 2.5742,-3.1367 1.1211,-1.3438 2.2383,-2.6328 3.3047,-3.9766 l 46.199,46.199 c -0.22266,0.0547 -0.39062,0.16797 -0.61719,0.22266 -1.5664,0.50391 -3.0781,1.0625 -4.5352,1.6797 -0.11328,0.0547 -0.22266,0.0547 -0.28125,0.11328 -1.5664,0.72656 -3.1367,1.5117 -4.5938,2.3516 -0.39062,0.22266 -0.78516,0.50391 -1.1758,0.72656 -1.1211,0.67188 -2.1836,1.3984 -3.2461,2.1836 -0.39062,0.28125 -0.78516,0.55859 -1.1758,0.89453 -1.3438,1.0625 -2.6875,2.1836 -3.9219,3.4141 -1.2305,1.2305 -2.3516,2.5195 -3.4141,3.8633 -0.33594,0.39062 -0.61719,0.78516 -0.89453,1.1758 -0.78516,1.0078 -1.5117,2.1289 -2.1836,3.1914 -0.28125,0.39062 -0.50391,0.83984 -0.78516,1.2305 -0.83984,1.5117 -1.6797,3.0234 -2.3516,4.5938 -0.0547,0.11328 -0.0547,0.22266 -0.11328,0.28125 -0.67188,1.5117 -1.1758,3.0234 -1.6797,4.5938 -0.0547,0.16797 -0.16797,0.39062 -0.22266,0.55859 z"
       id="path242" />
    <path
       d="m 396.7,185.19 v -8.1211 c 0,-6.2148 -5.0391,-11.258 -11.258,-11.258 h -17.977 c -1.1211,0 -2.1836,0.22266 -3.1914,0.50391 l -6.3281,-45.305 c -1.3438,-13.215 -46.648,-16.016 -84.672,-16.016 -38.078,0 -83.328,2.8008 -84.672,16.016 l -6.3281,45.305 c -1.0078,-0.28125 -2.0703,-0.50391 -3.1914,-0.50391 h -17.977 c -6.2148,0 -11.258,5.0391 -11.258,11.258 v 8.1211 c 0,6.2148 5.0391,11.258 11.258,11.258 h 5.4336 v 79.855 h 11.762 v 6.0469 c 0,7.9531 6.4414,14.391 14.391,14.391 h 12.543 c 7.9531,0 14.391,-6.4414 14.391,-14.391 v -6.0469 h 107.3 v 6.0469 c 0,7.9531 6.4414,14.391 14.391,14.391 h 12.543 c 7.9531,0 14.391,-6.4414 14.391,-14.391 v -6.0469 h 11.762 l 0.004,-79.801 h 5.4336 c 6.1602,0 11.254,-5.0977 11.254,-11.312 z m -27.941,79.969 h -191.07 v -69.832 c 0.33594,-0.22266 0.83984,-0.44922 1.3438,-0.67188 2.1836,-0.95312 5.9922,-2.0703 11.258,-3.1367 4.0898,-0.83984 9.1289,-1.6797 15.062,-2.4648 15.961,-2.0703 38.586,-3.6953 67.871,-3.6953 6.4414,0 12.434,0.11328 18.258,0.22266 1.9023,0.0547 3.7539,0.11328 5.6016,0.16797 1.9609,0.0547 3.9766,0.11328 5.8789,0.22266 12.098,0.50391 22.566,1.3438 31.414,2.2969 2.0156,0.22266 3.9219,0.44922 5.7695,0.67188 0.33594,0.0547 0.61719,0.11328 0.95312,0.11328 1.625,0.22266 3.1367,0.39062 4.6484,0.61719 3.9766,0.55859 7.4492,1.1758 10.473,1.793 5.2656,1.0625 9.0156,2.1836 11.258,3.1367 0.55859,0.22266 1.0078,0.44922 1.3438,0.67188 v 1.1758 l -0.004,68.711 z m -11.762,17.246 c 0,1.7344 -1.457,3.1914 -3.1914,3.1914 h -12.543 c -1.793,0 -3.1914,-1.457 -3.1914,-3.1914 v -6.0469 h 18.93 z m -148.62,0 c 0,1.7344 -1.457,3.1914 -3.1914,3.1914 l -12.543,0.004 c -1.7344,0 -3.1914,-1.457 -3.1914,-3.1914 v -6.0469 h 18.93 z m 64.848,-166.21 c 43.512,0 68.434,4.5938 73.754,7.4492 l 7.8398,56.168 c -2.5195,-0.50391 -5.207,-0.95312 -7.9531,-1.3984 -1.3984,-14.168 -13.273,-25.312 -27.777,-25.312 -13.105,0 -24.078,9.0703 -27.16,21.281 -7.0547,-0.16797 -13.441,-0.22266 -18.703,-0.22266 -20.105,0 -56.895,0.72656 -81.594,5.6562 l 7.8398,-56.168 c 5.3242,-2.8047 30.242,-7.4531 73.754,-7.4531 z m 30.297,58.52 c 2.5195,-6.1055 8.5664,-10.414 15.566,-10.414 7.8398,0 14.391,5.375 16.297,12.656 -10.414,-1.1211 -21.445,-1.8477 -31.863,-2.2422 z m -124.43,8.3438 c -1.9023,0.67188 -3.6406,1.3984 -5.207,2.1836 l -12.938,-0.0547 0.0547,-8.1758 18.031,0.0547 v 5.9922 z m 193.54,2.2422 c -1.5117,-0.78516 -3.3047,-1.5117 -5.207,-2.1836 l 0.0547,-6.0469 18.031,0.0547 -0.0547,8.1758 z"
       id="path244" />
    <path
       d="m 210.39,198.02 c -8.9609,0 -16.238,7.2812 -16.238,16.238 0,8.9609 7.2812,16.238 16.238,16.238 8.9609,0 16.238,-7.2812 16.238,-16.238 0.004,-8.957 -7.2773,-16.238 -16.238,-16.238 z m 0,21.336 c -2.8008,0 -5.0391,-2.2969 -5.0391,-5.0391 0,-2.7422 2.2969,-5.0391 5.0391,-5.0391 2.7422,0 5.0391,2.2969 5.0391,5.0391 0.004,2.7422 -2.2383,5.0391 -5.0391,5.0391 z"
       id="path246" />
    <path
       d="m 340.76,198.8 c -1.5117,-0.44922 -3.0234,-0.78516 -4.7031,-0.78516 -0.89453,0 -1.7344,0.11328 -2.5742,0.28125 -3.4727,0.55859 -6.6094,2.1836 -8.9609,4.5938 -1.6797,1.7344 -2.9688,3.8086 -3.7539,6.1602 -0.55859,1.625 -0.95312,3.3594 -0.95312,5.207 0,8.9609 7.2812,16.238 16.238,16.238 8.9609,0 16.238,-7.2812 16.238,-16.238 0.0586,-7.2812 -4.8672,-13.441 -11.531,-15.457 z m -4.707,20.551 c -2.8008,0 -5.0391,-2.2969 -5.0391,-5.0391 0,-2.7422 2.2969,-5.0391 5.0391,-5.0391 2.7422,0 5.0391,2.2969 5.0391,5.0391 0.004,2.7422 -2.2383,5.0391 -5.0391,5.0391 z"
       id="path248" />
    <path
       d="m 237.78,198.02 v 49.504 h 70.895 V 198.02 Z m 11.199,11.199 h 48.496 v 27.105 h -48.496 z"
       id="path250" />
  </g>
  <path
     style="fill:#c83737;stroke-width:0.85995"
     d="m 85.40131,209.47098 0.22474,-34.57791 4.72973,-1.43861 c 6.26483,-1.90552 18.08289,-3.89576 33.92623,-5.7134 18.75863,-2.1521 92.80743,-2.14611 112.31445,0.009 16.38894,1.8107 28.22727,3.78546 33.91902,5.65807 l 4.29976,1.41464 0.22474,34.61302 0.22475,34.61302 H 180.22064 85.17656 Z m 130.5073,-7.12971 v -25.36855 h -35.68797 -35.68795 v 25.36855 25.36855 h 35.68795 35.68797 z m -92.21385,6.83856 c 8.88086,-3.71066 12.84677,-13.66908 8.9021,-22.35325 -6.45428,-14.20905 -27.66596,-12.03435 -31.07204,3.18561 -3.00463,13.42609 9.6748,24.38845 22.16994,19.16764 z m 128.6736,-1.30924 c 4.18535,-2.86785 6.73683,-7.12324 7.20741,-12.02059 1.40415,-14.61316 -13.94709,-23.60165 -26.09386,-15.27855 -10.02239,6.86746 -8.56718,23.13625 2.53571,28.3484 4.68117,2.19753 12.32855,1.70679 16.35074,-1.04926 z"
     id="path647" />
  <path
     style="fill:#d40000;stroke-width:0.85995"
     d="m 85.90412,209.87808 c 0.20349,-25.0086 0.54939,-34.34099 1.28992,-34.80289 2.01531,-1.25704 15.92727,-4.09795 29.39024,-6.00166 13.01256,-1.84003 16.46586,-1.94574 63.63636,-1.94814 46.92536,-0.002 50.71452,0.11173 64.02618,1.92814 16.22505,2.21394 29.24286,5.05925 29.73869,6.49999 0.18724,0.54407 0.45052,16.17832 0.58508,34.74276 l 0.24465,33.75355 h -94.5946 -94.59459 z m 130.00449,-7.53681 v -25.36855 h -35.68797 -35.68795 v 25.36855 25.36855 h 35.68795 35.68797 z m -90.50961,6.34545 c 10.83528,-5.24527 11.89797,-22.21284 1.80935,-28.88918 -3.98234,-2.63539 -10.34002,-3.47766 -14.89732,-1.97361 -13.43921,4.43534 -15.67458,23.29116 -3.61792,30.51791 4.66934,2.7988 11.3518,2.93676 16.70589,0.34488 z m 125.70645,0.31783 c 1.62177,-0.82696 4.11971,-2.96914 5.55096,-4.76037 5.48067,-6.85916 3.56124,-19.51218 -3.68766,-24.30927 -11.56209,-7.65142 -26.71093,0.7251 -26.73594,14.78359 -0.009,4.65931 4.23589,11.52524 8.52706,13.79447 4.68377,2.47683 12.01962,2.69745 16.34558,0.49158 z"
     id="path718" />
  <path
     style="fill:#d40000;stroke-width:0.85995"
     d="m 86.26937,210.41258 c 0.37545,-26.61433 0.71688,-33.87465 1.6355,-34.77798 1.19827,-1.17833 11.63842,-3.48782 27.38949,-6.05889 7.53483,-1.22993 17.06983,-1.53407 57.60277,-1.83745 30.63076,-0.22925 52.67137,-0.0205 59.6675,0.56508 12.13902,1.01607 29.42541,3.71748 36.31191,5.67461 l 4.3807,1.24498 0.56402,11.76025 c 0.3102,6.46814 0.56401,21.95398 0.56401,34.41298 v 22.65273 h -94.29521 -94.2952 z m 129.63924,-8.07131 v -25.36855 h -35.68797 -35.68795 v 25.36855 25.36855 h 35.68795 35.68797 z m -90.47557,6.54114 c 3.64968,-1.86272 5.40746,-3.66495 7.38661,-7.57337 1.59016,-3.14026 1.84621,-10.99054 0.47639,-14.60589 -4.37051,-11.53504 -22.4417,-13.19614 -29.69505,-2.72956 -4.54349,6.55626 -3.61067,17.38311 1.92933,22.3929 4.88383,4.41642 13.93678,5.56081 19.90272,2.51592 z m 125.14513,0.66337 c 2.77683,-1.42663 6.59361,-5.163 7.97479,-7.80676 1.81956,-3.48295 1.5525,-12.1303 -0.49882,-16.15123 -2.72879,-5.34887 -6.98337,-8.05493 -13.29629,-8.4569 -7.93324,-0.50515 -13.53263,2.77147 -17.2327,10.08414 -3.47988,6.87747 0.13188,17.84548 7.08529,21.51624 3.66767,1.9362 12.87068,2.40564 15.96773,0.81451 z"
     id="path789" />
  <path
     style="fill:#000000;stroke-width:0.85995"
     d="m 456.49013,501.22419 c -2.71394,-0.86757 -6.77721,-2.76403 -9.02948,-4.21434 -2.25227,-1.45031 -24.43955,-23.06763 -49.30507,-48.0385 -42.15711,-42.33573 -45.37602,-45.77903 -47.66829,-50.99126 -3.18747,-7.24777 -3.89423,-17.14397 -1.75091,-24.51673 5.02361,-17.28059 22.30496,-28.41299 39.64613,-25.53947 11.89955,1.97182 11.32835,1.49571 60.45258,50.38852 24.76497,24.64831 46.29284,46.75601 47.83971,49.12821 4.05406,6.21716 5.76896,11.89831 5.83657,19.33554 0.21828,24.01356 -23.38787,41.68334 -46.02124,34.44803 z"
     id="path860" />
  <path
     style="fill:#000000;stroke-width:0.85995"
     d="m 314.94962,345.23985 -22.57036,-22.58241 5.45629,-4.42693 c 5.76504,-4.67744 17.14254,-16.2129 22.09885,-22.40566 l 2.95395,-3.69087 22.59909,22.58702 22.59909,22.58703 -5.30533,2.40827 c -10.5099,4.77082 -20.127,14.58038 -23.81224,24.28879 l -1.44898,3.81719 z"
     id="path862" />
</svg>
