<?xml version="1.0" encoding="UTF-8" standalone="no"?>
<svg
   width="686.93469"
   height="533.13092"
   version="1.1"
   viewBox="0 0 515.20102 399.84819"
   id="svg911"
   sodipodi:docname="think-car.svg"
   inkscape:version="1.2.2 (732a01da63, 2022-12-09)"
   xmlns:inkscape="http://www.inkscape.org/namespaces/inkscape"
   xmlns:sodipodi="http://sodipodi.sourceforge.net/DTD/sodipodi-0.dtd"
   xmlns="http://www.w3.org/2000/svg"
   xmlns:svg="http://www.w3.org/2000/svg">
  <sodipodi:namedview
     id="namedview913"
     pagecolor="#ffffff"
     bordercolor="#000000"
     borderopacity="0.25"
     inkscape:showpageshadow="2"
     inkscape:pageopacity="0.0"
     inkscape:pagecheckerboard="0"
     inkscape:deskcolor="#d1d1d1"
     inkscape:document-units="pt"
     showgrid="false"
     inkscape:zoom="0.87214286"
     inkscape:cx="343.98034"
     inkscape:cy="359.45946"
     inkscape:window-width="1920"
     inkscape:window-height="1001"
     inkscape:window-x="-9"
     inkscape:window-y="-9"
     inkscape:window-maximized="1"
     inkscape:current-layer="svg911" />
  <defs
     id="defs809">
    <symbol
       id="x"
       overflow="visible">
      <path
         d="m 18.766,-1.125 c -0.96875,0.5 -1.9805,0.875 -3.0312,1.125 -1.043,0.25781 -2.1367,0.39062 -3.2812,0.39062 -3.3984,0 -6.0898,-0.94531 -8.0781,-2.8438 -1.9922,-1.9062 -2.9844,-4.4844 -2.9844,-7.7344 0,-3.2578 0.99219,-5.8359 2.9844,-7.7344 1.9883,-1.9062 4.6797,-2.8594 8.0781,-2.8594 1.1445,0 2.2383,0.13281 3.2812,0.39062 1.0508,0.25 2.0625,0.625 3.0312,1.125 v 4.2188 c -0.98047,-0.65625 -1.9453,-1.1406 -2.8906,-1.4531 -0.94922,-0.3125 -1.9492,-0.46875 -3,-0.46875 -1.875,0 -3.3516,0.60547 -4.4219,1.8125 -1.0742,1.1992 -1.6094,2.8555 -1.6094,4.9688 0,2.1055 0.53516,3.7617 1.6094,4.9688 1.0703,1.1992 2.5469,1.7969 4.4219,1.7969 1.0508,0 2.0508,-0.14844 3,-0.45312 0.94531,-0.3125 1.9102,-0.80078 2.8906,-1.4688 z"
         id="path737" />
    </symbol>
    <symbol
       id="c"
       overflow="visible">
      <path
         d="m 13.734,-11.141 c -0.4375,-0.19531 -0.87109,-0.34375 -1.2969,-0.4375 -0.41797,-0.10156 -0.83984,-0.15625 -1.2656,-0.15625 -1.2617,0 -2.2305,0.40625 -2.9062,1.2188 -0.67969,0.80469 -1.0156,1.9531 -1.0156,3.4531 v 7.0625 H 2.3591 v -15.312 h 4.8906 v 2.5156 c 0.625,-1 1.3438,-1.7266 2.1562,-2.1875 0.82031,-0.46875 1.8008,-0.70312 2.9375,-0.70312 0.16406,0 0.34375,0.01172 0.53125,0.03125 0.19531,0.01172 0.47656,0.03906 0.84375,0.07813 z"
         id="path740" />
    </symbol>
    <symbol
       id="a"
       overflow="visible">
      <path
         d="m 17.641,-7.7031 v 1.4062 H 6.188 c 0.125,1.1484 0.53906,2.0078 1.25,2.5781 0.70703,0.57422 1.7031,0.85938 2.9844,0.85938 1.0312,0 2.082,-0.14844 3.1562,-0.45312 1.082,-0.3125 2.1914,-0.77344 3.3281,-1.3906 v 3.7656 c -1.1562,0.4375 -2.3125,0.76562 -3.4688,0.98438 -1.1562,0.22656 -2.3125,0.34375 -3.4688,0.34375 -2.7734,0 -4.9297,-0.70312 -6.4688,-2.1094 -1.5312,-1.4062 -2.2969,-3.3789 -2.2969,-5.9219 0,-2.5 0.75391,-4.4609 2.2656,-5.8906 1.5078,-1.4375 3.582,-2.1562 6.2188,-2.1562 2.4062,0 4.332,0.73047 5.7812,2.1875 1.4453,1.4492 2.1719,3.3828 2.1719,5.7969 z m -5.0312,-1.625 c 0,-0.92578 -0.27344,-1.6719 -0.8125,-2.2344 -0.54297,-0.57031 -1.25,-0.85938 -2.125,-0.85938 -0.94922,0 -1.7188,0.26562 -2.3125,0.79688 -0.5937,0.53126 -0.96484,1.2969 -1.1094,2.2969 z"
         id="path743" />
    </symbol>
    <symbol
       id="e"
       overflow="visible">
      <path
         d="m 9.2188,-6.8906 c -1.0234,0 -1.793,0.17188 -2.3125,0.51562 -0.51172,0.34375 -0.76562,0.85547 -0.76562,1.5312 0,0.625 0.20703,1.1172 0.625,1.4688 0.41406,0.34375 0.98828,0.51562 1.7188,0.51562 0.92578,0 1.7031,-0.32812 2.3281,-0.98438 0.63281,-0.66406 0.95312,-1.4922 0.95312,-2.4844 v -0.5625 z m 7.4688,-1.8438 V 0 h -4.9219 v -2.2656 c -0.65625,0.92969 -1.3984,1.6055 -2.2188,2.0312 -0.82422,0.41406 -1.8242,0.625 -3,0.625 -1.5859,0 -2.8711,-0.45703 -3.8594,-1.375 -0.99219,-0.92578 -1.4844,-2.1289 -1.4844,-3.6094 0,-1.7891 0.61328,-3.1016 1.8438,-3.9375 1.2383,-0.84375 3.1797,-1.2656 5.8281,-1.2656 h 2.8906 v -0.39062 c 0,-0.76953 -0.30859,-1.332 -0.92188,-1.6875 -0.61719,-0.36328 -1.5703,-0.54688 -2.8594,-0.54688 -1.0547,0 -2.0312,0.10547 -2.9375,0.3125 -0.89844,0.21094 -1.7305,0.52344 -2.5,0.9375 v -3.7344 c 1.0391,-0.25 2.0859,-0.44141 3.1406,-0.57812 1.0625,-0.13281 2.125,-0.20312 3.1875,-0.20312 2.7578,0 4.75,0.54688 5.9688,1.6406 1.2266,1.0859 1.8438,2.8555 1.8438,5.3125 z"
         id="path746" />
    </symbol>
    <symbol
       id="b"
       overflow="visible">
      <path
         d="m 7.7031,-19.656 v 4.3438 H 12.75 v 3.5 H 7.7031 v 6.5 c 0,0.71094 0.14062,1.1875 0.42188,1.4375 0.28126,0.25 0.83594,0.375 1.6719,0.375 h 2.5156 v 3.5 h -4.1875 c -1.9375,0 -3.3125,-0.39844 -4.125,-1.2031 -0.80469,-0.8125 -1.2031,-2.1797 -1.2031,-4.1094 v -6.5 h -2.4219 v -3.5 h 2.4219 v -4.3438 z"
         id="path749" />
    </symbol>
    <symbol
       id="k"
       overflow="visible">
      <path
         d="m 12.766,-13.078 v -8.2031 h 4.9219 V -1e-4 H 12.766 v -2.2188 c -0.66797,0.90625 -1.4062,1.5703 -2.2188,1.9844 -0.8126,0.4141 -1.7578,0.625 -2.8281,0.625 -1.8867,0 -3.4336,-0.75 -4.6406,-2.25 -1.2109,-1.5 -1.8125,-3.4258 -1.8125,-5.7812 0,-2.3633 0.60156,-4.2969 1.8125,-5.7969 1.207,-1.5 2.7539,-2.25 4.6406,-2.25 1.0625,0 2,0.21484 2.8125,0.64062 0.82031,0.42969 1.5664,1.0859 2.2344,1.9688 z m -3.2188,9.9219 c 1.0391,0 1.8359,-0.37891 2.3906,-1.1406 0.55078,-0.76953 0.82812,-1.8828 0.82812,-3.3438 0,-1.457 -0.27734,-2.5664 -0.82812,-3.3281 -0.55469,-0.76953 -1.3516,-1.1562 -2.3906,-1.1562 -1.043,0 -1.8398,0.38672 -2.3906,1.1562 -0.55469,0.76172 -0.82812,1.8711 -0.82812,3.3281 0,1.4609 0.27344,2.5742 0.82812,3.3438 0.55078,0.76172 1.3477,1.1406 2.3906,1.1406 z"
         id="path752" />
    </symbol>
    <symbol
       id="j"
       overflow="visible">
      <path
         d="m 10.5,-3.1562 c 1.0508,0 1.8516,-0.37891 2.4062,-1.1406 0.55078,-0.76953 0.82812,-1.8828 0.82812,-3.3438 0,-1.457 -0.27734,-2.5664 -0.82812,-3.3281 -0.55469,-0.76953 -1.3555,-1.1562 -2.4062,-1.1562 -1.0547,0 -1.8594,0.38672 -2.4219,1.1562 -0.55469,0.77344 -0.82812,1.8828 -0.82812,3.3281 0,1.4492 0.27344,2.5586 0.82812,3.3281 0.5625,0.77344 1.3672,1.1562 2.4219,1.1562 z m -3.25,-9.9219 c 0.67578,-0.88281 1.4219,-1.5391 2.2344,-1.9688 0.82031,-0.42578 1.7656,-0.64062 2.8281,-0.64062 1.8945,0 3.4453,0.75 4.6562,2.25 1.207,1.5 1.8125,3.4336 1.8125,5.7969 0,2.3555 -0.60547,4.2812 -1.8125,5.7812 -1.2109,1.5 -2.7617,2.25 -4.6562,2.25 -1.0625,0 -2.0078,-0.21094 -2.8281,-0.625 C 8.6719,-0.6602 7.9258,-1.32032 7.25,-2.21882 V -2e-5 H 2.3594 v -21.281 H 7.25 Z"
         id="path755" />
    </symbol>
    <symbol
       id="i"
       overflow="visible">
      <path
         d="m 0.34375,-15.312 h 4.8906 l 4.125,10.391 3.5,-10.391 h 4.8906 l -6.4375,16.766 c -0.64844,1.6953 -1.4023,2.8828 -2.2656,3.5625 -0.86719,0.6875 -2,1.0312 -3.4062,1.0312 H 2.79685 V 2.8289 h 1.5312 c 0.83203,0 1.4375,-0.13672 1.8125,-0.40625 C 6.52336,2.16093 6.82024,1.69218 7.03117,1.01645 L 7.17179,0.59457 Z"
         id="path758" />
    </symbol>
    <symbol
       id="h"
       overflow="visible">
      <path
         d="m 2.5781,-20.406 h 5.25 V -1.984 C 7.8281,0.5551 7.13279,2.4574 5.75,3.7191 4.375,4.9769 2.2891,5.6097 -0.5,5.6097 H -1.5781 V 1.6253 h 0.82812 c 1.0938,0 1.9219,-0.30859 2.4844,-0.92188 0.5625,-0.60547 0.84375,-1.5 0.84375,-2.6875 z"
         id="path761" />
    </symbol>
    <symbol
       id="g"
       overflow="visible">
      <path
         d="m 2.1875,-5.9688 v -9.3438 h 4.9219 v 1.5312 c 0,0.83594 -0.00781,1.875 -0.015625,3.125 -0.011719,1.25 -0.015625,2.0859 -0.015625,2.5 0,1.2422 0.03125,2.1328 0.09375,2.6719 0.070313,0.54297 0.17969,0.93359 0.32812,1.1719 0.20703,0.32422 0.47266,0.57422 0.79688,0.75 0.32031,0.16797 0.69141,0.25 1.1094,0.25 1.0195,0 1.8203,-0.39062 2.4062,-1.1719 0.58203,-0.78125 0.875,-1.8672 0.875,-3.2656 v -7.5625 h 4.8906 V -6e-4 H 12.6875 V -2.2194 C 11.94531,-1.32096 11.1641,-0.6608 10.3437,-0.235 9.51948,0.17906 8.6093,0.39 7.6093,0.39 5.8476,0.39 4.5038,-0.14906 3.5781,-1.235 2.64841,-2.317 2.1875,-3.8952 2.1875,-5.9694 Z"
         id="path764" />
    </symbol>
    <symbol
       id="w"
       overflow="visible">
      <path
         d="m 14.312,-14.828 v 3.7188 c -1.043,-0.4375 -2.0547,-0.76562 -3.0312,-0.98438 -0.98047,-0.21875 -1.9023,-0.32812 -2.7656,-0.32812 -0.92969,0 -1.6211,0.11719 -2.0781,0.34375 -0.44922,0.23047 -0.67188,0.58984 -0.67188,1.0781 0,0.38672 0.17188,0.68359 0.51562,0.89062 0.34375,0.21094 0.95703,0.36719 1.8438,0.46875 l 0.85938,0.125 c 2.5078,0.32422 4.1953,0.85156 5.0625,1.5781 0.86328,0.73047 1.2969,1.8711 1.2969,3.4219 0,1.6367 -0.60547,2.8672 -1.8125,3.6875 -1.1992,0.8125 -2.9922,1.2188 -5.375,1.2188 -1.0234,0 -2.0742,-0.078125 -3.1562,-0.23438 -1.0742,-0.15625 -2.1797,-0.39453 -3.3125,-0.71875 v -3.7188 c 0.96875,0.48047 1.9609,0.83984 2.9844,1.0781 1.0312,0.23047 2.0781,0.34375 3.1406,0.34375 0.95703,0 1.6758,-0.12891 2.1562,-0.39062 0.47656,-0.26953 0.71875,-0.66406 0.71875,-1.1875 0,-0.4375 -0.16797,-0.75781 -0.5,-0.96875 -0.33594,-0.21875 -0.99609,-0.38281 -1.9844,-0.5 L 7.34339,-6.01551 c -2.1797,-0.26953 -3.7031,-0.77344 -4.5781,-1.5156 -0.875,-0.73828 -1.3125,-1.8594 -1.3125,-3.3594 0,-1.625 0.55078,-2.8281 1.6562,-3.6094 1.1133,-0.78906 2.8203,-1.1875 5.125,-1.1875 0.89453,0 1.8359,0.07422 2.8281,0.21875 1,0.13672 2.082,0.35156 3.25,0.64062 z"
         id="path767" />
    </symbol>
    <symbol
       id="v"
       overflow="visible">
      <path
         d="M 2.3594,-15.312 H 7.25 V 0 H 2.3594 Z m 0,-5.9688 H 7.25 v 4 H 2.3594 Z"
         id="path770" />
    </symbol>
    <symbol
       id="f"
       overflow="visible">
      <path
         d="M 17.75,-9.3281 V 0 h -4.9219 v -7.1406 c 0,-1.3203 -0.03125,-2.2344 -0.09375,-2.7344 -0.0625,-0.5 -0.16797,-0.86719 -0.3125,-1.1094 -0.1875,-0.3125 -0.44922,-0.55469 -0.78125,-0.73438 -0.32422,-0.17578 -0.69531,-0.26562 -1.1094,-0.26562 -1.0234,0 -1.8242,0.39844 -2.4062,1.1875 -0.58594,0.78125 -0.875,1.8711 -0.875,3.2656 V -1e-4 H 2.3594 v -15.312 H 7.25 v 2.2344 c 0.73828,-0.88281 1.5195,-1.5391 2.3438,-1.9688 0.83203,-0.42578 1.75,-0.64062 2.75,-0.64062 1.7695,0 3.1133,0.54688 4.0312,1.6406 0.91406,1.0859 1.375,2.6562 1.375,4.7188 z"
         id="path773" />
    </symbol>
    <symbol
       id="u"
       overflow="visible">
      <path
         d="m 10.75,-12.516 c 0.82031,0 1.4453,-0.17969 1.875,-0.54688 0.4375,-0.36328 0.65625,-0.89844 0.65625,-1.6094 0,-0.69531 -0.21875,-1.2266 -0.65625,-1.5938 -0.42969,-0.375 -1.0547,-0.5625 -1.875,-0.5625 H 7.8281 v 4.3125 z m 0.17188,8.9375 c 1.0625,0 1.8594,-0.22266 2.3906,-0.67188 0.53125,-0.44531 0.79688,-1.125 0.79688,-2.0312 0,-0.88281 -0.26562,-1.5469 -0.79688,-1.9844 -0.52344,-0.4375 -1.3203,-0.65625 -2.3906,-0.65625 h -3.0938 v 5.3438 z m 4.8906,-7.3438 c 1.1328,0.32422 2.0078,0.92969 2.625,1.8125 0.625,0.88672 0.9375,1.9688 0.9375,3.25 0,1.9688 -0.66797,3.4375 -2,4.4062 -1.3359,0.96875 -3.3555,1.4531 -6.0625,1.4531 h -8.7344 v -20.406 h 7.8906 c 2.832,0 4.8828,0.42969 6.1562,1.2812 1.2812,0.85547 1.9219,2.2266 1.9219,4.1094 0,1 -0.23438,1.8516 -0.70312,2.5469 -0.46875,0.6875 -1.1484,1.2031 -2.0312,1.5469 z"
         id="path776" />
    </symbol>
    <symbol
       id="t"
       overflow="visible">
      <path
         d="M 2.3594,-21.281 H 7.25 V 0 H 2.3594 Z"
         id="path779" />
    </symbol>
    <symbol
       id="s"
       overflow="visible">
      <path
         d="M 2.3594,-21.281 H 7.25 v 11.594 l 5.625,-5.625 h 5.6875 L 11.0937,-8.2808 19.1562,4e-4 H 13.2187 L 7.2499,-6.3902 V 4e-4 H 2.3593 Z"
         id="path782" />
    </symbol>
    <symbol
       id="r"
       overflow="visible">
      <path
         d="m 12.422,-21.281 v 3.2188 H 9.7189 c -0.6875,0 -1.1719,0.125 -1.4531,0.375 -0.27344,0.25 -0.40625,0.6875 -0.40625,1.3125 v 1.0625 h 4.1875 v 3.5 H 7.85955 V -2e-4 h -4.8906 v -11.812 h -2.4375 v -3.5 h 2.4375 v -1.0625 c 0,-1.6641 0.46094,-2.8984 1.3906,-3.7031 0.92578,-0.80078 2.3672,-1.2031 4.3281,-1.2031 z"
         id="path785" />
    </symbol>
    <symbol
       id="d"
       overflow="visible">
      <path
         d="m 9.6406,-12.188 c -1.0859,0 -1.9141,0.39062 -2.4844,1.1719 -0.57422,0.78125 -0.85938,1.9062 -0.85938,3.375 0,1.4688 0.28516,2.5938 0.85938,3.375 0.57031,0.77344 1.3984,1.1562 2.4844,1.1562 1.0625,0 1.875,-0.38281 2.4375,-1.1562 0.57031,-0.78125 0.85938,-1.9062 0.85938,-3.375 0,-1.4688 -0.28906,-2.5938 -0.85938,-3.375 -0.5625,-0.78125 -1.375,-1.1719 -2.4375,-1.1719 z m 0,-3.5 c 2.6328,0 4.6914,0.71484 6.1719,2.1406 1.4766,1.418 2.2188,3.3867 2.2188,5.9062 0,2.5117 -0.74219,4.4805 -2.2188,5.9062 C 14.332,-0.317 12.2734,0.39 9.6406,0.39 6.9922,0.39 4.9258,-0.31703 3.4375,-1.735 1.9453,-3.1608 1.2031,-5.1295 1.2031,-7.6412 c 0,-2.5195 0.74219,-4.4883 2.2344,-5.9062 1.4883,-1.4258 3.5547,-2.1406 6.2031,-2.1406 z"
         id="path788" />
    </symbol>
    <symbol
       id="q"
       overflow="visible">
      <path
         d="m 16.547,-12.766 c 0.61328,-0.94531 1.3477,-1.6719 2.2031,-2.1719 0.85156,-0.5 1.7891,-0.75 2.8125,-0.75 1.7578,0 3.0977,0.54688 4.0156,1.6406 0.92578,1.0859 1.3906,2.6562 1.3906,4.7188 V -4e-4 h -4.9219 v -7.9844 -0.35938 c 0.0078,-0.13281 0.01563,-0.32031 0.01563,-0.5625 0,-1.082 -0.16406,-1.8633 -0.48438,-2.3438 -0.3125,-0.48828 -0.82422,-0.73438 -1.5312,-0.73438 -0.92969,0 -1.6484,0.38672 -2.1562,1.1562 -0.51172,0.76172 -0.77344,1.8672 -0.78125,3.3125 v 7.5156 h -4.9219 v -7.9844 c 0,-1.6953 -0.14844,-2.7852 -0.4375,-3.2656 -0.29297,-0.48828 -0.8125,-0.73438 -1.5625,-0.73438 -0.9375,0 -1.6641,0.38672 -2.1719,1.1562 -0.51172,0.76172 -0.76562,1.8594 -0.76562,3.2969 v 7.5312 h -4.9219 v -15.312 h 4.9219 v 2.2344 c 0.60156,-0.86328 1.2891,-1.5156 2.0625,-1.9531 0.78125,-0.4375 1.6406,-0.65625 2.5781,-0.65625 1.0625,0 2,0.25781 2.8125,0.76562 0.8125,0.51172 1.4258,1.2305 1.8438,2.1562 z"
         id="path791" />
    </symbol>
    <symbol
       id="p"
       overflow="visible">
      <path
         d="M 17.75,-9.3281 V 0 h -4.9219 v -7.1094 c 0,-1.3438 -0.03125,-2.2656 -0.09375,-2.7656 -0.0625,-0.5 -0.16797,-0.86719 -0.3125,-1.1094 -0.1875,-0.3125 -0.44922,-0.55469 -0.78125,-0.73438 -0.32422,-0.17578 -0.69531,-0.26562 -1.1094,-0.26562 -1.0234,0 -1.8242,0.39844 -2.4062,1.1875 -0.58594,0.78125 -0.875,1.8711 -0.875,3.2656 V -1e-4 H 2.3594 v -21.281 H 7.25 v 8.2031 c 0.73828,-0.88281 1.5195,-1.5391 2.3438,-1.9688 0.83203,-0.42578 1.75,-0.64062 2.75,-0.64062 1.7695,0 3.1133,0.54688 4.0312,1.6406 0.91406,1.0859 1.375,2.6562 1.375,4.7188 z"
         id="path794" />
    </symbol>
    <symbol
       id="o"
       overflow="visible">
      <path
         d="m 2.5781,-20.406 h 5.875 l 7.4219,14 v -14 h 4.9844 V 0 h -5.875 L 7.5625,-14 V 0 H 2.5781 Z"
         id="path797" />
    </symbol>
    <symbol
       id="n"
       overflow="visible">
      <path
         d="m 2.5781,-20.406 h 8.7344 c 2.5938,0 4.582,0.57812 5.9688,1.7344 1.3945,1.1484 2.0938,2.7891 2.0938,4.9219 0,2.1367 -0.69922,3.7812 -2.0938,4.9375 -1.3867,1.1562 -3.375,1.7344 -5.9688,1.7344 H 7.8281 V 3e-4 h -5.25 z m 5.25,3.8125 v 5.7031 H 10.75 c 1.0195,0 1.8047,-0.25 2.3594,-0.75 0.5625,-0.5 0.84375,-1.2031 0.84375,-2.1094 0,-0.91406 -0.28125,-1.6172 -0.84375,-2.1094 -0.55469,-0.48828 -1.3398,-0.73438 -2.3594,-0.73438 z"
         id="path800" />
    </symbol>
    <symbol
       id="m"
       overflow="visible">
      <path
         d="M 2.3594,-15.312 H 7.25 v 15.031 c 0,2.0508 -0.49609,3.6172 -1.4844,4.7031 -0.98047,1.082 -2.4062,1.625 -4.2812,1.625 H -0.9375 V 2.8283 h 0.85938 c 0.92578,0 1.5625,-0.21094 1.9062,-0.625 0.35156,-0.41797 0.53125,-1.2461 0.53125,-2.4844 z m 0,-5.9688 H 7.25 v 4 H 2.3594 Z"
         id="path803" />
    </symbol>
    <symbol
       id="l"
       overflow="visible">
      <path
         d="m 14.719,-14.828 v 3.9844 c -0.65625,-0.45703 -1.3242,-0.79688 -2,-1.0156 -0.66797,-0.21875 -1.3594,-0.32812 -2.0781,-0.32812 -1.3672,0 -2.4336,0.40234 -3.2031,1.2031 -0.76172,0.79297 -1.1406,1.9062 -1.1406,3.3438 0,1.4297 0.37891,2.543 1.1406,3.3438 0.76953,0.79297 1.8359,1.1875 3.2031,1.1875 0.75781,0 1.4844,-0.10938 2.1719,-0.32812 0.6875,-0.22656 1.3203,-0.56641 1.9062,-1.0156 v 4 c -0.76172,0.28125 -1.5391,0.48828 -2.3281,0.625 -0.78125,0.14453 -1.5742,0.21875 -2.375,0.21875 -2.7617,0 -4.9219,-0.70703 -6.4844,-2.125 -1.5547,-1.4141 -2.3281,-3.3828 -2.3281,-5.9062 0,-2.5312 0.77344,-4.5039 2.3281,-5.9219 1.5625,-1.4141 3.7227,-2.125 6.4844,-2.125 0.80078,0 1.5938,0.07422 2.375,0.21875 0.78125,0.13672 1.5547,0.35156 2.3281,0.64062 z"
         id="path806" />
    </symbol>
  </defs>
  <g
     id="g909"
     transform="translate(-92.398,-80.078)">
    <path
       d="m 92.398,80.078 v 321.95 h 221.2 l 0.004,66.695 h -43.23 c -3.0781,0 -5.6016,2.5195 -5.6016,5.6016 0,3.0781 2.5195,5.6016 5.6016,5.6016 h 159.32 c 3.0781,0 5.6016,-2.5195 5.6016,-5.6016 0,-3.0781 -2.5195,-5.6016 -5.6016,-5.6016 h -43.293 v -66.695 h 221.2 V 80.078 Z m 504,310.75 h -492.8 v -16.801 h 492.8 z m -221.2,77.895 H 324.8 v -66.695 h 50.398 z m -271.6,-105.89 v -243.54 h 492.8 v 243.54 z m 0,-271.54 h 492.8 v 16.801 l -492.8,-0.004 z"
       id="path811" />
    <path
       d="m 369.38,205.91 h -12.266 c -2.2969,0 -4.4258,0.55859 -6.3281,1.5117 l -6.6641,-47.602 c -1.0078,-10.809 -30.184,-16.352 -86.801,-16.352 -56.617,0 -85.793,5.4883 -86.801,16.352 l -6.6641,47.602 c -1.9023,-0.95312 -4.0312,-1.5117 -6.3281,-1.5117 h -12.266 c -8.0078,0 -14.504,6.4961 -14.504,14.504 v 2.1289 c 0,8.0078 6.4961,14.504 14.504,14.504 h 2.6328 v 81.984 h 12.039 v 5.3203 c 0,8.625 7.0547,15.68 15.68,15.68 h 10.754 c 8.625,0 15.68,-7.0547 15.68,-15.68 v -5.3203 h 110.43 v 5.375 c 0,8.625 7,15.68 15.68,15.68 h 10.809 c 8.625,0 15.68,-7 15.68,-15.68 v -5.375 h 12.039 l 0.004,-81.984 h 2.6328 c 8.0078,0 14.504,-6.4961 14.504,-14.504 v -2.1289 c 0.0547,-8.0078 -6.4414,-14.504 -14.449,-14.504 z m 3.3047,16.633 c 0,1.8477 -1.457,3.3047 -3.3047,3.3047 h -9.9688 c -1.625,-0.83984 -3.5273,-1.625 -5.6016,-2.2969 v -3.1367 c 0,-1.8477 1.457,-3.3047 3.3047,-3.3047 h 12.266 c 1.8477,0 3.3047,1.457 3.3047,3.3047 z m -17.191,85.289 h -196.39 v -71.961 c 0.39062,-0.22266 0.89453,-0.50391 1.3984,-0.78516 2.2969,-1.0625 6.2148,-2.1836 11.48,-3.2461 4.0312,-0.83984 8.8477,-1.625 14.391,-2.3516 17.078,-2.2383 41.215,-3.9219 70.84,-3.9219 6.5508,0 12.824,0.11328 18.816,0.22266 1.9023,0.0547 3.7539,0.11328 5.6016,0.16797 1.9609,0.0547 3.9766,0.11328 5.8789,0.22266 12.375,0.50391 23.352,1.3438 32.648,2.3516 1.9609,0.22266 3.8633,0.44922 5.7109,0.67188 0.72656,0.11328 1.457,0.16797 2.1836,0.28125 1.1758,0.16797 2.3516,0.28125 3.4141,0.44922 4.1445,0.61719 7.7852,1.2305 10.977,1.8477 5.2656,1.0625 9.1836,2.1836 11.48,3.2461 0.55859,0.28125 1.0625,0.50391 1.3984,0.78516 v 1.1758 l 0.004,70.844 z m -12.039,16.52 c 0,2.4648 -2.0156,4.4805 -4.4805,4.4805 h -10.809 c -2.4648,0 -4.4805,-2.0156 -4.4805,-4.4805 v -5.375 h 19.77 z m -152.55,0 c 0,2.4648 -2.0156,4.4805 -4.4805,4.4805 h -10.754 c -2.4648,0 -4.4805,-2.0156 -4.4805,-4.4805 v -5.3203 h 19.77 l 0.004,5.3203 z m -48.941,-101.81 v -2.1289 c 0,-1.8477 1.457,-3.3047 3.3047,-3.3047 h 12.266 c 1.8477,0 3.3047,1.457 3.3047,3.3047 v 3.1367 c -2.0703,0.72656 -3.9766,1.5117 -5.6016,2.2969 h -9.9688 c -1.8516,0 -3.3047,-1.457 -3.3047,-3.3047 z m 191.18,-60.199 8.0625,57.902 c -2.6875,-0.55859 -5.543,-1.0078 -8.457,-1.457 -1.3984,-14.504 -13.496,-25.984 -28.391,-25.984 -13.441,0 -24.641,9.3516 -27.777,21.84 -7.2812,-0.16797 -13.887,-0.22266 -19.32,-0.22266 -20.664,0 -58.633,0.78516 -83.945,5.8242 l 8.0625,-57.902 c 5.3203,-2.9102 30.969,-7.6719 75.824,-7.6719 45.027,0 70.621,4.7617 75.941,7.6719 z m -44.969,52.641 c 2.5742,-6.4414 8.8477,-10.977 16.184,-10.977 8.1758,0 15.008,5.6562 16.91,13.273 -10.75,-1.1758 -22.285,-1.8477 -33.094,-2.2969 z"
       id="path813" />
    <path
       d="m 182.95,238.95 c -9.1289,0 -16.52,7.4492 -16.52,16.52 0,9.0703 7.4492,16.52 16.52,16.52 9.0708,0 16.52,-7.4492 16.52,-16.52 0,-9.0742 -7.3945,-16.52 -16.52,-16.52 z m 0,21.895 c -2.9688,0 -5.3203,-2.4062 -5.3203,-5.3203 0,-2.9102 2.4062,-5.3203 5.3203,-5.3203 2.9102,0 5.3203,2.4062 5.3203,5.3203 0,2.9141 -2.3516,5.3203 -5.3203,5.3203 z"
       id="path815" />
    <path
       d="m 331.63,238.95 c -1.9609,0 -3.8086,0.39062 -5.543,1.0078 -3.5273,1.2891 -6.4961,3.6406 -8.457,6.7773 -1.625,2.5195 -2.5742,5.543 -2.5742,8.7344 0,9.1289 7.4492,16.52 16.52,16.52 9.0708,0 16.52,-7.4492 16.52,-16.52 0,-9.0742 -7.3359,-16.52 -16.465,-16.52 z m 0,21.895 c -2.9688,0 -5.3203,-2.4062 -5.3203,-5.3203 0,-2.9102 2.4062,-5.3203 5.3203,-5.3203 2.9102,0 5.3203,2.4062 5.3203,5.3203 0,2.9141 -2.3516,5.3203 -5.3203,5.3203 z"
       id="path817" />
    <path
       d="m 209.27,238.95 v 50.512 h 96.152 V 238.95 Z m 84.895,39.312 H 220.47 v -28.113 h 73.754 l -0.004,28.113 z"
       id="path819" />
    <path
       d="M 406.67,340.03 H 563.53 V 143.47 H 406.67 Z m 11.199,-185.36 h 134.46 v 174.16 h -134.46 z"
       id="path821" />
    <path
       d="m 523.04,289.07 h -75.879 c -3.0781,0 -5.6016,2.5195 -5.6016,5.6016 0,3.0781 2.5195,5.6016 5.6016,5.6016 h 75.879 c 3.0781,0 5.6016,-2.5195 5.6016,-5.6016 0,-3.0781 -2.5195,-5.6016 -5.6016,-5.6016 z"
       id="path823" />
    <path
       d="m 523.04,261.07 h -75.879 c -3.0781,0 -5.6016,2.5195 -5.6016,5.6016 0,3.0781 2.5195,5.6016 5.6016,5.6016 h 75.879 c 3.0781,0 5.6016,-2.5195 5.6016,-5.6016 0,-3.0781 -2.5195,-5.6016 -5.6016,-5.6016 z"
       id="path825" />
    <path
       d="m 523.04,233.07 h -75.879 c -3.0781,0 -5.6016,2.5195 -5.6016,5.6016 0,3.0781 2.5195,5.6016 5.6016,5.6016 h 75.879 c 3.0781,0 5.6016,-2.5195 5.6016,-5.6016 0,-3.0781 -2.5195,-5.6016 -5.6016,-5.6016 z"
       id="path827" />
    <path
       d="m 523.04,205.07 h -75.879 c -3.0781,0 -5.6016,2.5195 -5.6016,5.6016 0,3.0781 2.5195,5.6016 5.6016,5.6016 h 75.879 c 3.0781,0 5.6016,-2.5195 5.6016,-5.6016 0,-3.0781 -2.5195,-5.6016 -5.6016,-5.6016 z"
       id="path829" />
    <path
       d="m 523.04,177.07 h -75.879 c -3.0781,0 -5.6016,2.5195 -5.6016,5.6016 0,3.0781 2.5195,5.6016 5.6016,5.6016 h 75.879 c 3.0781,0 5.6016,-2.5195 5.6016,-5.6016 0,-3.0781 -2.5195,-5.6016 -5.6016,-5.6016 z"
       id="path831" />
  </g>
  <path
     style="fill:#d40000;stroke-width:0.85995"
     d="m 67.75841,191.45148 0.22442,-35.90295 4.29976,-1.41674 c 17.78773,-5.86098 72.64284,-9.49427 116.66249,-7.72707 33.47781,1.34399 55.76723,3.85053 68.37807,7.6894 l 5.00858,1.52466 0.22442,35.86782 0.22442,35.86783 H 165.15728 67.53399 Z m 145.9861,-7.09459 v -25.79853 h -48.58723 -48.58722 v 25.79853 25.79853 h 48.58722 48.58723 z m -113.63075,4.90938 c 4.69514,-3.1071 6.99684,-7.76724 6.99684,-14.16622 0,-17.90148 -24.37578,-22.98264 -31.91274,-6.65225 -3.82248,8.28219 -0.33516,17.71126 8.26409,22.34457 4.01051,2.16088 12.2169,1.40878 16.65181,-1.5261 z m 148.68431,0.0577 c 7.09628,-4.6961 9.34351,-16.21724 4.53267,-23.23821 -7.4721,-10.90479 -23.95319,-9.5993 -29.37031,2.32645 -3.90293,8.59228 -0.21582,18.63186 8.27302,22.52649 4.16952,1.91294 12.45432,1.10533 16.56462,-1.61473 z"
     id="path915" />
  <path
     style="fill:#000000;stroke-width:0.85995"
     d="m 80.62411,246.96131 c -0.56757,-0.56757 -1.03194,-2.50245 -1.03194,-4.29975 v -3.26781 h 9.57198 9.57197 l -0.50088,3.08655 c -0.81158,5.0012 -1.69779,5.51295 -9.54689,5.51295 -4.32296,0 -7.42987,-0.39757 -8.06424,-1.03194 z"
     id="path986" />
  <path
     style="fill:#000000;stroke-width:0.85995"
     d="m 234.8133,259.52626 c -0.94594,-0.23134 -2.58351,-0.60462 -3.63902,-0.82952 -2.76767,-0.58974 -8.03347,-5.4849 -9.38834,-8.72754 -0.639,-1.52937 -1.16183,-4.72798 -1.16183,-7.10803 v -4.32738 H 164.7273 108.8305 l -0.0142,4.94472 c -0.0179,6.25288 -2.56825,11.04028 -7.31297,13.72754 -2.96014,1.67654 -4.67524,1.94018 -12.70101,1.95242 -7.56538,0.0115 -9.89419,-0.29984 -12.61185,-1.68629 -4.72647,-2.41126 -6.98879,-6.04921 -8.08293,-12.99782 l -0.93541,-5.94057 h -5.82932 -5.82932 v -40.73775 -40.73776 l -3.53008,-0.56449 c -8.3833,-1.34054 -12.80899,-6.37093 -12.80899,-14.55914 0,-6.3529 1.88415,-10.40992 6.14362,-13.2287 2.7155,-1.79703 4.62014,-2.2514 10.82998,-2.58357 4.14425,-0.22168 9.2659,-0.001 11.38146,0.489 2.11555,0.49064 3.96793,0.7706 4.11639,0.62213 0.14846,-0.14846 1.82895,-11.25231 3.73441,-24.67524 3.79626,-26.74245 3.77253,-26.67333 10.30605,-30.02451 4.62792,-2.37377 15.72146,-4.97419 27.59697,-6.46897 14.60742,-1.83866 66.92826,-2.63204 86.70193,-1.31474 25.8133,1.71966 42.03068,5.14791 48.00959,10.14892 l 2.86216,2.39404 3.57251,25.17796 3.57252,25.17795 2.5948,-0.66936 c 1.42715,-0.36814 6.46459,-0.66266 11.19432,-0.65447 9.84358,0.017 12.61916,1.05128 16.5096,6.15191 2.08139,2.72886 2.40932,3.93779 2.40932,8.88235 0,4.94455 -0.32793,6.15349 -2.40932,8.88233 -2.80471,3.67716 -5.89931,5.46373 -10.82965,6.25211 l -3.53007,0.56449 v 40.73776 40.73775 h -6.01966 -6.01966 v 3.89741 c 0,6.67233 -3.47055,12.7753 -8.85878,15.57818 -2.41697,1.25727 -15.00739,2.30491 -18.22967,1.51688 z M 97.65153,247.56281 c 0.58902,-0.70972 1.26719,-3.03159 1.50706,-5.15971 l 0.43613,-3.86931 H 89.16347 78.73222 v 4.12777 c 0,2.27027 0.46437,4.59213 1.03194,5.1597 1.60331,1.60331 16.52113,1.38777 17.88737,-0.25845 z m 152.57946,-0.061 c 0.82164,-0.82164 1.35135,-2.84416 1.35135,-5.1597 v -3.80834 h -10.31941 -10.31941 v 3.49634 c 0,6.34782 0.68666,6.82307 9.85827,6.82307 6.19691,0 8.39251,-0.31466 9.4292,-1.35135 z m 13.39066,-55.74199 v -36.45453 l -3.43861,-1.37586 c -1.89123,-0.75673 -7.79265,-2.15499 -13.11424,-3.10725 -45.33241,-8.11198 -133.1758,-7.38209 -171.34641,1.42371 -10.07819,2.32499 -9.02948,-2.25693 -9.02948,39.45081 v 36.51766 h 98.46437 98.46437 z M 65.58922,145.1123 c 2.90267,-1.10855 3.68354,-1.83775 3.68354,-3.43981 0,-3.95662 -2.7555,-5.47285 -9.94597,-5.47285 -8.34072,0 -9.8329,0.78111 -9.8329,5.14723 0,2.29927 0.47717,3.64475 1.50491,4.24335 2.32398,1.35359 10.49554,1.08593 14.59042,-0.47792 z m 213.8801,0.0554 c 1.38858,-1.38858 1.75182,-4.34397 0.82937,-6.74785 -0.77288,-2.01408 -17.96203,-2.01408 -18.7349,0 -2.01325,5.24644 1.62861,7.95627 10.81093,8.0442 4.13163,0.0396 6.12245,-0.3242 7.0946,-1.29635 z M 95.50126,138.41211 c 16.51303,-2.15759 37.03049,-3.25238 63.33011,-3.37923 l 25.53251,-0.12316 1.87737,-4.52464 c 5.88522,-14.18393 23.65651,-21.15244 37.13113,-14.55991 2.9349,1.4359 6.61354,4.27933 9.20579,7.11567 3.9804,4.35519 5.23377,6.96957 7.42915,15.49638 0.24214,0.94047 8.05679,2.42726 8.80823,1.67583 0.21558,-0.21559 -1.40157,-13.27736 -3.59366,-29.02616 -2.89091,-20.7694 -4.33753,-28.89736 -5.26691,-29.59237 -1.83468,-1.37202 -13.52846,-3.55509 -27.95255,-5.21838 -9.48321,-1.09353 -20.53559,-1.44858 -46.41518,-1.49103 -37.02031,-0.0608 -54.55878,1.1823 -69.45786,4.92279 l -7.50774,1.88487 -3.59184,25.79852 c -1.97551,14.18919 -3.8447,27.49207 -4.15375,29.56196 l -0.56191,3.76344 2.86382,-0.53431 c 1.57511,-0.29387 7.12059,-1.09049 12.32329,-1.77027 z m 133.72236,-1.39522 c 0,-1.28069 -2.52846,-6.11208 -4.18847,-8.00335 -0.77067,-0.87803 -2.77363,-2.29689 -4.45103,-3.15302 -7.74984,-3.95543 -15.20307,-2.84145 -21.21546,3.17093 -5.58876,5.58877 -5.21016,6.04658 5.56135,6.72481 7.91552,0.4984 21.57815,1.68219 23.64865,2.04901 0.35473,0.0629 0.64496,-0.29192 0.64496,-0.78838 z"
     id="path988" />
  <path
     style="fill:#000000;stroke-width:0.85995"
     d="m 234.8133,259.52626 c -0.94594,-0.23134 -2.58351,-0.60462 -3.63902,-0.82952 -2.76767,-0.58974 -8.03347,-5.4849 -9.38834,-8.72754 -0.639,-1.52937 -1.16183,-4.72798 -1.16183,-7.10803 v -4.32738 H 164.7273 108.8305 l -0.0142,4.94472 c -0.0179,6.25288 -2.56825,11.04028 -7.31297,13.72754 -2.96014,1.67654 -4.67524,1.94018 -12.70101,1.95242 -7.56538,0.0115 -9.89419,-0.29984 -12.61185,-1.68629 -4.72647,-2.41126 -6.98879,-6.04921 -8.08293,-12.99782 l -0.93541,-5.94057 h -5.82932 -5.82932 v -40.73775 -40.73776 l -3.53008,-0.56449 c -8.3833,-1.34054 -12.80899,-6.37093 -12.80899,-14.55914 0,-6.3529 1.88415,-10.40992 6.14362,-13.2287 2.7155,-1.79703 4.62014,-2.2514 10.82998,-2.58357 4.14425,-0.22168 9.2659,-0.001 11.38146,0.489 2.11555,0.49064 3.95337,0.78516 4.08403,0.6545 0.13065,-0.13066 1.81384,-11.23452 3.7404,-24.67524 3.94642,-27.53232 3.86115,-27.31365 12.02071,-30.8238 11.54712,-4.96743 28.87103,-6.91284 67.03322,-7.52758 52.79638,-0.85047 84.08553,2.71824 93.6105,10.67681 l 2.88569,2.41114 3.54139,25.16252 3.54139,25.16252 2.60241,-0.67102 c 1.43132,-0.36906 6.47218,-0.66433 11.20191,-0.65614 9.84358,0.017 12.61916,1.05128 16.5096,6.15191 2.08139,2.72886 2.40932,3.93779 2.40932,8.88235 0,4.94455 -0.32793,6.15349 -2.40932,8.88233 -2.80471,3.67716 -5.89931,5.46373 -10.82965,6.25211 l -3.53007,0.56449 v 40.73776 40.73775 h -6.01966 -6.01966 v 3.89741 c 0,6.67233 -3.47055,12.7753 -8.85878,15.57818 -2.41697,1.25727 -15.00739,2.30491 -18.22967,1.51688 z M 97.65153,247.56281 c 0.58902,-0.70972 1.26719,-3.03159 1.50706,-5.15971 l 0.43613,-3.86931 H 89.16347 78.73222 v 4.12777 c 0,2.27027 0.46437,4.59213 1.03194,5.1597 1.60331,1.60331 16.52113,1.38777 17.88737,-0.25845 z M 250.00971,247.43 c 1.06389,-0.9628 1.57263,-2.63198 1.57263,-5.15971 v -3.7365 h -10.31941 -10.31941 v 3.80836 c 0,5.68134 1.28682,6.51105 10.09814,6.51105 5.67474,0 7.76133,-0.33114 8.96805,-1.4232 z m 13.61194,-55.67016 v -36.45453 l -3.43861,-1.37586 c -15.18327,-6.07515 -74.78675,-10.19799 -120.29241,-8.32077 -41.15237,1.69763 -69.89406,5.80371 -72.31716,10.33133 -0.55977,1.04593 -0.88056,14.51044 -0.88056,36.95986 v 35.31451 h 98.46437 98.46437 z M 65.83296,144.9682 c 3.34515,-1.63182 4.16223,-4.01205 2.267,-6.60394 -0.99275,-1.35765 -2.48845,-1.75373 -7.55703,-2.00119 -3.47562,-0.16968 -7.3835,0.10152 -8.68418,0.60269 -2.03041,0.78235 -2.36486,1.39465 -2.36486,4.32957 0,2.34836 0.47106,3.69272 1.50491,4.29489 2.40269,1.39943 11.46965,1.01924 14.83416,-0.62202 z m 213.63636,0.1995 c 1.59921,-1.59922 1.78048,-5.61509 0.31941,-7.07617 -1.39996,-1.39996 -16.31502,-1.39996 -17.71499,0 -0.56756,0.56757 -1.03194,2.04527 -1.03194,3.28379 0,3.19287 4.06727,5.01915 11.33292,5.08873 4.13163,0.0396 6.12245,-0.3242 7.0946,-1.29635 z M 95.42064,138.39469 c 16.61875,-2.14963 37.0882,-3.23485 63.41073,-3.36182 l 25.53251,-0.12315 1.87737,-4.52464 c 5.88522,-14.18393 23.65651,-21.15244 37.13113,-14.55992 8.23035,4.02673 16.17065,14.50029 16.17065,21.32967 0,1.58142 0.9323,2.02471 6.23464,2.96445 2.49886,0.44286 3.22482,0.29258 3.22482,-0.66759 0,-3.09441 -7.90065,-57.06594 -8.43175,-57.59959 -1.11107,-1.11643 -10.86415,-3.28727 -20.3766,-4.53542 -36.27627,-4.75989 -100.54007,-3.51569 -124.11228,2.40294 l -7.46021,1.87314 -3.59184,25.79853 c -1.97551,14.18919 -3.84558,27.49794 -4.1557,29.57499 l -0.56387,3.77648 2.78517,-0.55703 c 1.53184,-0.30637 7.0782,-1.11234 12.32523,-1.79104 z m 133.80298,-1.59671 c 0,-0.61686 -1.14096,-2.92068 -2.53547,-5.11959 -6.07509,-9.57942 -19.1018,-10.86462 -27.27545,-2.69097 -5.63662,5.63661 -5.26724,6.08979 5.51731,6.76884 7.91552,0.4984 21.57815,1.68219 23.64865,2.04901 0.35473,0.0628 0.64496,-0.39043 0.64496,-1.00729 z"
     id="path990" />
  <path
     style="fill:#000000;stroke-width:0.85995"
     d="m 264.6966,144.29656 c -2.05475,-0.89858 -2.79485,-1.77746 -2.79485,-3.3189 0,-2.95006 1.02002,-3.3161 9.2406,-3.3161 7.69762,0 8.77905,0.52965 8.8052,4.31249 0.007,1.04755 -0.73534,2.30523 -1.6502,2.79484 -2.34625,1.25568 -10.27939,0.98017 -13.60075,-0.47233 z"
     id="path992" />
  <path
     style="fill:#000000;stroke-width:0.85995"
     d="m 232.83541,246.96131 c -0.56756,-0.56757 -1.03194,-2.50245 -1.03194,-4.29975 v -3.26781 h 9.45946 9.45946 v 2.63638 c 0,5.34146 -0.97139,5.96312 -9.31773,5.96312 -4.71575,0 -7.92361,-0.3863 -8.56925,-1.03194 z"
     id="path994" />
  <path
     style="fill:#000000;stroke-width:0.85995"
     d="m 234.8133,259.52626 c -0.94594,-0.23134 -2.58351,-0.60462 -3.63902,-0.82952 -2.76767,-0.58974 -8.03347,-5.4849 -9.38834,-8.72754 -0.639,-1.52937 -1.16183,-4.72798 -1.16183,-7.10803 v -4.32738 H 164.7273 108.8305 l -0.0142,4.94472 c -0.0179,6.25288 -2.56825,11.04028 -7.31297,13.72754 -2.96014,1.67654 -4.67524,1.94018 -12.70101,1.95242 -7.56538,0.0115 -9.89419,-0.29984 -12.61185,-1.68629 -4.72647,-2.41126 -6.98879,-6.04921 -8.08293,-12.99782 l -0.93541,-5.94057 h -5.82932 -5.82932 v -40.73775 -40.73776 l -3.53008,-0.56449 c -8.3833,-1.34054 -12.80899,-6.37093 -12.80899,-14.55914 0,-6.3906 1.88708,-10.41186 6.23689,-13.29043 2.84288,-1.88132 4.58603,-2.29617 10.82997,-2.57738 4.09296,-0.18433 9.17264,0.0635 11.2882,0.55073 2.11556,0.48723 3.95337,0.77897 4.08403,0.64831 0.13065,-0.13066 1.8149,-11.23452 3.74275,-24.67524 3.01766,-21.03872 3.76531,-24.71844 5.37543,-26.45626 4.43366,-4.78529 14.41712,-7.82275 33.49975,-10.19226 15.50889,-1.92575 81.80086,-2.2175 97.79311,-0.43039 19.9055,2.22442 33.33559,5.99156 37.40971,10.4934 1.21809,1.34597 2.32713,7.20337 5.05717,26.70931 3.35459,23.96831 3.5678,24.96251 5.23861,24.42674 3.65429,-1.1718 16.41748,-1.43174 20.19945,-0.4114 13.67161,3.68852 15.14443,22.61998 2.21662,28.49227 -1.91145,0.86824 -4.53956,1.58714 -5.84024,1.59753 l -2.36486,0.0189 v 40.84766 40.84766 h -6.01966 -6.01966 v 3.89741 c 0,6.67233 -3.47055,12.7753 -8.85878,15.57819 -2.41697,1.25726 -15.00739,2.30491 -18.22967,1.51687 z M 97.1441,247.72597 c 0.94672,-0.69226 1.71697,-2.68328 1.9961,-5.1597 l 0.45452,-4.03248 H 89.16347 78.73222 v 4.12777 c 0,2.27027 0.46437,4.59213 1.03194,5.1597 1.45314,1.45314 15.36666,1.37685 17.37994,-0.0953 z M 250.00971,247.43 c 1.06389,-0.9628 1.57263,-2.63198 1.57263,-5.15971 v -3.7365 h -10.31941 -10.31941 v 3.80836 c 0,5.68134 1.28682,6.51105 10.09814,6.51105 5.67474,0 7.76133,-0.33114 8.96805,-1.4232 z m 13.61194,-55.67016 v -36.45453 l -3.43861,-1.37586 c -14.99859,-6.00125 -74.4878,-10.13526 -119.77608,-8.32344 -41.04837,1.64219 -70.41146,5.80838 -72.83349,10.334 -0.55977,1.04593 -0.88056,14.51044 -0.88056,36.95986 v 35.31451 h 98.46437 98.46437 z M 64.279,145.50778 c 3.77887,-1.13217 5.14961,-2.93674 4.40208,-5.79528 -0.65227,-2.4943 -3.47285,-3.51286 -9.72773,-3.51286 -7.68647,0 -9.45946,0.95509 -9.45946,5.09569 0,2.34836 0.47106,3.69272 1.50491,4.29489 2.04995,1.19398 9.16736,1.1498 13.2802,-0.0824 z m 214.63043,-0.32742 c 2.10558,-1.47481 2.58978,-5.37835 0.8793,-7.08883 -1.56762,-1.56763 -16.5183,-1.39117 -17.84769,0.21065 -1.80006,2.16894 -0.69199,5.09577 2.54057,6.71062 3.82185,1.90923 11.80881,2.00199 14.42782,0.16756 z M 95.42064,138.39469 c 16.57731,-2.14427 36.78696,-3.21491 63.27453,-3.35207 l 25.66767,-0.1329 1.87789,-4.52464 c 5.88708,-14.18449 23.6571,-21.1524 37.13165,-14.55992 8.23035,4.02673 16.17065,14.50029 16.17065,21.32967 0,1.58142 0.9323,2.02471 6.23464,2.96445 2.50062,0.44318 3.22482,0.29286 3.22482,-0.66937 0,-1.84592 -7.68826,-55.97498 -8.11401,-57.12648 C 240.3225,80.79265 226.66947,77.92916 212.88456,76.4501 195.12357,74.54441 156.65613,73.84356 135.83205,75.04625 118.25916,76.06118 99.49314,78.429 92.4945,80.51443 l -3.86673,1.15219 -3.52702,25.33162 c -1.93987,13.93239 -3.81131,27.22452 -4.15877,29.53807 l -0.63174,4.20645 2.78517,-0.55703 c 1.53184,-0.30637 7.0782,-1.11234 12.32523,-1.79104 z m 133.80298,-1.47453 c 0,-0.54967 -0.97773,-2.66776 -2.17273,-4.70687 -4.58556,-7.82466 -15.17895,-10.77632 -23.36099,-6.50913 -4.047,2.11062 -8.70568,7.56176 -7.49172,8.76609 0.42751,0.42411 7.5494,1.22151 15.82643,1.772 8.27702,0.55049 15.21037,1.15308 15.40745,1.33909 0.73519,0.69393 1.79156,0.30408 1.79156,-0.66118 z"
     id="path996" />
  <path
     style="fill:#000000;stroke-width:0.85995"
     d="m 51.38578,144.62716 c -1.63516,-1.63517 -1.25377,-5.66843 0.63143,-6.67736 0.91485,-0.48962 4.20417,-0.89021 7.30958,-0.89021 4.55665,0 5.98849,0.34227 7.41986,1.77365 2.2632,2.2632 1.85651,3.44873 -1.82485,5.31961 -3.42027,1.73819 -11.97246,2.03787 -13.53602,0.47431 z"
     id="path998" />
  <path
     style="fill:#000000;stroke-width:0.85995"
     d="M 11.65605,302.60013 V 294.4306 H 257.602 503.54794 v 8.16953 8.16953 H 257.602 11.65605 Z"
     id="path1000" />
  <path
     style="fill:#000000;stroke-width:0.85995"
     d="M 11.65605,19.6763 V 11.50676 H 257.602 503.54794 v 8.16954 8.16953 H 257.602 11.65605 Z"
     id="path1002" />
  <path
     style="fill:#000000;stroke-width:0.85995"
     d="m 232.66342,355.05713 v -33.1081 h 24.93858 24.93857 v 33.1081 33.10811 H 257.602 232.66342 Z"
     id="path1004" />
</svg>
